<svg width="241" height="221" viewBox="0 0 241 221" fill="none" xmlns="http://www.w3.org/2000/svg">
<circle cx="118.984" cy="11.3039" r="11.3039" fill="#DDDDDD"/>
<path d="M101.942 31.6854C102.26 29.1885 104.385 27.3175 106.902 27.3175H131.065C133.582 27.3175 135.707 29.1885 136.025 31.6854L140.873 69.7269C141.254 72.715 138.926 75.359 135.914 75.359H102.053C99.0411 75.359 96.7127 72.715 97.0936 69.7269L101.942 31.6854Z" fill="#DDDDDD"/>
<path d="M106.388 76.1817C106.072 73.2264 108.388 70.6491 111.36 70.6491H126.086C129.076 70.6491 131.398 73.2556 131.053 76.2256L126.091 118.977C125.798 121.499 123.663 123.401 121.124 123.401H115.94C113.385 123.401 111.241 121.474 110.969 118.933L106.388 76.1817Z" fill="#DDDDDD"/>
<circle cx="90.7237" cy="16.0782" r="10.3619" fill="#DDDDDD"/>
<path d="M75.056 35.1252C75.3742 32.6284 77.4989 30.7573 80.0159 30.7573H101.432C103.949 30.7573 106.073 32.6284 106.392 35.1252L110.73 69.1632C111.111 72.1514 108.782 74.7954 105.77 74.7954H75.6777C72.6654 74.7954 70.337 72.1514 70.7178 69.1632L75.056 35.1252Z" fill="#DDDDDD"/>
<path d="M79.2277 76.0106C78.9111 73.0553 81.227 70.4779 84.1992 70.4779H96.767C99.7569 70.4779 102.078 73.0845 101.734 76.0544L97.2817 114.41C96.989 116.931 94.8534 118.833 92.315 118.833H88.3088C85.7535 118.833 83.6094 116.907 83.3372 114.366L79.2277 76.0106Z" fill="#DDDDDD"/>
<circle cx="148.185" cy="16.0782" r="10.3619" fill="#DDDDDD"/>
<path d="M132.517 35.1252C132.836 32.6284 134.96 30.7573 137.477 30.7573H158.893C161.41 30.7573 163.535 32.6284 163.853 35.1252L168.191 69.1632C168.572 72.1514 166.244 74.7954 163.231 74.7954H133.139C130.127 74.7954 127.798 72.1514 128.179 69.1632L132.517 35.1252Z" fill="#DDDDDD"/>
<path d="M136.689 76.0106C136.372 73.0553 138.688 70.4779 141.661 70.4779H154.228C157.218 70.4779 159.54 73.0845 159.195 76.0544L154.743 114.41C154.45 116.931 152.315 118.833 149.776 118.833H145.77C143.215 118.833 141.071 116.907 140.799 114.366L136.689 76.0106Z" fill="#DDDDDD"/>
<path d="M183.427 205.431C184.52 206.524 185.941 207.07 187.361 207.07C188.782 207.07 190.203 206.524 191.296 205.431L216.376 180.35L217.141 181.115C217.25 181.225 217.414 181.279 217.523 181.279C217.633 181.279 217.797 181.225 217.906 181.115C218.124 180.897 218.124 180.569 217.906 180.35L208.508 171.007C208.289 170.788 207.961 170.788 207.743 171.007C207.524 171.225 207.524 171.553 207.743 171.772L208.508 172.537L183.427 197.617C182.389 198.655 181.788 200.076 181.788 201.551C181.843 203.027 182.389 204.393 183.427 205.431ZM184.247 198.382L209.273 173.302L215.556 179.585L212.332 182.809L210.201 180.678C209.983 180.46 209.655 180.46 209.437 180.678C209.218 180.897 209.218 181.225 209.437 181.443L211.568 183.574L209.983 185.159L207.852 183.028C207.633 182.809 207.306 182.809 207.087 183.028C206.868 183.246 206.868 183.574 207.087 183.793L209.218 185.924L207.633 187.508L205.502 185.377C205.284 185.159 204.956 185.159 204.737 185.377C204.519 185.596 204.519 185.924 204.737 186.142L206.868 188.273L205.284 189.858L203.153 187.727C202.934 187.508 202.606 187.508 202.388 187.727C202.169 187.946 202.169 188.273 202.388 188.492L204.519 190.623L202.934 192.208L200.803 190.077C200.585 189.858 200.257 189.858 200.038 190.077C199.82 190.295 199.82 190.623 200.038 190.842L202.169 192.973L200.585 194.557L198.454 192.426C198.235 192.208 197.907 192.208 197.689 192.426C197.47 192.645 197.47 192.973 197.689 193.191L199.82 195.322L198.235 196.907L196.159 194.83C195.94 194.612 195.612 194.612 195.394 194.83C195.175 195.049 195.175 195.377 195.394 195.595L197.525 197.726L195.94 199.311L193.809 197.18C193.591 196.961 193.263 196.961 193.044 197.18C192.826 197.398 192.826 197.726 193.044 197.945L195.175 200.076L190.531 204.72C188.782 206.469 185.995 206.469 184.247 204.775C183.427 203.955 182.936 202.808 182.936 201.606C182.936 200.404 183.373 199.256 184.247 198.382Z" fill="#C4C4C4"/>
<path d="M212.824 171.827C214.19 171.827 215.283 170.734 215.283 169.368C215.283 168.002 214.19 166.854 212.824 166.854C211.458 166.854 210.365 167.947 210.365 169.313C210.365 170.679 211.458 171.827 212.824 171.827ZM212.824 167.947C213.589 167.947 214.19 168.548 214.19 169.313C214.19 170.078 213.589 170.679 212.824 170.679C212.059 170.679 211.458 170.078 211.458 169.313C211.458 168.548 212.059 167.947 212.824 167.947Z" fill="#C4C4C4"/>
<path d="M203.043 173.794C204.409 173.794 205.502 172.701 205.502 171.335C205.502 169.969 204.409 168.876 203.043 168.876C201.677 168.876 200.585 169.969 200.585 171.335C200.585 172.701 201.677 173.794 203.043 173.794ZM203.043 169.969C203.808 169.969 204.409 170.57 204.409 171.335C204.409 172.1 203.808 172.701 203.043 172.701C202.278 172.701 201.677 172.1 201.677 171.335C201.677 170.57 202.278 169.969 203.043 169.969Z" fill="#C4C4C4"/>
<path d="M216.212 185.159C214.846 185.159 213.753 186.252 213.753 187.618C213.753 188.984 214.846 190.077 216.212 190.077C217.578 190.077 218.671 188.984 218.671 187.618C218.671 186.252 217.578 185.159 216.212 185.159ZM216.212 189.038C215.447 189.038 214.846 188.437 214.846 187.672C214.846 186.907 215.447 186.306 216.212 186.306C216.977 186.306 217.578 186.907 217.578 187.672C217.578 188.383 216.977 189.038 216.212 189.038Z" fill="#C4C4C4"/>
<path d="M218.452 169.259C219.545 169.259 220.419 168.384 220.419 167.291C220.419 166.199 219.545 165.324 218.452 165.324C217.359 165.324 216.485 166.199 216.485 167.291C216.485 168.384 217.359 169.259 218.452 169.259ZM218.452 166.417C218.944 166.417 219.327 166.8 219.327 167.291C219.327 167.783 218.944 168.166 218.452 168.166C217.961 168.166 217.578 167.783 217.578 167.291C217.578 166.8 217.961 166.417 218.452 166.417Z" fill="#C4C4C4"/>
<path d="M220.747 181.99C219.655 181.99 218.78 182.864 218.78 183.957C218.78 185.05 219.655 185.924 220.747 185.924C221.84 185.924 222.714 185.05 222.714 183.957C222.714 182.864 221.84 181.99 220.747 181.99ZM220.747 184.832C220.256 184.832 219.873 184.449 219.873 183.957C219.873 183.466 220.256 183.083 220.747 183.083C221.239 183.083 221.622 183.466 221.622 183.957C221.622 184.394 221.239 184.832 220.747 184.832Z" fill="#C4C4C4"/>
<path d="M218.124 177.072C219.873 177.072 221.294 175.651 221.294 173.902C221.294 172.154 219.873 170.733 218.124 170.733C216.376 170.733 214.955 172.154 214.955 173.902C214.955 175.651 216.376 177.072 218.124 177.072ZM218.124 171.826C219.272 171.826 220.201 172.755 220.201 173.902C220.201 175.05 219.272 175.979 218.124 175.979C216.977 175.979 216.048 175.05 216.048 173.902C216.048 172.755 216.977 171.826 218.124 171.826Z" fill="#C4C4C4"/>
<path d="M136.448 189.857V191.9C136.448 192.976 137.309 193.89 138.386 193.997V200.504C138.386 203.516 140.862 205.99 143.876 205.99C146.89 205.99 149.366 203.516 149.366 200.504V196.31C149.366 193.89 151.357 191.9 153.779 191.9C156.094 191.9 157.977 193.729 158.193 195.987C156.847 196.095 155.824 197.224 155.824 198.569V199.16C155.824 200.612 157.009 201.795 158.462 201.795H159.054C160.507 201.795 161.691 200.612 161.691 199.16V198.569C161.691 197.17 160.615 196.095 159.269 195.933C159.054 193.083 156.686 190.825 153.779 190.825C150.765 190.825 148.289 193.298 148.289 196.31V200.504C148.289 202.924 146.298 204.914 143.876 204.914C141.454 204.914 139.462 202.924 139.462 200.504V193.997C140.539 193.89 141.346 193.029 141.346 191.9V189.91C143.768 189.48 146.029 188.297 147.859 186.522C150.173 184.21 151.465 181.091 151.465 177.81C151.465 174.53 150.173 171.411 147.859 169.099L147.913 168.399C148.074 167.109 147.159 165.926 145.813 165.764C144.522 165.603 143.338 166.571 143.176 167.862L143.068 168.991C143.015 169.636 143.176 170.228 143.553 170.712C143.93 171.196 144.522 171.519 145.114 171.572C145.221 171.572 145.275 171.572 145.383 171.572C145.921 171.572 146.405 171.411 146.836 171.035C147.105 170.819 147.32 170.551 147.482 170.228C149.312 172.271 150.335 174.906 150.335 177.703C150.335 180.714 149.15 183.565 147.051 185.662C142.638 190.072 135.479 190.072 131.066 185.662C126.868 181.467 126.706 174.799 130.474 170.335C130.904 171.035 131.658 171.465 132.465 171.465C132.573 171.465 132.627 171.465 132.734 171.465C133.38 171.411 133.919 171.088 134.295 170.604C134.672 170.12 134.887 169.475 134.78 168.883L134.672 167.754C134.511 166.463 133.326 165.549 132.035 165.657C130.743 165.818 129.828 167.001 129.936 168.292L130.043 169.206C125.414 174.046 125.468 181.736 130.205 186.469C132.089 188.243 134.188 189.373 136.448 189.857ZM159 197.009C159.861 197.009 160.561 197.708 160.561 198.569V199.16C160.561 200.02 159.861 200.72 159 200.72H158.408C157.547 200.72 156.847 200.02 156.847 199.16V198.569C156.847 197.708 157.547 197.009 158.408 197.009H159ZM146.836 168.238L146.728 169.367C146.675 169.69 146.513 170.013 146.244 170.228C145.975 170.443 145.652 170.551 145.275 170.497C144.952 170.443 144.629 170.282 144.414 170.013C144.199 169.744 144.091 169.421 144.145 169.045L144.253 167.915C144.306 167.27 144.898 166.786 145.544 166.786C145.598 166.786 145.652 166.786 145.706 166.786C146.405 166.894 146.944 167.539 146.836 168.238ZM137.525 190.072C138.063 190.125 138.547 190.179 139.086 190.179C139.462 190.179 139.893 190.179 140.27 190.125V191.9C140.27 192.438 139.839 192.922 139.247 192.922H138.547C138.009 192.922 137.525 192.492 137.525 191.9V190.072ZM132.304 166.84C132.358 166.84 132.411 166.84 132.465 166.84C132.734 166.84 133.057 166.947 133.273 167.109C133.542 167.324 133.703 167.647 133.757 167.969L133.865 169.099C133.919 169.421 133.811 169.798 133.596 170.067C133.38 170.335 133.057 170.497 132.734 170.551C132.035 170.604 131.389 170.12 131.281 169.421L131.174 168.238C131.066 167.539 131.604 166.894 132.304 166.84Z" fill="#C4C4C4"/>
<path d="M21.1774 205.699C21.1774 206.015 21.3843 206.225 21.6946 206.225H53.4011C53.7115 206.225 53.9184 206.015 53.9184 205.699V201.913C53.9184 201.597 53.7115 201.387 53.4011 201.387H43.9874C48.9012 199.494 52.4184 194.656 52.4184 189.029C52.4184 183.77 49.3667 179.09 44.6598 176.934C44.7116 176.723 44.7116 176.566 44.7116 176.355C44.7116 175.777 44.5564 175.146 44.1943 174.672L47.0391 171.885C47.1426 171.78 47.1943 171.675 47.1943 171.517C47.1943 171.359 47.1426 171.254 47.0391 171.149L46.8322 170.939L47.1943 170.571C47.9184 169.887 47.9702 168.677 47.246 167.941L46.4184 167.047C45.746 166.311 44.5564 166.258 43.8323 166.995L43.4702 167.363L43.2633 167.152C43.0564 166.942 42.7461 166.942 42.5392 167.152L26.4014 182.823C26.1945 183.034 26.1945 183.349 26.4014 183.56L26.867 184.086L25.729 185.19C25.6256 185.295 25.5739 185.4 25.5739 185.558C25.5739 185.716 25.6256 185.821 25.729 185.926L27.9531 188.293C28.0566 188.398 28.2118 188.45 28.3152 188.45C28.4187 188.45 28.5738 188.398 28.6773 188.293L29.8152 187.188L30.1773 187.556C30.2807 187.662 30.3842 187.714 30.5393 187.714C30.6945 187.714 30.7979 187.662 30.9014 187.556L39.953 178.774C40.4702 179.142 41.0909 179.405 41.7116 179.405C42.7978 179.405 43.7288 178.827 44.2461 177.933C48.5391 179.879 51.3322 184.191 51.3322 189.029C51.3322 195.707 45.9529 201.177 39.384 201.177C35.1427 201.177 31.2635 198.915 29.0911 195.182H34.7807C35.091 195.182 35.2979 194.971 35.2979 194.656V191.816C35.2979 191.5 35.091 191.29 34.7807 191.29H22.2636C21.9532 191.29 21.7463 191.5 21.7463 191.816V194.656C21.7463 194.971 21.9532 195.182 22.2636 195.182H27.9531C27.9531 195.234 27.9531 195.287 28.0049 195.339C29.5049 198.179 31.9876 200.283 34.8841 201.387H21.6946C21.3843 201.387 21.1774 201.597 21.1774 201.913V205.699ZM44.6081 167.783C44.9185 167.468 45.4357 167.468 45.746 167.836L46.5736 168.73C46.7288 168.888 46.7805 169.098 46.7805 169.308C46.7805 169.519 46.6771 169.729 46.5219 169.887L46.1598 170.202L44.2461 168.152L44.6081 167.783ZM28.2635 187.188L26.7635 185.611L27.5394 184.874L29.0393 186.452L28.2635 187.188ZM41.7633 178.354C41.4013 178.354 41.0392 178.248 40.7289 178.038L43.4185 175.409C43.5737 175.724 43.6771 176.04 43.6771 176.355C43.6771 177.46 42.8495 178.354 41.7633 178.354ZM30.4876 186.505L27.4359 183.244L42.9012 168.309L45.9529 171.57L30.4876 186.505ZM22.7808 194.13V192.342H34.2634V194.13H22.7808ZM22.2118 202.439H52.8839V205.173H22.2118V202.439Z" fill="#C4C4C4"/>
<path d="M72.3331 201.849C72.1742 202.125 72.2685 202.476 72.5437 202.635C72.8189 202.794 73.1708 202.7 73.3297 202.425C73.8592 201.508 74.4499 200.753 75.0878 200.118L85.5512 206.159C85.3202 207.029 84.9617 207.918 84.4323 208.835C84.2734 209.11 84.3677 209.462 84.6429 209.621C84.9181 209.78 85.27 209.685 85.4289 209.41C88.2177 204.58 86.837 200.397 85.2857 196.371C89.548 195.702 93.8605 194.806 96.6493 189.976C99.438 185.146 98.0574 180.963 96.506 176.937C100.768 176.268 105.081 175.372 107.87 170.542C108.029 170.267 107.934 169.915 107.659 169.756C107.384 169.597 107.032 169.691 106.873 169.966C106.344 170.883 105.753 171.638 105.115 172.273L94.6515 166.232C94.8825 165.362 95.241 164.473 95.7704 163.556C95.9293 163.281 95.835 162.929 95.5598 162.77C95.2846 162.611 94.9327 162.706 94.7738 162.981C91.9851 167.811 93.3657 171.994 94.9171 176.02C90.6547 176.689 86.3422 177.585 83.5535 182.415C80.7647 187.245 82.1454 191.428 83.6967 195.454C79.4344 196.123 75.1218 197.019 72.3331 201.849ZM84.5501 182.99C85.0895 182.056 85.6929 181.291 86.3447 180.649L96.7831 186.676C96.5529 187.561 96.192 188.466 95.6527 189.401C95.1133 190.335 94.5099 191.1 93.8581 191.742L83.4196 185.715C83.6499 184.83 84.0107 183.925 84.5501 182.99ZM94.4161 167.425L104.2 173.074C101.882 174.863 99.0482 175.378 96.0809 175.839C94.9966 173.038 94.0254 170.327 94.4161 167.425ZM95.3422 177.118C96.4202 179.902 97.387 182.598 97.0146 185.48L87.2641 179.851C89.5742 178.087 92.3923 177.577 95.3422 177.118ZM83.1882 186.911L92.9387 192.54C90.6285 194.304 87.8104 194.815 84.8605 195.273C83.7826 192.489 82.8158 189.793 83.1882 186.911ZM84.1219 196.552C85.2062 199.353 86.1773 202.064 85.7867 204.966L76.0032 199.317C78.3208 197.528 81.1546 197.013 84.1219 196.552Z" fill="#C4C4C4"/>
<rect x="1" y="152" width="238.94" height="67.5671" rx="9" stroke="#C4C4C4" stroke-width="2"/>
</svg>
