<svg width="269" height="75" viewBox="0 0 269 75" fill="none" xmlns="http://www.w3.org/2000/svg">
<path d="M133.016 73.781C133.797 74.562 135.063 74.562 135.844 73.781L148.572 61.0531C149.353 60.272 149.353 59.0057 148.572 58.2246C147.791 57.4436 146.525 57.4436 145.744 58.2246L134.43 69.5383L123.116 58.2246C122.335 57.4436 121.069 57.4436 120.288 58.2246C119.507 59.0057 119.507 60.272 120.288 61.0531L133.016 73.781ZM132.43 38.7417L132.43 72.3668L136.43 72.3668L136.43 38.7417L132.43 38.7417Z" fill="#ED5939"/>
<path d="M13.8969 73.781C14.678 74.562 15.9443 74.562 16.7254 73.781L29.4533 61.0531C30.2343 60.272 30.2343 59.0057 29.4533 58.2246C28.6722 57.4436 27.4059 57.4436 26.6249 58.2246L15.3112 69.5383L3.99745 58.2246C3.2164 57.4436 1.95007 57.4436 1.16902 58.2246C0.387972 59.0057 0.387972 60.272 1.16902 61.0531L13.8969 73.781ZM13.3112 38.7417L13.3112 72.3668L17.3112 72.3668L17.3112 38.7417L13.3112 38.7417Z" fill="#ED5939"/>
<path d="M252.324 73.781C253.105 74.562 254.372 74.562 255.153 73.781L267.881 61.0531C268.662 60.272 268.662 59.0057 267.881 58.2246C267.1 57.4436 265.833 57.4436 265.052 58.2246L253.739 69.5383L242.425 58.2246C241.644 57.4436 240.378 57.4436 239.597 58.2246C238.815 59.0057 238.815 60.272 239.597 61.0531L252.324 73.781ZM251.739 38.7417L251.739 72.3668L255.739 72.3668L255.739 38.7417L251.739 38.7417Z" fill="#ED5939"/>
<line x1="254" y1="40.7417" x2="15.3114" y2="40.7417" stroke="#ED5939" stroke-width="4"/>
<line x1="135" y1="-1.95837e-07" x2="135" y2="38.7419" stroke="#ED5939" stroke-width="4"/>
</svg>
