<svg width="196" height="242" viewBox="0 0 196 242" fill="none" xmlns="http://www.w3.org/2000/svg">
<circle cx="145.708" cy="72.9778" r="11.3039" fill="#DDDDDD"/>
<path d="M128.666 93.3593C128.985 90.8625 131.109 88.9915 133.626 88.9915H157.79C160.307 88.9915 162.431 90.8625 162.749 93.3593L167.598 131.401C167.979 134.389 165.65 137.033 162.638 137.033H128.778C125.765 137.033 123.437 134.389 123.818 131.401L128.666 93.3593Z" fill="#DDDDDD"/>
<path d="M133.113 137.856C132.796 134.9 135.112 132.323 138.084 132.323H152.811C155.801 132.323 158.122 134.93 157.777 137.9L152.815 180.651C152.523 183.172 150.387 185.075 147.849 185.075H142.665C140.11 185.075 137.966 183.148 137.693 180.607L133.113 137.856Z" fill="#DDDDDD"/>
<circle cx="117.448" cy="77.7522" r="10.3619" fill="#DDDDDD"/>
<path d="M101.78 96.7991C102.099 94.3023 104.223 92.4313 106.74 92.4313H128.156C130.673 92.4313 132.798 94.3023 133.116 96.7991L137.454 130.837C137.835 133.825 135.507 136.469 132.494 136.469H102.402C99.3897 136.469 97.0613 133.825 97.4422 130.837L101.78 96.7991Z" fill="#DDDDDD"/>
<path d="M105.952 137.685C105.635 134.729 107.951 132.152 110.924 132.152H123.491C126.481 132.152 128.803 134.758 128.458 137.728L124.006 176.084C123.713 178.605 121.578 180.507 119.039 180.507H115.033C112.478 180.507 110.334 178.581 110.062 176.04L105.952 137.685Z" fill="#DDDDDD"/>
<circle cx="174.91" cy="77.7522" r="10.3619" fill="#DDDDDD"/>
<path d="M159.242 96.7991C159.56 94.3023 161.685 92.4313 164.202 92.4313H185.617C188.135 92.4313 190.259 94.3023 190.577 96.7991L194.916 130.837C195.296 133.825 192.968 136.469 189.956 136.469H159.863C156.851 136.469 154.523 133.825 154.904 130.837L159.242 96.7991Z" fill="#DDDDDD"/>
<path d="M163.413 137.685C163.097 134.729 165.413 132.152 168.385 132.152H180.953C183.943 132.152 186.264 134.758 185.919 137.728L181.467 176.084C181.175 178.605 179.039 180.507 176.501 180.507H172.495C169.939 180.507 167.795 178.581 167.523 176.04L163.413 137.685Z" fill="#DDDDDD"/>
<path d="M16.3731 58.3621C17.4659 59.455 18.8866 60.0014 20.3073 60.0014C21.728 60.0014 23.1486 59.455 24.2414 58.3621L49.3217 33.2819L50.0867 34.0468C50.196 34.1561 50.3599 34.2108 50.4692 34.2108C50.5785 34.2108 50.7424 34.1561 50.8517 34.0468C51.0703 33.8283 51.0703 33.5004 50.8517 33.2819L41.4534 23.9382C41.2348 23.7197 40.907 23.7197 40.6884 23.9382C40.4699 24.1568 40.4699 24.4846 40.6884 24.7032L41.4534 25.4682L16.3731 50.5485C15.3349 51.5866 14.7339 53.0073 14.7339 54.4826C14.7885 55.9579 15.3349 57.324 16.3731 58.3621ZM17.1927 51.3134L42.2184 26.2331L48.5021 32.5169L45.2783 35.7407L43.1473 33.6097C42.9287 33.3911 42.6009 33.3911 42.3823 33.6097C42.1637 33.8283 42.1637 34.1561 42.3823 34.3747L44.5133 36.5057L42.9287 38.0903L40.7977 35.9593C40.5792 35.7407 40.2513 35.7407 40.0327 35.9593C39.8142 36.1778 39.8142 36.5057 40.0327 36.7242L42.1637 38.8553L40.5792 40.4398L38.4481 38.3088C38.2296 38.0903 37.9017 38.0903 37.6832 38.3088C37.4646 38.5274 37.4646 38.8553 37.6832 39.0738L39.8142 41.2048L38.2296 42.7894L36.0986 40.6584C35.88 40.4398 35.5522 40.4398 35.3336 40.6584C35.115 40.877 35.115 41.2048 35.3336 41.4234L37.4646 43.5544L35.88 45.139L33.749 43.008C33.5304 42.7894 33.2026 42.7894 32.984 43.008C32.7655 43.2265 32.7655 43.5544 32.984 43.773L35.115 45.904L33.5304 47.4886L31.3994 45.3575C31.1809 45.139 30.853 45.139 30.6345 45.3575C30.4159 45.5761 30.4159 45.904 30.6345 46.1225L32.7655 48.2535L31.1809 49.8381L29.1045 47.7618C28.8859 47.5432 28.5581 47.5432 28.3395 47.7618C28.121 47.9803 28.121 48.3082 28.3395 48.5267L30.4705 50.6577L28.8859 52.2423L26.7549 50.1113C26.5364 49.8928 26.2085 49.8928 25.99 50.1113C25.7714 50.3299 25.7714 50.6577 25.99 50.8763L28.121 53.0073L23.4765 57.6518C21.728 59.4003 18.9413 59.4003 17.1927 57.7065C16.3731 56.8868 15.8814 55.7394 15.8814 54.5373C15.8814 53.3352 16.3185 52.1877 17.1927 51.3134Z" fill="#C4C4C4"/>
<path d="M45.7701 24.7581C47.1362 24.7581 48.229 23.6653 48.229 22.2993C48.229 20.9332 47.1362 19.7858 45.7701 19.7858C44.4041 19.7858 43.3113 20.8786 43.3113 22.2446C43.3113 23.6106 44.4041 24.7581 45.7701 24.7581ZM45.7701 20.8786C46.5351 20.8786 47.1362 21.4796 47.1362 22.2446C47.1362 23.0096 46.5351 23.6106 45.7701 23.6106C45.0052 23.6106 44.4041 23.0096 44.4041 22.2446C44.4041 21.4796 45.0052 20.8786 45.7701 20.8786Z" fill="#C4C4C4"/>
<path d="M35.9891 26.7253C37.3552 26.7253 38.448 25.6325 38.448 24.2665C38.448 22.9004 37.3552 21.8076 35.9891 21.8076C34.6231 21.8076 33.5303 22.9004 33.5303 24.2665C33.5303 25.6325 34.6231 26.7253 35.9891 26.7253ZM35.9891 22.9004C36.7541 22.9004 37.3552 23.5015 37.3552 24.2665C37.3552 25.0314 36.7541 25.6325 35.9891 25.6325C35.2241 25.6325 34.6231 25.0314 34.6231 24.2665C34.6231 23.5015 35.2241 22.9004 35.9891 22.9004Z" fill="#C4C4C4"/>
<path d="M49.1578 38.0903C47.7918 38.0903 46.699 39.1832 46.699 40.5492C46.699 41.9152 47.7918 43.008 49.1578 43.008C50.5239 43.008 51.6167 41.9152 51.6167 40.5492C51.6167 39.1832 50.5239 38.0903 49.1578 38.0903ZM49.1578 41.9699C48.3929 41.9699 47.7918 41.3688 47.7918 40.6038C47.7918 39.8388 48.3929 39.2378 49.1578 39.2378C49.9228 39.2378 50.5239 39.8388 50.5239 40.6038C50.5239 41.3142 49.9228 41.9699 49.1578 41.9699Z" fill="#C4C4C4"/>
<path d="M51.3982 22.1899C52.4911 22.1899 53.3653 21.3156 53.3653 20.2228C53.3653 19.13 52.4911 18.2557 51.3982 18.2557C50.3054 18.2557 49.4312 19.13 49.4312 20.2228C49.4312 21.3156 50.3054 22.1899 51.3982 22.1899ZM51.3982 19.3486C51.89 19.3486 52.2725 19.731 52.2725 20.2228C52.2725 20.7146 51.89 21.0971 51.3982 21.0971C50.9065 21.0971 50.524 20.7146 50.524 20.2228C50.524 19.731 50.9065 19.3486 51.3982 19.3486Z" fill="#C4C4C4"/>
<path d="M53.6932 34.9216C52.6003 34.9216 51.7261 35.7959 51.7261 36.8887C51.7261 37.9815 52.6003 38.8558 53.6932 38.8558C54.786 38.8558 55.6602 37.9815 55.6602 36.8887C55.6602 35.7959 54.786 34.9216 53.6932 34.9216ZM53.6932 37.763C53.2014 37.763 52.8189 37.3805 52.8189 36.8887C52.8189 36.3969 53.2014 36.0145 53.6932 36.0145C54.1849 36.0145 54.5674 36.3969 54.5674 36.8887C54.5674 37.3258 54.1849 37.763 53.6932 37.763Z" fill="#C4C4C4"/>
<path d="M51.0703 30.003C52.8188 30.003 54.2395 28.5824 54.2395 26.8339C54.2395 25.0853 52.8188 23.6647 51.0703 23.6647C49.3218 23.6647 47.9011 25.0853 47.9011 26.8339C47.9011 28.5824 49.3218 30.003 51.0703 30.003ZM51.0703 24.7575C52.2178 24.7575 53.1467 25.6864 53.1467 26.8339C53.1467 27.9813 52.2178 28.9102 51.0703 28.9102C49.9228 28.9102 48.9939 27.9813 48.9939 26.8339C48.9939 25.6864 49.9228 24.7575 51.0703 24.7575Z" fill="#C4C4C4"/>
<path d="M27.1157 101.266V103.309C27.1157 104.385 27.9768 105.299 29.0533 105.407V111.914C29.0533 114.925 31.5292 117.399 34.5433 117.399C37.5573 117.399 40.0332 114.925 40.0332 111.914V107.719C40.0332 105.299 42.0247 103.309 44.4467 103.309C46.7611 103.309 48.6449 105.138 48.8602 107.396C47.5146 107.504 46.492 108.633 46.492 109.978V110.569C46.492 112.021 47.6761 113.204 49.1293 113.204H49.7214C51.1746 113.204 52.3587 112.021 52.3587 110.569V109.978C52.3587 108.58 51.2822 107.504 49.9366 107.343C49.7214 104.493 47.3531 102.234 44.4467 102.234C41.4326 102.234 38.9567 104.708 38.9567 107.719V111.914C38.9567 114.334 36.9653 116.324 34.5433 116.324C32.1212 116.324 30.1298 114.334 30.1298 111.914V105.407C31.2062 105.299 32.0136 104.439 32.0136 103.309V101.32C34.4356 100.889 36.6962 99.7063 38.5262 97.9317C40.8405 95.6193 42.1323 92.5002 42.1323 89.2198C42.1323 85.9393 40.8405 82.8203 38.5262 80.5078L38.58 79.8087C38.7415 78.5181 37.8265 77.335 36.4809 77.1736C35.1891 77.0123 34.005 77.9803 33.8436 79.271L33.7359 80.4003C33.6821 81.0456 33.8436 81.6372 34.2203 82.1212C34.5971 82.6051 35.1891 82.9278 35.7812 82.9816C35.8888 82.9816 35.9427 82.9816 36.0503 82.9816C36.5885 82.9816 37.0729 82.8203 37.5035 82.4438C37.7726 82.2287 37.9879 81.9598 38.1494 81.6372C39.9794 83.6807 41.002 86.3158 41.002 89.1122C41.002 92.1237 39.8179 94.9739 37.7188 97.0712C33.3053 101.481 26.1469 101.481 21.7334 97.0712C17.5352 92.8766 17.3737 86.2082 21.1413 81.7447C21.5719 82.4438 22.3254 82.874 23.1328 82.874C23.2404 82.874 23.2942 82.874 23.4019 82.874C24.0478 82.8203 24.586 82.4976 24.9628 82.0136C25.3395 81.5296 25.5548 80.8843 25.4472 80.2927L25.3395 79.1634C25.178 77.8727 23.9939 76.9585 22.7022 77.0661C21.4104 77.2274 20.4954 78.4105 20.6031 79.7012L20.7107 80.6154C16.082 85.4553 16.1358 93.1455 20.8722 97.8779C22.756 99.6526 24.8551 100.782 27.1157 101.266ZM49.6675 108.418C50.5287 108.418 51.2284 109.117 51.2284 109.978V110.569C51.2284 111.43 50.5287 112.129 49.6675 112.129H49.0755C48.2143 112.129 47.5146 111.43 47.5146 110.569V109.978C47.5146 109.117 48.2143 108.418 49.0755 108.418H49.6675ZM37.5035 79.6474L37.3959 80.7767C37.3421 81.0994 37.1806 81.422 36.9115 81.6372C36.6424 81.8523 36.3194 81.9598 35.9427 81.906C35.6197 81.8523 35.2968 81.6909 35.0815 81.422C34.8662 81.1532 34.7585 80.8305 34.8124 80.4541L34.92 79.3247C34.9738 78.6794 35.5659 78.1954 36.2118 78.1954C36.2656 78.1954 36.3194 78.1954 36.3732 78.1954C37.0729 78.303 37.6112 78.9483 37.5035 79.6474ZM28.1921 101.481C28.7304 101.535 29.2148 101.589 29.753 101.589C30.1298 101.589 30.5604 101.589 30.9371 101.535V103.309C30.9371 103.847 30.5065 104.331 29.9145 104.331H29.2148C28.6765 104.331 28.1921 103.901 28.1921 103.309V101.481ZM22.9713 78.2492C23.0251 78.2492 23.0789 78.2492 23.1328 78.2492C23.4019 78.2492 23.7248 78.3567 23.9401 78.5181C24.2092 78.7332 24.3707 79.0558 24.4245 79.3785L24.5322 80.5078C24.586 80.8305 24.4783 81.2069 24.2631 81.4758C24.0478 81.7447 23.7248 81.906 23.4019 81.9598C22.7022 82.0136 22.0563 81.5296 21.9487 80.8305L21.841 79.6474C21.7334 78.9483 22.2716 78.303 22.9713 78.2492Z" fill="#C4C4C4"/>
<path d="M18.9758 223.184C18.9758 223.5 19.1827 223.71 19.4931 223.71H51.1996C51.5099 223.71 51.7168 223.5 51.7168 223.184V219.398C51.7168 219.082 51.5099 218.872 51.1996 218.872H41.7859C46.6996 216.979 50.2168 212.141 50.2168 206.514C50.2168 201.255 47.1651 196.575 42.4583 194.419C42.51 194.209 42.51 194.051 42.51 193.84C42.51 193.262 42.3549 192.631 41.9928 192.158L44.8376 189.37C44.941 189.265 44.9928 189.16 44.9928 189.002C44.9928 188.845 44.941 188.739 44.8376 188.634L44.6307 188.424L44.9928 188.056C45.7169 187.372 45.7686 186.163 45.0445 185.426L44.2169 184.532C43.5445 183.796 42.3549 183.744 41.6307 184.48L41.2687 184.848L41.0618 184.638C40.8549 184.427 40.5445 184.427 40.3376 184.638L24.1999 200.309C23.993 200.519 23.993 200.835 24.1999 201.045L24.6654 201.571L23.5275 202.675C23.4241 202.78 23.3723 202.885 23.3723 203.043C23.3723 203.201 23.4241 203.306 23.5275 203.411L25.7516 205.778C25.8551 205.883 26.0102 205.936 26.1137 205.936C26.2171 205.936 26.3723 205.883 26.4757 205.778L27.6137 204.673L27.9757 205.042C28.0792 205.147 28.1826 205.199 28.3378 205.199C28.493 205.199 28.5964 205.147 28.6999 205.042L37.7515 196.259C38.2687 196.628 38.8894 196.89 39.5101 196.89C40.5963 196.89 41.5273 196.312 42.0445 195.418C46.3376 197.364 49.1306 201.676 49.1306 206.514C49.1306 213.193 43.7514 218.662 37.1825 218.662C32.9412 218.662 29.0619 216.4 26.8895 212.667H32.5791C32.8895 212.667 33.0964 212.456 33.0964 212.141V209.301C33.0964 208.986 32.8895 208.775 32.5791 208.775H20.062C19.7517 208.775 19.5448 208.986 19.5448 209.301V212.141C19.5448 212.456 19.7517 212.667 20.062 212.667H25.7516C25.7516 212.719 25.7516 212.772 25.8033 212.825C27.3033 215.664 29.786 217.768 32.6826 218.872H19.4931C19.1827 218.872 18.9758 219.082 18.9758 219.398V223.184ZM42.4066 185.269C42.7169 184.953 43.2342 184.953 43.5445 185.321L44.3721 186.215C44.5273 186.373 44.579 186.583 44.579 186.794C44.579 187.004 44.4755 187.214 44.3204 187.372L43.9583 187.688L42.0445 185.637L42.4066 185.269ZM26.062 204.673L24.562 203.096L25.3378 202.36L26.8378 203.937L26.062 204.673ZM39.5618 195.839C39.1997 195.839 38.8377 195.734 38.5273 195.523L41.2169 192.894C41.3721 193.209 41.4756 193.525 41.4756 193.84C41.4756 194.945 40.648 195.839 39.5618 195.839ZM28.2861 203.99L25.2344 200.729L40.6997 185.795L43.7514 189.055L28.2861 203.99ZM20.5793 211.615V209.827H32.0619V211.615H20.5793ZM20.0103 219.924H50.6823V222.658H20.0103V219.924Z" fill="#C4C4C4"/>
<path d="M13.9812 161.8C13.7565 162.025 13.7565 162.389 13.9812 162.614C14.2059 162.838 14.5702 162.838 14.7949 162.614C15.5437 161.865 16.3096 161.288 17.0902 160.84L25.6336 169.383C25.1853 170.164 24.6089 170.93 23.8601 171.679C23.6354 171.903 23.6354 172.268 23.8601 172.493C24.0848 172.717 24.4492 172.717 24.6739 172.493C28.6178 168.549 28.3667 164.151 27.9102 159.861C32.2006 160.317 36.598 160.568 40.5419 156.625C44.4857 152.681 44.2347 148.283 43.7782 143.993C48.0686 144.449 52.466 144.7 56.4098 140.757C56.6345 140.532 56.6345 140.168 56.4098 139.943C56.1852 139.718 55.8208 139.718 55.5961 139.943C54.8474 140.692 54.0814 141.268 53.3008 141.716L44.7575 133.173C45.2058 132.392 45.7821 131.626 46.5309 130.878C46.7556 130.653 46.7556 130.289 46.5309 130.064C46.3062 129.839 45.9418 129.839 45.7172 130.064C41.7733 134.008 42.0243 138.405 42.4808 142.696C38.1904 142.239 33.793 141.988 29.8492 145.932C25.9053 149.876 26.1564 154.273 26.6128 158.564C22.3224 158.107 17.9251 157.856 13.9812 161.8ZM30.6629 146.746C31.4257 145.983 32.2066 145.4 33.0024 144.948L41.5253 153.471C41.0737 154.267 40.4909 155.048 39.7281 155.811C38.9653 156.574 38.1845 157.156 37.3887 157.608L28.8657 149.085C29.3173 148.289 29.9001 147.508 30.6629 146.746ZM44.2213 134.264L52.2095 142.252C49.5077 143.381 46.6374 143.144 43.6518 142.822C43.3292 139.836 43.0929 136.966 44.2213 134.264ZM42.6072 143.867C42.9279 146.835 43.164 149.689 42.0582 152.377L34.097 144.415C36.7849 143.31 39.6391 143.546 42.6072 143.867ZM28.3328 150.18L36.2941 158.141C33.6061 159.247 30.7519 159.011 27.7838 158.69C27.4632 155.722 27.2271 152.868 28.3328 150.18ZM26.7392 159.735C27.0618 162.72 27.2981 165.59 26.1697 168.292L18.1815 160.304C20.8833 159.176 23.7537 159.412 26.7392 159.735Z" fill="#C4C4C4"/>
<rect x="1" y="240.38" width="238.94" height="67.5671" rx="9" transform="rotate(-90 1 240.38)" stroke="#C4C4C4" stroke-width="2"/>
</svg>
