<svg width="75" height="417" viewBox="0 0 75 417" fill="none" xmlns="http://www.w3.org/2000/svg">
<path d="M73.7811 403.007C74.5622 402.226 74.5622 400.96 73.7811 400.179L61.0532 387.451C60.2721 386.67 59.0058 386.67 58.2248 387.451C57.4437 388.232 57.4437 389.498 58.2248 390.279L69.5385 401.593L58.2248 412.907C57.4437 413.688 57.4437 414.954 58.2248 415.735C59.0058 416.516 60.2721 416.516 61.0532 415.735L73.7811 403.007ZM38.7418 403.593H72.3669V399.593H38.7418V403.593Z" fill="#ED5939"/>
<path d="M73.7811 210.028C74.5622 209.247 74.5622 207.981 73.7811 207.2L61.0532 194.472C60.2721 193.691 59.0058 193.691 58.2248 194.472C57.4437 195.253 57.4437 196.519 58.2248 197.3L69.5385 208.614L58.2248 219.928C57.4437 220.709 57.4437 221.975 58.2248 222.756C59.0058 223.537 60.2721 223.537 61.0532 222.756L73.7811 210.028ZM38.7418 210.614H72.3669V206.614H38.7418V210.614Z" fill="#ED5939"/>
<path d="M73.7811 16.7417C74.5622 15.9607 74.5622 14.6943 73.7811 13.9133L61.0532 1.18538C60.2721 0.40433 59.0058 0.40433 58.2248 1.18538C57.4437 1.96643 57.4437 3.23276 58.2248 4.01381L69.5385 15.3275L58.2248 26.6412C57.4437 27.4223 57.4437 28.6886 58.2248 29.4697C59.0058 30.2507 60.2721 30.2507 61.0532 29.4697L73.7811 16.7417ZM38.7418 17.3275H72.3669V13.3275H38.7418V17.3275Z" fill="#ED5939"/>
<line x1="40.7418" y1="14.9042" x2="40.7418" y2="401.593" stroke="#ED5939" stroke-width="4"/>
<line x1="-1.74846e-07" y1="208.076" x2="38.7419" y2="208.076" stroke="#ED5939" stroke-width="4"/>
</svg>
