<svg width="888" height="855" viewBox="0 0 888 855" fill="none" xmlns="http://www.w3.org/2000/svg">
<path d="M154.954 429.825C154.954 387.045 120.275 352.364 77.4979 352.364C34.7213 352.364 0 387.045 0 429.825C0 472.605 34.6782 507.285 77.4548 507.285C120.232 507.285 154.911 472.605 154.911 429.825H154.954Z" fill="white"/>
<path fill-rule="evenodd" clip-rule="evenodd" d="M777.827 320.227H714.933C688.353 320.227 666.77 298.686 666.77 272.061V209.161C666.77 148.46 617.531 99.2168 556.833 99.2168C496.136 99.2168 446.898 148.46 446.898 209.161V272.061C446.898 298.643 425.358 320.227 398.735 320.227H335.841C275.143 320.227 225.904 369.468 225.904 430.171C225.904 490.873 275.143 540.116 335.841 540.116H398.735C425.315 540.116 446.898 561.657 446.898 588.281V651.18C446.898 711.881 496.136 761.124 556.833 761.124C617.531 761.124 666.77 711.881 666.77 651.18V588.281C666.77 561.7 688.31 540.116 714.933 540.116H777.827C838.524 540.116 887.764 490.873 887.764 430.171C887.764 369.468 838.524 320.227 777.827 320.227ZM556.833 536.108C498.075 536.108 450.473 488.504 450.473 429.74C450.473 370.976 498.075 323.371 556.833 323.371C615.593 323.371 663.195 370.976 663.195 429.74C663.195 488.504 615.593 536.108 556.833 536.108Z" fill="#F2994D"/>
<path d="M353.588 699.991C270.964 699.991 276.134 699.991 276.134 622.53C276.134 579.75 241.455 545.07 198.677 545.07C155.901 545.07 121.223 579.75 121.223 622.53C121.223 665.31 155.901 699.991 198.677 699.991C277.728 699.991 276.177 699.991 276.177 777.453V777.539C276.177 785.595 277.038 791.799 278.546 796.495C287.031 830.098 317.445 855 353.675 855C396.452 855 431.129 820.319 431.129 777.539C431.129 734.759 396.452 700.078 353.675 700.078L353.588 699.991Z" fill="url(#paint0_linear_2613_14)"/>
<path d="M276.093 77.5474C276.093 160.178 276.093 155.007 198.636 155.007C155.86 155.007 121.182 189.688 121.182 232.468C121.182 275.248 155.86 309.93 198.636 309.93C241.414 309.93 276.093 275.248 276.093 232.468C276.093 153.414 276.093 154.964 353.547 154.964H353.634C361.689 154.964 367.892 154.103 372.587 152.595C406.189 144.108 431.088 113.692 431.088 77.4612C431.088 34.6807 396.41 0 353.634 0C310.856 0 276.178 34.6807 276.178 77.4612L276.093 77.5474Z" fill="url(#paint1_linear_2613_14)"/>
<defs>
<linearGradient id="paint0_linear_2613_14" x1="193.206" y1="633.689" x2="371.864" y2="776.579" gradientUnits="userSpaceOnUse">
<stop offset="0.07" stop-color="white"/>
<stop offset="1" stop-color="#F1984C"/>
</linearGradient>
<linearGradient id="paint1_linear_2613_14" x1="209.794" y1="237.94" x2="352.698" y2="59.2899" gradientUnits="userSpaceOnUse">
<stop offset="0.07" stop-color="white"/>
<stop offset="1" stop-color="#F1984C"/>
</linearGradient>
</defs>
</svg>
