<svg width="258" height="264" viewBox="0 0 258 264" fill="none" xmlns="http://www.w3.org/2000/svg">
<g opacity="0.3">
<path d="M145.792 308.313C145.74 298.232 153.864 290.029 163.922 289.976H163.95C174.008 289.924 182.237 298.044 182.29 308.106C182.342 318.187 174.217 326.419 164.134 326.469H164.031C153.998 326.468 145.847 318.344 145.792 308.313ZM48.3494 279.176C41.1784 272.085 41.1266 260.52 48.2168 253.374C55.31 246.201 66.8745 246.149 74.047 253.268C81.1921 260.334 81.2439 271.9 74.1522 279.071C70.5789 282.672 65.8943 284.471 61.1837 284.471C56.554 284.471 51.8968 282.696 48.3494 279.176ZM253.584 278.089C246.412 271.001 246.334 259.435 253.426 252.262V252.288C260.517 245.117 272.056 245.039 279.228 252.105C286.401 259.197 286.482 270.737 279.387 277.908C275.812 281.536 271.129 283.335 266.418 283.335C261.789 283.334 257.157 281.585 253.584 278.089ZM6.90644e-05 163.817C-0.027371 153.76 8.12537 145.556 18.1806 145.502C28.2633 145.476 36.4679 153.626 36.4953 163.684V163.712C36.5487 173.769 28.3975 181.973 18.3148 181.999H18.2614C8.20464 181.999 0.0534247 173.872 6.90644e-05 163.817ZM289.973 163.235C289.973 153.152 298.15 144.999 308.234 144.999C318.292 144.999 326.469 153.152 326.469 163.235C326.469 173.317 318.292 181.494 308.234 181.494C298.151 181.494 289.973 173.319 289.973 163.235ZM47.5841 73.9417C40.4375 66.8226 40.3857 55.2856 47.5033 48.139C54.6225 40.9924 66.161 40.9405 73.3076 48.0597C80.4543 55.1788 80.4786 66.7159 73.3884 73.864C69.8151 77.4617 65.1305 79.2346 60.4459 79.2346C55.7872 79.2361 51.1285 77.4632 47.5841 73.9417ZM252.765 73.5454C245.643 66.4262 245.619 54.8602 252.765 47.7411C259.883 40.5945 271.422 40.5945 278.567 47.7136C285.687 54.8343 285.713 66.3713 278.567 73.5179C275.022 77.0912 270.338 78.8642 265.653 78.8642C260.996 78.8657 256.337 77.0928 252.765 73.5454ZM144.736 18.2873C144.708 8.20457 152.859 0.0259156 162.942 0C173.025 0 181.203 8.15121 181.229 18.2065C181.257 28.2891 173.08 36.4678 162.995 36.4952H162.968C152.911 36.4968 144.736 28.344 144.736 18.2873Z" fill="white"/>
<path d="M132.692 242.257V242.286C126.181 239.745 122.928 232.412 125.44 225.877C127.982 219.34 135.314 216.084 141.849 218.625C148.36 221.139 151.615 228.469 149.1 235.007C147.168 240.035 142.353 243.131 137.273 243.131C135.762 243.131 134.2 242.841 132.692 242.257ZM180.886 234.239C178.054 227.836 180.936 220.346 187.34 217.512V217.486C193.746 214.654 201.236 217.538 204.068 223.942C206.901 230.347 204.015 237.835 197.611 240.67C195.943 241.41 194.199 241.754 192.478 241.754C187.633 241.756 183.003 238.949 180.886 234.239ZM85.7163 197.454C82.8869 191.049 85.7971 183.561 92.2013 180.726C98.604 177.897 106.095 180.807 108.926 187.211C111.758 193.615 108.847 201.105 102.443 203.939C100.775 204.652 99.0308 205.024 97.3356 205.024C92.465 205.023 87.8078 202.19 85.7163 197.454ZM225.953 200.893C219.416 198.381 216.162 191.048 218.675 184.511C221.191 177.974 228.522 174.72 235.057 177.209C241.595 179.72 244.85 187.052 242.335 193.589C240.403 198.644 235.586 201.74 230.505 201.74C228.997 201.74 227.462 201.478 225.953 200.893ZM91.4863 148.943C84.9495 146.403 81.7207 139.045 84.262 132.535C86.8017 125.998 94.1328 122.77 100.671 125.309C107.181 127.851 110.437 135.182 107.894 141.718C105.937 146.748 101.145 149.816 96.0642 149.816C94.5566 149.816 92.9955 149.525 91.4863 148.943ZM217.671 139.47C214.866 133.064 217.776 125.6 224.208 122.795C230.612 119.99 238.1 122.902 240.905 129.334C243.686 135.738 240.774 143.226 234.342 146.033C232.702 146.748 230.981 147.091 229.289 147.091C224.392 147.091 219.735 144.232 217.671 139.47ZM122.663 102.339C119.858 95.9347 122.768 88.471 129.174 85.6386C135.579 82.8336 143.067 85.7453 145.872 92.1495C148.705 98.5827 145.769 106.045 139.362 108.877C137.723 109.592 135.974 109.935 134.281 109.935C129.412 109.934 124.753 107.104 122.663 102.339ZM184.854 107.923C178.343 105.382 175.114 98.0247 177.682 91.5138C180.223 84.977 187.578 81.7741 194.091 84.3154C200.629 86.8566 203.83 94.2136 201.291 100.749C199.332 105.752 194.54 108.793 189.487 108.793C187.952 108.795 186.388 108.533 184.854 107.923Z" fill="white"/>
<path d="M163.241 175.145C169.819 175.145 175.152 169.813 175.152 163.235C175.152 156.657 169.819 151.324 163.241 151.324C156.663 151.324 151.329 156.657 151.329 163.235C151.329 169.813 156.662 175.145 163.241 175.145Z" fill="white"/>
</g>
</svg>
