<svg id="header-logo-svg" width="180" height="37" viewBox="0 0 4341 800" fill="none"
  xmlns="http://www.w3.org/2000/svg">
  <path class="white" d="M1075.79 606C1194.85 606 1281.05 517.17 1281.05 395.5C1281.05 273.83 1194.85 185 1075.79 185C956.735 185 870 273.83 870 395.5C870 517.17 955.118 606 1075.79 606ZM1075.79 552.164C990.135 552.164 930.876 487.022 930.876 394.962C930.876 303.978 990.135 237.76 1075.79 237.76C1161.45 237.76 1220.71 303.978 1220.71 394.962C1220.71 487.022 1161.45 552.164 1075.79 552.164Z" fill="#EE5A3A"></path>
  <path class="white" d="M1309 419.726V597.386H1367.18V420.803C1367.18 386.348 1391.42 362.121 1425.36 362.121C1458.77 362.121 1483.01 386.348 1483.01 420.803V597.386H1541.19V421.88C1541.19 355.661 1492.7 310.977 1424.83 310.977C1356.95 310.977 1309 355.123 1309 419.726Z" fill="#EE5A3A"></path>
  <path class="white" d="M1832.31 366.967C1806.45 331.435 1767.66 310.977 1719.71 310.977C1634.6 310.977 1571.03 373.427 1571.03 458.488C1571.03 543.012 1632.98 606 1719.71 606C1770.35 606 1811.3 580.697 1832.85 546.242L1798.37 511.248C1782.74 535.474 1756.89 553.779 1719.71 553.779C1667.46 553.779 1630.29 513.402 1630.29 457.95C1630.29 401.96 1667.46 362.121 1719.71 362.121C1755.81 362.121 1780.59 378.811 1796.75 402.499L1832.31 366.967Z" fill="#EE5A3A"></path>
  <path class="white" d="M1996.56 606C2081.68 606 2144.71 543.012 2144.71 458.488C2144.71 373.427 2081.68 310.977 1996.56 310.977C1911.44 310.977 1848.95 373.427 1848.95 458.488C1848.95 543.012 1910.91 606 1996.56 606ZM1996.56 553.779C1944.85 553.779 1907.67 513.402 1907.67 457.95C1907.67 401.96 1944.85 362.121 1996.56 362.121C2048.82 362.121 2085.45 401.96 2085.45 457.95C2085.45 513.402 2048.82 553.779 1996.56 553.779Z" fill="#EE5A3A"></path>
  <path class="white" d="M2334.91 193.614H2181.91V597.386H2241.17V449.336H2334.91C2413.02 449.336 2468.51 394.423 2468.51 321.206C2468.51 247.988 2413.02 193.614 2334.91 193.614ZM2328.98 398.192H2241.17V245.297H2328.98C2376.93 245.297 2408.71 277.598 2408.71 321.744C2408.71 365.352 2376.93 398.192 2328.98 398.192Z" fill="#EE5A3A"></path>
  <path class="white" d="M2586.26 312.592C2521.61 312.592 2485.52 347.586 2485.52 412.189V597.386H2543.7V419.188C2543.7 380.964 2563.09 364.813 2594.88 364.813C2601.88 364.813 2608.35 365.352 2614.81 366.967V316.361C2607.81 314.207 2597.57 312.592 2586.26 312.592Z" fill="#EE5A3A"></path>
  <path class="white" d="M2882.81 551.087L2848.87 516.093C2828.94 541.396 2804.16 553.779 2769.68 553.779C2722.27 553.779 2689.41 525.246 2681.87 479.485H2903.29C2904.36 474.101 2904.9 464.949 2904.9 458.488C2904.9 373.427 2849.41 310.977 2768.07 310.977C2682.95 310.977 2620.99 372.889 2620.99 458.488C2620.99 543.012 2682.95 606 2769.14 606C2816.55 606 2855.34 587.696 2882.81 551.087ZM2766.99 362.121C2811.7 362.121 2842.95 393.347 2847.26 437.492H2681.87C2689.41 391.731 2721.2 362.121 2766.99 362.121Z" fill="#EE5A3A"></path>
  <path class="white" d="M3187.56 366.967C3161.7 331.435 3122.91 310.977 3074.97 310.977C2989.85 310.977 2926.28 373.427 2926.28 458.488C2926.28 543.012 2988.23 606 3074.97 606C3125.61 606 3166.55 580.697 3188.1 546.242L3153.62 511.248C3138 535.474 3112.14 553.779 3074.97 553.779C3022.71 553.779 2985.54 513.402 2985.54 457.95C2985.54 401.96 3022.71 362.121 3074.97 362.121C3111.06 362.121 3135.84 378.811 3152 402.499L3187.56 366.967Z" fill="#EE5A3A"></path>
  <path class="white" d="M3253.23 274.907C3272.62 274.907 3288.78 259.832 3288.78 239.913C3288.78 219.994 3272.62 204.919 3253.23 204.919C3233.3 204.919 3217.67 219.994 3217.67 239.913C3217.67 259.832 3233.3 274.907 3253.23 274.907ZM3282.32 597.386V319.591H3224.14V597.386H3282.32Z" fill="#EE5A3A"></path>
  <path class="white" d="M3387.29 389.04C3387.29 370.735 3402.38 358.891 3423.93 358.891C3450.33 358.891 3468.64 375.581 3477.8 397.115L3519.28 373.427C3504.74 338.972 3474.57 310.977 3422.85 310.977C3371.13 310.977 3332.88 346.509 3332.88 389.578C3332.88 435.339 3359.28 454.72 3393.22 470.332L3425.01 485.407C3450.86 497.251 3461.64 507.48 3461.64 523.092C3461.64 545.165 3445.48 557.009 3422.31 557.009C3389.45 557.009 3370.06 532.783 3365.21 509.633L3320.49 534.398C3330.19 572.083 3362.51 606 3420.7 606C3481.57 606 3519.28 571.545 3519.28 523.63C3519.28 481.1 3493.42 460.104 3459.48 443.953L3423.93 426.725C3398.07 414.881 3387.29 405.729 3387.29 389.04Z" fill="#EE5A3A"></path>
  <path class="white" d="M3593.38 274.907C3612.78 274.907 3628.94 259.832 3628.94 239.913C3628.94 219.994 3612.78 204.919 3593.38 204.919C3573.45 204.919 3557.83 219.994 3557.83 239.913C3557.83 259.832 3573.45 274.907 3593.38 274.907ZM3622.47 597.386V319.591H3564.29V597.386H3622.47Z" fill="#EE5A3A"></path>
  <path class="white" d="M3809.76 606C3894.88 606 3957.91 543.012 3957.91 458.488C3957.91 373.427 3894.88 310.977 3809.76 310.977C3724.65 310.977 3662.15 373.427 3662.15 458.488C3662.15 543.012 3724.11 606 3809.76 606ZM3809.76 553.779C3758.05 553.779 3720.87 513.402 3720.87 457.95C3720.87 401.96 3758.05 362.121 3809.76 362.121C3862.02 362.121 3898.65 401.96 3898.65 457.95C3898.65 513.402 3862.02 553.779 3809.76 553.779Z" fill="#EE5A3A"></path>
  <path class="white" d="M3988.81 419.726V597.386H4046.99V420.803C4046.99 386.348 4071.23 362.121 4105.17 362.121C4138.58 362.121 4162.82 386.348 4162.82 420.803V597.386H4221V421.88C4221 355.661 4172.52 310.977 4104.64 310.977C4036.76 310.977 3988.81 355.123 3988.81 419.726Z" fill="#EE5A3A"></path>
  <path class="white" d="M172.181 399.917C172.181 366.185 144.837 338.839 111.107 338.839C77.3777 338.839 50 366.185 50 399.917C50 433.649 77.3437 460.994 111.073 460.994C144.803 460.994 172.147 433.649 172.147 399.917H172.181Z" fill="#ED5A3A"></path>
  <path fill-rule="evenodd" clip-rule="evenodd" d="M663.315 313.498H613.723C592.765 313.498 575.747 296.513 575.747 275.519V225.923C575.747 178.06 536.922 139.232 489.062 139.232C441.202 139.232 402.378 178.06 402.378 225.923V275.519C402.378 296.479 385.394 313.498 364.402 313.498H314.81C266.95 313.498 228.125 352.325 228.125 400.189C228.125 448.052 266.95 486.88 314.81 486.88H364.402C385.36 486.88 402.378 503.865 402.378 524.858V574.454C402.378 622.317 441.202 661.145 489.062 661.145C536.922 661.145 575.747 622.317 575.747 574.454V524.858C575.747 503.899 592.731 486.88 613.723 486.88H663.315C711.175 486.88 750 448.052 750 400.189C750 352.325 711.175 313.498 663.315 313.498ZM489.062 483.72C442.731 483.72 405.197 446.184 405.197 399.849C405.197 353.514 442.731 315.977 489.062 315.977C535.394 315.977 572.928 353.514 572.928 399.849C572.928 446.184 535.394 483.72 489.062 483.72Z" fill="#F2994D"></path>
  <path d="M328.804 612.942C263.655 612.942 267.731 612.942 267.731 551.864C267.731 518.132 240.387 490.787 206.657 490.787C172.928 490.787 145.584 518.132 145.584 551.864C145.584 585.596 172.928 612.942 206.657 612.942C268.988 612.942 267.765 612.942 267.765 674.02V674.088C267.765 680.44 268.444 685.332 269.633 689.035C276.324 715.531 300.305 735.166 328.872 735.166C362.602 735.166 389.945 707.82 389.945 674.088C389.945 640.356 362.602 613.01 328.872 613.01L328.804 612.942Z" fill="url(#paint0_linear_601_22)"></path>
  <path d="M267.698 122.146C267.698 187.3 267.698 183.223 206.624 183.223C172.895 183.223 145.551 210.569 145.551 244.301C145.551 278.033 172.895 305.379 206.624 305.379C240.354 305.379 267.698 278.033 267.698 244.301C267.698 181.967 267.698 183.189 328.771 183.189H328.839C335.191 183.189 340.082 182.51 343.784 181.321C370.279 174.629 389.912 150.646 389.912 122.078C389.912 88.3457 362.568 61 328.839 61C295.109 61 267.765 88.3457 267.765 122.078L267.698 122.146Z" fill="url(#paint1_linear_601_22)"></path>
  <defs>
    <linearGradient id="paint0_linear_601_22" x1="202.343" y1="560.663" x2="343.214" y2="673.331" gradientUnits="userSpaceOnUse">
      <stop class="white" offset="0.07" stop-color="#EC593A"></stop>
      <stop offset="1" stop-color="#F1984C"></stop>
    </linearGradient>
    <linearGradient id="paint1_linear_601_22" x1="215.422" y1="248.615" x2="328.101" y2="107.75" gradientUnits="userSpaceOnUse">
      <stop class="white" offset="0.07" stop-color="#EC593A"></stop>
      <stop offset="1" stop-color="#F1984C"></stop>
    </linearGradient>
  </defs>
</svg>