<svg width="122" height="187" viewBox="0 0 122 187" fill="none" xmlns="http://www.w3.org/2000/svg">
<path fill-rule="evenodd" clip-rule="evenodd" d="M19.0549 83.9453H0V104.121C0 111.962 8.53119 118.319 19.0549 118.319C29.5787 118.319 38.1099 111.962 38.1099 104.121V83.9453H19.0549Z" fill="#FFDE2E"/>
<path fill-rule="evenodd" clip-rule="evenodd" d="M19.0549 119.066H0V139.242C0 147.083 8.53119 153.44 19.0549 153.44C29.5787 153.44 38.1099 147.083 38.1099 139.242V119.066H19.0549Z" fill="#FFEB85"/>
<path fill-rule="evenodd" clip-rule="evenodd" d="M19.0549 151.945H0V172.121C0 179.962 8.53119 186.319 19.0549 186.319C29.5787 186.319 38.1099 179.962 38.1099 172.121V151.945H19.0549Z" fill="#FFF8D6"/>
<ellipse cx="19.0549" cy="83.9449" rx="19.0549" ry="14.1978" fill="#FFDE2E"/>
<path d="M19.0546 69.7471C8.56763 69.7471 0.0166016 76.1241 0.0166016 83.9449C0.0166016 91.7657 8.56763 98.1427 19.0546 98.1427C29.5416 98.1427 38.0926 91.7657 38.0926 83.9449C38.0926 76.1241 29.5416 69.7471 19.0546 69.7471ZM19.0546 97.3406C9.15914 97.3406 1.0922 91.3246 1.0922 83.9449C1.0922 76.5652 9.15914 70.5492 19.0546 70.5492C28.9501 70.5492 37.017 76.5652 37.017 83.9449C37.017 91.3246 28.9501 97.3406 19.0546 97.3406Z" fill="#969696"/>
<path d="M19.0546 71.7524C10.0734 71.7524 2.70557 77.2471 2.70557 83.9449C2.70557 90.6428 10.0196 96.0973 19.0546 96.0973C28.0896 96.0973 35.4036 90.6428 35.4036 83.9449C35.3498 77.2471 28.0358 71.7524 19.0546 71.7524ZM19.0546 95.2952C10.665 95.2952 3.78116 90.2015 3.78116 83.9449C3.78116 77.6883 10.6112 72.5546 19.0546 72.5546C27.4979 72.5546 34.328 77.6481 34.328 83.9449C34.2742 90.2016 27.4442 95.2952 19.0546 95.2952Z" fill="#969696"/>
<path d="M26.9849 83.2083C26.9849 84.0906 27.9529 84.8126 29.1361 84.8126C30.3193 84.8126 31.2873 84.0906 31.2873 83.2083C31.2873 82.3259 30.3193 81.604 29.1361 81.604C27.9528 81.6041 26.9849 82.326 26.9849 83.2083ZM30.2116 83.2083C30.2116 83.6495 29.7276 84.0104 29.136 84.0104C28.5445 84.0104 28.0605 83.6495 28.0605 83.2083C28.0605 82.7671 28.5445 82.4061 29.136 82.4061C29.7276 82.4061 30.2116 82.7671 30.2116 83.2083Z" fill="white"/>
<path d="M13.979 90.2019C13.979 91.0843 14.947 91.8062 16.1303 91.8062C17.3134 91.8062 18.2814 91.0843 18.2814 90.2019C18.2814 89.3196 17.3133 88.5977 16.1302 88.5977C14.947 88.5977 13.979 89.3196 13.979 90.2019ZM17.2058 90.2019C17.2058 90.6431 16.7218 91.0041 16.1303 91.0041C15.5387 91.0041 15.0547 90.6431 15.0547 90.2019C15.0547 89.7608 15.5387 89.3998 16.1303 89.3998C16.7218 89.3998 17.2058 89.7608 17.2058 90.2019Z" fill="white"/>
<path d="M8.16726 84.0214C7.21753 84.5476 7.01779 85.5576 7.72346 86.2659C8.42913 86.9742 9.78345 87.1231 10.7333 86.5968C11.6829 86.0706 11.8827 85.0606 11.1769 84.3523C10.4713 83.6441 9.117 83.4951 8.16726 84.0214ZM10.0918 85.953C9.61688 86.2161 8.9396 86.1416 8.58679 85.7875C8.23399 85.4334 8.33395 84.9284 8.80876 84.6653C9.28363 84.4021 9.96079 84.4766 10.3136 84.8307C10.6665 85.1848 10.5666 85.6898 10.0918 85.953Z" fill="white"/>
<path d="M24.5549 77.0525C24.5549 76.1702 23.5868 75.4482 22.4037 75.4482C21.2205 75.4482 20.2524 76.1702 20.2524 77.0525C20.2524 77.9349 21.2205 78.6568 22.4037 78.6568C23.5868 78.6568 24.5549 77.9349 24.5549 77.0525ZM21.3282 77.0525C21.3282 76.6113 21.8122 76.2504 22.4038 76.2504C22.9953 76.2504 23.4793 76.6113 23.4793 77.0525C23.4793 77.4937 22.9953 77.8547 22.4038 77.8547C21.8122 77.8547 21.3282 77.4937 21.3282 77.0525Z" fill="white"/>
<path d="M16.3422 87.2451V87.7093C17.1473 87.7093 17.8493 87.9022 18.3188 88.2524C18.5882 88.4533 18.9689 88.9112 19.2119 89.4814C19.4035 89.9308 19.5773 90.6048 19.3168 91.2635C18.9544 92.18 17.8427 92.7936 16.0126 93.0872L15.9751 93.0933L15.9402 93.1022C15.9347 93.1036 15.3873 93.2418 14.8072 93.2418C14.5038 93.2418 14.2565 93.2047 14.0722 93.1314C13.5367 92.9184 13.4241 92.6588 13.1994 92.04C13.1592 91.9294 13.1177 91.815 13.0694 91.6925C12.7987 91.0063 12.4175 89.0604 13.8837 88.3063C14.6321 87.9214 15.5052 87.7094 16.3421 87.7094V87.2451H16.3422ZM16.3422 87.2451C15.4185 87.2451 14.4214 87.4658 13.5304 87.9241C11.7253 88.8525 12.161 91.0342 12.4722 91.8234C12.7835 92.6125 12.8457 93.1696 13.7794 93.5409C14.0906 93.6647 14.457 93.706 14.8073 93.706C15.5077 93.706 16.1435 93.5409 16.1435 93.5409C21.931 92.6125 19.9416 88.8061 18.759 87.9241C18.1601 87.4774 17.2897 87.2451 16.3422 87.2451Z" fill="white"/>
<path d="M22.4065 74.5091C23.2433 74.5091 24.1165 74.7211 24.8648 75.106C26.3311 75.8602 25.9499 77.8061 25.6792 78.4922C25.6309 78.6147 25.5894 78.7291 25.5492 78.8397C25.3244 79.4586 25.2118 79.7181 24.6763 79.9312C24.4921 80.0044 24.2448 80.0416 23.9414 80.0416C23.3613 80.0416 22.8139 79.9034 22.8097 79.9023L22.7735 79.8929L22.736 79.8869C20.906 79.5934 19.7942 78.9798 19.4318 78.0633C19.1713 77.4046 19.3451 76.7306 19.5367 76.2812C19.7797 75.711 20.1604 75.2531 20.4298 75.0522C20.8993 74.702 21.6013 74.5091 22.4065 74.5091ZM22.4065 74.0449C21.4588 74.0449 20.5886 74.2773 19.9897 74.7239C18.807 75.6059 16.8176 79.4123 22.6052 80.3407C22.6052 80.3407 23.241 80.5058 23.9414 80.5058C24.2917 80.5058 24.6581 80.4645 24.9693 80.3407C25.903 79.9694 25.9653 79.4123 26.2765 78.6232C26.5877 77.834 27.0234 75.6523 25.2183 74.7239C24.3272 74.2656 23.3301 74.0449 22.4065 74.0449Z" fill="white"/>
<path d="M8.21979 82.2676V82.7318C8.81846 82.7318 9.53272 82.8591 10.3427 83.1101C10.7145 83.228 11.8378 83.6625 12.146 84.1094C12.5438 84.6865 12.7914 85.6197 12.495 86.2869C12.3851 86.5342 12.1228 87.0046 11.6002 87.3769C11.0725 87.7527 10.3979 87.9433 9.5949 87.9433H9.58631C8.66484 87.9418 7.77641 87.7405 7.08456 87.3767C6.4374 87.0362 6.01663 86.5842 5.89979 86.1038C5.72768 85.3962 5.76484 83.9965 6.597 83.2532C6.9897 82.9024 7.52034 82.7319 8.21935 82.7318L8.21979 82.2676ZM8.21935 82.2676C5.0865 82.2679 5.04006 85.1697 5.28736 86.1866C5.58589 87.4139 7.39218 88.4039 9.58494 88.4075C9.5883 88.4075 9.5916 88.4075 9.59496 88.4075C11.7806 88.4075 12.7396 87.2125 13.0858 86.4328C13.4327 85.652 13.1833 84.599 12.6996 83.8972C12.2158 83.1953 10.5837 82.6821 10.5837 82.6821C9.64688 82.3916 8.86732 82.2675 8.21935 82.2676Z" fill="white"/>
<path d="M28.8893 79.7173V80.1815C29.8122 80.1815 30.7087 80.7175 31.5542 81.7744C31.7584 82.0343 32.3126 82.8828 32.2025 83.3785C32.0603 84.0187 31.5127 84.8779 30.7412 85.2816C30.3895 85.4657 29.6708 85.7745 28.8097 85.7745C28.2079 85.7745 27.6265 85.6207 27.0818 85.3175C26.3434 84.9065 25.7912 84.3497 25.527 83.7499C25.2797 83.1888 25.3034 82.6388 25.5938 82.2013C26.0312 81.5424 27.412 80.1817 28.8889 80.1815L28.8893 79.7173ZM28.8888 79.7173C27.0476 79.7176 25.5143 81.2748 25.036 81.9953C24.2941 83.1132 24.9524 84.7113 26.7096 85.6895C27.433 86.0922 28.1516 86.2387 28.8098 86.2387C29.7504 86.2387 30.5677 85.9396 31.0988 85.6616C32.0018 85.1891 32.6436 84.233 32.8166 83.4544C32.9896 82.6759 32.09 81.538 32.09 81.538C31.0124 80.1903 29.904 79.7171 28.8888 79.7173Z" fill="white"/>
<path d="M26.0624 90.8967C27.2309 90.7583 28.035 89.932 27.8494 89.0605C27.6638 88.1892 26.5558 87.5895 25.3873 87.7279C24.2188 87.8663 23.4147 88.6926 23.6004 89.564C23.7861 90.4355 24.894 91.0352 26.0624 90.8967ZM25.5561 88.5201C26.1404 88.4509 26.6943 88.7507 26.7872 89.1864C26.88 89.6221 26.4779 90.0353 25.8937 90.1045C25.3094 90.1737 24.7554 89.8738 24.6626 89.4381C24.5698 89.0024 24.9719 88.5893 25.5561 88.5201Z" fill="white"/>
<path d="M25.4637 87.0267H25.4695C26.3395 87.0309 27.5633 87.2994 28.2189 87.8042C28.4625 87.9918 28.9009 88.3837 29.1009 88.9025C29.303 89.4265 29.2155 89.9619 28.8408 90.4939C28.1418 91.4863 26.8478 92.153 25.6209 92.153C25.386 92.153 25.1594 92.1281 24.9474 92.0788C24.0327 91.8662 22.0518 91.0836 21.7681 90.0212C21.5826 89.3264 22.148 88.5638 23.4461 87.7563C23.7534 87.567 24.7838 87.0267 25.4637 87.0267ZM25.4637 86.5625C24.4069 86.5625 23.0497 87.3984 23.0497 87.3984C18.5037 90.2265 23.1654 92.151 24.7622 92.522C25.0385 92.5862 25.3271 92.6173 25.6209 92.6173C27.0257 92.6173 28.5485 91.9071 29.3918 90.7098C30.4116 89.2621 29.4334 88.0722 28.6661 87.4813C27.8988 86.8904 26.5317 86.5677 25.4736 86.5625C25.4702 86.5625 25.467 86.5625 25.4637 86.5625Z" fill="white"/>
<path d="M17.1133 83.7337C17.1133 84.616 18.0813 85.3379 19.2645 85.3379C20.4477 85.3379 21.4157 84.616 21.4157 83.7337C21.4157 82.8513 20.4477 82.1294 19.2645 82.1294C18.0813 82.1294 17.1133 82.8513 17.1133 83.7337ZM20.3401 83.7337C20.3401 84.1748 19.8561 84.5358 19.2645 84.5358C18.673 84.5358 18.1889 84.1748 18.1889 83.7337C18.1889 83.2925 18.673 82.9315 19.2645 82.9315C19.8561 82.9315 20.3401 83.2925 20.3401 83.7337Z" fill="white"/>
<path d="M19.0187 80.2432V80.7074C19.9416 80.7074 20.8381 81.2433 21.6836 82.3003C21.8878 82.5602 22.442 83.4086 22.3319 83.9044C22.1897 84.5445 21.6421 85.4038 20.8706 85.8075C20.5189 85.9915 19.8002 86.3004 18.9391 86.3004C18.3373 86.3004 17.7559 86.1466 17.2112 85.8434C16.4728 85.4324 15.9206 84.8756 15.6564 84.2758C15.4091 83.7146 15.4328 83.1647 15.7232 82.7271C16.1605 82.0683 17.5414 80.7076 19.0183 80.7074L19.0187 80.2432ZM19.0182 80.2432C17.177 80.2434 15.6437 81.8006 15.1654 82.5212C14.4235 83.6391 15.0818 85.2372 16.839 86.2154C17.5624 86.6181 18.281 86.7646 18.9392 86.7646C19.8798 86.7646 20.6971 86.4654 21.2282 86.1875C22.1311 85.715 22.773 84.7589 22.946 83.9803C23.119 83.2017 22.2193 82.0639 22.2193 82.0639C21.1418 80.7162 20.0334 80.243 19.0182 80.2432Z" fill="white"/>
<path d="M10.9102 78.4798C10.9102 79.3621 11.8782 80.084 13.0614 80.084C14.2446 80.084 15.2126 79.3621 15.2126 78.4798C15.2126 77.5974 14.2446 76.8755 13.0614 76.8755C11.8782 76.8755 10.9102 77.5974 10.9102 78.4798ZM14.1369 78.4798C14.1369 78.9209 13.653 79.2819 13.0614 79.2819C12.4698 79.2819 11.9858 78.9209 11.9858 78.4798C11.9858 78.0386 12.4698 77.6776 13.0614 77.6776C13.653 77.6776 14.1369 78.0386 14.1369 78.4798Z" fill="white"/>
<path d="M12.815 74.9893V75.4535C13.7379 75.4535 14.6345 75.9894 15.4799 77.0464C15.6841 77.3063 16.2383 78.1547 16.1282 78.6505C15.986 79.2906 15.4384 80.1499 14.6669 80.5536C14.3152 80.7376 13.5965 81.0465 12.7354 81.0465C12.1336 81.0465 11.5522 80.8927 11.0076 80.5895C10.2692 80.1785 9.71692 79.6217 9.45269 79.0219C9.20545 78.4607 9.22916 77.9107 9.51954 77.4732C9.95687 76.8144 11.3377 75.4537 12.8147 75.4535L12.815 74.9893ZM12.8146 74.9893C10.9734 74.9895 9.44005 76.5467 8.96182 77.2673C8.21993 78.3852 8.87816 79.9833 10.6353 80.9615C11.3588 81.3642 12.0774 81.5107 12.7355 81.5107C13.6762 81.5107 14.4935 81.2115 15.0246 80.9336C15.9275 80.4611 16.5694 79.5049 16.7424 78.7264C16.9154 77.9478 16.0157 76.81 16.0157 76.81C14.9381 75.4623 13.8298 74.9891 12.8146 74.9893Z" fill="white"/>
<path fill-rule="evenodd" clip-rule="evenodd" d="M0.747263 83.9448H0V84.9448V104.121L1.07315e-05 104.121C1.07315e-05 111.962 8.5312 118.319 19.055 118.319C29.5787 118.319 38.1099 111.962 38.1099 104.121L38.1099 104.105V84.9448V83.9448H37.3626V88.4286H37.1099V104.105V104.107L37.1099 104.121C37.1099 107.653 35.1905 110.93 31.9314 113.358C28.6721 115.787 24.1229 117.319 19.055 117.319C13.987 117.319 9.4378 115.787 6.17856 113.358C2.91938 110.93 1.00001 107.653 1.00001 104.121L1 104.116V88.4286H0.747263V83.9448Z" fill="#969696"/>
<ellipse cx="19.0549" cy="119.066" rx="19.0549" ry="14.1978" fill="#FFEB85"/>
<path d="M19.0546 104.868C8.56763 104.868 0.0166016 111.245 0.0166016 119.066C0.0166016 126.887 8.56763 133.264 19.0546 133.264C29.5416 133.264 38.0926 126.887 38.0926 119.066C38.0926 111.245 29.5416 104.868 19.0546 104.868ZM19.0546 132.462C9.15914 132.462 1.0922 126.446 1.0922 119.066C1.0922 111.686 9.15914 105.67 19.0546 105.67C28.9501 105.67 37.017 111.686 37.017 119.066C37.017 126.446 28.9501 132.462 19.0546 132.462Z" fill="#969696"/>
<path d="M19.0546 106.874C10.0734 106.874 2.70557 112.368 2.70557 119.066C2.70557 125.764 10.0196 131.218 19.0546 131.218C28.0896 131.218 35.4036 125.764 35.4036 119.066C35.3498 112.368 28.0358 106.874 19.0546 106.874ZM19.0546 130.416C10.665 130.416 3.78116 125.323 3.78116 119.066C3.78116 112.809 10.6112 107.676 19.0546 107.676C27.4979 107.676 34.328 112.769 34.328 119.066C34.2742 125.323 27.4442 130.416 19.0546 130.416Z" fill="#969696"/>
<path d="M26.9849 118.329C26.9849 119.212 27.9529 119.934 29.1361 119.934C30.3193 119.934 31.2873 119.212 31.2873 118.329C31.2873 117.447 30.3193 116.725 29.1361 116.725C27.9528 116.725 26.9849 117.447 26.9849 118.329ZM30.2116 118.329C30.2116 118.771 29.7276 119.132 29.136 119.132C28.5445 119.132 28.0605 118.771 28.0605 118.329C28.0605 117.888 28.5445 117.527 29.136 117.527C29.7276 117.527 30.2116 117.888 30.2116 118.329Z" fill="white"/>
<path d="M13.979 125.323C13.979 126.205 14.947 126.927 16.1303 126.927C17.3134 126.927 18.2814 126.205 18.2814 125.323C18.2814 124.44 17.3133 123.718 16.1302 123.718C14.947 123.718 13.979 124.44 13.979 125.323ZM17.2058 125.323C17.2058 125.764 16.7218 126.125 16.1303 126.125C15.5387 126.125 15.0547 125.764 15.0547 125.323C15.0547 124.881 15.5387 124.52 16.1303 124.52C16.7218 124.52 17.2058 124.881 17.2058 125.323Z" fill="white"/>
<path d="M8.16726 119.142C7.21753 119.668 7.01779 120.678 7.72346 121.387C8.42913 122.095 9.78345 122.244 10.7333 121.717C11.6829 121.191 11.8827 120.181 11.1769 119.473C10.4713 118.765 9.117 118.616 8.16726 119.142ZM10.0918 121.074C9.61688 121.337 8.9396 121.262 8.58679 120.908C8.23399 120.554 8.33395 120.049 8.80876 119.786C9.28363 119.523 9.96079 119.597 10.3136 119.951C10.6665 120.305 10.5666 120.81 10.0918 121.074Z" fill="white"/>
<path d="M24.5549 112.174C24.5549 111.291 23.5868 110.569 22.4037 110.569C21.2205 110.569 20.2524 111.291 20.2524 112.174C20.2524 113.056 21.2205 113.778 22.4037 113.778C23.5868 113.778 24.5549 113.056 24.5549 112.174ZM21.3282 112.174C21.3282 111.732 21.8122 111.371 22.4038 111.371C22.9953 111.371 23.4793 111.732 23.4793 112.174C23.4793 112.615 22.9953 112.976 22.4038 112.976C21.8122 112.976 21.3282 112.615 21.3282 112.174Z" fill="white"/>
<path d="M16.3422 122.366V122.83C17.1473 122.83 17.8493 123.023 18.3188 123.373C18.5882 123.574 18.9689 124.032 19.2119 124.603C19.4035 125.052 19.5773 125.726 19.3168 126.385C18.9544 127.301 17.8427 127.915 16.0126 128.208L15.9751 128.214L15.9402 128.223C15.9347 128.225 15.3873 128.363 14.8072 128.363C14.5038 128.363 14.2565 128.326 14.0722 128.252C13.5367 128.039 13.4241 127.78 13.1994 127.161C13.1592 127.05 13.1177 126.936 13.0694 126.814C12.7987 126.127 12.4175 124.182 13.8837 123.427C14.6321 123.042 15.5052 122.83 16.3421 122.83V122.366H16.3422ZM16.3422 122.366C15.4185 122.366 14.4214 122.587 13.5304 123.045C11.7253 123.974 12.161 126.155 12.4722 126.944C12.7835 127.734 12.8457 128.291 13.7794 128.662C14.0906 128.786 14.457 128.827 14.8073 128.827C15.5077 128.827 16.1435 128.662 16.1435 128.662C21.931 127.734 19.9416 123.927 18.759 123.045C18.1601 122.599 17.2897 122.366 16.3422 122.366Z" fill="white"/>
<path d="M22.4065 109.63C23.2433 109.63 24.1165 109.842 24.8648 110.227C26.3311 110.981 25.9499 112.927 25.6792 113.613C25.6309 113.735 25.5894 113.85 25.5492 113.96C25.3244 114.579 25.2118 114.839 24.6763 115.052C24.4921 115.125 24.2448 115.162 23.9414 115.162C23.3613 115.162 22.8139 115.024 22.8097 115.023L22.7735 115.014L22.736 115.008C20.906 114.714 19.7942 114.1 19.4318 113.184C19.1713 112.525 19.3451 111.851 19.5367 111.402C19.7797 110.832 20.1604 110.374 20.4298 110.173C20.8993 109.823 21.6013 109.63 22.4065 109.63ZM22.4065 109.166C21.4588 109.166 20.5886 109.398 19.9897 109.845C18.807 110.726 16.8176 114.533 22.6052 115.461C22.6052 115.461 23.241 115.626 23.9414 115.626C24.2917 115.626 24.6581 115.585 24.9693 115.461C25.903 115.09 25.9653 114.533 26.2765 113.744C26.5877 112.955 27.0234 110.773 25.2183 109.845C24.3272 109.386 23.3301 109.166 22.4065 109.166Z" fill="white"/>
<path d="M8.21979 117.389V117.853C8.81846 117.853 9.53272 117.98 10.3427 118.231C10.7145 118.349 11.8378 118.784 12.146 119.231C12.5438 119.808 12.7914 120.741 12.495 121.408C12.3851 121.655 12.1228 122.126 11.6002 122.498C11.0725 122.874 10.3979 123.064 9.5949 123.064H9.58631C8.66484 123.063 7.77641 122.862 7.08456 122.498C6.4374 122.157 6.01663 121.705 5.89979 121.225C5.72768 120.517 5.76484 119.118 6.597 118.374C6.9897 118.023 7.52034 117.853 8.21935 117.853L8.21979 117.389ZM8.21935 117.389C5.0865 117.389 5.04006 120.291 5.28736 121.308C5.58589 122.535 7.39218 123.525 9.58494 123.529C9.5883 123.529 9.5916 123.529 9.59496 123.529C11.7806 123.529 12.7396 122.334 13.0858 121.554C13.4327 120.773 13.1833 119.72 12.6996 119.018C12.2158 118.316 10.5837 117.803 10.5837 117.803C9.64688 117.513 8.86732 117.389 8.21935 117.389Z" fill="white"/>
<path d="M28.8893 114.838V115.303C29.8122 115.303 30.7087 115.839 31.5542 116.895C31.7584 117.155 32.3126 118.004 32.2025 118.5C32.0603 119.14 31.5127 119.999 30.7412 120.403C30.3895 120.587 29.6708 120.896 28.8097 120.896C28.2079 120.896 27.6265 120.742 27.0818 120.439C26.3434 120.028 25.7912 119.471 25.527 118.871C25.2797 118.31 25.3034 117.76 25.5938 117.322C26.0312 116.663 27.412 115.303 28.8889 115.303L28.8893 114.838ZM28.8888 114.838C27.0476 114.839 25.5143 116.396 25.036 117.116C24.2941 118.234 24.9524 119.832 26.7096 120.811C27.433 121.213 28.1516 121.36 28.8098 121.36C29.7504 121.36 30.5677 121.061 31.0988 120.783C32.0018 120.31 32.6436 119.354 32.8166 118.576C32.9896 117.797 32.09 116.659 32.09 116.659C31.0124 115.311 29.904 114.838 28.8888 114.838Z" fill="white"/>
<path d="M26.0624 126.017C27.2309 125.879 28.035 125.053 27.8494 124.181C27.6638 123.31 26.5558 122.71 25.3873 122.848C24.2188 122.987 23.4147 123.813 23.6004 124.685C23.7861 125.556 24.894 126.156 26.0624 126.017ZM25.5561 123.641C26.1404 123.572 26.6943 123.871 26.7872 124.307C26.88 124.743 26.4779 125.156 25.8937 125.225C25.3094 125.294 24.7554 124.994 24.6626 124.559C24.5698 124.123 24.9719 123.71 25.5561 123.641Z" fill="white"/>
<path d="M25.4637 122.148H25.4695C26.3395 122.152 27.5633 122.42 28.2189 122.925C28.4625 123.113 28.9009 123.505 29.1009 124.024C29.303 124.548 29.2155 125.083 28.8408 125.615C28.1418 126.607 26.8478 127.274 25.6209 127.274C25.386 127.274 25.1594 127.249 24.9474 127.2C24.0327 126.987 22.0518 126.205 21.7681 125.142C21.5826 124.447 22.148 123.685 23.4461 122.877C23.7534 122.688 24.7838 122.148 25.4637 122.148ZM25.4637 121.684C24.4069 121.684 23.0497 122.519 23.0497 122.519C18.5037 125.348 23.1654 127.272 24.7622 127.643C25.0385 127.707 25.3271 127.738 25.6209 127.738C27.0257 127.738 28.5485 127.028 29.3918 125.831C30.4116 124.383 29.4334 123.193 28.6661 122.602C27.8988 122.012 26.5317 121.689 25.4736 121.684C25.4702 121.684 25.467 121.684 25.4637 121.684Z" fill="white"/>
<path d="M17.1133 118.855C17.1133 119.737 18.0813 120.459 19.2645 120.459C20.4477 120.459 21.4157 119.737 21.4157 118.855C21.4157 117.972 20.4477 117.25 19.2645 117.25C18.0813 117.251 17.1133 117.972 17.1133 118.855ZM20.3401 118.855C20.3401 119.296 19.8561 119.657 19.2645 119.657C18.673 119.657 18.1889 119.296 18.1889 118.855C18.1889 118.414 18.673 118.053 19.2645 118.053C19.8561 118.053 20.3401 118.414 20.3401 118.855Z" fill="white"/>
<path d="M19.0187 115.364V115.828C19.9416 115.828 20.8381 116.364 21.6836 117.421C21.8878 117.681 22.442 118.529 22.3319 119.025C22.1897 119.665 21.6421 120.524 20.8706 120.928C20.5189 121.112 19.8002 121.421 18.9391 121.421C18.3373 121.421 17.7559 121.267 17.2112 120.964C16.4728 120.553 15.9206 119.996 15.6564 119.396C15.4091 118.835 15.4328 118.285 15.7232 117.848C16.1605 117.189 17.5414 115.828 19.0183 115.828L19.0187 115.364ZM19.0182 115.364C17.177 115.364 15.6437 116.921 15.1654 117.642C14.4235 118.76 15.0818 120.358 16.839 121.336C17.5624 121.739 18.281 121.885 18.9392 121.885C19.8798 121.885 20.6971 121.586 21.2282 121.308C22.1311 120.836 22.773 119.879 22.946 119.101C23.119 118.322 22.2193 117.184 22.2193 117.184C21.1418 115.837 20.0334 115.364 19.0182 115.364Z" fill="white"/>
<path d="M10.9102 113.6C10.9102 114.483 11.8782 115.205 13.0614 115.205C14.2446 115.205 15.2126 114.483 15.2126 113.6C15.2126 112.718 14.2446 111.996 13.0614 111.996C11.8782 111.996 10.9102 112.718 10.9102 113.6ZM14.1369 113.6C14.1369 114.042 13.653 114.403 13.0614 114.403C12.4698 114.403 11.9858 114.042 11.9858 113.6C11.9858 113.159 12.4698 112.798 13.0614 112.798C13.653 112.798 14.1369 113.159 14.1369 113.6Z" fill="white"/>
<path d="M12.815 110.11V110.575C13.7379 110.575 14.6345 111.111 15.4799 112.167C15.6841 112.427 16.2383 113.276 16.1282 113.772C15.986 114.412 15.4384 115.271 14.6669 115.675C14.3152 115.859 13.5965 116.168 12.7354 116.168C12.1336 116.168 11.5522 116.014 11.0076 115.711C10.2692 115.3 9.71692 114.743 9.45269 114.143C9.20545 113.582 9.22916 113.032 9.51954 112.594C9.95687 111.935 11.3377 110.575 12.8147 110.575L12.815 110.11ZM12.8146 110.11C10.9734 110.111 9.44005 111.668 8.96182 112.388C8.21993 113.506 8.87816 115.104 10.6353 116.083C11.3588 116.485 12.0774 116.632 12.7355 116.632C13.6762 116.632 14.4935 116.333 15.0246 116.055C15.9275 115.582 16.5694 114.626 16.7424 113.847C16.9154 113.069 16.0157 111.931 16.0157 111.931C14.9381 110.583 13.8298 110.11 12.8146 110.11Z" fill="white"/>
<path fill-rule="evenodd" clip-rule="evenodd" d="M0.747263 119.066H0V120.066V139.242L1.07315e-05 139.242C1.07315e-05 147.083 8.5312 153.44 19.055 153.44C29.5787 153.44 38.1099 147.083 38.1099 139.242L38.1099 139.226V120.066V119.066H37.3626V123.549H37.1099V139.226V139.227L37.1099 139.242C37.1099 142.774 35.1905 146.051 31.9314 148.479C28.6721 150.908 24.1229 152.44 19.055 152.44C13.987 152.44 9.4378 150.908 6.17856 148.479C2.91938 146.051 1.00001 142.774 1.00001 139.242L1 139.242V139.237V123.549H0.747263V119.066Z" fill="#969696"/>
<ellipse cx="19.0549" cy="151.945" rx="19.0549" ry="14.1978" fill="#FFF8D6"/>
<path d="M19.0546 137.747C8.56763 137.747 0.0166016 144.124 0.0166016 151.945C0.0166016 159.766 8.56763 166.143 19.0546 166.143C29.5416 166.143 38.0926 159.766 38.0926 151.945C38.0926 144.124 29.5416 137.747 19.0546 137.747ZM19.0546 165.341C9.15914 165.341 1.0922 159.325 1.0922 151.945C1.0922 144.565 9.15914 138.549 19.0546 138.549C28.9501 138.549 37.017 144.565 37.017 151.945C37.017 159.325 28.9501 165.341 19.0546 165.341Z" fill="#969696"/>
<path d="M19.0546 139.752C10.0734 139.752 2.70557 145.247 2.70557 151.945C2.70557 158.643 10.0196 164.097 19.0546 164.097C28.0896 164.097 35.4036 158.643 35.4036 151.945C35.3498 145.247 28.0358 139.752 19.0546 139.752ZM19.0546 163.295C10.665 163.295 3.78116 158.202 3.78116 151.945C3.78116 145.688 10.6112 140.555 19.0546 140.555C27.4979 140.555 34.328 145.648 34.328 151.945C34.2742 158.202 27.4442 163.295 19.0546 163.295Z" fill="#969696"/>
<path d="M26.9849 151.208C26.9849 152.091 27.9529 152.813 29.1361 152.813C30.3193 152.813 31.2873 152.091 31.2873 151.208C31.2873 150.326 30.3193 149.604 29.1361 149.604C27.9528 149.604 26.9849 150.326 26.9849 151.208ZM30.2116 151.208C30.2116 151.649 29.7276 152.01 29.136 152.01C28.5445 152.01 28.0605 151.649 28.0605 151.208C28.0605 150.767 28.5445 150.406 29.136 150.406C29.7276 150.406 30.2116 150.767 30.2116 151.208Z" fill="white"/>
<path d="M13.979 158.202C13.979 159.084 14.947 159.806 16.1303 159.806C17.3134 159.806 18.2814 159.084 18.2814 158.202C18.2814 157.32 17.3133 156.598 16.1302 156.598C14.947 156.598 13.979 157.32 13.979 158.202ZM17.2058 158.202C17.2058 158.643 16.7218 159.004 16.1303 159.004C15.5387 159.004 15.0547 158.643 15.0547 158.202C15.0547 157.761 15.5387 157.4 16.1303 157.4C16.7218 157.4 17.2058 157.761 17.2058 158.202Z" fill="white"/>
<path d="M8.16726 152.021C7.21753 152.548 7.01779 153.558 7.72346 154.266C8.42913 154.974 9.78345 155.123 10.7333 154.597C11.6829 154.071 11.8827 153.061 11.1769 152.352C10.4713 151.644 9.117 151.495 8.16726 152.021ZM10.0918 153.953C9.61688 154.216 8.9396 154.142 8.58679 153.788C8.23399 153.433 8.33395 152.928 8.80876 152.665C9.28363 152.402 9.96079 152.477 10.3136 152.831C10.6665 153.185 10.5666 153.69 10.0918 153.953Z" fill="white"/>
<path d="M24.5549 145.053C24.5549 144.17 23.5868 143.448 22.4037 143.448C21.2205 143.448 20.2524 144.17 20.2524 145.053C20.2524 145.935 21.2205 146.657 22.4037 146.657C23.5868 146.657 24.5549 145.935 24.5549 145.053ZM21.3282 145.053C21.3282 144.611 21.8122 144.25 22.4038 144.25C22.9953 144.25 23.4793 144.611 23.4793 145.053C23.4793 145.494 22.9953 145.855 22.4038 145.855C21.8122 145.855 21.3282 145.494 21.3282 145.053Z" fill="white"/>
<path d="M16.3422 155.245V155.709C17.1473 155.709 17.8493 155.902 18.3188 156.252C18.5882 156.453 18.9689 156.911 19.2119 157.481C19.4035 157.931 19.5773 158.605 19.3168 159.264C18.9544 160.18 17.8427 160.794 16.0126 161.087L15.9751 161.093L15.9402 161.102C15.9347 161.104 15.3873 161.242 14.8072 161.242C14.5038 161.242 14.2565 161.205 14.0722 161.131C13.5367 160.918 13.4241 160.659 13.1994 160.04C13.1592 159.929 13.1177 159.815 13.0694 159.692C12.7987 159.006 12.4175 157.06 13.8837 156.306C14.6321 155.921 15.5052 155.709 16.3421 155.709V155.245H16.3422ZM16.3422 155.245C15.4185 155.245 14.4214 155.466 13.5304 155.924C11.7253 156.853 12.161 159.034 12.4722 159.823C12.7835 160.613 12.8457 161.17 13.7794 161.541C14.0906 161.665 14.457 161.706 14.8073 161.706C15.5077 161.706 16.1435 161.541 16.1435 161.541C21.931 160.613 19.9416 156.806 18.759 155.924C18.1601 155.477 17.2897 155.245 16.3422 155.245Z" fill="white"/>
<path d="M22.4065 142.509C23.2433 142.509 24.1165 142.721 24.8648 143.106C26.3311 143.86 25.9499 145.806 25.6792 146.492C25.6309 146.615 25.5894 146.729 25.5492 146.84C25.3244 147.459 25.2118 147.718 24.6763 147.931C24.4921 148.004 24.2448 148.042 23.9414 148.042C23.3613 148.042 22.8139 147.903 22.8097 147.902L22.7735 147.893L22.736 147.887C20.906 147.593 19.7942 146.98 19.4318 146.063C19.1713 145.405 19.3451 144.731 19.5367 144.281C19.7797 143.711 20.1604 143.253 20.4298 143.052C20.8993 142.702 21.6013 142.509 22.4065 142.509ZM22.4065 142.045C21.4588 142.045 20.5886 142.277 19.9897 142.724C18.807 143.606 16.8176 147.412 22.6052 148.341C22.6052 148.341 23.241 148.506 23.9414 148.506C24.2917 148.506 24.6581 148.465 24.9693 148.341C25.903 147.969 25.9653 147.412 26.2765 146.623C26.5877 145.834 27.0234 143.652 25.2183 142.724C24.3272 142.266 23.3301 142.045 22.4065 142.045Z" fill="white"/>
<path d="M8.21979 150.268V150.732C8.81846 150.732 9.53272 150.859 10.3427 151.11C10.7145 151.228 11.8378 151.662 12.146 152.109C12.5438 152.686 12.7914 153.62 12.495 154.287C12.3851 154.534 12.1228 155.005 11.6002 155.377C11.0725 155.753 10.3979 155.943 9.5949 155.943H9.58631C8.66484 155.942 7.77641 155.741 7.08456 155.377C6.4374 155.036 6.01663 154.584 5.89979 154.104C5.72768 153.396 5.76484 151.997 6.597 151.253C6.9897 150.902 7.52034 150.732 8.21935 150.732L8.21979 150.268ZM8.21935 150.268C5.0865 150.268 5.04006 153.17 5.28736 154.187C5.58589 155.414 7.39218 156.404 9.58494 156.408C9.5883 156.408 9.5916 156.408 9.59496 156.408C11.7806 156.408 12.7396 155.212 13.0858 154.433C13.4327 153.652 13.1833 152.599 12.6996 151.897C12.2158 151.195 10.5837 150.682 10.5837 150.682C9.64688 150.392 8.86732 150.267 8.21935 150.268Z" fill="white"/>
<path d="M28.8893 147.717V148.181C29.8122 148.181 30.7087 148.717 31.5542 149.774C31.7584 150.034 32.3126 150.883 32.2025 151.379C32.0603 152.019 31.5127 152.878 30.7412 153.282C30.3895 153.466 29.6708 153.774 28.8097 153.774C28.2079 153.774 27.6265 153.621 27.0818 153.318C26.3434 152.906 25.7912 152.35 25.527 151.75C25.2797 151.189 25.3034 150.639 25.5938 150.201C26.0312 149.542 27.412 148.182 28.8889 148.181L28.8893 147.717ZM28.8888 147.717C27.0476 147.718 25.5143 149.275 25.036 149.995C24.2941 151.113 24.9524 152.711 26.7096 153.69C27.433 154.092 28.1516 154.239 28.8098 154.239C29.7504 154.239 30.5677 153.94 31.0988 153.662C32.0018 153.189 32.6436 152.233 32.8166 151.454C32.9896 150.676 32.09 149.538 32.09 149.538C31.0124 148.19 29.904 147.717 28.8888 147.717Z" fill="white"/>
<path d="M26.0624 158.897C27.2309 158.758 28.035 157.932 27.8494 157.061C27.6638 156.189 26.5558 155.589 25.3873 155.728C24.2188 155.866 23.4147 156.693 23.6004 157.564C23.7861 158.435 24.894 159.035 26.0624 158.897ZM25.5561 156.52C26.1404 156.451 26.6943 156.751 26.7872 157.186C26.88 157.622 26.4779 158.035 25.8937 158.104C25.3094 158.174 24.7554 157.874 24.6626 157.438C24.5698 157.002 24.9719 156.589 25.5561 156.52Z" fill="white"/>
<path d="M25.4637 155.027H25.4695C26.3395 155.031 27.5633 155.299 28.2189 155.804C28.4625 155.992 28.9009 156.384 29.1009 156.902C29.303 157.427 29.2155 157.962 28.8408 158.494C28.1418 159.486 26.8478 160.153 25.6209 160.153C25.386 160.153 25.1594 160.128 24.9474 160.079C24.0327 159.866 22.0518 159.084 21.7681 158.021C21.5826 157.326 22.148 156.564 23.4461 155.756C23.7534 155.567 24.7838 155.027 25.4637 155.027ZM25.4637 154.562C24.4069 154.563 23.0497 155.398 23.0497 155.398C18.5037 158.226 23.1654 160.151 24.7622 160.522C25.0385 160.586 25.3271 160.617 25.6209 160.617C27.0257 160.617 28.5485 159.907 29.3918 158.71C30.4116 157.262 29.4334 156.072 28.6661 155.481C27.8988 154.89 26.5317 154.568 25.4736 154.562C25.4702 154.562 25.467 154.562 25.4637 154.562Z" fill="white"/>
<path d="M17.1133 151.734C17.1133 152.616 18.0813 153.338 19.2645 153.338C20.4477 153.338 21.4157 152.616 21.4157 151.734C21.4157 150.851 20.4477 150.129 19.2645 150.129C18.0813 150.129 17.1133 150.851 17.1133 151.734ZM20.3401 151.734C20.3401 152.175 19.8561 152.536 19.2645 152.536C18.673 152.536 18.1889 152.175 18.1889 151.734C18.1889 151.292 18.673 150.932 19.2645 150.932C19.8561 150.932 20.3401 151.292 20.3401 151.734Z" fill="white"/>
<path d="M19.0187 148.243V148.707C19.9416 148.707 20.8381 149.243 21.6836 150.3C21.8878 150.56 22.442 151.409 22.3319 151.904C22.1897 152.545 21.6421 153.404 20.8706 153.807C20.5189 153.992 19.8002 154.3 18.9391 154.3C18.3373 154.3 17.7559 154.147 17.2112 153.843C16.4728 153.432 15.9206 152.876 15.6564 152.276C15.4091 151.715 15.4328 151.165 15.7232 150.727C16.1605 150.068 17.5414 148.708 19.0183 148.707L19.0187 148.243ZM19.0182 148.243C17.177 148.243 15.6437 149.801 15.1654 150.521C14.4235 151.639 15.0818 153.237 16.839 154.215C17.5624 154.618 18.281 154.765 18.9392 154.765C19.8798 154.765 20.6971 154.465 21.2282 154.187C22.1311 153.715 22.773 152.759 22.946 151.98C23.119 151.202 22.2193 150.064 22.2193 150.064C21.1418 148.716 20.0334 148.243 19.0182 148.243Z" fill="white"/>
<path d="M10.9102 146.48C10.9102 147.362 11.8782 148.084 13.0614 148.084C14.2446 148.084 15.2126 147.362 15.2126 146.48C15.2126 145.597 14.2446 144.875 13.0614 144.875C11.8782 144.875 10.9102 145.597 10.9102 146.48ZM14.1369 146.48C14.1369 146.921 13.653 147.282 13.0614 147.282C12.4698 147.282 11.9858 146.921 11.9858 146.48C11.9858 146.039 12.4698 145.678 13.0614 145.678C13.653 145.678 14.1369 146.039 14.1369 146.48Z" fill="white"/>
<path d="M12.815 142.989V143.453C13.7379 143.453 14.6345 143.989 15.4799 145.046C15.6841 145.306 16.2383 146.155 16.1282 146.65C15.986 147.291 15.4384 148.15 14.6669 148.554C14.3152 148.738 13.5965 149.046 12.7354 149.046C12.1336 149.046 11.5522 148.893 11.0076 148.59C10.2692 148.178 9.71692 147.622 9.45269 147.022C9.20545 146.461 9.22916 145.911 9.51954 145.473C9.95687 144.814 11.3377 143.454 12.8147 143.453L12.815 142.989ZM12.8146 142.989C10.9734 142.99 9.44005 144.547 8.96182 145.267C8.21993 146.385 8.87816 147.983 10.6353 148.962C11.3588 149.364 12.0774 149.511 12.7355 149.511C13.6762 149.511 14.4935 149.212 15.0246 148.934C15.9275 148.461 16.5694 147.505 16.7424 146.726C16.9154 145.948 16.0157 144.81 16.0157 144.81C14.9381 143.462 13.8298 142.989 12.8146 142.989Z" fill="white"/>
<path fill-rule="evenodd" clip-rule="evenodd" d="M0.747263 151.945H0V152.945V172.121L1.07315e-05 172.121C1.07315e-05 179.962 8.5312 186.319 19.055 186.319C29.5787 186.319 38.1099 179.962 38.1099 172.121L38.1099 172.105V152.945V151.945H37.3626V156.429H37.1099V172.105V172.107L37.1099 172.121C37.1099 175.653 35.1905 178.93 31.9314 181.358C28.6721 183.787 24.1229 185.319 19.055 185.319C13.987 185.319 9.4378 183.787 6.17856 181.358C2.91938 178.93 1.00001 175.653 1.00001 172.121L1 172.116V156.429H0.747263V151.945Z" fill="#969696"/>
<g filter="url(#filter0_b_2620_960)">
<path d="M16.0658 79.8352L10.4614 1H26.901L21.2966 79.8352H16.0658Z" fill="white" fill-opacity="0.3"/>
</g>
<path d="M21.2966 79.8352H16.0658L14.5713 57.0439H22.7911L21.2966 79.8352Z" fill="#FFDE2E"/>
<path d="M10.4614 1L16.0658 79.8352M21.2966 79.8352L26.901 1" stroke="#969696"/>
<path fill-rule="evenodd" clip-rule="evenodd" d="M60.9011 83.9453H41.8462V104.121C41.8462 111.962 50.3774 118.319 60.9011 118.319C71.4249 118.319 79.9561 111.962 79.9561 104.121V83.9453H60.9011Z" fill="#F4A5F1"/>
<path fill-rule="evenodd" clip-rule="evenodd" d="M102.747 83.9453H83.6924V104.121C83.6924 111.962 92.2236 118.319 102.747 118.319C113.271 118.319 121.802 111.962 121.802 104.121V83.9453H102.747Z" fill="#67C8FF"/>
<ellipse cx="60.9011" cy="83.9449" rx="19.0549" ry="14.1978" fill="#F4A5F1"/>
<path d="M60.9008 69.7471C50.4138 69.7471 41.8628 76.1241 41.8628 83.9449C41.8628 91.7657 50.4138 98.1427 60.9008 98.1427C71.3878 98.1427 79.9388 91.7657 79.9388 83.9449C79.9388 76.1241 71.3878 69.7471 60.9008 69.7471ZM60.9008 97.3406C51.0053 97.3406 42.9384 91.3246 42.9384 83.9449C42.9384 76.5652 51.0053 70.5492 60.9008 70.5492C70.7962 70.5492 78.8632 76.5652 78.8632 83.9449C78.8632 91.3246 70.7962 97.3406 60.9008 97.3406Z" fill="#969696"/>
<path d="M60.9008 71.7524C51.9196 71.7524 44.5518 77.2471 44.5518 83.9449C44.5518 90.6428 51.8658 96.0973 60.9008 96.0973C69.9358 96.0973 77.2498 90.6428 77.2498 83.9449C77.196 77.2471 69.882 71.7524 60.9008 71.7524ZM60.9008 95.2952C52.5111 95.2952 45.6274 90.2015 45.6274 83.9449C45.6274 77.6883 52.4574 72.5546 60.9008 72.5546C69.3441 72.5546 76.1742 77.6481 76.1742 83.9449C76.1204 90.2016 69.2904 95.2952 60.9008 95.2952Z" fill="#969696"/>
<path d="M68.8311 83.2083C68.8311 84.0906 69.7991 84.8126 70.9823 84.8126C72.1654 84.8126 73.1335 84.0906 73.1335 83.2083C73.1335 82.3259 72.1654 81.604 70.9823 81.604C69.799 81.6041 68.8311 82.326 68.8311 83.2083ZM72.0578 83.2083C72.0578 83.6495 71.5738 84.0104 70.9822 84.0104C70.3907 84.0104 69.9066 83.6495 69.9066 83.2083C69.9066 82.7671 70.3907 82.4061 70.9822 82.4061C71.5738 82.4061 72.0578 82.7671 72.0578 83.2083Z" fill="white"/>
<path d="M55.8252 90.2019C55.8252 91.0843 56.7932 91.8062 57.9764 91.8062C59.1596 91.8062 60.1276 91.0843 60.1276 90.2019C60.1276 89.3196 59.1595 88.5977 57.9764 88.5977C56.7932 88.5977 55.8252 89.3196 55.8252 90.2019ZM59.052 90.2019C59.052 90.6431 58.568 91.0041 57.9764 91.0041C57.3849 91.0041 56.9008 90.6431 56.9008 90.2019C56.9008 89.7608 57.3849 89.3998 57.9764 89.3998C58.568 89.3998 59.052 89.7608 59.052 90.2019Z" fill="white"/>
<path d="M50.013 84.0214C49.0632 84.5476 48.8635 85.5576 49.5692 86.2659C50.2748 86.9742 51.6292 87.1231 52.579 86.5968C53.5286 86.0706 53.7284 85.0606 53.0226 84.3523C52.317 83.6441 50.9627 83.4951 50.013 84.0214ZM51.9375 85.953C51.4626 86.2161 50.7853 86.1416 50.4325 85.7875C50.0797 85.4334 50.1797 84.9284 50.6545 84.6653C51.1293 84.4021 51.8065 84.4766 52.1593 84.8307C52.5122 85.1848 52.4123 85.6898 51.9375 85.953Z" fill="white"/>
<path d="M66.4011 77.0525C66.4011 76.1702 65.433 75.4482 64.2499 75.4482C63.0667 75.4482 62.0986 76.1702 62.0986 77.0525C62.0986 77.9349 63.0667 78.6568 64.2499 78.6568C65.433 78.6568 66.4011 77.9349 66.4011 77.0525ZM63.1743 77.0525C63.1743 76.6113 63.6584 76.2504 64.2499 76.2504C64.8415 76.2504 65.3255 76.6113 65.3255 77.0525C65.3255 77.4937 64.8415 77.8547 64.2499 77.8547C63.6584 77.8547 63.1743 77.4937 63.1743 77.0525Z" fill="white"/>
<path d="M58.1884 87.2451V87.7093C58.9935 87.7093 59.6955 87.9022 60.165 88.2524C60.4344 88.4533 60.8151 88.9112 61.0581 89.4814C61.2497 89.9308 61.4234 90.6048 61.1629 91.2635C60.8006 92.18 59.6889 92.7936 57.8588 93.0872L57.8213 93.0933L57.7863 93.1022C57.7809 93.1036 57.2335 93.2418 56.6534 93.2418C56.35 93.2418 56.1027 93.2047 55.9184 93.1314C55.3829 92.9184 55.2703 92.6588 55.0456 92.04C55.0054 91.9294 54.9638 91.815 54.9155 91.6925C54.6449 91.0063 54.2637 89.0604 55.7299 88.3063C56.4783 87.9214 57.3514 87.7094 58.1883 87.7094V87.2451H58.1884ZM58.1884 87.2451C57.2647 87.2451 56.2676 87.4658 55.3766 87.9241C53.5715 88.8525 54.0072 91.0342 54.3184 91.8234C54.6297 92.6125 54.6919 93.1696 55.6256 93.5409C55.9368 93.6647 56.3032 93.706 56.6535 93.706C57.3539 93.706 57.9897 93.5409 57.9897 93.5409C63.7772 92.6125 61.7878 88.8061 60.6052 87.9241C60.0062 87.4774 59.1359 87.2451 58.1884 87.2451Z" fill="white"/>
<path d="M64.2527 74.5091C65.0895 74.5091 65.9626 74.7211 66.711 75.106C68.1773 75.8602 67.7961 77.8061 67.5254 78.4922C67.4771 78.6147 67.4356 78.7291 67.3954 78.8397C67.1706 79.4586 67.058 79.7181 66.5225 79.9312C66.3383 80.0044 66.091 80.0416 65.7876 80.0416C65.2075 80.0416 64.6601 79.9034 64.6559 79.9023L64.6197 79.8929L64.5822 79.8869C62.7522 79.5934 61.6404 78.9798 61.278 78.0633C61.0175 77.4046 61.1913 76.7306 61.3828 76.2812C61.6259 75.711 62.0066 75.2531 62.276 75.0522C62.7455 74.702 63.4475 74.5091 64.2527 74.5091ZM64.2527 74.0449C63.305 74.0449 62.4348 74.2773 61.8359 74.7239C60.6532 75.6059 58.6638 79.4123 64.4514 80.3407C64.4514 80.3407 65.0872 80.5058 65.7876 80.5058C66.1379 80.5058 66.5042 80.4645 66.8155 80.3407C67.7492 79.9694 67.8114 79.4123 68.1227 78.6232C68.4339 77.834 68.8696 75.6523 67.0645 74.7239C66.1734 74.2656 65.1763 74.0449 64.2527 74.0449Z" fill="white"/>
<path d="M50.066 82.2676V82.7318C50.6647 82.7318 51.3789 82.8591 52.1889 83.1101C52.5607 83.228 53.684 83.6625 53.9921 84.1094C54.3899 84.6865 54.6376 85.6197 54.3411 86.2869C54.2313 86.5342 53.969 87.0046 53.4464 87.3769C52.9187 87.7527 52.2441 87.9433 51.4411 87.9433H51.4325C50.511 87.9418 49.6226 87.7405 48.9308 87.3767C48.2836 87.0362 47.8628 86.5842 47.746 86.1038C47.5739 85.3962 47.611 83.9965 48.4432 83.2532C48.8359 82.9024 49.3665 82.7319 50.0655 82.7318L50.066 82.2676ZM50.0655 82.2676C46.9327 82.2679 46.8863 85.1697 47.1336 86.1866C47.4321 87.4139 49.2384 88.4039 51.4311 88.4075C51.4345 88.4075 51.4378 88.4075 51.4412 88.4075C53.6268 88.4075 54.5858 87.2125 54.932 86.4328C55.2789 85.652 55.0295 84.599 54.5457 83.8972C54.062 83.1953 52.4299 82.6821 52.4299 82.6821C51.4931 82.3916 50.7135 82.2675 50.0655 82.2676Z" fill="white"/>
<path d="M70.7355 79.7173V80.1815C71.6584 80.1815 72.5549 80.7175 73.4004 81.7744C73.6046 82.0343 74.1588 82.8828 74.0487 83.3785C73.9065 84.0187 73.3589 84.8779 72.5874 85.2816C72.2357 85.4657 71.517 85.7745 70.6559 85.7745C70.0541 85.7745 69.4727 85.6207 68.928 85.3175C68.1896 84.9065 67.6374 84.3497 67.3732 83.7499C67.1259 83.1888 67.1496 82.6388 67.44 82.2013C67.8773 81.5424 69.2582 80.1817 70.7351 80.1815L70.7355 79.7173ZM70.735 79.7173C68.8938 79.7176 67.3605 81.2748 66.8822 81.9953C66.1403 83.1132 66.7986 84.7113 68.5558 85.6895C69.2792 86.0922 69.9978 86.2387 70.656 86.2387C71.5966 86.2387 72.4139 85.9396 72.945 85.6616C73.8479 85.1891 74.4898 84.233 74.6628 83.4544C74.8358 82.6759 73.9361 81.538 73.9361 81.538C72.8586 80.1903 71.7502 79.7171 70.735 79.7173Z" fill="white"/>
<path d="M67.9081 90.8967C69.0766 90.7583 69.8807 89.932 69.6951 89.0605C69.5095 88.1892 68.4016 87.5895 67.233 87.7279C66.0645 87.8663 65.2604 88.6926 65.4461 89.564C65.6318 90.4355 66.7397 91.0352 67.9081 90.8967ZM67.4018 88.5201C67.9861 88.4509 68.54 88.7507 68.6329 89.1864C68.7257 89.6221 68.3236 90.0353 67.7394 90.1045C67.1551 90.1737 66.6011 89.8738 66.5083 89.4381C66.4155 89.0024 66.8176 88.5893 67.4018 88.5201Z" fill="white"/>
<path d="M67.3099 87.0267H67.3157C68.1857 87.0309 69.4095 87.2994 70.0651 87.8042C70.3087 87.9918 70.747 88.3837 70.9471 88.9025C71.1491 89.4265 71.0617 89.9619 70.687 90.4939C69.988 91.4863 68.694 92.153 67.4671 92.153C67.2322 92.153 67.0056 92.1281 66.7936 92.0788C65.8789 91.8662 63.898 91.0836 63.6143 90.0212C63.4288 89.3264 63.9941 88.5638 65.2923 87.7563C65.5996 87.567 66.63 87.0267 67.3099 87.0267ZM67.3099 86.5625C66.2531 86.5625 64.8959 87.3984 64.8959 87.3984C60.3499 90.2265 65.0115 92.151 66.6084 92.522C66.8847 92.5862 67.1732 92.6173 67.4671 92.6173C68.8719 92.6173 70.3947 91.9071 71.238 90.7098C72.2578 89.2621 71.2796 88.0722 70.5123 87.4813C69.745 86.8904 68.3779 86.5677 67.3198 86.5625C67.3164 86.5625 67.3132 86.5625 67.3099 86.5625Z" fill="white"/>
<path d="M58.9595 83.7337C58.9595 84.616 59.9275 85.3379 61.1107 85.3379C62.2939 85.3379 63.2619 84.616 63.2619 83.7337C63.2619 82.8513 62.2939 82.1294 61.1107 82.1294C59.9274 82.1294 58.9595 82.8513 58.9595 83.7337ZM62.1863 83.7337C62.1863 84.1748 61.7023 84.5358 61.1107 84.5358C60.5191 84.5358 60.0351 84.1748 60.0351 83.7337C60.0351 83.2925 60.5191 82.9315 61.1107 82.9315C61.7023 82.9315 62.1863 83.2925 62.1863 83.7337Z" fill="white"/>
<path d="M60.8649 80.2432V80.7074C61.7877 80.7074 62.6843 81.2433 63.5298 82.3003C63.734 82.5602 64.2882 83.4086 64.1781 83.9044C64.0358 84.5445 63.4883 85.4038 62.7168 85.8075C62.3651 85.9915 61.6464 86.3004 60.7853 86.3004C60.1834 86.3004 59.6021 86.1466 59.0574 85.8434C58.319 85.4324 57.7668 84.8756 57.5026 84.2758C57.2553 83.7146 57.279 83.1647 57.5694 82.7271C58.0067 82.0683 59.3876 80.7076 60.8645 80.7074L60.8649 80.2432ZM60.8644 80.2432C59.0232 80.2434 57.4899 81.8006 57.0116 82.5212C56.2697 83.6391 56.928 85.2372 58.6851 86.2154C59.4086 86.6181 60.1272 86.7646 60.7854 86.7646C61.726 86.7646 62.5433 86.4654 63.0744 86.1875C63.9773 85.715 64.6192 84.7589 64.7922 83.9803C64.9652 83.2017 64.0655 82.0639 64.0655 82.0639C62.988 80.7162 61.8796 80.243 60.8644 80.2432Z" fill="white"/>
<path d="M52.7563 78.4798C52.7563 79.3621 53.7244 80.084 54.9076 80.084C56.0907 80.084 57.0588 79.3621 57.0588 78.4798C57.0588 77.5974 56.0907 76.8755 54.9076 76.8755C53.7244 76.8755 52.7563 77.5974 52.7563 78.4798ZM55.9831 78.4798C55.9831 78.9209 55.4992 79.2819 54.9076 79.2819C54.316 79.2819 53.832 78.9209 53.832 78.4798C53.832 78.0386 54.316 77.6776 54.9076 77.6776C55.4992 77.6776 55.9831 78.0386 55.9831 78.4798Z" fill="white"/>
<path d="M54.6612 74.9893V75.4535C55.5841 75.4535 56.4806 75.9894 57.3261 77.0464C57.5303 77.3063 58.0845 78.1547 57.9744 78.6505C57.8322 79.2906 57.2846 80.1499 56.5131 80.5536C56.1614 80.7376 55.4427 81.0465 54.5816 81.0465C53.9798 81.0465 53.3984 80.8927 52.8538 80.5895C52.1153 80.1785 51.5631 79.6217 51.2989 79.0219C51.0516 78.4607 51.0754 77.9107 51.3657 77.4732C51.8031 76.8144 53.1839 75.4537 54.6609 75.4535L54.6612 74.9893ZM54.6608 74.9893C52.8196 74.9895 51.2862 76.5467 50.808 77.2673C50.0661 78.3852 50.7244 79.9833 52.4815 80.9615C53.2049 81.3642 53.9236 81.5107 54.5817 81.5107C55.5224 81.5107 56.3397 81.2115 56.8708 80.9336C57.7737 80.4611 58.4156 79.5049 58.5886 78.7264C58.7615 77.9478 57.8619 76.81 57.8619 76.81C56.7843 75.4623 55.6759 74.9891 54.6608 74.9893Z" fill="white"/>
<path fill-rule="evenodd" clip-rule="evenodd" d="M42.5934 83.9448H41.8462V84.9448V104.097L41.8462 104.121C41.8462 111.962 50.3774 118.319 60.9011 118.319C71.4249 118.319 79.9561 111.962 79.9561 104.121L79.9561 104.121V84.9448V83.9448H79.2088V88.4286H78.9561V104.114L78.9561 104.121C78.9561 107.653 77.0367 110.93 73.7775 113.358C70.5183 115.787 65.9691 117.319 60.9011 117.319C55.8332 117.319 51.284 115.787 48.0247 113.358C44.7656 110.93 42.8462 107.653 42.8462 104.121L42.8462 104.099V104.097V88.4286H42.5934V83.9448Z" fill="#969696"/>
<ellipse cx="102.747" cy="83.9449" rx="19.0549" ry="14.1978" fill="#67C8FF"/>
<path d="M102.747 69.7471C92.26 69.7471 83.709 76.1241 83.709 83.9449C83.709 91.7657 92.26 98.1427 102.747 98.1427C113.234 98.1427 121.785 91.7657 121.785 83.9449C121.785 76.1241 113.234 69.7471 102.747 69.7471ZM102.747 97.3406C92.8515 97.3406 84.7846 91.3246 84.7846 83.9449C84.7846 76.5652 92.8515 70.5492 102.747 70.5492C112.642 70.5492 120.709 76.5652 120.709 83.9449C120.709 91.3246 112.642 97.3406 102.747 97.3406Z" fill="#969696"/>
<path d="M102.747 71.7524C93.7658 71.7524 86.3979 77.2471 86.3979 83.9449C86.3979 90.6428 93.712 96.0973 102.747 96.0973C111.782 96.0973 119.096 90.6428 119.096 83.9449C119.042 77.2471 111.728 71.7524 102.747 71.7524ZM102.747 95.2952C94.3573 95.2952 87.4735 90.2015 87.4735 83.9449C87.4735 77.6883 94.3036 72.5546 102.747 72.5546C111.19 72.5546 118.02 77.6481 118.02 83.9449C117.967 90.2016 111.137 95.2952 102.747 95.2952Z" fill="#969696"/>
<path d="M110.677 83.2083C110.677 84.0906 111.645 84.8126 112.828 84.8126C114.012 84.8126 114.98 84.0906 114.98 83.2083C114.98 82.3259 114.012 81.604 112.828 81.604C111.645 81.6041 110.677 82.326 110.677 83.2083ZM113.904 83.2083C113.904 83.6495 113.42 84.0104 112.828 84.0104C112.237 84.0104 111.753 83.6495 111.753 83.2083C111.753 82.7671 112.237 82.4061 112.828 82.4061C113.42 82.4061 113.904 82.7671 113.904 83.2083Z" fill="white"/>
<path d="M97.6714 90.2019C97.6714 91.0843 98.6394 91.8062 99.8226 91.8062C101.006 91.8062 101.974 91.0843 101.974 90.2019C101.974 89.3196 101.006 88.5977 99.8226 88.5977C98.6394 88.5977 97.6714 89.3196 97.6714 90.2019ZM100.898 90.2019C100.898 90.6431 100.414 91.0041 99.8226 91.0041C99.2311 91.0041 98.747 90.6431 98.747 90.2019C98.747 89.7608 99.2311 89.3998 99.8226 89.3998C100.414 89.3998 100.898 89.7608 100.898 90.2019Z" fill="white"/>
<path d="M91.8592 84.0214C90.9094 84.5476 90.7097 85.5576 91.4154 86.2659C92.121 86.9742 93.4753 87.1231 94.4251 86.5968C95.3748 86.0706 95.5746 85.0606 94.8688 84.3523C94.1632 83.6441 92.8089 83.4951 91.8592 84.0214ZM93.7836 85.953C93.3088 86.2161 92.6315 86.1416 92.2787 85.7875C91.9259 85.4334 92.0258 84.9284 92.5007 84.6653C92.9755 84.4021 93.6527 84.4766 94.0055 84.8307C94.3584 85.1848 94.2585 85.6898 93.7836 85.953Z" fill="white"/>
<path d="M108.247 77.0525C108.247 76.1702 107.279 75.4482 106.096 75.4482C104.913 75.4482 103.945 76.1702 103.945 77.0525C103.945 77.9349 104.913 78.6568 106.096 78.6568C107.279 78.6568 108.247 77.9349 108.247 77.0525ZM105.021 77.0525C105.021 76.6113 105.505 76.2504 106.096 76.2504C106.688 76.2504 107.172 76.6113 107.172 77.0525C107.172 77.4937 106.688 77.8547 106.096 77.8547C105.505 77.8547 105.021 77.4937 105.021 77.0525Z" fill="white"/>
<path d="M100.035 87.2451V87.7093C100.84 87.7093 101.542 87.9022 102.011 88.2524C102.281 88.4533 102.661 88.9112 102.904 89.4814C103.096 89.9308 103.27 90.6048 103.009 91.2635C102.647 92.18 101.535 92.7936 99.705 93.0872L99.6675 93.0933L99.6325 93.1022C99.6271 93.1036 99.0797 93.2418 98.4996 93.2418C98.1962 93.2418 97.9489 93.2047 97.7646 93.1314C97.2291 92.9184 97.1165 92.6588 96.8918 92.04C96.8516 91.9294 96.81 91.815 96.7617 91.6925C96.4911 91.0063 96.1099 89.0604 97.5761 88.3063C98.3245 87.9214 99.1976 87.7094 100.035 87.7094V87.2451H100.035ZM100.035 87.2451C99.1109 87.2451 98.1138 87.4658 97.2228 87.9241C95.4177 88.8525 95.8534 91.0342 96.1646 91.8234C96.4758 92.6125 96.5381 93.1696 97.4718 93.5409C97.783 93.6647 98.1494 93.706 98.4997 93.706C99.2001 93.706 99.8359 93.5409 99.8359 93.5409C105.623 92.6125 103.634 88.8061 102.451 87.9241C101.852 87.4774 100.982 87.2451 100.035 87.2451Z" fill="white"/>
<path d="M106.098 74.5091C106.935 74.5091 107.808 74.7211 108.557 75.106C110.023 75.8602 109.642 77.8061 109.371 78.4922C109.323 78.6147 109.281 78.7291 109.241 78.8397C109.016 79.4586 108.904 79.7181 108.368 79.9312C108.184 80.0044 107.937 80.0416 107.633 80.0416C107.053 80.0416 106.506 79.9034 106.502 79.9023L106.465 79.8929L106.428 79.8869C104.598 79.5934 103.486 78.9798 103.124 78.0633C102.863 77.4046 103.037 76.7306 103.229 76.2812C103.472 75.711 103.852 75.2531 104.122 75.0522C104.591 74.702 105.293 74.5091 106.098 74.5091ZM106.098 74.0449C105.151 74.0449 104.28 74.2773 103.682 74.7239C102.499 75.6059 100.51 79.4123 106.297 80.3407C106.297 80.3407 106.933 80.5058 107.633 80.5058C107.984 80.5058 108.35 80.4645 108.661 80.3407C109.595 79.9694 109.657 79.4123 109.968 78.6232C110.28 77.834 110.715 75.6523 108.91 74.7239C108.019 74.2656 107.022 74.0449 106.098 74.0449Z" fill="white"/>
<path d="M91.9122 82.2676V82.7318C92.5108 82.7318 93.2251 82.8591 94.0351 83.1101C94.4069 83.228 95.5302 83.6625 95.8383 84.1094C96.2361 84.6865 96.4838 85.6197 96.1873 86.2869C96.0775 86.5342 95.8152 87.0046 95.2926 87.3769C94.7649 87.7527 94.0902 87.9433 93.2873 87.9433H93.2787C92.3572 87.9418 91.4688 87.7405 90.7769 87.3767C90.1298 87.0362 89.709 86.5842 89.5922 86.1038C89.4201 85.3962 89.4572 83.9965 90.2894 83.2532C90.6821 82.9024 91.2127 82.7319 91.9117 82.7318L91.9122 82.2676ZM91.9117 82.2676C88.7789 82.2679 88.7324 85.1697 88.9797 86.1866C89.2783 87.4139 91.0846 88.4039 93.2773 88.4075C93.2807 88.4075 93.284 88.4075 93.2873 88.4075C95.473 88.4075 96.432 87.2125 96.7782 86.4328C97.1251 85.652 96.8757 84.599 96.3919 83.8972C95.9082 83.1953 94.2761 82.6821 94.2761 82.6821C93.3393 82.3916 92.5597 82.2675 91.9117 82.2676Z" fill="white"/>
<path d="M112.582 79.7173V80.1815C113.505 80.1815 114.401 80.7175 115.247 81.7744C115.451 82.0343 116.005 82.8828 115.895 83.3785C115.753 84.0187 115.205 84.8779 114.434 85.2816C114.082 85.4657 113.363 85.7745 112.502 85.7745C111.9 85.7745 111.319 85.6207 110.774 85.3175C110.036 84.9065 109.484 84.3497 109.219 83.7499C108.972 83.1888 108.996 82.6388 109.286 82.2013C109.724 81.5424 111.104 80.1817 112.581 80.1815L112.582 79.7173ZM112.581 79.7173C110.74 79.7176 109.207 81.2748 108.728 81.9953C107.987 83.1132 108.645 84.7113 110.402 85.6895C111.125 86.0922 111.844 86.2387 112.502 86.2387C113.443 86.2387 114.26 85.9396 114.791 85.6616C115.694 85.1891 116.336 84.233 116.509 83.4544C116.682 82.6759 115.782 81.538 115.782 81.538C114.705 80.1903 113.596 79.7171 112.581 79.7173Z" fill="white"/>
<path d="M109.754 90.8967C110.923 90.7583 111.727 89.932 111.541 89.0605C111.356 88.1892 110.248 87.5895 109.079 87.7279C107.911 87.8663 107.107 88.6926 107.292 89.564C107.478 90.4355 108.586 91.0352 109.754 90.8967ZM109.248 88.5201C109.832 88.4509 110.386 88.7507 110.479 89.1864C110.572 89.6221 110.17 90.0353 109.586 90.1045C109.001 90.1737 108.447 89.8738 108.355 89.4381C108.262 89.0024 108.664 88.5893 109.248 88.5201Z" fill="white"/>
<path d="M109.156 87.0267H109.162C110.032 87.0309 111.256 87.2994 111.911 87.8042C112.155 87.9918 112.593 88.3837 112.793 88.9025C112.995 89.4265 112.908 89.9619 112.533 90.4939C111.834 91.4863 110.54 92.153 109.313 92.153C109.078 92.153 108.852 92.1281 108.64 92.0788C107.725 91.8662 105.744 91.0836 105.461 90.0212C105.275 89.3264 105.84 88.5638 107.138 87.7563C107.446 87.567 108.476 87.0267 109.156 87.0267ZM109.156 86.5625C108.099 86.5625 106.742 87.3984 106.742 87.3984C102.196 90.2265 106.858 92.151 108.455 92.522C108.731 92.5862 109.019 92.6173 109.313 92.6173C110.718 92.6173 112.241 91.9071 113.084 90.7098C114.104 89.2621 113.126 88.0722 112.358 87.4813C111.591 86.8904 110.224 86.5677 109.166 86.5625C109.163 86.5625 109.159 86.5625 109.156 86.5625Z" fill="white"/>
<path d="M100.806 83.7337C100.806 84.616 101.774 85.3379 102.957 85.3379C104.14 85.3379 105.108 84.616 105.108 83.7337C105.108 82.8513 104.14 82.1294 102.957 82.1294C101.774 82.1294 100.806 82.8513 100.806 83.7337ZM104.032 83.7337C104.032 84.1748 103.548 84.5358 102.957 84.5358C102.365 84.5358 101.881 84.1748 101.881 83.7337C101.881 83.2925 102.365 82.9315 102.957 82.9315C103.548 82.9315 104.032 83.2925 104.032 83.7337Z" fill="white"/>
<path d="M102.711 80.2432V80.7074C103.634 80.7074 104.531 81.2433 105.376 82.3003C105.58 82.5602 106.134 83.4086 106.024 83.9044C105.882 84.5445 105.334 85.4038 104.563 85.8075C104.211 85.9915 103.493 86.3004 102.631 86.3004C102.03 86.3004 101.448 86.1466 100.904 85.8434C100.165 85.4324 99.613 84.8756 99.3487 84.2758C99.1015 83.7146 99.1252 83.1647 99.4156 82.7271C99.8529 82.0683 101.234 80.7076 102.711 80.7074L102.711 80.2432ZM102.711 80.2432C100.869 80.2434 99.336 81.8006 98.8578 82.5212C98.1159 83.6391 98.7742 85.2372 100.531 86.2154C101.255 86.6181 101.973 86.7646 102.632 86.7646C103.572 86.7646 104.389 86.4654 104.921 86.1875C105.824 85.715 106.465 84.7589 106.638 83.9803C106.811 83.2017 105.912 82.0639 105.912 82.0639C104.834 80.7162 103.726 80.243 102.711 80.2432Z" fill="white"/>
<path d="M94.6025 78.4798C94.6025 79.3621 95.5706 80.084 96.7538 80.084C97.9369 80.084 98.905 79.3621 98.905 78.4798C98.905 77.5974 97.9369 76.8755 96.7538 76.8755C95.5706 76.8755 94.6025 77.5974 94.6025 78.4798ZM97.8293 78.4798C97.8293 78.9209 97.3454 79.2819 96.7538 79.2819C96.1622 79.2819 95.6782 78.9209 95.6782 78.4798C95.6782 78.0386 96.1622 77.6776 96.7538 77.6776C97.3454 77.6776 97.8293 78.0386 97.8293 78.4798Z" fill="white"/>
<path d="M96.5074 74.9893V75.4535C97.4303 75.4535 98.3268 75.9894 99.1723 77.0464C99.3765 77.3063 99.9307 78.1547 99.8206 78.6505C99.6784 79.2906 99.1308 80.1499 98.3593 80.5536C98.0076 80.7376 97.2889 81.0465 96.4278 81.0465C95.826 81.0465 95.2446 80.8927 94.6999 80.5895C93.9615 80.1785 93.4093 79.6217 93.1451 79.0219C92.8978 78.4607 92.9215 77.9107 93.2119 77.4732C93.6493 76.8144 95.0301 75.4537 96.507 75.4535L96.5074 74.9893ZM96.507 74.9893C94.6658 74.9895 93.1324 76.5467 92.6542 77.2673C91.9123 78.3852 92.5705 79.9833 94.3277 80.9615C95.0511 81.3642 95.7698 81.5107 96.4279 81.5107C97.3686 81.5107 98.1859 81.2115 98.717 80.9336C99.6199 80.4611 100.262 79.5049 100.435 78.7264C100.608 77.9478 99.7081 76.81 99.7081 76.81C98.6305 75.4623 97.5221 74.9891 96.507 74.9893Z" fill="white"/>
<path fill-rule="evenodd" clip-rule="evenodd" d="M84.4396 83.9448H83.6924V84.9448V104.084L83.6924 104.121C83.6924 111.962 92.2236 118.319 102.747 118.319C113.271 118.319 121.802 111.962 121.802 104.121V104.121H121.802V103.121V84.9448V83.9448H121.055V88.4286H120.802V103.121H120.802V104.121V104.121V104.121V104.121V104.121V104.121V104.121V104.121C120.802 107.653 118.883 110.93 115.624 113.358C112.364 115.787 107.815 117.319 102.747 117.319C97.6794 117.319 93.1302 115.787 89.8709 113.358C86.6118 110.93 84.6924 107.653 84.6924 104.121L84.6924 104.087V104.084V88.4286H84.4396V83.9448Z" fill="#969696"/>
<g filter="url(#filter1_b_2620_960)">
<path d="M57.912 79.8352L52.3076 1H68.7472L63.1428 79.8352H57.912Z" fill="white" fill-opacity="0.3"/>
</g>
<path d="M63.1428 79.8352H57.912L56.4175 57.0439H64.6373L63.1428 79.8352Z" fill="#F4A5F1"/>
<path d="M52.3076 1L57.912 79.8352M63.1428 79.8352L68.7472 1" stroke="#969696"/>
<g filter="url(#filter2_b_2620_960)">
<path d="M99.7582 79.8352L94.1538 1H110.593L104.989 79.8352H99.7582Z" fill="white" fill-opacity="0.3"/>
</g>
<path d="M104.989 79.8352H99.7582L98.2637 57.0439H106.483L104.989 79.8352Z" fill="#67C8FF"/>
<path d="M94.1538 1L99.7582 79.8352M104.989 79.8352L110.593 1" stroke="#969696"/>
<path fill-rule="evenodd" clip-rule="evenodd" d="M60.9011 119.066H41.8462V139.242C41.8462 147.083 50.3774 153.44 60.9011 153.44C71.4249 153.44 79.9561 147.083 79.9561 139.242V119.066H60.9011Z" fill="#F3C4F1"/>
<path fill-rule="evenodd" clip-rule="evenodd" d="M102.747 119.066H83.6924V139.242C83.6924 147.083 92.2236 153.44 102.747 153.44C113.271 153.44 121.802 147.083 121.802 139.242V119.066H102.747Z" fill="#97DAFF"/>
<path fill-rule="evenodd" clip-rule="evenodd" d="M60.9011 151.945H41.8462V172.121C41.8462 179.962 50.3774 186.319 60.9011 186.319C71.4249 186.319 79.9561 179.962 79.9561 172.121V151.945H60.9011Z" fill="#FFE4FE"/>
<path fill-rule="evenodd" clip-rule="evenodd" d="M102.747 151.945H83.6924V172.121C83.6924 179.962 92.2236 186.319 102.747 186.319C113.271 186.319 121.802 179.962 121.802 172.121V151.945H102.747Z" fill="#D9F1FF"/>
<ellipse cx="60.9011" cy="119.066" rx="19.0549" ry="14.1978" fill="#F3C4F1"/>
<path d="M60.9008 104.868C50.4138 104.868 41.8628 111.245 41.8628 119.066C41.8628 126.887 50.4138 133.264 60.9008 133.264C71.3878 133.264 79.9388 126.887 79.9388 119.066C79.9388 111.245 71.3878 104.868 60.9008 104.868ZM60.9008 132.462C51.0053 132.462 42.9384 126.446 42.9384 119.066C42.9384 111.686 51.0053 105.67 60.9008 105.67C70.7962 105.67 78.8632 111.686 78.8632 119.066C78.8632 126.446 70.7962 132.462 60.9008 132.462Z" fill="#969696"/>
<path d="M60.9008 106.874C51.9196 106.874 44.5518 112.368 44.5518 119.066C44.5518 125.764 51.8658 131.218 60.9008 131.218C69.9358 131.218 77.2498 125.764 77.2498 119.066C77.196 112.368 69.882 106.874 60.9008 106.874ZM60.9008 130.416C52.5111 130.416 45.6274 125.323 45.6274 119.066C45.6274 112.809 52.4574 107.676 60.9008 107.676C69.3441 107.676 76.1742 112.769 76.1742 119.066C76.1204 125.323 69.2904 130.416 60.9008 130.416Z" fill="#969696"/>
<path d="M68.8311 118.329C68.8311 119.212 69.7991 119.934 70.9823 119.934C72.1654 119.934 73.1335 119.212 73.1335 118.329C73.1335 117.447 72.1654 116.725 70.9823 116.725C69.799 116.725 68.8311 117.447 68.8311 118.329ZM72.0578 118.329C72.0578 118.771 71.5738 119.132 70.9822 119.132C70.3907 119.132 69.9066 118.771 69.9066 118.329C69.9066 117.888 70.3907 117.527 70.9822 117.527C71.5738 117.527 72.0578 117.888 72.0578 118.329Z" fill="white"/>
<path d="M55.8252 125.323C55.8252 126.205 56.7932 126.927 57.9764 126.927C59.1596 126.927 60.1276 126.205 60.1276 125.323C60.1276 124.44 59.1595 123.718 57.9764 123.718C56.7932 123.718 55.8252 124.44 55.8252 125.323ZM59.052 125.323C59.052 125.764 58.568 126.125 57.9764 126.125C57.3849 126.125 56.9008 125.764 56.9008 125.323C56.9008 124.881 57.3849 124.52 57.9764 124.52C58.568 124.52 59.052 124.881 59.052 125.323Z" fill="white"/>
<path d="M50.013 119.142C49.0632 119.668 48.8635 120.678 49.5692 121.387C50.2748 122.095 51.6292 122.244 52.579 121.717C53.5286 121.191 53.7284 120.181 53.0226 119.473C52.317 118.765 50.9627 118.616 50.013 119.142ZM51.9375 121.074C51.4626 121.337 50.7853 121.262 50.4325 120.908C50.0797 120.554 50.1797 120.049 50.6545 119.786C51.1293 119.523 51.8065 119.597 52.1593 119.951C52.5122 120.305 52.4123 120.81 51.9375 121.074Z" fill="white"/>
<path d="M66.4011 112.174C66.4011 111.291 65.433 110.569 64.2499 110.569C63.0667 110.569 62.0986 111.291 62.0986 112.174C62.0986 113.056 63.0667 113.778 64.2499 113.778C65.433 113.778 66.4011 113.056 66.4011 112.174ZM63.1743 112.174C63.1743 111.732 63.6584 111.371 64.2499 111.371C64.8415 111.371 65.3255 111.732 65.3255 112.174C65.3255 112.615 64.8415 112.976 64.2499 112.976C63.6584 112.976 63.1743 112.615 63.1743 112.174Z" fill="white"/>
<path d="M58.1884 122.366V122.83C58.9935 122.83 59.6955 123.023 60.165 123.373C60.4344 123.574 60.8151 124.032 61.0581 124.603C61.2497 125.052 61.4234 125.726 61.1629 126.385C60.8006 127.301 59.6889 127.915 57.8588 128.208L57.8213 128.214L57.7863 128.223C57.7809 128.225 57.2335 128.363 56.6534 128.363C56.35 128.363 56.1027 128.326 55.9184 128.252C55.3829 128.039 55.2703 127.78 55.0456 127.161C55.0054 127.05 54.9638 126.936 54.9155 126.814C54.6449 126.127 54.2637 124.182 55.7299 123.427C56.4783 123.042 57.3514 122.83 58.1883 122.83V122.366H58.1884ZM58.1884 122.366C57.2647 122.366 56.2676 122.587 55.3766 123.045C53.5715 123.974 54.0072 126.155 54.3184 126.944C54.6297 127.734 54.6919 128.291 55.6256 128.662C55.9368 128.786 56.3032 128.827 56.6535 128.827C57.3539 128.827 57.9897 128.662 57.9897 128.662C63.7772 127.734 61.7878 123.927 60.6052 123.045C60.0062 122.599 59.1359 122.366 58.1884 122.366Z" fill="white"/>
<path d="M64.2527 109.63C65.0895 109.63 65.9626 109.842 66.711 110.227C68.1773 110.981 67.7961 112.927 67.5254 113.613C67.4771 113.735 67.4356 113.85 67.3954 113.96C67.1706 114.579 67.058 114.839 66.5225 115.052C66.3383 115.125 66.091 115.162 65.7876 115.162C65.2075 115.162 64.6601 115.024 64.6559 115.023L64.6197 115.014L64.5822 115.008C62.7522 114.714 61.6404 114.1 61.278 113.184C61.0175 112.525 61.1913 111.851 61.3828 111.402C61.6259 110.832 62.0066 110.374 62.276 110.173C62.7455 109.823 63.4475 109.63 64.2527 109.63ZM64.2527 109.166C63.305 109.166 62.4348 109.398 61.8359 109.845C60.6532 110.726 58.6638 114.533 64.4514 115.461C64.4514 115.461 65.0872 115.626 65.7876 115.626C66.1379 115.626 66.5042 115.585 66.8155 115.461C67.7492 115.09 67.8114 114.533 68.1227 113.744C68.4339 112.955 68.8696 110.773 67.0645 109.845C66.1734 109.386 65.1763 109.166 64.2527 109.166Z" fill="white"/>
<path d="M50.066 117.389V117.853C50.6647 117.853 51.3789 117.98 52.1889 118.231C52.5607 118.349 53.684 118.784 53.9921 119.231C54.3899 119.808 54.6376 120.741 54.3411 121.408C54.2313 121.655 53.969 122.126 53.4464 122.498C52.9187 122.874 52.2441 123.064 51.4411 123.064H51.4325C50.511 123.063 49.6226 122.862 48.9308 122.498C48.2836 122.157 47.8628 121.705 47.746 121.225C47.5739 120.517 47.611 119.118 48.4432 118.374C48.8359 118.023 49.3665 117.853 50.0655 117.853L50.066 117.389ZM50.0655 117.389C46.9327 117.389 46.8863 120.291 47.1336 121.308C47.4321 122.535 49.2384 123.525 51.4311 123.529C51.4345 123.529 51.4378 123.529 51.4412 123.529C53.6268 123.529 54.5858 122.334 54.932 121.554C55.2789 120.773 55.0295 119.72 54.5457 119.018C54.062 118.316 52.4299 117.803 52.4299 117.803C51.4931 117.513 50.7135 117.389 50.0655 117.389Z" fill="white"/>
<path d="M70.7355 114.838V115.303C71.6584 115.303 72.5549 115.839 73.4004 116.895C73.6046 117.155 74.1588 118.004 74.0487 118.5C73.9065 119.14 73.3589 119.999 72.5874 120.403C72.2357 120.587 71.517 120.896 70.6559 120.896C70.0541 120.896 69.4727 120.742 68.928 120.439C68.1896 120.028 67.6374 119.471 67.3732 118.871C67.1259 118.31 67.1496 117.76 67.44 117.322C67.8773 116.663 69.2582 115.303 70.7351 115.303L70.7355 114.838ZM70.735 114.838C68.8938 114.839 67.3605 116.396 66.8822 117.116C66.1403 118.234 66.7986 119.832 68.5558 120.811C69.2792 121.213 69.9978 121.36 70.656 121.36C71.5966 121.36 72.4139 121.061 72.945 120.783C73.8479 120.31 74.4898 119.354 74.6628 118.576C74.8358 117.797 73.9361 116.659 73.9361 116.659C72.8586 115.311 71.7502 114.838 70.735 114.838Z" fill="white"/>
<path d="M67.9081 126.017C69.0766 125.879 69.8807 125.053 69.6951 124.181C69.5095 123.31 68.4016 122.71 67.233 122.848C66.0645 122.987 65.2604 123.813 65.4461 124.685C65.6318 125.556 66.7397 126.156 67.9081 126.017ZM67.4018 123.641C67.9861 123.572 68.54 123.871 68.6329 124.307C68.7257 124.743 68.3236 125.156 67.7394 125.225C67.1551 125.294 66.6011 124.994 66.5083 124.559C66.4155 124.123 66.8176 123.71 67.4018 123.641Z" fill="white"/>
<path d="M67.3099 122.148H67.3157C68.1857 122.152 69.4095 122.42 70.0651 122.925C70.3087 123.113 70.747 123.505 70.9471 124.024C71.1491 124.548 71.0617 125.083 70.687 125.615C69.988 126.607 68.694 127.274 67.4671 127.274C67.2322 127.274 67.0056 127.249 66.7936 127.2C65.8789 126.987 63.898 126.205 63.6143 125.142C63.4288 124.447 63.9941 123.685 65.2923 122.877C65.5996 122.688 66.63 122.148 67.3099 122.148ZM67.3099 121.684C66.2531 121.684 64.8959 122.519 64.8959 122.519C60.3499 125.348 65.0115 127.272 66.6084 127.643C66.8847 127.707 67.1732 127.738 67.4671 127.738C68.8719 127.738 70.3947 127.028 71.238 125.831C72.2578 124.383 71.2796 123.193 70.5123 122.602C69.745 122.012 68.3779 121.689 67.3198 121.684C67.3164 121.684 67.3132 121.684 67.3099 121.684Z" fill="white"/>
<path d="M58.9595 118.855C58.9595 119.737 59.9275 120.459 61.1107 120.459C62.2939 120.459 63.2619 119.737 63.2619 118.855C63.2619 117.972 62.2939 117.25 61.1107 117.25C59.9274 117.251 58.9595 117.972 58.9595 118.855ZM62.1863 118.855C62.1863 119.296 61.7023 119.657 61.1107 119.657C60.5191 119.657 60.0351 119.296 60.0351 118.855C60.0351 118.414 60.5191 118.053 61.1107 118.053C61.7023 118.053 62.1863 118.414 62.1863 118.855Z" fill="white"/>
<path d="M60.8649 115.364V115.828C61.7877 115.828 62.6843 116.364 63.5298 117.421C63.734 117.681 64.2882 118.529 64.1781 119.025C64.0358 119.665 63.4883 120.524 62.7168 120.928C62.3651 121.112 61.6464 121.421 60.7853 121.421C60.1834 121.421 59.6021 121.267 59.0574 120.964C58.319 120.553 57.7668 119.996 57.5026 119.396C57.2553 118.835 57.279 118.285 57.5694 117.848C58.0067 117.189 59.3876 115.828 60.8645 115.828L60.8649 115.364ZM60.8644 115.364C59.0232 115.364 57.4899 116.921 57.0116 117.642C56.2697 118.76 56.928 120.358 58.6851 121.336C59.4086 121.739 60.1272 121.885 60.7854 121.885C61.726 121.885 62.5433 121.586 63.0744 121.308C63.9773 120.836 64.6192 119.879 64.7922 119.101C64.9652 118.322 64.0655 117.184 64.0655 117.184C62.988 115.837 61.8796 115.364 60.8644 115.364Z" fill="white"/>
<path d="M52.7563 113.6C52.7563 114.483 53.7244 115.205 54.9076 115.205C56.0907 115.205 57.0588 114.483 57.0588 113.6C57.0588 112.718 56.0907 111.996 54.9076 111.996C53.7244 111.996 52.7563 112.718 52.7563 113.6ZM55.9831 113.6C55.9831 114.042 55.4992 114.403 54.9076 114.403C54.316 114.403 53.832 114.042 53.832 113.6C53.832 113.159 54.316 112.798 54.9076 112.798C55.4992 112.798 55.9831 113.159 55.9831 113.6Z" fill="white"/>
<path d="M54.6612 110.11V110.575C55.5841 110.575 56.4806 111.111 57.3261 112.167C57.5303 112.427 58.0845 113.276 57.9744 113.772C57.8322 114.412 57.2846 115.271 56.5131 115.675C56.1614 115.859 55.4427 116.168 54.5816 116.168C53.9798 116.168 53.3984 116.014 52.8538 115.711C52.1153 115.3 51.5631 114.743 51.2989 114.143C51.0516 113.582 51.0754 113.032 51.3657 112.594C51.8031 111.935 53.1839 110.575 54.6609 110.575L54.6612 110.11ZM54.6608 110.11C52.8196 110.111 51.2862 111.668 50.808 112.388C50.0661 113.506 50.7244 115.104 52.4815 116.083C53.2049 116.485 53.9236 116.632 54.5817 116.632C55.5224 116.632 56.3397 116.333 56.8708 116.055C57.7737 115.582 58.4156 114.626 58.5886 113.847C58.7615 113.069 57.8619 111.931 57.8619 111.931C56.7843 110.583 55.6759 110.11 54.6608 110.11Z" fill="white"/>
<path fill-rule="evenodd" clip-rule="evenodd" d="M42.5934 119.066H41.8462V120.066V139.218L41.8462 139.242C41.8462 147.083 50.3774 153.44 60.9011 153.44C71.4249 153.44 79.9561 147.083 79.9561 139.242V120.066V119.066H79.2088V123.549H78.9561V139.242C78.9561 142.774 77.0367 146.051 73.7775 148.479C70.5183 150.908 65.9691 152.44 60.9011 152.44C55.8332 152.44 51.284 150.908 48.0247 148.479C44.7656 146.051 42.8462 142.774 42.8462 139.242L42.8462 139.22V139.218V123.549H42.5934V119.066Z" fill="#969696"/>
<ellipse cx="102.747" cy="119.066" rx="19.0549" ry="14.1978" fill="#97DAFF"/>
<path d="M102.747 104.868C92.26 104.868 83.709 111.245 83.709 119.066C83.709 126.887 92.26 133.264 102.747 133.264C113.234 133.264 121.785 126.887 121.785 119.066C121.785 111.245 113.234 104.868 102.747 104.868ZM102.747 132.462C92.8515 132.462 84.7846 126.446 84.7846 119.066C84.7846 111.686 92.8515 105.67 102.747 105.67C112.642 105.67 120.709 111.686 120.709 119.066C120.709 126.446 112.642 132.462 102.747 132.462Z" fill="#969696"/>
<path d="M102.747 106.874C93.7658 106.874 86.3979 112.368 86.3979 119.066C86.3979 125.764 93.712 131.218 102.747 131.218C111.782 131.218 119.096 125.764 119.096 119.066C119.042 112.368 111.728 106.874 102.747 106.874ZM102.747 130.416C94.3573 130.416 87.4735 125.323 87.4735 119.066C87.4735 112.809 94.3036 107.676 102.747 107.676C111.19 107.676 118.02 112.769 118.02 119.066C117.967 125.323 111.137 130.416 102.747 130.416Z" fill="#969696"/>
<path d="M110.677 118.329C110.677 119.212 111.645 119.934 112.828 119.934C114.012 119.934 114.98 119.212 114.98 118.329C114.98 117.447 114.012 116.725 112.828 116.725C111.645 116.725 110.677 117.447 110.677 118.329ZM113.904 118.329C113.904 118.771 113.42 119.132 112.828 119.132C112.237 119.132 111.753 118.771 111.753 118.329C111.753 117.888 112.237 117.527 112.828 117.527C113.42 117.527 113.904 117.888 113.904 118.329Z" fill="white"/>
<path d="M97.6714 125.323C97.6714 126.205 98.6394 126.927 99.8226 126.927C101.006 126.927 101.974 126.205 101.974 125.323C101.974 124.44 101.006 123.718 99.8226 123.718C98.6394 123.718 97.6714 124.44 97.6714 125.323ZM100.898 125.323C100.898 125.764 100.414 126.125 99.8226 126.125C99.2311 126.125 98.747 125.764 98.747 125.323C98.747 124.881 99.2311 124.52 99.8226 124.52C100.414 124.52 100.898 124.881 100.898 125.323Z" fill="white"/>
<path d="M91.8592 119.142C90.9094 119.668 90.7097 120.678 91.4154 121.387C92.121 122.095 93.4753 122.244 94.4251 121.717C95.3748 121.191 95.5746 120.181 94.8688 119.473C94.1632 118.765 92.8089 118.616 91.8592 119.142ZM93.7836 121.074C93.3088 121.337 92.6315 121.262 92.2787 120.908C91.9259 120.554 92.0258 120.049 92.5007 119.786C92.9755 119.523 93.6527 119.597 94.0055 119.951C94.3584 120.305 94.2585 120.81 93.7836 121.074Z" fill="white"/>
<path d="M108.247 112.174C108.247 111.291 107.279 110.569 106.096 110.569C104.913 110.569 103.945 111.291 103.945 112.174C103.945 113.056 104.913 113.778 106.096 113.778C107.279 113.778 108.247 113.056 108.247 112.174ZM105.021 112.174C105.021 111.732 105.505 111.371 106.096 111.371C106.688 111.371 107.172 111.732 107.172 112.174C107.172 112.615 106.688 112.976 106.096 112.976C105.505 112.976 105.021 112.615 105.021 112.174Z" fill="white"/>
<path d="M100.035 122.366V122.83C100.84 122.83 101.542 123.023 102.011 123.373C102.281 123.574 102.661 124.032 102.904 124.603C103.096 125.052 103.27 125.726 103.009 126.385C102.647 127.301 101.535 127.915 99.705 128.208L99.6675 128.214L99.6325 128.223C99.6271 128.225 99.0797 128.363 98.4996 128.363C98.1962 128.363 97.9489 128.326 97.7646 128.252C97.2291 128.039 97.1165 127.78 96.8918 127.161C96.8516 127.05 96.81 126.936 96.7617 126.814C96.4911 126.127 96.1099 124.182 97.5761 123.427C98.3245 123.042 99.1976 122.83 100.035 122.83V122.366H100.035ZM100.035 122.366C99.1109 122.366 98.1138 122.587 97.2228 123.045C95.4177 123.974 95.8534 126.155 96.1646 126.944C96.4758 127.734 96.5381 128.291 97.4718 128.662C97.783 128.786 98.1494 128.827 98.4997 128.827C99.2001 128.827 99.8359 128.662 99.8359 128.662C105.623 127.734 103.634 123.927 102.451 123.045C101.852 122.599 100.982 122.366 100.035 122.366Z" fill="white"/>
<path d="M106.098 109.63C106.935 109.63 107.808 109.842 108.557 110.227C110.023 110.981 109.642 112.927 109.371 113.613C109.323 113.735 109.281 113.85 109.241 113.96C109.016 114.579 108.904 114.839 108.368 115.052C108.184 115.125 107.937 115.162 107.633 115.162C107.053 115.162 106.506 115.024 106.502 115.023L106.465 115.014L106.428 115.008C104.598 114.714 103.486 114.1 103.124 113.184C102.863 112.525 103.037 111.851 103.229 111.402C103.472 110.832 103.852 110.374 104.122 110.173C104.591 109.823 105.293 109.63 106.098 109.63ZM106.098 109.166C105.151 109.166 104.28 109.398 103.682 109.845C102.499 110.726 100.51 114.533 106.297 115.461C106.297 115.461 106.933 115.626 107.633 115.626C107.984 115.626 108.35 115.585 108.661 115.461C109.595 115.09 109.657 114.533 109.968 113.744C110.28 112.955 110.715 110.773 108.91 109.845C108.019 109.386 107.022 109.166 106.098 109.166Z" fill="white"/>
<path d="M91.9122 117.389V117.853C92.5108 117.853 93.2251 117.98 94.0351 118.231C94.4069 118.349 95.5302 118.784 95.8383 119.231C96.2361 119.808 96.4838 120.741 96.1873 121.408C96.0775 121.655 95.8152 122.126 95.2926 122.498C94.7649 122.874 94.0902 123.064 93.2873 123.064H93.2787C92.3572 123.063 91.4688 122.862 90.7769 122.498C90.1298 122.157 89.709 121.705 89.5922 121.225C89.4201 120.517 89.4572 119.118 90.2894 118.374C90.6821 118.023 91.2127 117.853 91.9117 117.853L91.9122 117.389ZM91.9117 117.389C88.7789 117.389 88.7324 120.291 88.9797 121.308C89.2783 122.535 91.0846 123.525 93.2773 123.529C93.2807 123.529 93.284 123.529 93.2873 123.529C95.473 123.529 96.432 122.334 96.7782 121.554C97.1251 120.773 96.8757 119.72 96.3919 119.018C95.9082 118.316 94.2761 117.803 94.2761 117.803C93.3393 117.513 92.5597 117.389 91.9117 117.389Z" fill="white"/>
<path d="M112.582 114.838V115.303C113.505 115.303 114.401 115.839 115.247 116.895C115.451 117.155 116.005 118.004 115.895 118.5C115.753 119.14 115.205 119.999 114.434 120.403C114.082 120.587 113.363 120.896 112.502 120.896C111.9 120.896 111.319 120.742 110.774 120.439C110.036 120.028 109.484 119.471 109.219 118.871C108.972 118.31 108.996 117.76 109.286 117.322C109.724 116.663 111.104 115.303 112.581 115.303L112.582 114.838ZM112.581 114.838C110.74 114.839 109.207 116.396 108.728 117.116C107.987 118.234 108.645 119.832 110.402 120.811C111.125 121.213 111.844 121.36 112.502 121.36C113.443 121.36 114.26 121.061 114.791 120.783C115.694 120.31 116.336 119.354 116.509 118.576C116.682 117.797 115.782 116.659 115.782 116.659C114.705 115.311 113.596 114.838 112.581 114.838Z" fill="white"/>
<path d="M109.754 126.017C110.923 125.879 111.727 125.053 111.541 124.181C111.356 123.31 110.248 122.71 109.079 122.848C107.911 122.987 107.107 123.813 107.292 124.685C107.478 125.556 108.586 126.156 109.754 126.017ZM109.248 123.641C109.832 123.572 110.386 123.871 110.479 124.307C110.572 124.743 110.17 125.156 109.586 125.225C109.001 125.294 108.447 124.994 108.355 124.559C108.262 124.123 108.664 123.71 109.248 123.641Z" fill="white"/>
<path d="M109.156 122.148H109.162C110.032 122.152 111.256 122.42 111.911 122.925C112.155 123.113 112.593 123.505 112.793 124.024C112.995 124.548 112.908 125.083 112.533 125.615C111.834 126.607 110.54 127.274 109.313 127.274C109.078 127.274 108.852 127.249 108.64 127.2C107.725 126.987 105.744 126.205 105.461 125.142C105.275 124.447 105.84 123.685 107.138 122.877C107.446 122.688 108.476 122.148 109.156 122.148ZM109.156 121.684C108.099 121.684 106.742 122.519 106.742 122.519C102.196 125.348 106.858 127.272 108.455 127.643C108.731 127.707 109.019 127.738 109.313 127.738C110.718 127.738 112.241 127.028 113.084 125.831C114.104 124.383 113.126 123.193 112.358 122.602C111.591 122.012 110.224 121.689 109.166 121.684C109.163 121.684 109.159 121.684 109.156 121.684Z" fill="white"/>
<path d="M100.806 118.855C100.806 119.737 101.774 120.459 102.957 120.459C104.14 120.459 105.108 119.737 105.108 118.855C105.108 117.972 104.14 117.25 102.957 117.25C101.774 117.251 100.806 117.972 100.806 118.855ZM104.032 118.855C104.032 119.296 103.548 119.657 102.957 119.657C102.365 119.657 101.881 119.296 101.881 118.855C101.881 118.414 102.365 118.053 102.957 118.053C103.548 118.053 104.032 118.414 104.032 118.855Z" fill="white"/>
<path d="M102.711 115.364V115.828C103.634 115.828 104.531 116.364 105.376 117.421C105.58 117.681 106.134 118.529 106.024 119.025C105.882 119.665 105.334 120.524 104.563 120.928C104.211 121.112 103.493 121.421 102.631 121.421C102.03 121.421 101.448 121.267 100.904 120.964C100.165 120.553 99.613 119.996 99.3487 119.396C99.1015 118.835 99.1252 118.285 99.4156 117.848C99.8529 117.189 101.234 115.828 102.711 115.828L102.711 115.364ZM102.711 115.364C100.869 115.364 99.336 116.921 98.8578 117.642C98.1159 118.76 98.7742 120.358 100.531 121.336C101.255 121.739 101.973 121.885 102.632 121.885C103.572 121.885 104.389 121.586 104.921 121.308C105.824 120.836 106.465 119.879 106.638 119.101C106.811 118.322 105.912 117.184 105.912 117.184C104.834 115.837 103.726 115.364 102.711 115.364Z" fill="white"/>
<path d="M94.6025 113.6C94.6025 114.483 95.5706 115.205 96.7538 115.205C97.9369 115.205 98.905 114.483 98.905 113.6C98.905 112.718 97.9369 111.996 96.7538 111.996C95.5706 111.996 94.6025 112.718 94.6025 113.6ZM97.8293 113.6C97.8293 114.042 97.3454 114.403 96.7538 114.403C96.1622 114.403 95.6782 114.042 95.6782 113.6C95.6782 113.159 96.1622 112.798 96.7538 112.798C97.3454 112.798 97.8293 113.159 97.8293 113.6Z" fill="white"/>
<path d="M96.5074 110.11V110.575C97.4303 110.575 98.3268 111.111 99.1723 112.167C99.3765 112.427 99.9307 113.276 99.8206 113.772C99.6784 114.412 99.1308 115.271 98.3593 115.675C98.0076 115.859 97.2889 116.168 96.4278 116.168C95.826 116.168 95.2446 116.014 94.6999 115.711C93.9615 115.3 93.4093 114.743 93.1451 114.143C92.8978 113.582 92.9215 113.032 93.2119 112.594C93.6493 111.935 95.0301 110.575 96.507 110.575L96.5074 110.11ZM96.507 110.11C94.6658 110.111 93.1324 111.668 92.6542 112.388C91.9123 113.506 92.5705 115.104 94.3277 116.083C95.0511 116.485 95.7698 116.632 96.4279 116.632C97.3686 116.632 98.1859 116.333 98.717 116.055C99.6199 115.582 100.262 114.626 100.435 113.847C100.608 113.069 99.7081 111.931 99.7081 111.931C98.6305 110.583 97.5221 110.11 96.507 110.11Z" fill="white"/>
<path fill-rule="evenodd" clip-rule="evenodd" d="M84.4396 119.066H83.6924V120.066V139.204L83.6924 139.242C83.6924 147.083 92.2236 153.44 102.747 153.44C113.271 153.44 121.802 147.083 121.802 139.242L121.802 139.242V120.066V119.066H121.055V123.549H120.802V138.45L120.802 138.45V139.242C120.802 142.774 118.883 146.051 115.624 148.479C112.364 150.908 107.815 152.44 102.747 152.44C97.6794 152.44 93.1302 150.908 89.8709 148.479C86.6118 146.051 84.6924 142.774 84.6924 139.242L84.6924 139.208V139.204V123.549H84.4396V119.066Z" fill="#969696"/>
<ellipse cx="60.9011" cy="151.945" rx="19.0549" ry="14.1978" fill="#FFE4FE"/>
<path d="M60.9008 137.747C50.4138 137.747 41.8628 144.124 41.8628 151.945C41.8628 159.766 50.4138 166.143 60.9008 166.143C71.3878 166.143 79.9388 159.766 79.9388 151.945C79.9388 144.124 71.3878 137.747 60.9008 137.747ZM60.9008 165.341C51.0053 165.341 42.9384 159.325 42.9384 151.945C42.9384 144.565 51.0053 138.549 60.9008 138.549C70.7962 138.549 78.8632 144.565 78.8632 151.945C78.8632 159.325 70.7962 165.341 60.9008 165.341Z" fill="#969696"/>
<path d="M60.9008 139.752C51.9196 139.752 44.5518 145.247 44.5518 151.945C44.5518 158.643 51.8658 164.097 60.9008 164.097C69.9358 164.097 77.2498 158.643 77.2498 151.945C77.196 145.247 69.882 139.752 60.9008 139.752ZM60.9008 163.295C52.5111 163.295 45.6274 158.202 45.6274 151.945C45.6274 145.688 52.4574 140.555 60.9008 140.555C69.3441 140.555 76.1742 145.648 76.1742 151.945C76.1204 158.202 69.2904 163.295 60.9008 163.295Z" fill="#969696"/>
<path d="M68.8311 151.208C68.8311 152.091 69.7991 152.813 70.9823 152.813C72.1654 152.813 73.1335 152.091 73.1335 151.208C73.1335 150.326 72.1654 149.604 70.9823 149.604C69.799 149.604 68.8311 150.326 68.8311 151.208ZM72.0578 151.208C72.0578 151.649 71.5738 152.01 70.9822 152.01C70.3907 152.01 69.9066 151.649 69.9066 151.208C69.9066 150.767 70.3907 150.406 70.9822 150.406C71.5738 150.406 72.0578 150.767 72.0578 151.208Z" fill="white"/>
<path d="M55.8252 158.202C55.8252 159.084 56.7932 159.806 57.9764 159.806C59.1596 159.806 60.1276 159.084 60.1276 158.202C60.1276 157.32 59.1595 156.598 57.9764 156.598C56.7932 156.598 55.8252 157.32 55.8252 158.202ZM59.052 158.202C59.052 158.643 58.568 159.004 57.9764 159.004C57.3849 159.004 56.9008 158.643 56.9008 158.202C56.9008 157.761 57.3849 157.4 57.9764 157.4C58.568 157.4 59.052 157.761 59.052 158.202Z" fill="white"/>
<path d="M50.013 152.021C49.0632 152.548 48.8635 153.558 49.5692 154.266C50.2748 154.974 51.6292 155.123 52.579 154.597C53.5286 154.071 53.7284 153.061 53.0226 152.352C52.317 151.644 50.9627 151.495 50.013 152.021ZM51.9375 153.953C51.4626 154.216 50.7853 154.142 50.4325 153.788C50.0797 153.433 50.1797 152.928 50.6545 152.665C51.1293 152.402 51.8065 152.477 52.1593 152.831C52.5122 153.185 52.4123 153.69 51.9375 153.953Z" fill="white"/>
<path d="M66.4011 145.053C66.4011 144.17 65.433 143.448 64.2499 143.448C63.0667 143.448 62.0986 144.17 62.0986 145.053C62.0986 145.935 63.0667 146.657 64.2499 146.657C65.433 146.657 66.4011 145.935 66.4011 145.053ZM63.1743 145.053C63.1743 144.611 63.6584 144.25 64.2499 144.25C64.8415 144.25 65.3255 144.611 65.3255 145.053C65.3255 145.494 64.8415 145.855 64.2499 145.855C63.6584 145.855 63.1743 145.494 63.1743 145.053Z" fill="white"/>
<path d="M58.1884 155.245V155.709C58.9935 155.709 59.6955 155.902 60.165 156.252C60.4344 156.453 60.8151 156.911 61.0581 157.481C61.2497 157.931 61.4234 158.605 61.1629 159.264C60.8006 160.18 59.6889 160.794 57.8588 161.087L57.8213 161.093L57.7863 161.102C57.7809 161.104 57.2335 161.242 56.6534 161.242C56.35 161.242 56.1027 161.205 55.9184 161.131C55.3829 160.918 55.2703 160.659 55.0456 160.04C55.0054 159.929 54.9638 159.815 54.9155 159.692C54.6449 159.006 54.2637 157.06 55.7299 156.306C56.4783 155.921 57.3514 155.709 58.1883 155.709V155.245H58.1884ZM58.1884 155.245C57.2647 155.245 56.2676 155.466 55.3766 155.924C53.5715 156.853 54.0072 159.034 54.3184 159.823C54.6297 160.613 54.6919 161.17 55.6256 161.541C55.9368 161.665 56.3032 161.706 56.6535 161.706C57.3539 161.706 57.9897 161.541 57.9897 161.541C63.7772 160.613 61.7878 156.806 60.6052 155.924C60.0062 155.477 59.1359 155.245 58.1884 155.245Z" fill="white"/>
<path d="M64.2527 142.509C65.0895 142.509 65.9626 142.721 66.711 143.106C68.1773 143.86 67.7961 145.806 67.5254 146.492C67.4771 146.615 67.4356 146.729 67.3954 146.84C67.1706 147.459 67.058 147.718 66.5225 147.931C66.3383 148.004 66.091 148.042 65.7876 148.042C65.2075 148.042 64.6601 147.903 64.6559 147.902L64.6197 147.893L64.5822 147.887C62.7522 147.593 61.6404 146.98 61.278 146.063C61.0175 145.405 61.1913 144.731 61.3828 144.281C61.6259 143.711 62.0066 143.253 62.276 143.052C62.7455 142.702 63.4475 142.509 64.2527 142.509ZM64.2527 142.045C63.305 142.045 62.4348 142.277 61.8359 142.724C60.6532 143.606 58.6638 147.412 64.4514 148.341C64.4514 148.341 65.0872 148.506 65.7876 148.506C66.1379 148.506 66.5042 148.465 66.8155 148.341C67.7492 147.969 67.8114 147.412 68.1227 146.623C68.4339 145.834 68.8696 143.652 67.0645 142.724C66.1734 142.266 65.1763 142.045 64.2527 142.045Z" fill="white"/>
<path d="M50.066 150.268V150.732C50.6647 150.732 51.3789 150.859 52.1889 151.11C52.5607 151.228 53.684 151.662 53.9921 152.109C54.3899 152.686 54.6376 153.62 54.3411 154.287C54.2313 154.534 53.969 155.005 53.4464 155.377C52.9187 155.753 52.2441 155.943 51.4411 155.943H51.4325C50.511 155.942 49.6226 155.741 48.9308 155.377C48.2836 155.036 47.8628 154.584 47.746 154.104C47.5739 153.396 47.611 151.997 48.4432 151.253C48.8359 150.902 49.3665 150.732 50.0655 150.732L50.066 150.268ZM50.0655 150.268C46.9327 150.268 46.8863 153.17 47.1336 154.187C47.4321 155.414 49.2384 156.404 51.4311 156.408C51.4345 156.408 51.4378 156.408 51.4412 156.408C53.6268 156.408 54.5858 155.212 54.932 154.433C55.2789 153.652 55.0295 152.599 54.5457 151.897C54.062 151.195 52.4299 150.682 52.4299 150.682C51.4931 150.392 50.7135 150.267 50.0655 150.268Z" fill="white"/>
<path d="M70.7355 147.717V148.181C71.6584 148.181 72.5549 148.717 73.4004 149.774C73.6046 150.034 74.1588 150.883 74.0487 151.379C73.9065 152.019 73.3589 152.878 72.5874 153.282C72.2357 153.466 71.517 153.774 70.6559 153.774C70.0541 153.774 69.4727 153.621 68.928 153.318C68.1896 152.906 67.6374 152.35 67.3732 151.75C67.1259 151.189 67.1496 150.639 67.44 150.201C67.8773 149.542 69.2582 148.182 70.7351 148.181L70.7355 147.717ZM70.735 147.717C68.8938 147.718 67.3605 149.275 66.8822 149.995C66.1403 151.113 66.7986 152.711 68.5558 153.69C69.2792 154.092 69.9978 154.239 70.656 154.239C71.5966 154.239 72.4139 153.94 72.945 153.662C73.8479 153.189 74.4898 152.233 74.6628 151.454C74.8358 150.676 73.9361 149.538 73.9361 149.538C72.8586 148.19 71.7502 147.717 70.735 147.717Z" fill="white"/>
<path d="M67.9081 158.897C69.0766 158.758 69.8807 157.932 69.6951 157.061C69.5095 156.189 68.4016 155.589 67.233 155.728C66.0645 155.866 65.2604 156.693 65.4461 157.564C65.6318 158.435 66.7397 159.035 67.9081 158.897ZM67.4018 156.52C67.9861 156.451 68.54 156.751 68.6329 157.186C68.7257 157.622 68.3236 158.035 67.7394 158.104C67.1551 158.174 66.6011 157.874 66.5083 157.438C66.4155 157.002 66.8176 156.589 67.4018 156.52Z" fill="white"/>
<path d="M67.3099 155.027H67.3157C68.1857 155.031 69.4095 155.299 70.0651 155.804C70.3087 155.992 70.747 156.384 70.9471 156.902C71.1491 157.427 71.0617 157.962 70.687 158.494C69.988 159.486 68.694 160.153 67.4671 160.153C67.2322 160.153 67.0056 160.128 66.7936 160.079C65.8789 159.866 63.898 159.084 63.6143 158.021C63.4288 157.326 63.9941 156.564 65.2923 155.756C65.5996 155.567 66.63 155.027 67.3099 155.027ZM67.3099 154.562C66.2531 154.563 64.8959 155.398 64.8959 155.398C60.3499 158.226 65.0115 160.151 66.6084 160.522C66.8847 160.586 67.1732 160.617 67.4671 160.617C68.8719 160.617 70.3947 159.907 71.238 158.71C72.2578 157.262 71.2796 156.072 70.5123 155.481C69.745 154.89 68.3779 154.568 67.3198 154.562C67.3164 154.562 67.3132 154.562 67.3099 154.562Z" fill="white"/>
<path d="M58.9595 151.734C58.9595 152.616 59.9275 153.338 61.1107 153.338C62.2939 153.338 63.2619 152.616 63.2619 151.734C63.2619 150.851 62.2939 150.129 61.1107 150.129C59.9274 150.129 58.9595 150.851 58.9595 151.734ZM62.1863 151.734C62.1863 152.175 61.7023 152.536 61.1107 152.536C60.5191 152.536 60.0351 152.175 60.0351 151.734C60.0351 151.292 60.5191 150.932 61.1107 150.932C61.7023 150.932 62.1863 151.292 62.1863 151.734Z" fill="white"/>
<path d="M60.8649 148.243V148.707C61.7877 148.707 62.6843 149.243 63.5298 150.3C63.734 150.56 64.2882 151.409 64.1781 151.904C64.0358 152.545 63.4883 153.404 62.7168 153.807C62.3651 153.992 61.6464 154.3 60.7853 154.3C60.1834 154.3 59.6021 154.147 59.0574 153.843C58.319 153.432 57.7668 152.876 57.5026 152.276C57.2553 151.715 57.279 151.165 57.5694 150.727C58.0067 150.068 59.3876 148.708 60.8645 148.707L60.8649 148.243ZM60.8644 148.243C59.0232 148.243 57.4899 149.801 57.0116 150.521C56.2697 151.639 56.928 153.237 58.6851 154.215C59.4086 154.618 60.1272 154.765 60.7854 154.765C61.726 154.765 62.5433 154.465 63.0744 154.187C63.9773 153.715 64.6192 152.759 64.7922 151.98C64.9652 151.202 64.0655 150.064 64.0655 150.064C62.988 148.716 61.8796 148.243 60.8644 148.243Z" fill="white"/>
<path d="M52.7563 146.48C52.7563 147.362 53.7244 148.084 54.9076 148.084C56.0907 148.084 57.0588 147.362 57.0588 146.48C57.0588 145.597 56.0907 144.875 54.9076 144.875C53.7244 144.875 52.7563 145.597 52.7563 146.48ZM55.9831 146.48C55.9831 146.921 55.4992 147.282 54.9076 147.282C54.316 147.282 53.832 146.921 53.832 146.48C53.832 146.039 54.316 145.678 54.9076 145.678C55.4992 145.678 55.9831 146.039 55.9831 146.48Z" fill="white"/>
<path d="M54.6612 142.989V143.453C55.5841 143.453 56.4806 143.989 57.3261 145.046C57.5303 145.306 58.0845 146.155 57.9744 146.65C57.8322 147.291 57.2846 148.15 56.5131 148.554C56.1614 148.738 55.4427 149.046 54.5816 149.046C53.9798 149.046 53.3984 148.893 52.8538 148.59C52.1153 148.178 51.5631 147.622 51.2989 147.022C51.0516 146.461 51.0754 145.911 51.3657 145.473C51.8031 144.814 53.1839 143.454 54.6609 143.453L54.6612 142.989ZM54.6608 142.989C52.8196 142.99 51.2862 144.547 50.808 145.267C50.0661 146.385 50.7244 147.983 52.4815 148.962C53.2049 149.364 53.9236 149.511 54.5817 149.511C55.5224 149.511 56.3397 149.212 56.8708 148.934C57.7737 148.461 58.4156 147.505 58.5886 146.726C58.7615 145.948 57.8619 144.81 57.8619 144.81C56.7843 143.462 55.6759 142.989 54.6608 142.989Z" fill="white"/>
<path fill-rule="evenodd" clip-rule="evenodd" d="M42.5934 151.945H41.8462V152.945V172.097L41.8462 172.121C41.8462 179.962 50.3774 186.319 60.9011 186.319C71.4249 186.319 79.9561 179.962 79.9561 172.121L79.9561 172.121V152.945V151.945H79.2088V156.429H78.9561V172.114L78.9561 172.121C78.9561 175.653 77.0367 178.93 73.7775 181.358C70.5183 183.787 65.9691 185.319 60.9011 185.319C55.8332 185.319 51.284 183.787 48.0247 181.358C44.7656 178.93 42.8462 175.653 42.8462 172.121L42.8462 172.099V172.097V156.429H42.5934V151.945Z" fill="#969696"/>
<ellipse cx="102.747" cy="151.945" rx="19.0549" ry="14.1978" fill="#D9F1FF"/>
<path d="M102.747 137.747C92.26 137.747 83.709 144.124 83.709 151.945C83.709 159.766 92.26 166.143 102.747 166.143C113.234 166.143 121.785 159.766 121.785 151.945C121.785 144.124 113.234 137.747 102.747 137.747ZM102.747 165.341C92.8515 165.341 84.7846 159.325 84.7846 151.945C84.7846 144.565 92.8515 138.549 102.747 138.549C112.642 138.549 120.709 144.565 120.709 151.945C120.709 159.325 112.642 165.341 102.747 165.341Z" fill="#969696"/>
<path d="M102.747 139.752C93.7658 139.752 86.3979 145.247 86.3979 151.945C86.3979 158.643 93.712 164.097 102.747 164.097C111.782 164.097 119.096 158.643 119.096 151.945C119.042 145.247 111.728 139.752 102.747 139.752ZM102.747 163.295C94.3573 163.295 87.4735 158.202 87.4735 151.945C87.4735 145.688 94.3036 140.555 102.747 140.555C111.19 140.555 118.02 145.648 118.02 151.945C117.967 158.202 111.137 163.295 102.747 163.295Z" fill="#969696"/>
<path d="M110.677 151.208C110.677 152.091 111.645 152.813 112.828 152.813C114.012 152.813 114.98 152.091 114.98 151.208C114.98 150.326 114.012 149.604 112.828 149.604C111.645 149.604 110.677 150.326 110.677 151.208ZM113.904 151.208C113.904 151.649 113.42 152.01 112.828 152.01C112.237 152.01 111.753 151.649 111.753 151.208C111.753 150.767 112.237 150.406 112.828 150.406C113.42 150.406 113.904 150.767 113.904 151.208Z" fill="white"/>
<path d="M97.6714 158.202C97.6714 159.084 98.6394 159.806 99.8226 159.806C101.006 159.806 101.974 159.084 101.974 158.202C101.974 157.32 101.006 156.598 99.8226 156.598C98.6394 156.598 97.6714 157.32 97.6714 158.202ZM100.898 158.202C100.898 158.643 100.414 159.004 99.8226 159.004C99.2311 159.004 98.747 158.643 98.747 158.202C98.747 157.761 99.2311 157.4 99.8226 157.4C100.414 157.4 100.898 157.761 100.898 158.202Z" fill="white"/>
<path d="M91.8592 152.021C90.9094 152.548 90.7097 153.558 91.4154 154.266C92.121 154.974 93.4753 155.123 94.4251 154.597C95.3748 154.071 95.5746 153.061 94.8688 152.352C94.1632 151.644 92.8089 151.495 91.8592 152.021ZM93.7836 153.953C93.3088 154.216 92.6315 154.142 92.2787 153.788C91.9259 153.433 92.0258 152.928 92.5007 152.665C92.9755 152.402 93.6527 152.477 94.0055 152.831C94.3584 153.185 94.2585 153.69 93.7836 153.953Z" fill="white"/>
<path d="M108.247 145.053C108.247 144.17 107.279 143.448 106.096 143.448C104.913 143.448 103.945 144.17 103.945 145.053C103.945 145.935 104.913 146.657 106.096 146.657C107.279 146.657 108.247 145.935 108.247 145.053ZM105.021 145.053C105.021 144.611 105.505 144.25 106.096 144.25C106.688 144.25 107.172 144.611 107.172 145.053C107.172 145.494 106.688 145.855 106.096 145.855C105.505 145.855 105.021 145.494 105.021 145.053Z" fill="white"/>
<path d="M100.035 155.245V155.709C100.84 155.709 101.542 155.902 102.011 156.252C102.281 156.453 102.661 156.911 102.904 157.481C103.096 157.931 103.27 158.605 103.009 159.264C102.647 160.18 101.535 160.794 99.705 161.087L99.6675 161.093L99.6325 161.102C99.6271 161.104 99.0797 161.242 98.4996 161.242C98.1962 161.242 97.9489 161.205 97.7646 161.131C97.2291 160.918 97.1165 160.659 96.8918 160.04C96.8516 159.929 96.81 159.815 96.7617 159.692C96.4911 159.006 96.1099 157.06 97.5761 156.306C98.3245 155.921 99.1976 155.709 100.035 155.709V155.245H100.035ZM100.035 155.245C99.1109 155.245 98.1138 155.466 97.2228 155.924C95.4177 156.853 95.8534 159.034 96.1646 159.823C96.4758 160.613 96.5381 161.17 97.4718 161.541C97.783 161.665 98.1494 161.706 98.4997 161.706C99.2001 161.706 99.8359 161.541 99.8359 161.541C105.623 160.613 103.634 156.806 102.451 155.924C101.852 155.477 100.982 155.245 100.035 155.245Z" fill="white"/>
<path d="M106.098 142.509C106.935 142.509 107.808 142.721 108.557 143.106C110.023 143.86 109.642 145.806 109.371 146.492C109.323 146.615 109.281 146.729 109.241 146.84C109.016 147.459 108.904 147.718 108.368 147.931C108.184 148.004 107.937 148.042 107.633 148.042C107.053 148.042 106.506 147.903 106.502 147.902L106.465 147.893L106.428 147.887C104.598 147.593 103.486 146.98 103.124 146.063C102.863 145.405 103.037 144.731 103.229 144.281C103.472 143.711 103.852 143.253 104.122 143.052C104.591 142.702 105.293 142.509 106.098 142.509ZM106.098 142.045C105.151 142.045 104.28 142.277 103.682 142.724C102.499 143.606 100.51 147.412 106.297 148.341C106.297 148.341 106.933 148.506 107.633 148.506C107.984 148.506 108.35 148.465 108.661 148.341C109.595 147.969 109.657 147.412 109.968 146.623C110.28 145.834 110.715 143.652 108.91 142.724C108.019 142.266 107.022 142.045 106.098 142.045Z" fill="white"/>
<path d="M91.9122 150.268V150.732C92.5108 150.732 93.2251 150.859 94.0351 151.11C94.4069 151.228 95.5302 151.662 95.8383 152.109C96.2361 152.686 96.4838 153.62 96.1873 154.287C96.0775 154.534 95.8152 155.005 95.2926 155.377C94.7649 155.753 94.0902 155.943 93.2873 155.943H93.2787C92.3572 155.942 91.4688 155.741 90.7769 155.377C90.1298 155.036 89.709 154.584 89.5922 154.104C89.4201 153.396 89.4572 151.997 90.2894 151.253C90.6821 150.902 91.2127 150.732 91.9117 150.732L91.9122 150.268ZM91.9117 150.268C88.7789 150.268 88.7324 153.17 88.9797 154.187C89.2783 155.414 91.0846 156.404 93.2773 156.408C93.2807 156.408 93.284 156.408 93.2873 156.408C95.473 156.408 96.432 155.212 96.7782 154.433C97.1251 153.652 96.8757 152.599 96.3919 151.897C95.9082 151.195 94.2761 150.682 94.2761 150.682C93.3393 150.392 92.5597 150.267 91.9117 150.268Z" fill="white"/>
<path d="M112.582 147.717V148.181C113.505 148.181 114.401 148.717 115.247 149.774C115.451 150.034 116.005 150.883 115.895 151.379C115.753 152.019 115.205 152.878 114.434 153.282C114.082 153.466 113.363 153.774 112.502 153.774C111.9 153.774 111.319 153.621 110.774 153.318C110.036 152.906 109.484 152.35 109.219 151.75C108.972 151.189 108.996 150.639 109.286 150.201C109.724 149.542 111.104 148.182 112.581 148.181L112.582 147.717ZM112.581 147.717C110.74 147.718 109.207 149.275 108.728 149.995C107.987 151.113 108.645 152.711 110.402 153.69C111.125 154.092 111.844 154.239 112.502 154.239C113.443 154.239 114.26 153.94 114.791 153.662C115.694 153.189 116.336 152.233 116.509 151.454C116.682 150.676 115.782 149.538 115.782 149.538C114.705 148.19 113.596 147.717 112.581 147.717Z" fill="white"/>
<path d="M109.754 158.897C110.923 158.758 111.727 157.932 111.541 157.061C111.356 156.189 110.248 155.589 109.079 155.728C107.911 155.866 107.107 156.693 107.292 157.564C107.478 158.435 108.586 159.035 109.754 158.897ZM109.248 156.52C109.832 156.451 110.386 156.751 110.479 157.186C110.572 157.622 110.17 158.035 109.586 158.104C109.001 158.174 108.447 157.874 108.355 157.438C108.262 157.002 108.664 156.589 109.248 156.52Z" fill="white"/>
<path d="M109.156 155.027H109.162C110.032 155.031 111.256 155.299 111.911 155.804C112.155 155.992 112.593 156.384 112.793 156.902C112.995 157.427 112.908 157.962 112.533 158.494C111.834 159.486 110.54 160.153 109.313 160.153C109.078 160.153 108.852 160.128 108.64 160.079C107.725 159.866 105.744 159.084 105.461 158.021C105.275 157.326 105.84 156.564 107.138 155.756C107.446 155.567 108.476 155.027 109.156 155.027ZM109.156 154.562C108.099 154.563 106.742 155.398 106.742 155.398C102.196 158.226 106.858 160.151 108.455 160.522C108.731 160.586 109.019 160.617 109.313 160.617C110.718 160.617 112.241 159.907 113.084 158.71C114.104 157.262 113.126 156.072 112.358 155.481C111.591 154.89 110.224 154.568 109.166 154.562C109.163 154.562 109.159 154.562 109.156 154.562Z" fill="white"/>
<path d="M100.806 151.734C100.806 152.616 101.774 153.338 102.957 153.338C104.14 153.338 105.108 152.616 105.108 151.734C105.108 150.851 104.14 150.129 102.957 150.129C101.774 150.129 100.806 150.851 100.806 151.734ZM104.032 151.734C104.032 152.175 103.548 152.536 102.957 152.536C102.365 152.536 101.881 152.175 101.881 151.734C101.881 151.292 102.365 150.932 102.957 150.932C103.548 150.932 104.032 151.292 104.032 151.734Z" fill="white"/>
<path d="M102.711 148.243V148.707C103.634 148.707 104.531 149.243 105.376 150.3C105.58 150.56 106.134 151.409 106.024 151.904C105.882 152.545 105.334 153.404 104.563 153.807C104.211 153.992 103.493 154.3 102.631 154.3C102.03 154.3 101.448 154.147 100.904 153.843C100.165 153.432 99.613 152.876 99.3487 152.276C99.1015 151.715 99.1252 151.165 99.4156 150.727C99.8529 150.068 101.234 148.708 102.711 148.707L102.711 148.243ZM102.711 148.243C100.869 148.243 99.336 149.801 98.8578 150.521C98.1159 151.639 98.7742 153.237 100.531 154.215C101.255 154.618 101.973 154.765 102.632 154.765C103.572 154.765 104.389 154.465 104.921 154.187C105.824 153.715 106.465 152.759 106.638 151.98C106.811 151.202 105.912 150.064 105.912 150.064C104.834 148.716 103.726 148.243 102.711 148.243Z" fill="white"/>
<path d="M94.6025 146.48C94.6025 147.362 95.5706 148.084 96.7538 148.084C97.9369 148.084 98.905 147.362 98.905 146.48C98.905 145.597 97.9369 144.875 96.7538 144.875C95.5706 144.875 94.6025 145.597 94.6025 146.48ZM97.8293 146.48C97.8293 146.921 97.3454 147.282 96.7538 147.282C96.1622 147.282 95.6782 146.921 95.6782 146.48C95.6782 146.039 96.1622 145.678 96.7538 145.678C97.3454 145.678 97.8293 146.039 97.8293 146.48Z" fill="white"/>
<path d="M96.5074 142.989V143.453C97.4303 143.453 98.3268 143.989 99.1723 145.046C99.3765 145.306 99.9307 146.155 99.8206 146.65C99.6784 147.291 99.1308 148.15 98.3593 148.554C98.0076 148.738 97.2889 149.046 96.4278 149.046C95.826 149.046 95.2446 148.893 94.6999 148.59C93.9615 148.178 93.4093 147.622 93.1451 147.022C92.8978 146.461 92.9215 145.911 93.2119 145.473C93.6493 144.814 95.0301 143.454 96.507 143.453L96.5074 142.989ZM96.507 142.989C94.6658 142.99 93.1324 144.547 92.6542 145.267C91.9123 146.385 92.5705 147.983 94.3277 148.962C95.0511 149.364 95.7698 149.511 96.4279 149.511C97.3686 149.511 98.1859 149.212 98.717 148.934C99.6199 148.461 100.262 147.505 100.435 146.726C100.608 145.948 99.7081 144.81 99.7081 144.81C98.6305 143.462 97.5221 142.989 96.507 142.989Z" fill="white"/>
<path fill-rule="evenodd" clip-rule="evenodd" d="M84.4396 151.945H83.6924V152.945V172.084L83.6924 172.121C83.6924 179.962 92.2236 186.319 102.747 186.319C113.271 186.319 121.802 179.962 121.802 172.121V172.121H121.802V171.121V152.945V151.945H121.055V156.429H120.802V171.121H120.802V172.121V172.121V172.121V172.121V172.121V172.121V172.121V172.121C120.802 175.653 118.883 178.93 115.624 181.358C112.364 183.787 107.815 185.319 102.747 185.319C97.6794 185.319 93.1302 183.787 89.8709 181.358C86.6118 178.93 84.6924 175.653 84.6924 172.121L84.6924 172.087V172.084V156.429H84.4396V151.945Z" fill="#969696"/>
<defs>
<filter id="filter0_b_2620_960" x="6.46143" y="-3" width="24.4395" height="86.835" filterUnits="userSpaceOnUse" color-interpolation-filters="sRGB">
<feFlood flood-opacity="0" result="BackgroundImageFix"/>
<feGaussianBlur in="BackgroundImageFix" stdDeviation="2"/>
<feComposite in2="SourceAlpha" operator="in" result="effect1_backgroundBlur_2620_960"/>
<feBlend mode="normal" in="SourceGraphic" in2="effect1_backgroundBlur_2620_960" result="shape"/>
</filter>
<filter id="filter1_b_2620_960" x="48.3076" y="-3" width="24.4395" height="86.835" filterUnits="userSpaceOnUse" color-interpolation-filters="sRGB">
<feFlood flood-opacity="0" result="BackgroundImageFix"/>
<feGaussianBlur in="BackgroundImageFix" stdDeviation="2"/>
<feComposite in2="SourceAlpha" operator="in" result="effect1_backgroundBlur_2620_960"/>
<feBlend mode="normal" in="SourceGraphic" in2="effect1_backgroundBlur_2620_960" result="shape"/>
</filter>
<filter id="filter2_b_2620_960" x="90.1538" y="-3" width="24.4395" height="86.835" filterUnits="userSpaceOnUse" color-interpolation-filters="sRGB">
<feFlood flood-opacity="0" result="BackgroundImageFix"/>
<feGaussianBlur in="BackgroundImageFix" stdDeviation="2"/>
<feComposite in2="SourceAlpha" operator="in" result="effect1_backgroundBlur_2620_960"/>
<feBlend mode="normal" in="SourceGraphic" in2="effect1_backgroundBlur_2620_960" result="shape"/>
</filter>
</defs>
</svg>
