<svg width="133" height="168" viewBox="0 0 133 168" fill="none" xmlns="http://www.w3.org/2000/svg">
<path d="M74.6875 19L1 82.1616V167H132V78.0505L87.7131 19" stroke="#969696"/>
<path fill-rule="evenodd" clip-rule="evenodd" d="M24.2859 61.9341H5.23096V82.1099C5.23096 89.9511 13.7621 96.3077 24.2859 96.3077C34.8097 96.3077 43.3408 89.9511 43.3408 82.1099V61.9341H24.2859Z" fill="white"/>
<path fill-rule="evenodd" clip-rule="evenodd" d="M107.978 61.9341H88.9229V82.1099C88.9229 89.9511 97.454 96.3077 107.978 96.3077C118.502 96.3077 127.033 89.9511 127.033 82.1099V61.9341H107.978Z" fill="white"/>
<ellipse cx="107.978" cy="61.9341" rx="19.0549" ry="14.1978" fill="white"/>
<path d="M107.978 47.7363C97.491 47.7363 88.9399 54.1133 88.9399 61.9342C88.9399 69.7549 97.491 76.1319 107.978 76.1319C118.465 76.1319 127.016 69.7549 127.016 61.9342C127.016 54.1133 118.465 47.7363 107.978 47.7363ZM107.978 75.3298C98.0825 75.3298 90.0155 69.3138 90.0155 61.9342C90.0155 54.5545 98.0825 48.5385 107.978 48.5385C117.873 48.5385 125.94 54.5545 125.94 61.9342C125.94 69.3138 117.873 75.3298 107.978 75.3298Z" fill="#969696"/>
<path d="M107.977 49.7417C98.9962 49.7417 91.6284 55.2363 91.6284 61.9342C91.6284 68.632 98.9425 74.0866 107.977 74.0866C117.012 74.0866 124.326 68.632 124.326 61.9342C124.273 55.2363 116.959 49.7417 107.977 49.7417ZM107.977 73.2844C99.5878 73.2844 92.704 68.1908 92.704 61.9342C92.704 55.6775 99.534 50.5438 107.977 50.5438C116.421 50.5438 123.251 55.6374 123.251 61.9342C123.197 68.1909 116.367 73.2844 107.977 73.2844Z" fill="#969696"/>
<path d="M115.908 61.1975C115.908 62.0799 116.876 62.8018 118.059 62.8018C119.243 62.8018 120.211 62.0799 120.211 61.1975C120.211 60.3152 119.243 59.5933 118.059 59.5933C116.876 59.5933 115.908 60.3152 115.908 61.1975ZM119.135 61.1975C119.135 61.6387 118.651 61.9997 118.059 61.9997C117.468 61.9997 116.984 61.6387 116.984 61.1975C116.984 60.7564 117.468 60.3954 118.059 60.3954C118.651 60.3954 119.135 60.7564 119.135 61.1975Z" fill="#62D136"/>
<path d="M102.902 68.1907C102.902 69.0731 103.87 69.795 105.053 69.795C106.236 69.795 107.204 69.0731 107.204 68.1907C107.204 67.3083 106.236 66.5864 105.053 66.5864C103.87 66.5864 102.902 67.3083 102.902 68.1907ZM106.129 68.1907C106.129 68.6319 105.645 68.9928 105.053 68.9928C104.462 68.9928 103.978 68.6319 103.978 68.1907C103.978 67.7495 104.462 67.3886 105.053 67.3886C105.645 67.3886 106.129 67.7495 106.129 68.1907Z" fill="#FF0000"/>
<path d="M97.0901 62.0101C96.1404 62.5364 95.9406 63.5464 96.6463 64.2547C97.352 64.963 98.7063 65.1119 99.6561 64.5856C100.606 64.0594 100.806 63.0493 100.1 62.3411C99.3942 61.6329 98.0398 61.4839 97.0901 62.0101ZM99.0146 63.9418C98.5397 64.2049 97.8625 64.1304 97.5096 63.7763C97.1568 63.4221 97.2568 62.9171 97.7316 62.654C98.2065 62.3909 98.8836 62.4653 99.2364 62.8195C99.5893 63.1736 99.4895 63.6786 99.0146 63.9418Z" fill="#62D136"/>
<path d="M113.478 55.0418C113.478 54.1594 112.51 53.4375 111.327 53.4375C110.143 53.4375 109.175 54.1594 109.175 55.0418C109.175 55.9241 110.143 56.646 111.327 56.646C112.51 56.646 113.478 55.9242 113.478 55.0418ZM110.251 55.0418C110.251 54.6006 110.735 54.2396 111.327 54.2396C111.918 54.2396 112.402 54.6006 112.402 55.0418C112.402 55.4829 111.918 55.8439 111.327 55.8439C110.735 55.8439 110.251 55.483 110.251 55.0418Z" fill="#FF0000"/>
<path d="M105.266 65.2344V65.6986C106.071 65.6986 106.773 65.8914 107.242 66.2416C107.512 66.4425 107.892 66.9005 108.135 67.4707C108.327 67.9201 108.501 68.5941 108.24 69.2528C107.878 70.1693 106.766 70.7829 104.936 71.0764L104.898 71.0826L104.863 71.0915C104.858 71.0929 104.311 71.2311 103.731 71.2311C103.427 71.2311 103.18 71.1939 102.996 71.1207C102.46 70.9076 102.347 70.648 102.123 70.0292C102.083 69.9186 102.041 69.8042 101.993 69.6817C101.722 68.9956 101.341 67.0497 102.807 66.2955C103.555 65.9106 104.429 65.6986 105.265 65.6986V65.2344H105.266ZM105.266 65.2344C104.342 65.2344 103.345 65.4551 102.454 65.9134C100.649 66.8418 101.084 69.0235 101.396 69.8126C101.707 70.6018 101.769 71.1588 102.703 71.5302C103.014 71.654 103.38 71.6952 103.731 71.6952C104.431 71.6952 105.067 71.5302 105.067 71.5302C110.854 70.6018 108.865 66.7953 107.682 65.9134C107.083 65.4667 106.213 65.2344 105.266 65.2344Z" fill="#FF0000"/>
<path d="M111.329 52.4979C112.166 52.4979 113.039 52.7099 113.788 53.0948C115.254 53.8489 114.873 55.7948 114.602 56.481C114.554 56.6035 114.512 56.7179 114.472 56.8285C114.247 57.4473 114.135 57.7069 113.599 57.9199C113.415 57.9932 113.168 58.0304 112.864 58.0304C112.284 58.0304 111.737 57.8921 111.733 57.8911L111.696 57.8817L111.659 57.8757C109.829 57.5821 108.717 56.9686 108.355 56.052C108.094 55.3933 108.268 54.7194 108.46 54.27C108.703 53.6998 109.083 53.2419 109.353 53.041C109.822 52.6908 110.524 52.4979 111.329 52.4979ZM111.329 52.0337C110.382 52.0337 109.511 52.2661 108.913 52.7127C107.73 53.5947 105.74 57.4011 111.528 58.3295C111.528 58.3295 112.164 58.4946 112.864 58.4946C113.215 58.4946 113.581 58.4533 113.892 58.3295C114.826 57.9581 114.888 57.4011 115.199 56.612C115.511 55.8228 115.946 53.6411 114.141 52.7127C113.25 52.2544 112.253 52.0337 111.329 52.0337Z" fill="#FF0000"/>
<path d="M97.1431 60.2568V60.721C97.7418 60.721 98.4561 60.8483 99.2661 61.0994C99.6378 61.2173 100.761 61.6518 101.069 62.0987C101.467 62.6757 101.715 63.609 101.418 64.2762C101.308 64.5234 101.046 64.9939 100.524 65.3661C99.9958 65.742 99.3212 65.9326 98.5182 65.9326H98.5097C97.5882 65.9311 96.6998 65.7298 96.0079 65.3659C95.3607 65.0255 94.94 64.5734 94.8231 64.0931C94.651 63.3854 94.6882 61.9858 95.5203 61.2424C95.913 60.8916 96.4437 60.7211 97.1427 60.721L97.1431 60.2568ZM97.1427 60.2568C94.0098 60.2571 93.9634 63.159 94.2107 64.1759C94.5092 65.4032 96.3155 66.3932 98.5083 66.3968C98.5116 66.3968 98.5149 66.3968 98.5183 66.3968C100.704 66.3968 101.663 65.2017 102.009 64.4221C102.356 63.6413 102.107 62.5883 101.623 61.8864C101.139 61.1845 99.5071 60.6713 99.5071 60.6713C98.5702 60.3808 97.7907 60.2567 97.1427 60.2568Z" fill="#62D136"/>
<path d="M117.812 57.7065V58.1707C118.735 58.1707 119.632 58.7067 120.477 59.7636C120.681 60.0236 121.235 60.872 121.125 61.3678C120.983 62.0079 120.436 62.8671 119.664 63.2709C119.312 63.4549 118.594 63.7637 117.733 63.7637C117.131 63.7637 116.549 63.61 116.005 63.3068C115.266 62.8957 114.714 62.339 114.45 61.7391C114.203 61.178 114.226 60.628 114.517 60.1905C114.954 59.5316 116.335 58.171 117.812 58.1707L117.812 57.7065ZM117.812 57.7065C115.97 57.7068 114.437 59.264 113.959 59.9846C113.217 61.1025 113.875 62.7005 115.632 63.6788C116.356 64.0815 117.074 64.228 117.733 64.228C118.673 64.228 119.491 63.9288 120.022 63.6509C120.925 63.1784 121.566 62.2222 121.739 61.4437C121.912 60.6651 121.013 59.5273 121.013 59.5273C119.935 58.1796 118.827 57.7064 117.812 57.7065Z" fill="#62D136"/>
<path d="M114.985 68.8855C116.154 68.747 116.958 67.9208 116.772 67.0493C116.587 66.1779 115.479 65.5782 114.31 65.7166C113.142 65.8551 112.338 66.6814 112.523 67.5527C112.709 68.4242 113.817 69.0239 114.985 68.8855ZM114.479 66.5089C115.063 66.4397 115.617 66.7395 115.71 67.1752C115.803 67.6109 115.401 68.024 114.817 68.0933C114.232 68.1625 113.678 67.8626 113.585 67.4269C113.493 66.9912 113.895 66.5781 114.479 66.5089Z" fill="#969696"/>
<path d="M114.387 65.016H114.393C115.263 65.0202 116.487 65.2886 117.142 65.7935C117.386 65.981 117.824 66.373 118.024 66.8917C118.226 67.4158 118.139 67.9512 117.764 68.4832C117.065 69.4755 115.771 70.1423 114.544 70.1423C114.309 70.1423 114.083 70.1173 113.871 70.0681C112.956 69.8555 110.975 69.0728 110.691 68.0105C110.506 67.3156 111.071 66.5531 112.369 65.7455C112.677 65.5563 113.707 65.016 114.387 65.016ZM114.387 64.5518C113.33 64.5518 111.973 65.3876 111.973 65.3876C107.427 68.2157 112.089 70.1402 113.686 70.5113C113.962 70.5755 114.25 70.6065 114.544 70.6065C115.949 70.6065 117.472 69.8963 118.315 68.6991C119.335 67.2513 118.357 66.0614 117.589 65.4705C116.822 64.8797 115.455 64.5569 114.397 64.5518C114.394 64.5518 114.39 64.5518 114.387 64.5518Z" fill="#969696"/>
<path d="M106.036 61.7229C106.036 62.6053 107.004 63.3272 108.187 63.3272C109.371 63.3272 110.339 62.6053 110.339 61.7229C110.339 60.8406 109.371 60.1187 108.187 60.1187C107.004 60.1187 106.036 60.8406 106.036 61.7229ZM109.263 61.7229C109.263 62.1641 108.779 62.5251 108.187 62.5251C107.596 62.5251 107.112 62.1641 107.112 61.7229C107.112 61.2818 107.596 60.9208 108.187 60.9208C108.779 60.9208 109.263 61.2818 109.263 61.7229Z" fill="#62D136"/>
<path d="M107.942 58.2319V58.6961C108.865 58.6961 109.761 59.2321 110.607 60.289C110.811 60.549 111.365 61.3974 111.255 61.8932C111.113 62.5333 110.565 63.3925 109.794 63.7962C109.442 63.9803 108.724 64.2891 107.862 64.2891C107.261 64.2891 106.679 64.1354 106.135 63.8322C105.396 63.4211 104.844 62.8644 104.58 62.2645C104.332 61.7034 104.356 61.1534 104.647 60.7159C105.084 60.057 106.465 58.6964 107.942 58.6961L107.942 58.2319ZM107.942 58.2319C106.1 58.2322 104.567 59.7894 104.089 60.51C103.347 61.6279 104.005 63.2259 105.762 64.2042C106.486 64.6069 107.204 64.7534 107.863 64.7534C108.803 64.7534 109.62 64.4542 110.152 64.1762C111.054 63.7038 111.696 62.7476 111.869 61.9691C112.042 61.1905 111.143 60.0527 111.143 60.0527C110.065 58.705 108.957 58.2318 107.942 58.2319Z" fill="#62D136"/>
<path d="M99.8335 56.4685C99.8335 57.3509 100.802 58.0728 101.985 58.0728C103.168 58.0728 104.136 57.3509 104.136 56.4685C104.136 55.5862 103.168 54.8643 101.985 54.8643C100.802 54.8643 99.8335 55.5862 99.8335 56.4685ZM103.06 56.4685C103.06 56.9097 102.576 57.2707 101.985 57.2707C101.393 57.2707 100.909 56.9097 100.909 56.4685C100.909 56.0274 101.393 55.6664 101.985 55.6664C102.576 55.6664 103.06 56.0274 103.06 56.4685Z" fill="#969696"/>
<path d="M101.738 52.9785V53.4427C102.661 53.4427 103.558 53.9787 104.403 55.0356C104.607 55.2956 105.162 56.144 105.052 56.6398C104.909 57.2799 104.362 58.1391 103.59 58.5428C103.239 58.7269 102.52 59.0357 101.659 59.0357C101.057 59.0357 100.476 58.882 99.9309 58.5788C99.1925 58.1677 98.6403 57.611 98.376 57.0111C98.1288 56.45 98.1525 55.9 98.4429 55.4625C98.8802 54.8036 100.261 53.4429 101.738 53.4427L101.738 52.9785ZM101.738 52.9785C99.8967 52.9788 98.3634 54.536 97.8852 55.2566C97.1433 56.3745 97.8015 57.9725 99.5587 58.9508C100.282 59.3535 101.001 59.5 101.659 59.5C102.6 59.5 103.417 59.2008 103.948 58.9228C104.851 58.4504 105.493 57.4942 105.666 56.7156C105.839 55.9371 104.939 54.7992 104.939 54.7992C103.861 53.4515 102.753 52.9784 101.738 52.9785Z" fill="#969696"/>
<path fill-rule="evenodd" clip-rule="evenodd" d="M89.6703 61.9341H88.9229V62.9341V81.1099V82.1099H88.9231C88.9231 89.9511 97.4543 96.3077 107.978 96.3077C118.502 96.3077 127.033 89.9511 127.033 82.1099L127.033 82.0401V62.9341V61.9341H126.286V66.4176H126.033L126.033 82.0401L126.033 82.0465L126.033 82.1099C126.033 85.6423 124.114 88.919 120.854 91.3474C117.595 93.7758 113.046 95.3077 107.978 95.3077C102.91 95.3077 98.3609 93.7758 95.1016 91.3474C91.8425 88.919 89.9231 85.6424 89.9231 82.1099L89.9231 81.1099H89.9229V66.4176H89.6703V61.9341Z" fill="#969696"/>
<ellipse cx="66.1321" cy="61.9341" rx="19.0549" ry="14.1978" fill="white"/>
<path d="M66.1317 47.7363C55.6448 47.7363 47.0938 54.1133 47.0938 61.9342C47.0938 69.7549 55.6448 76.1319 66.1317 76.1319C76.6187 76.1319 85.1697 69.7549 85.1697 61.9342C85.1697 54.1133 76.6188 47.7363 66.1317 47.7363ZM66.1317 75.3298C56.2363 75.3298 48.1693 69.3138 48.1693 61.9342C48.1693 54.5545 56.2363 48.5385 66.1317 48.5385C76.0272 48.5385 84.0941 54.5545 84.0941 61.9342C84.0941 69.3138 76.0272 75.3298 66.1317 75.3298Z" fill="#969696"/>
<path d="M66.1312 49.7417C57.15 49.7417 49.7822 55.2363 49.7822 61.9342C49.7822 68.632 57.0963 74.0866 66.1312 74.0866C75.1662 74.0866 82.4803 68.632 82.4803 61.9342C82.4265 55.2363 75.1124 49.7417 66.1312 49.7417ZM66.1312 73.2844C57.7416 73.2844 50.8578 68.1908 50.8578 61.9342C50.8578 55.6775 57.6878 50.5438 66.1312 50.5438C74.5746 50.5438 81.4047 55.6374 81.4047 61.9342C81.3509 68.1909 74.5209 73.2844 66.1312 73.2844Z" fill="#969696"/>
<path d="M74.062 61.1975C74.062 62.0799 75.03 62.8018 76.2133 62.8018C77.3964 62.8018 78.3644 62.0799 78.3644 61.1975C78.3644 60.3152 77.3964 59.5933 76.2133 59.5933C75.03 59.5933 74.062 60.3152 74.062 61.1975ZM77.2887 61.1975C77.2887 61.6387 76.8048 61.9997 76.2132 61.9997C75.6216 61.9997 75.1376 61.6387 75.1376 61.1975C75.1376 60.7564 75.6216 60.3954 76.2132 60.3954C76.8048 60.3954 77.2887 60.7564 77.2887 61.1975Z" fill="#62D136"/>
<path d="M61.0557 68.1907C61.0557 69.0731 62.0237 69.795 63.2069 69.795C64.3901 69.795 65.3581 69.0731 65.3581 68.1907C65.3581 67.3083 64.39 66.5864 63.2068 66.5864C62.0237 66.5864 61.0557 67.3083 61.0557 68.1907ZM64.2824 68.1907C64.2824 68.6319 63.7985 68.9928 63.2069 68.9928C62.6153 68.9928 62.1313 68.6319 62.1313 68.1907C62.1313 67.7495 62.6153 67.3886 63.2069 67.3886C63.7985 67.3886 64.2824 67.7495 64.2824 68.1907Z" fill="#FF0000"/>
<path d="M55.2439 62.0101C54.2942 62.5364 54.0944 63.5464 54.8001 64.2547C55.5058 64.963 56.8601 65.1119 57.8099 64.5856C58.7596 64.0594 58.9593 63.0493 58.2536 62.3411C57.548 61.6329 56.1937 61.4839 55.2439 62.0101ZM57.1684 63.9418C56.6935 64.2049 56.0163 64.1304 55.6635 63.7763C55.3107 63.4221 55.4106 62.9171 55.8854 62.654C56.3603 62.3909 57.0375 62.4653 57.3903 62.8195C57.7431 63.1736 57.6433 63.6786 57.1684 63.9418Z" fill="#62D136"/>
<path d="M71.6321 55.0418C71.6321 54.1594 70.664 53.4375 69.4808 53.4375C68.2977 53.4375 67.3296 54.1594 67.3296 55.0418C67.3296 55.9241 68.2977 56.646 69.4808 56.646C70.664 56.646 71.6321 55.9242 71.6321 55.0418ZM68.4053 55.0418C68.4053 54.6006 68.8893 54.2396 69.4809 54.2396C70.0725 54.2396 70.5565 54.6006 70.5565 55.0418C70.5565 55.4829 70.0725 55.8439 69.4809 55.8439C68.8893 55.8439 68.4053 55.483 68.4053 55.0418Z" fill="#FF0000"/>
<path d="M63.4193 65.2344V65.6986C64.2245 65.6986 64.9264 65.8914 65.396 66.2416C65.6654 66.4425 66.0461 66.9005 66.2891 67.4707C66.4807 67.9201 66.6544 68.5941 66.3939 69.2528C66.0315 70.1693 64.9199 70.7829 63.0898 71.0764L63.0522 71.0826L63.0173 71.0915C63.0118 71.0929 62.4644 71.2311 61.8844 71.2311C61.5809 71.2311 61.3336 71.1939 61.1494 71.1207C60.6138 70.9076 60.5013 70.648 60.2765 70.0292C60.2363 69.9186 60.1948 69.8042 60.1465 69.6817C59.8759 68.9956 59.4947 67.0497 60.9609 66.2955C61.7093 65.9106 62.5823 65.6986 63.4193 65.6986V65.2344H63.4193ZM63.4193 65.2344C62.4957 65.2344 61.4985 65.4551 60.6076 65.9134C58.8024 66.8418 59.2382 69.0235 59.5494 69.8126C59.8606 70.6018 59.9229 71.1588 60.8565 71.5302C61.1678 71.654 61.5341 71.6952 61.8844 71.6952C62.5848 71.6952 63.2207 71.5302 63.2207 71.5302C69.0082 70.6018 67.0188 66.7953 65.8362 65.9134C65.2372 65.4667 64.3669 65.2344 63.4193 65.2344Z" fill="#FF0000"/>
<path d="M69.4831 52.4979C70.3199 52.4979 71.1931 52.7099 71.9415 53.0948C73.4077 53.8489 73.0265 55.7948 72.7559 56.481C72.7076 56.6035 72.6661 56.7179 72.6259 56.8285C72.4011 57.4473 72.2885 57.7069 71.753 57.9199C71.5688 57.9932 71.3215 58.0304 71.018 58.0304C70.438 58.0304 69.8906 57.8921 69.8864 57.8911L69.8502 57.8817L69.8127 57.8757C67.9826 57.5821 66.8709 56.9686 66.5084 56.052C66.248 55.3933 66.4217 54.7194 66.6133 54.27C66.8564 53.6998 67.2371 53.2419 67.5065 53.041C67.976 52.6908 68.678 52.4979 69.4831 52.4979ZM69.4831 52.0337C68.5354 52.0337 67.6653 52.2661 67.0663 52.7127C65.8837 53.5947 63.8943 57.4011 69.6819 58.3295C69.6819 58.3295 70.3177 58.4946 71.0181 58.4946C71.3684 58.4946 71.7347 58.4533 72.046 58.3295C72.9797 57.9581 73.0419 57.4011 73.3531 56.612C73.6644 55.8228 74.1001 53.6411 72.295 52.7127C71.4039 52.2544 70.4068 52.0337 69.4831 52.0337Z" fill="#FF0000"/>
<path d="M55.2969 60.2568V60.721C55.8956 60.721 56.6099 60.8483 57.4199 61.0994C57.7916 61.2173 58.915 61.6518 59.2231 62.0987C59.6209 62.6757 59.8685 63.609 59.5721 64.2762C59.4622 64.5234 59.1999 64.9939 58.6773 65.3661C58.1496 65.742 57.475 65.9326 56.6721 65.9326H56.6635C55.742 65.9311 54.8536 65.7298 54.1617 65.3659C53.5145 65.0255 53.0938 64.5734 52.9769 64.0931C52.8048 63.3854 52.842 61.9858 53.6741 61.2424C54.0668 60.8916 54.5975 60.7211 55.2965 60.721L55.2969 60.2568ZM55.2965 60.2568C52.1636 60.2571 52.1172 63.159 52.3645 64.1759C52.663 65.4032 54.4693 66.3932 56.6621 66.3968C56.6655 66.3968 56.6688 66.3968 56.6721 66.3968C58.8577 66.3968 59.8167 65.2017 60.163 64.4221C60.5099 63.6413 60.2605 62.5883 59.7767 61.8864C59.2929 61.1845 57.6609 60.6713 57.6609 60.6713C56.724 60.3808 55.9445 60.2567 55.2965 60.2568Z" fill="#62D136"/>
<path d="M75.966 57.7065V58.1707C76.8888 58.1707 77.7854 58.7067 78.6309 59.7636C78.835 60.0236 79.3893 60.872 79.2792 61.3678C79.1369 62.0079 78.5894 62.8671 77.8179 63.2709C77.4661 63.4549 76.7475 63.7637 75.8864 63.7637C75.2845 63.7637 74.7032 63.61 74.1585 63.3068C73.4201 62.8957 72.8679 62.339 72.6036 61.7391C72.3564 61.178 72.3801 60.628 72.6705 60.1905C73.1078 59.5316 74.4887 58.171 75.9656 58.1707L75.966 57.7065ZM75.9655 57.7065C74.1243 57.7068 72.5909 59.264 72.1127 59.9846C71.3708 61.1025 72.0291 62.7005 73.7862 63.6788C74.5096 64.0815 75.2283 64.228 75.8864 64.228C76.8271 64.228 77.6444 63.9288 78.1755 63.6509C79.0784 63.1784 79.7203 62.2222 79.8933 61.4437C80.0662 60.6651 79.1666 59.5273 79.1666 59.5273C78.089 58.1796 76.9807 57.7064 75.9655 57.7065Z" fill="#62D136"/>
<path d="M73.1391 68.8855C74.3076 68.747 75.1117 67.9208 74.9261 67.0493C74.7405 66.1779 73.6325 65.5782 72.464 65.7166C71.2955 65.8551 70.4914 66.6814 70.6771 67.5527C70.8627 68.4242 71.9707 69.0239 73.1391 68.8855ZM72.6327 66.5089C73.217 66.4397 73.771 66.7395 73.8639 67.1752C73.9567 67.6109 73.5545 68.024 72.9703 68.0933C72.3861 68.1625 71.8321 67.8626 71.7393 67.4269C71.6465 66.9912 72.0486 66.5781 72.6327 66.5089Z" fill="#969696"/>
<path d="M72.5409 65.016H72.5466C73.4167 65.0202 74.6405 65.2886 75.296 65.7935C75.5396 65.981 75.978 66.373 76.1781 66.8917C76.3801 67.4158 76.2926 67.9512 75.9179 68.4832C75.2189 69.4755 73.9249 70.1423 72.6981 70.1423C72.4631 70.1423 72.2365 70.1173 72.0246 70.0681C71.1098 69.8555 69.1289 69.0728 68.8453 68.0105C68.6598 67.3156 69.2251 66.5531 70.5232 65.7455C70.8305 65.5563 71.861 65.016 72.5409 65.016ZM72.5408 64.5518C71.4841 64.5518 70.1268 65.3876 70.1268 65.3876C65.5808 68.2157 70.2425 70.1402 71.8394 70.5113C72.1156 70.5755 72.4042 70.6065 72.6981 70.6065C74.1029 70.6065 75.6257 69.8963 76.469 68.6991C77.4887 67.2513 76.5106 66.0614 75.7432 65.4705C74.9759 64.8797 73.6089 64.5569 72.5507 64.5518C72.5474 64.5518 72.5442 64.5518 72.5408 64.5518Z" fill="#969696"/>
<path d="M64.1899 61.7229C64.1899 62.6053 65.158 63.3272 66.3412 63.3272C67.5243 63.3272 68.4924 62.6053 68.4924 61.7229C68.4924 60.8406 67.5243 60.1187 66.3412 60.1187C65.1579 60.1187 64.1899 60.8406 64.1899 61.7229ZM67.4167 61.7229C67.4167 62.1641 66.9328 62.5251 66.3412 62.5251C65.7496 62.5251 65.2656 62.1641 65.2656 61.7229C65.2656 61.2818 65.7496 60.9208 66.3412 60.9208C66.9328 60.9208 67.4167 61.2818 67.4167 61.7229Z" fill="#62D136"/>
<path d="M66.0959 58.2319V58.6961C67.0187 58.6961 67.9153 59.2321 68.7608 60.289C68.9649 60.549 69.5191 61.3974 69.409 61.8932C69.2668 62.5333 68.7192 63.3925 67.9478 63.7962C67.596 63.9803 66.8773 64.2891 66.0162 64.2891C65.4144 64.2891 64.833 64.1354 64.2884 63.8322C63.55 63.4211 62.9977 62.8644 62.7335 62.2645C62.4863 61.7034 62.51 61.1534 62.8004 60.7159C63.2377 60.057 64.6185 58.6964 66.0955 58.6961L66.0959 58.2319ZM66.0954 58.2319C64.2542 58.2322 62.7208 59.7894 62.2426 60.51C61.5007 61.6279 62.1589 63.2259 63.9161 64.2042C64.6395 64.6069 65.3581 64.7534 66.0163 64.7534C66.957 64.7534 67.7742 64.4542 68.3054 64.1762C69.2083 63.7038 69.8502 62.7476 70.0231 61.9691C70.1961 61.1905 69.2965 60.0527 69.2965 60.0527C68.219 58.705 67.1106 58.2318 66.0954 58.2319Z" fill="#62D136"/>
<path d="M57.9873 56.4685C57.9873 57.3509 58.9553 58.0728 60.1386 58.0728C61.3217 58.0728 62.2897 57.3509 62.2897 56.4685C62.2897 55.5862 61.3217 54.8643 60.1386 54.8643C58.9553 54.8643 57.9873 55.5862 57.9873 56.4685ZM61.2141 56.4685C61.2141 56.9097 60.7301 57.2707 60.1386 57.2707C59.547 57.2707 59.063 56.9097 59.063 56.4685C59.063 56.0274 59.547 55.6664 60.1386 55.6664C60.7301 55.6664 61.2141 56.0274 61.2141 56.4685Z" fill="#969696"/>
<path d="M59.8922 52.9785V53.4427C60.815 53.4427 61.7116 53.9787 62.5571 55.0356C62.7612 55.2956 63.3155 56.144 63.2054 56.6398C63.0631 57.2799 62.5156 58.1391 61.7441 58.5428C61.3924 58.7269 60.6737 59.0357 59.8126 59.0357C59.2107 59.0357 58.6294 58.882 58.0847 58.5788C57.3463 58.1677 56.7941 57.611 56.5298 57.0111C56.2826 56.45 56.3063 55.9 56.5967 55.4625C57.034 54.8036 58.4149 53.4429 59.8918 53.4427L59.8922 52.9785ZM59.8917 52.9785C58.0505 52.9788 56.5172 54.536 56.039 55.2566C55.2971 56.3745 55.9553 57.9725 57.7125 58.9508C58.4359 59.3535 59.1545 59.5 59.8127 59.5C60.7533 59.5 61.5706 59.2008 62.1018 58.9228C63.0047 58.4504 63.6465 57.4942 63.8195 56.7156C63.9925 55.9371 63.0929 54.7992 63.0929 54.7992C62.0153 53.4515 60.9069 52.9784 59.8917 52.9785Z" fill="#969696"/>
<path fill-rule="evenodd" clip-rule="evenodd" d="M47.8242 61.9341H47.0774V62.9341V82.0401L47.0771 82.1099C47.0771 89.9511 55.6083 96.3077 66.1321 96.3077C76.2049 96.3077 84.4523 90.4842 85.1406 83.1093C85.1713 82.7801 85.1869 82.4478 85.187 82.1129V82.1099L85.1873 82.1099V82.1069V81.107V62.9341V61.9341H84.4396V66.4176H84.1873V81.0307L84.187 81.0307V82.1099C84.187 85.6423 82.2677 88.919 79.0085 91.3474C75.7493 93.7758 71.2 95.3077 66.1321 95.3077C61.0641 95.3077 56.5149 93.7758 53.2557 91.3474C49.9965 88.919 48.0771 85.6423 48.0771 82.1099L48.0774 82.0466L48.0774 82.0466V82.0401V66.4176H47.8242V61.9341Z" fill="#969696"/>
<ellipse cx="24.2859" cy="61.9341" rx="19.0549" ry="14.1978" fill="white"/>
<path d="M24.2856 47.7363C13.7986 47.7363 5.24756 54.1133 5.24756 61.9342C5.24756 69.7549 13.7986 76.1319 24.2856 76.1319C34.7725 76.1319 43.3236 69.7549 43.3236 61.9342C43.3236 54.1133 34.7726 47.7363 24.2856 47.7363ZM24.2856 75.3298C14.3901 75.3298 6.32315 69.3138 6.32315 61.9342C6.32315 54.5545 14.3901 48.5385 24.2856 48.5385C34.181 48.5385 42.248 54.5545 42.248 61.9342C42.248 69.3138 34.181 75.3298 24.2856 75.3298Z" fill="#969696"/>
<path d="M24.285 49.7417C15.3038 49.7417 7.93604 55.2363 7.93604 61.9342C7.93604 68.632 15.2501 74.0866 24.285 74.0866C33.32 74.0866 40.6341 68.632 40.6341 61.9342C40.5803 55.2363 33.2663 49.7417 24.285 49.7417ZM24.285 73.2844C15.8954 73.2844 9.01163 68.1908 9.01163 61.9342C9.01163 55.6775 15.8416 50.5438 24.285 50.5438C32.7284 50.5438 39.5585 55.6374 39.5585 61.9342C39.5047 68.1909 32.6747 73.2844 24.285 73.2844Z" fill="#969696"/>
<path d="M32.2158 61.1975C32.2158 62.0799 33.1838 62.8018 34.3671 62.8018C35.5502 62.8018 36.5183 62.0799 36.5183 61.1975C36.5183 60.3152 35.5502 59.5933 34.3671 59.5933C33.1838 59.5933 32.2158 60.3152 32.2158 61.1975ZM35.4425 61.1975C35.4425 61.6387 34.9586 61.9997 34.367 61.9997C33.7754 61.9997 33.2914 61.6387 33.2914 61.1975C33.2914 60.7564 33.7754 60.3954 34.367 60.3954C34.9586 60.3954 35.4425 60.7564 35.4425 61.1975Z" fill="#62D136"/>
<path d="M19.2095 68.1907C19.2095 69.0731 20.1775 69.795 21.3607 69.795C22.5439 69.795 23.5119 69.0731 23.5119 68.1907C23.5119 67.3083 22.5438 66.5864 21.3607 66.5864C20.1775 66.5864 19.2095 67.3083 19.2095 68.1907ZM22.4362 68.1907C22.4362 68.6319 21.9523 68.9928 21.3607 68.9928C20.7691 68.9928 20.2851 68.6319 20.2851 68.1907C20.2851 67.7495 20.7691 67.3886 21.3607 67.3886C21.9523 67.3886 22.4362 67.7495 22.4362 68.1907Z" fill="#FF0000"/>
<path d="M13.3977 62.0101C12.448 62.5364 12.2483 63.5464 12.9539 64.2547C13.6596 64.963 15.0139 65.1119 15.9637 64.5856C16.9134 64.0594 17.1131 63.0493 16.4074 62.3411C15.7018 61.6329 14.3475 61.4839 13.3977 62.0101ZM15.3222 63.9418C14.8474 64.2049 14.1701 64.1304 13.8173 63.7763C13.4645 63.4221 13.5644 62.9171 14.0392 62.654C14.5141 62.3909 15.1913 62.4653 15.5441 62.8195C15.8969 63.1736 15.7971 63.6786 15.3222 63.9418Z" fill="#62D136"/>
<path d="M29.7859 55.0418C29.7859 54.1594 28.8178 53.4375 27.6346 53.4375C26.4515 53.4375 25.4834 54.1594 25.4834 55.0418C25.4834 55.9241 26.4515 56.646 27.6346 56.646C28.8178 56.646 29.7859 55.9242 29.7859 55.0418ZM26.5591 55.0418C26.5591 54.6006 27.0431 54.2396 27.6347 54.2396C28.2263 54.2396 28.7103 54.6006 28.7103 55.0418C28.7103 55.4829 28.2263 55.8439 27.6347 55.8439C27.0431 55.8439 26.5591 55.483 26.5591 55.0418Z" fill="#FF0000"/>
<path d="M21.5731 65.2344V65.6986C22.3783 65.6986 23.0802 65.8914 23.5498 66.2416C23.8192 66.4425 24.1999 66.9005 24.4429 67.4707C24.6345 67.9201 24.8082 68.5941 24.5477 69.2528C24.1853 70.1693 23.0737 70.7829 21.2436 71.0764L21.206 71.0826L21.1711 71.0915C21.1656 71.0929 20.6183 71.2311 20.0382 71.2311C19.7347 71.2311 19.4874 71.1939 19.3032 71.1207C18.7676 70.9076 18.6551 70.648 18.4303 70.0292C18.3901 69.9186 18.3486 69.8042 18.3003 69.6817C18.0297 68.9956 17.6485 67.0497 19.1147 66.2955C19.8631 65.9106 20.7361 65.6986 21.5731 65.6986V65.2344H21.5731ZM21.5731 65.2344C20.6495 65.2344 19.6523 65.4551 18.7614 65.9134C16.9563 66.8418 17.392 69.0235 17.7032 69.8126C18.0144 70.6018 18.0767 71.1588 19.0103 71.5302C19.3216 71.654 19.6879 71.6952 20.0383 71.6952C20.7386 71.6952 21.3745 71.5302 21.3745 71.5302C27.162 70.6018 25.1726 66.7953 23.99 65.9134C23.391 65.4667 22.5207 65.2344 21.5731 65.2344Z" fill="#FF0000"/>
<path d="M27.6369 52.4979C28.4737 52.4979 29.3469 52.7099 30.0953 53.0948C31.5615 53.8489 31.1803 55.7948 30.9097 56.481C30.8614 56.6035 30.8199 56.7179 30.7797 56.8285C30.5549 57.4473 30.4423 57.7069 29.9068 57.9199C29.7226 57.9932 29.4753 58.0304 29.1718 58.0304C28.5918 58.0304 28.0444 57.8921 28.0402 57.8911L28.004 57.8817L27.9665 57.8757C26.1365 57.5821 25.0247 56.9686 24.6622 56.052C24.4018 55.3933 24.5755 54.7194 24.7671 54.27C25.0102 53.6998 25.3909 53.2419 25.6603 53.041C26.1298 52.6908 26.8318 52.4979 27.6369 52.4979ZM27.6369 52.0337C26.6892 52.0337 25.8191 52.2661 25.2201 52.7127C24.0375 53.5947 22.0481 57.4011 27.8357 58.3295C27.8357 58.3295 28.4715 58.4946 29.1719 58.4946C29.5222 58.4946 29.8885 58.4533 30.1998 58.3295C31.1335 57.9581 31.1957 57.4011 31.507 56.612C31.8182 55.8228 32.2539 53.6411 30.4488 52.7127C29.5577 52.2544 28.5606 52.0337 27.6369 52.0337Z" fill="#FF0000"/>
<path d="M13.4507 60.2568V60.721C14.0494 60.721 14.7637 60.8483 15.5737 61.0994C15.9455 61.2173 17.0688 61.6518 17.3769 62.0987C17.7747 62.6757 18.0223 63.609 17.7259 64.2762C17.6161 64.5234 17.3538 64.9939 16.8311 65.3661C16.3034 65.742 15.6288 65.9326 14.8259 65.9326H14.8173C13.8958 65.9311 13.0074 65.7298 12.3155 65.3659C11.6684 65.0255 11.2476 64.5734 11.1307 64.0931C10.9586 63.3854 10.9958 61.9858 11.828 61.2424C12.2207 60.8916 12.7513 60.7211 13.4503 60.721L13.4507 60.2568ZM13.4503 60.2568C10.3175 60.2571 10.271 63.159 10.5183 64.1759C10.8168 65.4032 12.6231 66.3932 14.8159 66.3968C14.8193 66.3968 14.8226 66.3968 14.8259 66.3968C17.0115 66.3968 17.9705 65.2017 18.3168 64.4221C18.6637 63.6413 18.4143 62.5883 17.9305 61.8864C17.4467 61.1845 15.8147 60.6713 15.8147 60.6713C14.8778 60.3808 14.0983 60.2567 13.4503 60.2568Z" fill="#62D136"/>
<path d="M34.1198 57.7065V58.1707C35.0426 58.1707 35.9392 58.7067 36.7847 59.7636C36.9888 60.0236 37.5431 60.872 37.433 61.3678C37.2907 62.0079 36.7432 62.8671 35.9717 63.2709C35.62 63.4549 34.9013 63.7637 34.0402 63.7637C33.4383 63.7637 32.857 63.61 32.3123 63.3068C31.5739 62.8957 31.0217 62.339 30.7574 61.7391C30.5102 61.178 30.5339 60.628 30.8243 60.1905C31.2616 59.5316 32.6425 58.171 34.1194 58.1707L34.1198 57.7065ZM34.1193 57.7065C32.2781 57.7068 30.7447 59.264 30.2665 59.9846C29.5246 61.1025 30.1829 62.7005 31.94 63.6788C32.6634 64.0815 33.3821 64.228 34.0402 64.228C34.9809 64.228 35.7982 63.9288 36.3293 63.6509C37.2322 63.1784 37.8741 62.2222 38.0471 61.4437C38.22 60.6651 37.3204 59.5273 37.3204 59.5273C36.2428 58.1796 35.1345 57.7064 34.1193 57.7065Z" fill="#62D136"/>
<path d="M31.2929 68.8855C32.4614 68.747 33.2655 67.9208 33.0799 67.0493C32.8943 66.1779 31.7863 65.5782 30.6178 65.7166C29.4493 65.8551 28.6452 66.6814 28.8309 67.5527C29.0165 68.4242 30.1245 69.0239 31.2929 68.8855ZM30.7865 66.5089C31.3708 66.4397 31.9248 66.7395 32.0177 67.1752C32.1105 67.6109 31.7083 68.024 31.1242 68.0933C30.5399 68.1625 29.9859 67.8626 29.8931 67.4269C29.8003 66.9912 30.2024 66.5781 30.7865 66.5089Z" fill="#969696"/>
<path d="M30.6947 65.016H30.7004C31.5705 65.0202 32.7943 65.2886 33.4499 65.7935C33.6934 65.981 34.1318 66.373 34.3319 66.8917C34.5339 67.4158 34.4465 67.9512 34.0717 68.4832C33.3727 69.4755 32.0787 70.1423 30.8519 70.1423C30.617 70.1423 30.3903 70.1173 30.1784 70.0681C29.2636 69.8555 27.2827 69.0728 26.9991 68.0105C26.8136 67.3156 27.3789 66.5531 28.677 65.7455C28.9843 65.5563 30.0148 65.016 30.6947 65.016ZM30.6946 64.5518C29.6379 64.5518 28.2807 65.3876 28.2807 65.3876C23.7347 68.2157 28.3963 70.1402 29.9932 70.5113C30.2694 70.5755 30.558 70.6065 30.8519 70.6065C32.2567 70.6065 33.7795 69.8963 34.6228 68.6991C35.6426 67.2513 34.6644 66.0614 33.897 65.4705C33.1297 64.8797 31.7627 64.5569 30.7045 64.5518C30.7012 64.5518 30.698 64.5518 30.6946 64.5518Z" fill="#969696"/>
<path d="M22.3438 61.7229C22.3438 62.6053 23.3118 63.3272 24.495 63.3272C25.6782 63.3272 26.6462 62.6053 26.6462 61.7229C26.6462 60.8406 25.6782 60.1187 24.495 60.1187C23.3117 60.1187 22.3438 60.8406 22.3438 61.7229ZM25.5705 61.7229C25.5705 62.1641 25.0866 62.5251 24.495 62.5251C23.9034 62.5251 23.4194 62.1641 23.4194 61.7229C23.4194 61.2818 23.9034 60.9208 24.495 60.9208C25.0866 60.9208 25.5705 61.2818 25.5705 61.7229Z" fill="#62D136"/>
<path d="M24.2497 58.2319V58.6961C25.1725 58.6961 26.0691 59.2321 26.9146 60.289C27.1187 60.549 27.673 61.3974 27.5628 61.8932C27.4206 62.5333 26.873 63.3925 26.1016 63.7962C25.7498 63.9803 25.0312 64.2891 24.1701 64.2891C23.5682 64.2891 22.9868 64.1354 22.4422 63.8322C21.7038 63.4211 21.1516 62.8644 20.8873 62.2645C20.6401 61.7034 20.6638 61.1534 20.9542 60.7159C21.3915 60.057 22.7723 58.6964 24.2493 58.6961L24.2497 58.2319ZM24.2492 58.2319C22.408 58.2322 20.8746 59.7894 20.3964 60.51C19.6545 61.6279 20.3127 63.2259 22.0699 64.2042C22.7933 64.6069 23.5119 64.7534 24.1701 64.7534C25.1108 64.7534 25.928 64.4542 26.4592 64.1762C27.3621 63.7038 28.004 62.7476 28.1769 61.9691C28.3499 61.1905 27.4503 60.0527 27.4503 60.0527C26.3728 58.705 25.2644 58.2318 24.2492 58.2319Z" fill="#62D136"/>
<path d="M16.1411 56.4685C16.1411 57.3509 17.1091 58.0728 18.2924 58.0728C19.4755 58.0728 20.4435 57.3509 20.4435 56.4685C20.4435 55.5862 19.4755 54.8643 18.2924 54.8643C17.1091 54.8643 16.1411 55.5862 16.1411 56.4685ZM19.3679 56.4685C19.3679 56.9097 18.8839 57.2707 18.2924 57.2707C17.7008 57.2707 17.2168 56.9097 17.2168 56.4685C17.2168 56.0274 17.7008 55.6664 18.2924 55.6664C18.8839 55.6664 19.3679 56.0274 19.3679 56.4685Z" fill="#969696"/>
<path d="M18.046 52.9785V53.4427C18.9688 53.4427 19.8654 53.9787 20.7109 55.0356C20.915 55.2956 21.4693 56.144 21.3592 56.6398C21.2169 57.2799 20.6694 58.1391 19.8979 58.5428C19.5462 58.7269 18.8275 59.0357 17.9664 59.0357C17.3645 59.0357 16.7832 58.882 16.2385 58.5788C15.5001 58.1677 14.9479 57.611 14.6836 57.0111C14.4364 56.45 14.4601 55.9 14.7505 55.4625C15.1878 54.8036 16.5687 53.4429 18.0456 53.4427L18.046 52.9785ZM18.0456 52.9785C16.2043 52.9788 14.671 54.536 14.1928 55.2566C13.4509 56.3745 14.1091 57.9725 15.8663 58.9508C16.5897 59.3535 17.3083 59.5 17.9665 59.5C18.9071 59.5 19.7244 59.2008 20.2556 58.9228C21.1585 58.4504 21.8004 57.4942 21.9733 56.7156C22.1463 55.9371 21.2467 54.7992 21.2467 54.7992C20.1691 53.4515 19.0607 52.9784 18.0456 52.9785Z" fill="#969696"/>
<path fill-rule="evenodd" clip-rule="evenodd" d="M5.97802 61.9341H5.23114V62.9341V82.0462L5.23096 82.1099C5.23096 89.9511 13.7621 96.3077 24.2859 96.3077C34.3585 96.3077 42.6057 90.4845 43.2943 83.1098C43.3251 82.7802 43.3408 82.4474 43.3408 82.1119V82.1099L43.341 82.1099V82.1079V81.1057V62.9341V61.9341H42.5934V66.4176H42.341V81.0139L42.3408 81.0138V82.1099C42.3408 85.6423 40.4215 88.919 37.1623 91.3474C33.9031 93.7758 29.3539 95.3077 24.2859 95.3077C19.2179 95.3077 14.6687 93.7758 11.4095 91.3474C8.15033 88.919 6.23096 85.6423 6.23096 82.1099L6.23113 82.0521H6.23114V82.0462V66.4176H5.97802V61.9341Z" fill="#969696"/>
<ellipse cx="107.978" cy="94.813" rx="19.0549" ry="14.1978" fill="white"/>
<path d="M107.978 80.6152C97.491 80.6152 88.9399 86.9922 88.9399 94.8131C88.9399 102.634 97.491 109.011 107.978 109.011C118.465 109.011 127.016 102.634 127.016 94.8131C127.016 86.9922 118.465 80.6152 107.978 80.6152ZM107.978 108.209C98.0825 108.209 90.0155 102.193 90.0155 94.8131C90.0155 87.4334 98.0825 81.4174 107.978 81.4174C117.873 81.4174 125.94 87.4334 125.94 94.8131C125.94 102.193 117.873 108.209 107.978 108.209Z" fill="#969696"/>
<path d="M107.977 82.6206C98.9962 82.6206 91.6284 88.1152 91.6284 94.8131C91.6284 101.511 98.9425 106.965 107.977 106.965C117.012 106.965 124.326 101.511 124.326 94.8131C124.273 88.1152 116.959 82.6206 107.977 82.6206ZM107.977 106.163C99.5878 106.163 92.704 101.07 92.704 94.8131C92.704 88.5564 99.534 83.4227 107.977 83.4227C116.421 83.4227 123.251 88.5163 123.251 94.8131C123.197 101.07 116.367 106.163 107.977 106.163Z" fill="#969696"/>
<path d="M115.908 94.0764C115.908 94.9588 116.876 95.6807 118.059 95.6807C119.243 95.6807 120.211 94.9588 120.211 94.0764C120.211 93.1941 119.243 92.4722 118.059 92.4722C116.876 92.4722 115.908 93.1941 115.908 94.0764ZM119.135 94.0764C119.135 94.5176 118.651 94.8786 118.059 94.8786C117.468 94.8786 116.984 94.5176 116.984 94.0764C116.984 93.6353 117.468 93.2743 118.059 93.2743C118.651 93.2743 119.135 93.6353 119.135 94.0764Z" fill="#62D136"/>
<path d="M102.902 101.07C102.902 101.952 103.87 102.674 105.053 102.674C106.236 102.674 107.204 101.952 107.204 101.07C107.204 100.188 106.236 99.4658 105.053 99.4658C103.87 99.4658 102.902 100.188 102.902 101.07ZM106.129 101.07C106.129 101.511 105.645 101.872 105.053 101.872C104.462 101.872 103.978 101.511 103.978 101.07C103.978 100.629 104.462 100.268 105.053 100.268C105.645 100.268 106.129 100.629 106.129 101.07Z" fill="#FF0000"/>
<path d="M97.0901 94.8895C96.1404 95.4158 95.9406 96.4258 96.6463 97.1341C97.352 97.8423 98.7063 97.9913 99.6561 97.465C100.606 96.9388 100.806 95.9287 100.1 95.2205C99.3942 94.5123 98.0398 94.3633 97.0901 94.8895ZM99.0146 96.8212C98.5397 97.0843 97.8625 97.0098 97.5096 96.6557C97.1568 96.3015 97.2568 95.7965 97.7316 95.5334C98.2065 95.2703 98.8836 95.3447 99.2364 95.6989C99.5893 96.053 99.4895 96.558 99.0146 96.8212Z" fill="#62D136"/>
<path d="M113.478 87.9207C113.478 87.0383 112.51 86.3164 111.327 86.3164C110.143 86.3164 109.175 87.0383 109.175 87.9207C109.175 88.803 110.143 89.525 111.327 89.525C112.51 89.525 113.478 88.8031 113.478 87.9207ZM110.251 87.9207C110.251 87.4795 110.735 87.1185 111.327 87.1185C111.918 87.1185 112.402 87.4795 112.402 87.9207C112.402 88.3619 111.918 88.7228 111.327 88.7228C110.735 88.7228 110.251 88.3619 110.251 87.9207Z" fill="#FF0000"/>
<path d="M105.266 98.1133V98.5775C106.071 98.5775 106.773 98.7704 107.242 99.1205C107.512 99.3215 107.892 99.7794 108.135 100.35C108.327 100.799 108.501 101.473 108.24 102.132C107.878 103.048 106.766 103.662 104.936 103.955L104.898 103.962L104.863 103.97C104.858 103.972 104.311 104.11 103.731 104.11C103.427 104.11 103.18 104.073 102.996 104C102.46 103.787 102.347 103.527 102.123 102.908C102.083 102.798 102.041 102.683 101.993 102.561C101.722 101.874 101.341 99.9286 102.807 99.1744C103.555 98.7895 104.429 98.5775 105.265 98.5775V98.1133H105.266ZM105.266 98.1133C104.342 98.1133 103.345 98.334 102.454 98.7923C100.649 99.7207 101.084 101.902 101.396 102.692C101.707 103.481 101.769 104.038 102.703 104.409C103.014 104.533 103.38 104.574 103.731 104.574C104.431 104.574 105.067 104.409 105.067 104.409C110.854 103.481 108.865 99.6742 107.682 98.7923C107.083 98.3456 106.213 98.1133 105.266 98.1133Z" fill="#FF0000"/>
<path d="M111.329 85.3768C112.166 85.3768 113.039 85.5888 113.788 85.9737C115.254 86.7279 114.873 88.6737 114.602 89.3599C114.554 89.4824 114.512 89.5968 114.472 89.7074C114.247 90.3262 114.135 90.5858 113.599 90.7988C113.415 90.8721 113.168 90.9093 112.864 90.9093C112.284 90.9093 111.737 90.771 111.733 90.77L111.696 90.7606L111.659 90.7546C109.829 90.461 108.717 89.8475 108.355 88.9309C108.094 88.2722 108.268 87.5983 108.46 87.1489C108.703 86.5787 109.083 86.1208 109.353 85.9199C109.822 85.5697 110.524 85.3768 111.329 85.3768ZM111.329 84.9126C110.382 84.9126 109.511 85.145 108.913 85.5916C107.73 86.4736 105.74 90.28 111.528 91.2084C111.528 91.2084 112.164 91.3735 112.864 91.3735C113.215 91.3735 113.581 91.3322 113.892 91.2084C114.826 90.837 114.888 90.28 115.199 89.4909C115.511 88.7017 115.946 86.52 114.141 85.5916C113.25 85.1333 112.253 84.9126 111.329 84.9126Z" fill="#FF0000"/>
<path d="M97.1431 93.1357V93.5999C97.7418 93.5999 98.4561 93.7272 99.2661 93.9783C99.6378 94.0962 100.761 94.5307 101.069 94.9776C101.467 95.5546 101.715 96.4879 101.418 97.1551C101.308 97.4023 101.046 97.8728 100.524 98.245C99.9958 98.6209 99.3212 98.8115 98.5182 98.8115H98.5097C97.5882 98.81 96.6998 98.6087 96.0079 98.2448C95.3607 97.9044 94.94 97.4523 94.8231 96.972C94.651 96.2644 94.6882 94.8647 95.5203 94.1213C95.913 93.7705 96.4437 93.6 97.1427 93.5999L97.1431 93.1357ZM97.1427 93.1357C94.0098 93.136 93.9634 96.0379 94.2107 97.0548C94.5092 98.2821 96.3155 99.2721 98.5083 99.2757C98.5116 99.2757 98.5149 99.2757 98.5183 99.2757C100.704 99.2757 101.663 98.0806 102.009 97.301C102.356 96.5202 102.107 95.4672 101.623 94.7653C101.139 94.0634 99.5071 93.5502 99.5071 93.5502C98.5702 93.2597 97.7907 93.1356 97.1427 93.1357Z" fill="#62D136"/>
<path d="M117.812 90.5854V91.0496C118.735 91.0496 119.632 91.5856 120.477 92.6426C120.681 92.9025 121.235 93.7509 121.125 94.2467C120.983 94.8868 120.436 95.7461 119.664 96.1498C119.312 96.3338 118.594 96.6427 117.733 96.6427C117.131 96.6427 116.549 96.4889 116.005 96.1857C115.266 95.7746 114.714 95.2179 114.45 94.618C114.203 94.0569 114.226 93.5069 114.517 93.0694C114.954 92.4105 116.335 91.0499 117.812 91.0496L117.812 90.5854ZM117.812 90.5854C115.97 90.5857 114.437 92.1429 113.959 92.8635C113.217 93.9814 113.875 95.5794 115.632 96.5577C116.356 96.9604 117.074 97.1069 117.733 97.1069C118.673 97.1069 119.491 96.8077 120.022 96.5298C120.925 96.0573 121.566 95.1011 121.739 94.3226C121.912 93.544 121.013 92.4062 121.013 92.4062C119.935 91.0585 118.827 90.5853 117.812 90.5854Z" fill="#62D136"/>
<path d="M114.985 101.765C116.154 101.626 116.958 100.8 116.772 99.9287C116.587 99.0573 115.479 98.4576 114.31 98.596C113.142 98.7345 112.338 99.5607 112.523 100.432C112.709 101.304 113.817 101.903 114.985 101.765ZM114.479 99.3883C115.063 99.3191 115.617 99.6189 115.71 100.055C115.803 100.49 115.401 100.903 114.817 100.973C114.232 101.042 113.678 100.742 113.585 100.306C113.493 99.8706 113.895 99.4575 114.479 99.3883Z" fill="#969696"/>
<path d="M114.387 97.8949H114.393C115.263 97.8991 116.487 98.1675 117.142 98.6724C117.386 98.8599 117.824 99.2519 118.024 99.7706C118.226 100.295 118.139 100.83 117.764 101.362C117.065 102.354 115.771 103.021 114.544 103.021C114.309 103.021 114.083 102.996 113.871 102.947C112.956 102.734 110.975 101.952 110.691 100.889C110.506 100.195 111.071 99.432 112.369 98.6244C112.677 98.4352 113.707 97.8949 114.387 97.8949ZM114.387 97.4307C113.33 97.4307 111.973 98.2665 111.973 98.2665C107.427 101.095 112.089 103.019 113.686 103.39C113.962 103.454 114.25 103.485 114.544 103.485C115.949 103.485 117.472 102.775 118.315 101.578C119.335 100.13 118.357 98.9403 117.589 98.3495C116.822 97.7586 115.455 97.4358 114.397 97.4307C114.394 97.4307 114.39 97.4307 114.387 97.4307Z" fill="#969696"/>
<path d="M106.036 94.6018C106.036 95.4842 107.004 96.2061 108.187 96.2061C109.371 96.2061 110.339 95.4842 110.339 94.6018C110.339 93.7195 109.371 92.9976 108.187 92.9976C107.004 92.9976 106.036 93.7195 106.036 94.6018ZM109.263 94.6018C109.263 95.043 108.779 95.404 108.187 95.404C107.596 95.404 107.112 95.043 107.112 94.6018C107.112 94.1607 107.596 93.7997 108.187 93.7997C108.779 93.7997 109.263 94.1607 109.263 94.6018Z" fill="#62D136"/>
<path d="M107.942 91.1113V91.5755C108.865 91.5755 109.761 92.1115 110.607 93.1684C110.811 93.4284 111.365 94.2768 111.255 94.7726C111.113 95.4127 110.565 96.2719 109.794 96.6756C109.442 96.8597 108.724 97.1685 107.862 97.1685C107.261 97.1685 106.679 97.0148 106.135 96.7116C105.396 96.3005 104.844 95.7438 104.58 95.1439C104.332 94.5828 104.356 94.0328 104.647 93.5953C105.084 92.9364 106.465 91.5758 107.942 91.5755L107.942 91.1113ZM107.942 91.1113C106.1 91.1116 104.567 92.6688 104.089 93.3894C103.347 94.5073 104.005 96.1053 105.762 97.0836C106.486 97.4863 107.204 97.6328 107.863 97.6328C108.803 97.6328 109.62 97.3336 110.152 97.0556C111.054 96.5832 111.696 95.627 111.869 94.8485C112.042 94.0699 111.143 92.9321 111.143 92.9321C110.065 91.5843 108.957 91.1112 107.942 91.1113Z" fill="#62D136"/>
<path d="M99.8335 89.3479C99.8335 90.2303 100.802 90.9522 101.985 90.9522C103.168 90.9522 104.136 90.2303 104.136 89.3479C104.136 88.4656 103.168 87.7437 101.985 87.7437C100.802 87.7437 99.8335 88.4656 99.8335 89.3479ZM103.06 89.3479C103.06 89.7891 102.576 90.1501 101.985 90.1501C101.393 90.1501 100.909 89.7891 100.909 89.3479C100.909 88.9068 101.393 88.5458 101.985 88.5458C102.576 88.5458 103.06 88.9068 103.06 89.3479Z" fill="#969696"/>
<path d="M101.738 85.8574V86.3216C102.661 86.3216 103.558 86.8576 104.403 87.9145C104.607 88.1745 105.162 89.0229 105.052 89.5187C104.909 90.1588 104.362 91.018 103.59 91.4217C103.239 91.6058 102.52 91.9146 101.659 91.9146C101.057 91.9146 100.476 91.7609 99.9309 91.4577C99.1925 91.0466 98.6403 90.4899 98.376 89.89C98.1288 89.3289 98.1525 88.7789 98.4429 88.3414C98.8802 87.6825 100.261 86.3219 101.738 86.3216L101.738 85.8574ZM101.738 85.8574C99.8967 85.8577 98.3634 87.4149 97.8852 88.1355C97.1433 89.2534 97.8015 90.8514 99.5587 91.8297C100.282 92.2324 101.001 92.3789 101.659 92.3789C102.6 92.3789 103.417 92.0797 103.948 91.8017C104.851 91.3293 105.493 90.3731 105.666 89.5946C105.839 88.816 104.939 87.6782 104.939 87.6782C103.861 86.3304 102.753 85.8573 101.738 85.8574Z" fill="#969696"/>
<path fill-rule="evenodd" clip-rule="evenodd" d="M89.6703 94.813H88.9229V95.813V113.989V114.989H88.9231L88.9231 114.989L88.9231 114.989C88.9232 122.83 97.4544 129.187 107.978 129.187C118.502 129.187 127.033 122.83 127.033 114.989L127.033 114.919V95.813V94.813H126.286V99.2967H126.033L126.033 114.919L126.033 114.926L126.033 114.989C126.033 118.521 124.114 121.798 120.854 124.226C117.595 126.655 113.046 128.187 107.978 128.187C102.91 128.187 98.3609 126.655 95.1016 124.226C91.8424 121.798 89.9231 118.521 89.9231 114.989V114.989L89.9231 113.989H89.9229V99.2967H89.6703V94.813Z" fill="#969696"/>
<ellipse cx="66.1321" cy="94.813" rx="19.0549" ry="14.1978" fill="white"/>
<path d="M66.1317 80.6152C55.6448 80.6152 47.0938 86.9922 47.0938 94.8131C47.0938 102.634 55.6448 109.011 66.1317 109.011C76.6187 109.011 85.1697 102.634 85.1697 94.8131C85.1697 86.9922 76.6188 80.6152 66.1317 80.6152ZM66.1317 108.209C56.2363 108.209 48.1693 102.193 48.1693 94.8131C48.1693 87.4334 56.2363 81.4174 66.1317 81.4174C76.0272 81.4174 84.0941 87.4334 84.0941 94.8131C84.0941 102.193 76.0272 108.209 66.1317 108.209Z" fill="#969696"/>
<path d="M66.1312 82.6206C57.15 82.6206 49.7822 88.1152 49.7822 94.8131C49.7822 101.511 57.0963 106.965 66.1312 106.965C75.1662 106.965 82.4803 101.511 82.4803 94.8131C82.4265 88.1152 75.1124 82.6206 66.1312 82.6206ZM66.1312 106.163C57.7416 106.163 50.8578 101.07 50.8578 94.8131C50.8578 88.5564 57.6878 83.4227 66.1312 83.4227C74.5746 83.4227 81.4047 88.5163 81.4047 94.8131C81.3509 101.07 74.5209 106.163 66.1312 106.163Z" fill="#969696"/>
<path d="M74.062 94.0764C74.062 94.9588 75.03 95.6807 76.2133 95.6807C77.3964 95.6807 78.3644 94.9588 78.3644 94.0764C78.3644 93.1941 77.3964 92.4722 76.2133 92.4722C75.03 92.4722 74.062 93.1941 74.062 94.0764ZM77.2887 94.0764C77.2887 94.5176 76.8048 94.8786 76.2132 94.8786C75.6216 94.8786 75.1376 94.5176 75.1376 94.0764C75.1376 93.6353 75.6216 93.2743 76.2132 93.2743C76.8048 93.2743 77.2887 93.6353 77.2887 94.0764Z" fill="#62D136"/>
<path d="M61.0557 101.07C61.0557 101.952 62.0237 102.674 63.2069 102.674C64.3901 102.674 65.3581 101.952 65.3581 101.07C65.3581 100.188 64.39 99.4658 63.2068 99.4658C62.0237 99.4658 61.0557 100.188 61.0557 101.07ZM64.2824 101.07C64.2824 101.511 63.7985 101.872 63.2069 101.872C62.6153 101.872 62.1313 101.511 62.1313 101.07C62.1313 100.629 62.6153 100.268 63.2069 100.268C63.7985 100.268 64.2824 100.629 64.2824 101.07Z" fill="#FF0000"/>
<path d="M55.2439 94.8895C54.2942 95.4158 54.0944 96.4258 54.8001 97.1341C55.5058 97.8423 56.8601 97.9913 57.8099 97.465C58.7596 96.9388 58.9593 95.9287 58.2536 95.2205C57.548 94.5123 56.1937 94.3633 55.2439 94.8895ZM57.1684 96.8212C56.6935 97.0843 56.0163 97.0098 55.6635 96.6557C55.3107 96.3015 55.4106 95.7965 55.8854 95.5334C56.3603 95.2703 57.0375 95.3447 57.3903 95.6989C57.7431 96.053 57.6433 96.558 57.1684 96.8212Z" fill="#62D136"/>
<path d="M71.6321 87.9207C71.6321 87.0383 70.664 86.3164 69.4808 86.3164C68.2977 86.3164 67.3296 87.0383 67.3296 87.9207C67.3296 88.803 68.2977 89.525 69.4808 89.525C70.664 89.525 71.6321 88.8031 71.6321 87.9207ZM68.4053 87.9207C68.4053 87.4795 68.8893 87.1185 69.4809 87.1185C70.0725 87.1185 70.5565 87.4795 70.5565 87.9207C70.5565 88.3619 70.0725 88.7228 69.4809 88.7228C68.8893 88.7228 68.4053 88.3619 68.4053 87.9207Z" fill="#FF0000"/>
<path d="M63.4193 98.1133V98.5775C64.2245 98.5775 64.9264 98.7704 65.396 99.1205C65.6654 99.3215 66.0461 99.7794 66.2891 100.35C66.4807 100.799 66.6544 101.473 66.3939 102.132C66.0315 103.048 64.9199 103.662 63.0898 103.955L63.0522 103.962L63.0173 103.97C63.0118 103.972 62.4644 104.11 61.8844 104.11C61.5809 104.11 61.3336 104.073 61.1494 104C60.6138 103.787 60.5013 103.527 60.2765 102.908C60.2363 102.798 60.1948 102.683 60.1465 102.561C59.8759 101.874 59.4947 99.9286 60.9609 99.1744C61.7093 98.7895 62.5823 98.5775 63.4193 98.5775V98.1133H63.4193ZM63.4193 98.1133C62.4957 98.1133 61.4985 98.334 60.6076 98.7923C58.8024 99.7207 59.2382 101.902 59.5494 102.692C59.8606 103.481 59.9229 104.038 60.8565 104.409C61.1678 104.533 61.5341 104.574 61.8844 104.574C62.5848 104.574 63.2207 104.409 63.2207 104.409C69.0082 103.481 67.0188 99.6742 65.8362 98.7923C65.2372 98.3456 64.3669 98.1133 63.4193 98.1133Z" fill="#FF0000"/>
<path d="M69.4831 85.3768C70.3199 85.3768 71.1931 85.5888 71.9415 85.9737C73.4077 86.7279 73.0265 88.6737 72.7559 89.3599C72.7076 89.4824 72.6661 89.5968 72.6259 89.7074C72.4011 90.3262 72.2885 90.5858 71.753 90.7988C71.5688 90.8721 71.3215 90.9093 71.018 90.9093C70.438 90.9093 69.8906 90.771 69.8864 90.77L69.8502 90.7606L69.8127 90.7546C67.9826 90.461 66.8709 89.8475 66.5084 88.9309C66.248 88.2722 66.4217 87.5983 66.6133 87.1489C66.8564 86.5787 67.2371 86.1208 67.5065 85.9199C67.976 85.5697 68.678 85.3768 69.4831 85.3768ZM69.4831 84.9126C68.5354 84.9126 67.6653 85.145 67.0663 85.5916C65.8837 86.4736 63.8943 90.28 69.6819 91.2084C69.6819 91.2084 70.3177 91.3735 71.0181 91.3735C71.3684 91.3735 71.7347 91.3322 72.046 91.2084C72.9797 90.837 73.0419 90.28 73.3531 89.4909C73.6644 88.7017 74.1001 86.52 72.295 85.5916C71.4039 85.1333 70.4068 84.9126 69.4831 84.9126Z" fill="#FF0000"/>
<path d="M55.2969 93.1357V93.5999C55.8956 93.5999 56.6099 93.7272 57.4199 93.9783C57.7916 94.0962 58.915 94.5307 59.2231 94.9776C59.6209 95.5546 59.8685 96.4879 59.5721 97.1551C59.4622 97.4023 59.1999 97.8728 58.6773 98.245C58.1496 98.6209 57.475 98.8115 56.6721 98.8115H56.6635C55.742 98.81 54.8536 98.6087 54.1617 98.2448C53.5145 97.9044 53.0938 97.4523 52.9769 96.972C52.8048 96.2644 52.842 94.8647 53.6741 94.1213C54.0668 93.7705 54.5975 93.6 55.2965 93.5999L55.2969 93.1357ZM55.2965 93.1357C52.1636 93.136 52.1172 96.0379 52.3645 97.0548C52.663 98.2821 54.4693 99.2721 56.6621 99.2757C56.6655 99.2757 56.6688 99.2757 56.6721 99.2757C58.8577 99.2757 59.8167 98.0806 60.163 97.301C60.5099 96.5202 60.2605 95.4672 59.7767 94.7653C59.2929 94.0634 57.6609 93.5502 57.6609 93.5502C56.724 93.2597 55.9445 93.1356 55.2965 93.1357Z" fill="#62D136"/>
<path d="M75.966 90.5854V91.0496C76.8888 91.0496 77.7854 91.5856 78.6309 92.6426C78.835 92.9025 79.3893 93.7509 79.2792 94.2467C79.1369 94.8868 78.5894 95.7461 77.8179 96.1498C77.4661 96.3338 76.7475 96.6427 75.8864 96.6427C75.2845 96.6427 74.7032 96.4889 74.1585 96.1857C73.4201 95.7746 72.8679 95.2179 72.6036 94.618C72.3564 94.0569 72.3801 93.5069 72.6705 93.0694C73.1078 92.4105 74.4887 91.0499 75.9656 91.0496L75.966 90.5854ZM75.9655 90.5854C74.1243 90.5857 72.5909 92.1429 72.1127 92.8635C71.3708 93.9814 72.0291 95.5794 73.7862 96.5577C74.5096 96.9604 75.2283 97.1069 75.8864 97.1069C76.8271 97.1069 77.6444 96.8077 78.1755 96.5298C79.0784 96.0573 79.7203 95.1011 79.8933 94.3226C80.0662 93.544 79.1666 92.4062 79.1666 92.4062C78.089 91.0585 76.9807 90.5853 75.9655 90.5854Z" fill="#62D136"/>
<path d="M73.1391 101.765C74.3076 101.626 75.1117 100.8 74.9261 99.9287C74.7405 99.0573 73.6325 98.4576 72.464 98.596C71.2955 98.7345 70.4914 99.5607 70.6771 100.432C70.8627 101.304 71.9707 101.903 73.1391 101.765ZM72.6327 99.3883C73.217 99.3191 73.771 99.6189 73.8639 100.055C73.9567 100.49 73.5545 100.903 72.9703 100.973C72.3861 101.042 71.8321 100.742 71.7393 100.306C71.6465 99.8706 72.0486 99.4575 72.6327 99.3883Z" fill="#969696"/>
<path d="M72.5409 97.8949H72.5466C73.4167 97.8991 74.6405 98.1675 75.296 98.6724C75.5396 98.8599 75.978 99.2519 76.1781 99.7706C76.3801 100.295 76.2926 100.83 75.9179 101.362C75.2189 102.354 73.9249 103.021 72.6981 103.021C72.4631 103.021 72.2365 102.996 72.0246 102.947C71.1098 102.734 69.1289 101.952 68.8453 100.889C68.6598 100.195 69.2251 99.432 70.5232 98.6244C70.8305 98.4352 71.861 97.8949 72.5409 97.8949ZM72.5408 97.4307C71.4841 97.4307 70.1268 98.2665 70.1268 98.2665C65.5808 101.095 70.2425 103.019 71.8394 103.39C72.1156 103.454 72.4042 103.485 72.6981 103.485C74.1029 103.485 75.6257 102.775 76.469 101.578C77.4887 100.13 76.5106 98.9403 75.7432 98.3495C74.9759 97.7586 73.6089 97.4358 72.5507 97.4307C72.5474 97.4307 72.5442 97.4307 72.5408 97.4307Z" fill="#969696"/>
<path d="M64.1899 94.6018C64.1899 95.4842 65.158 96.2061 66.3412 96.2061C67.5243 96.2061 68.4924 95.4842 68.4924 94.6018C68.4924 93.7195 67.5243 92.9976 66.3412 92.9976C65.1579 92.9976 64.1899 93.7195 64.1899 94.6018ZM67.4167 94.6018C67.4167 95.043 66.9328 95.404 66.3412 95.404C65.7496 95.404 65.2656 95.043 65.2656 94.6018C65.2656 94.1607 65.7496 93.7997 66.3412 93.7997C66.9328 93.7997 67.4167 94.1607 67.4167 94.6018Z" fill="#62D136"/>
<path d="M66.0959 91.1113V91.5755C67.0187 91.5755 67.9153 92.1115 68.7608 93.1684C68.9649 93.4284 69.5191 94.2768 69.409 94.7726C69.2668 95.4127 68.7192 96.2719 67.9478 96.6756C67.596 96.8597 66.8773 97.1685 66.0162 97.1685C65.4144 97.1685 64.833 97.0148 64.2884 96.7116C63.55 96.3005 62.9977 95.7438 62.7335 95.1439C62.4863 94.5828 62.51 94.0328 62.8004 93.5953C63.2377 92.9364 64.6185 91.5758 66.0955 91.5755L66.0959 91.1113ZM66.0954 91.1113C64.2542 91.1116 62.7208 92.6688 62.2426 93.3894C61.5007 94.5073 62.1589 96.1053 63.9161 97.0836C64.6395 97.4863 65.3581 97.6328 66.0163 97.6328C66.957 97.6328 67.7742 97.3336 68.3054 97.0556C69.2083 96.5832 69.8502 95.627 70.0231 94.8485C70.1961 94.0699 69.2965 92.9321 69.2965 92.9321C68.219 91.5843 67.1106 91.1112 66.0954 91.1113Z" fill="#62D136"/>
<path d="M57.9873 89.3479C57.9873 90.2303 58.9553 90.9522 60.1386 90.9522C61.3217 90.9522 62.2897 90.2303 62.2897 89.3479C62.2897 88.4656 61.3217 87.7437 60.1386 87.7437C58.9553 87.7437 57.9873 88.4656 57.9873 89.3479ZM61.2141 89.3479C61.2141 89.7891 60.7301 90.1501 60.1386 90.1501C59.547 90.1501 59.063 89.7891 59.063 89.3479C59.063 88.9068 59.547 88.5458 60.1386 88.5458C60.7301 88.5458 61.2141 88.9068 61.2141 89.3479Z" fill="#969696"/>
<path d="M59.8922 85.8574V86.3216C60.815 86.3216 61.7116 86.8576 62.5571 87.9145C62.7612 88.1745 63.3155 89.0229 63.2054 89.5187C63.0631 90.1588 62.5156 91.018 61.7441 91.4217C61.3924 91.6058 60.6737 91.9146 59.8126 91.9146C59.2107 91.9146 58.6294 91.7609 58.0847 91.4577C57.3463 91.0466 56.7941 90.4899 56.5298 89.89C56.2826 89.3289 56.3063 88.7789 56.5967 88.3414C57.034 87.6825 58.4149 86.3219 59.8918 86.3216L59.8922 85.8574ZM59.8917 85.8574C58.0505 85.8577 56.5172 87.4149 56.039 88.1355C55.2971 89.2534 55.9553 90.8514 57.7125 91.8297C58.4359 92.2324 59.1545 92.3789 59.8127 92.3789C60.7533 92.3789 61.5706 92.0797 62.1018 91.8017C63.0047 91.3293 63.6465 90.3731 63.8195 89.5946C63.9925 88.816 63.0929 87.6782 63.0929 87.6782C62.0153 86.3304 60.9069 85.8573 59.8917 85.8574Z" fill="#969696"/>
<path fill-rule="evenodd" clip-rule="evenodd" d="M47.8242 94.813H47.0774V95.813V114.919L47.0771 114.989C47.0771 122.83 55.6083 129.187 66.1321 129.187C76.6558 129.187 85.187 122.83 85.187 114.989V114.989H85.1873V113.989V95.813V94.813H84.4396V99.2967H84.1873V113.989H84.187V114.989V114.989V114.989V114.989V114.989V114.989V114.989C84.187 118.521 82.2677 121.798 79.0085 124.226C75.7493 126.655 71.2 128.187 66.1321 128.187C61.0641 128.187 56.5149 126.655 53.2557 124.226C49.9965 121.798 48.0771 118.521 48.0771 114.989L48.0774 114.926L48.0774 114.926V114.919V99.2967H47.8242V94.813Z" fill="#969696"/>
<ellipse cx="24.2859" cy="94.813" rx="19.0549" ry="14.1978" fill="white"/>
<path d="M24.2856 80.6152C13.7986 80.6152 5.24756 86.9922 5.24756 94.8131C5.24756 102.634 13.7986 109.011 24.2856 109.011C34.7725 109.011 43.3236 102.634 43.3236 94.8131C43.3236 86.9922 34.7726 80.6152 24.2856 80.6152ZM24.2856 108.209C14.3901 108.209 6.32315 102.193 6.32315 94.8131C6.32315 87.4334 14.3901 81.4174 24.2856 81.4174C34.181 81.4174 42.248 87.4334 42.248 94.8131C42.248 102.193 34.181 108.209 24.2856 108.209Z" fill="#969696"/>
<path d="M24.285 82.6206C15.3038 82.6206 7.93604 88.1152 7.93604 94.8131C7.93604 101.511 15.2501 106.965 24.285 106.965C33.32 106.965 40.6341 101.511 40.6341 94.8131C40.5803 88.1152 33.2663 82.6206 24.285 82.6206ZM24.285 106.163C15.8954 106.163 9.01163 101.07 9.01163 94.8131C9.01163 88.5564 15.8416 83.4227 24.285 83.4227C32.7284 83.4227 39.5585 88.5163 39.5585 94.8131C39.5047 101.07 32.6747 106.163 24.285 106.163Z" fill="#969696"/>
<path d="M32.2158 94.0764C32.2158 94.9588 33.1838 95.6807 34.3671 95.6807C35.5502 95.6807 36.5183 94.9588 36.5183 94.0764C36.5183 93.1941 35.5502 92.4722 34.3671 92.4722C33.1838 92.4722 32.2158 93.1941 32.2158 94.0764ZM35.4425 94.0764C35.4425 94.5176 34.9586 94.8786 34.367 94.8786C33.7754 94.8786 33.2914 94.5176 33.2914 94.0764C33.2914 93.6353 33.7754 93.2743 34.367 93.2743C34.9586 93.2743 35.4425 93.6353 35.4425 94.0764Z" fill="#62D136"/>
<path d="M19.2095 101.07C19.2095 101.952 20.1775 102.674 21.3607 102.674C22.5439 102.674 23.5119 101.952 23.5119 101.07C23.5119 100.188 22.5438 99.4658 21.3607 99.4658C20.1775 99.4658 19.2095 100.188 19.2095 101.07ZM22.4362 101.07C22.4362 101.511 21.9523 101.872 21.3607 101.872C20.7691 101.872 20.2851 101.511 20.2851 101.07C20.2851 100.629 20.7691 100.268 21.3607 100.268C21.9523 100.268 22.4362 100.629 22.4362 101.07Z" fill="#FF0000"/>
<path d="M13.3977 94.8895C12.448 95.4158 12.2483 96.4258 12.9539 97.1341C13.6596 97.8423 15.0139 97.9913 15.9637 97.465C16.9134 96.9388 17.1131 95.9287 16.4074 95.2205C15.7018 94.5123 14.3475 94.3633 13.3977 94.8895ZM15.3222 96.8212C14.8474 97.0843 14.1701 97.0098 13.8173 96.6557C13.4645 96.3015 13.5644 95.7965 14.0392 95.5334C14.5141 95.2703 15.1913 95.3447 15.5441 95.6989C15.8969 96.053 15.7971 96.558 15.3222 96.8212Z" fill="#62D136"/>
<path d="M29.7859 87.9207C29.7859 87.0383 28.8178 86.3164 27.6346 86.3164C26.4515 86.3164 25.4834 87.0383 25.4834 87.9207C25.4834 88.803 26.4515 89.525 27.6346 89.525C28.8178 89.525 29.7859 88.8031 29.7859 87.9207ZM26.5591 87.9207C26.5591 87.4795 27.0431 87.1185 27.6347 87.1185C28.2263 87.1185 28.7103 87.4795 28.7103 87.9207C28.7103 88.3619 28.2263 88.7228 27.6347 88.7228C27.0431 88.7228 26.5591 88.3619 26.5591 87.9207Z" fill="#FF0000"/>
<path d="M21.5731 98.1133V98.5775C22.3783 98.5775 23.0802 98.7704 23.5498 99.1205C23.8192 99.3215 24.1999 99.7794 24.4429 100.35C24.6345 100.799 24.8082 101.473 24.5477 102.132C24.1853 103.048 23.0737 103.662 21.2436 103.955L21.206 103.962L21.1711 103.97C21.1656 103.972 20.6183 104.11 20.0382 104.11C19.7347 104.11 19.4874 104.073 19.3032 104C18.7676 103.787 18.6551 103.527 18.4303 102.908C18.3901 102.798 18.3486 102.683 18.3003 102.561C18.0297 101.874 17.6485 99.9286 19.1147 99.1744C19.8631 98.7895 20.7361 98.5775 21.5731 98.5775V98.1133H21.5731ZM21.5731 98.1133C20.6495 98.1133 19.6523 98.334 18.7614 98.7923C16.9563 99.7207 17.392 101.902 17.7032 102.692C18.0144 103.481 18.0767 104.038 19.0103 104.409C19.3216 104.533 19.6879 104.574 20.0383 104.574C20.7386 104.574 21.3745 104.409 21.3745 104.409C27.162 103.481 25.1726 99.6742 23.99 98.7923C23.391 98.3456 22.5207 98.1133 21.5731 98.1133Z" fill="#FF0000"/>
<path d="M27.6369 85.3768C28.4737 85.3768 29.3469 85.5888 30.0953 85.9737C31.5615 86.7279 31.1803 88.6737 30.9097 89.3599C30.8614 89.4824 30.8199 89.5968 30.7797 89.7074C30.5549 90.3262 30.4423 90.5858 29.9068 90.7988C29.7226 90.8721 29.4753 90.9093 29.1718 90.9093C28.5918 90.9093 28.0444 90.771 28.0402 90.77L28.004 90.7606L27.9665 90.7546C26.1365 90.461 25.0247 89.8475 24.6622 88.9309C24.4018 88.2722 24.5755 87.5983 24.7671 87.1489C25.0102 86.5787 25.3909 86.1208 25.6603 85.9199C26.1298 85.5697 26.8318 85.3768 27.6369 85.3768ZM27.6369 84.9126C26.6892 84.9126 25.8191 85.145 25.2201 85.5916C24.0375 86.4736 22.0481 90.28 27.8357 91.2084C27.8357 91.2084 28.4715 91.3735 29.1719 91.3735C29.5222 91.3735 29.8885 91.3322 30.1998 91.2084C31.1335 90.837 31.1957 90.28 31.507 89.4909C31.8182 88.7017 32.2539 86.52 30.4488 85.5916C29.5577 85.1333 28.5606 84.9126 27.6369 84.9126Z" fill="#FF0000"/>
<path d="M13.4507 93.1357V93.5999C14.0494 93.5999 14.7637 93.7272 15.5737 93.9783C15.9455 94.0962 17.0688 94.5307 17.3769 94.9776C17.7747 95.5546 18.0223 96.4879 17.7259 97.1551C17.6161 97.4023 17.3538 97.8728 16.8311 98.245C16.3034 98.6209 15.6288 98.8115 14.8259 98.8115H14.8173C13.8958 98.81 13.0074 98.6087 12.3155 98.2448C11.6684 97.9044 11.2476 97.4523 11.1307 96.972C10.9586 96.2644 10.9958 94.8647 11.828 94.1213C12.2207 93.7705 12.7513 93.6 13.4503 93.5999L13.4507 93.1357ZM13.4503 93.1357C10.3175 93.136 10.271 96.0379 10.5183 97.0548C10.8168 98.2821 12.6231 99.2721 14.8159 99.2757C14.8193 99.2757 14.8226 99.2757 14.8259 99.2757C17.0115 99.2757 17.9705 98.0806 18.3168 97.301C18.6637 96.5202 18.4143 95.4672 17.9305 94.7653C17.4467 94.0634 15.8147 93.5502 15.8147 93.5502C14.8778 93.2597 14.0983 93.1356 13.4503 93.1357Z" fill="#62D136"/>
<path d="M34.1198 90.5854V91.0496C35.0426 91.0496 35.9392 91.5856 36.7847 92.6426C36.9888 92.9025 37.5431 93.7509 37.433 94.2467C37.2907 94.8868 36.7432 95.7461 35.9717 96.1498C35.62 96.3338 34.9013 96.6427 34.0402 96.6427C33.4383 96.6427 32.857 96.4889 32.3123 96.1857C31.5739 95.7746 31.0217 95.2179 30.7574 94.618C30.5102 94.0569 30.5339 93.5069 30.8243 93.0694C31.2616 92.4105 32.6425 91.0499 34.1194 91.0496L34.1198 90.5854ZM34.1193 90.5854C32.2781 90.5857 30.7447 92.1429 30.2665 92.8635C29.5246 93.9814 30.1829 95.5794 31.94 96.5577C32.6634 96.9604 33.3821 97.1069 34.0402 97.1069C34.9809 97.1069 35.7982 96.8077 36.3293 96.5298C37.2322 96.0573 37.8741 95.1011 38.0471 94.3226C38.22 93.544 37.3204 92.4062 37.3204 92.4062C36.2428 91.0585 35.1345 90.5853 34.1193 90.5854Z" fill="#62D136"/>
<path d="M31.2929 101.765C32.4614 101.626 33.2655 100.8 33.0799 99.9287C32.8943 99.0573 31.7863 98.4576 30.6178 98.596C29.4493 98.7345 28.6452 99.5607 28.8309 100.432C29.0165 101.304 30.1245 101.903 31.2929 101.765ZM30.7865 99.3883C31.3708 99.3191 31.9248 99.6189 32.0177 100.055C32.1105 100.49 31.7083 100.903 31.1242 100.973C30.5399 101.042 29.9859 100.742 29.8931 100.306C29.8003 99.8706 30.2024 99.4575 30.7865 99.3883Z" fill="#969696"/>
<path d="M30.6947 97.8949H30.7004C31.5705 97.8991 32.7943 98.1675 33.4499 98.6724C33.6934 98.8599 34.1318 99.2519 34.3319 99.7706C34.5339 100.295 34.4465 100.83 34.0717 101.362C33.3727 102.354 32.0787 103.021 30.8519 103.021C30.617 103.021 30.3903 102.996 30.1784 102.947C29.2636 102.734 27.2827 101.952 26.9991 100.889C26.8136 100.195 27.3789 99.432 28.677 98.6244C28.9843 98.4352 30.0148 97.8949 30.6947 97.8949ZM30.6946 97.4307C29.6379 97.4307 28.2807 98.2665 28.2807 98.2665C23.7347 101.095 28.3963 103.019 29.9932 103.39C30.2694 103.454 30.558 103.485 30.8519 103.485C32.2567 103.485 33.7795 102.775 34.6228 101.578C35.6426 100.13 34.6644 98.9403 33.897 98.3495C33.1297 97.7586 31.7627 97.4358 30.7045 97.4307C30.7012 97.4307 30.698 97.4307 30.6946 97.4307Z" fill="#969696"/>
<path d="M22.3438 94.6018C22.3438 95.4842 23.3118 96.2061 24.495 96.2061C25.6782 96.2061 26.6462 95.4842 26.6462 94.6018C26.6462 93.7195 25.6782 92.9976 24.495 92.9976C23.3117 92.9976 22.3438 93.7195 22.3438 94.6018ZM25.5705 94.6018C25.5705 95.043 25.0866 95.404 24.495 95.404C23.9034 95.404 23.4194 95.043 23.4194 94.6018C23.4194 94.1607 23.9034 93.7997 24.495 93.7997C25.0866 93.7997 25.5705 94.1607 25.5705 94.6018Z" fill="#62D136"/>
<path d="M24.2497 91.1113V91.5755C25.1725 91.5755 26.0691 92.1115 26.9146 93.1684C27.1187 93.4284 27.673 94.2768 27.5628 94.7726C27.4206 95.4127 26.873 96.2719 26.1016 96.6756C25.7498 96.8597 25.0312 97.1685 24.1701 97.1685C23.5682 97.1685 22.9868 97.0148 22.4422 96.7116C21.7038 96.3005 21.1516 95.7438 20.8873 95.1439C20.6401 94.5828 20.6638 94.0328 20.9542 93.5953C21.3915 92.9364 22.7723 91.5758 24.2493 91.5755L24.2497 91.1113ZM24.2492 91.1113C22.408 91.1116 20.8746 92.6688 20.3964 93.3894C19.6545 94.5073 20.3127 96.1053 22.0699 97.0836C22.7933 97.4863 23.5119 97.6328 24.1701 97.6328C25.1108 97.6328 25.928 97.3336 26.4592 97.0556C27.3621 96.5832 28.004 95.627 28.1769 94.8485C28.3499 94.0699 27.4503 92.9321 27.4503 92.9321C26.3728 91.5843 25.2644 91.1112 24.2492 91.1113Z" fill="#62D136"/>
<path d="M16.1411 89.3479C16.1411 90.2303 17.1091 90.9522 18.2924 90.9522C19.4755 90.9522 20.4435 90.2303 20.4435 89.3479C20.4435 88.4656 19.4755 87.7437 18.2924 87.7437C17.1091 87.7437 16.1411 88.4656 16.1411 89.3479ZM19.3679 89.3479C19.3679 89.7891 18.8839 90.1501 18.2924 90.1501C17.7008 90.1501 17.2168 89.7891 17.2168 89.3479C17.2168 88.9068 17.7008 88.5458 18.2924 88.5458C18.8839 88.5458 19.3679 88.9068 19.3679 89.3479Z" fill="#969696"/>
<path d="M18.046 85.8574V86.3216C18.9688 86.3216 19.8654 86.8576 20.7109 87.9145C20.915 88.1745 21.4693 89.0229 21.3592 89.5187C21.2169 90.1588 20.6694 91.018 19.8979 91.4217C19.5462 91.6058 18.8275 91.9146 17.9664 91.9146C17.3645 91.9146 16.7832 91.7609 16.2385 91.4577C15.5001 91.0466 14.9479 90.4899 14.6836 89.89C14.4364 89.3289 14.4601 88.7789 14.7505 88.3414C15.1878 87.6825 16.5687 86.3219 18.0456 86.3216L18.046 85.8574ZM18.0456 85.8574C16.2043 85.8577 14.671 87.4149 14.1928 88.1355C13.4509 89.2534 14.1091 90.8514 15.8663 91.8297C16.5897 92.2324 17.3083 92.3789 17.9665 92.3789C18.9071 92.3789 19.7244 92.0797 20.2556 91.8017C21.1585 91.3293 21.8004 90.3731 21.9733 89.5946C22.1463 88.816 21.2467 87.6782 21.2467 87.6782C20.1691 86.3304 19.0607 85.8573 18.0456 85.8574Z" fill="#969696"/>
<path fill-rule="evenodd" clip-rule="evenodd" d="M5.97802 94.813H5.23114V95.813V114.925L5.23096 114.989C5.23096 122.83 13.7621 129.187 24.2859 129.187C34.8097 129.187 43.3408 122.83 43.3408 114.989V114.989H43.341V113.989V95.813V94.813H42.5934V99.2967H42.341V113.989H42.3408V114.989V114.989V114.989V114.989V114.989V114.989V114.989C42.3408 118.521 40.4215 121.798 37.1623 124.226C33.9031 126.655 29.3539 128.187 24.2859 128.187C19.2179 128.187 14.6687 126.655 11.4095 124.226C8.15033 121.798 6.23096 118.521 6.23096 114.989L6.23113 114.931H6.23114V114.925V99.2967H5.97802V94.813Z" fill="#969696"/>
<ellipse cx="107.978" cy="126.945" rx="19.0549" ry="14.1978" fill="white"/>
<path d="M107.978 112.747C97.491 112.747 88.9399 119.124 88.9399 126.945C88.9399 134.766 97.491 141.143 107.978 141.143C118.465 141.143 127.016 134.766 127.016 126.945C127.016 119.124 118.465 112.747 107.978 112.747ZM107.978 140.341C98.0825 140.341 90.0155 134.325 90.0155 126.945C90.0155 119.565 98.0825 113.549 107.978 113.549C117.873 113.549 125.94 119.565 125.94 126.945C125.94 134.325 117.873 140.341 107.978 140.341Z" fill="#969696"/>
<path d="M107.977 114.752C98.9962 114.752 91.6284 120.247 91.6284 126.945C91.6284 133.643 98.9425 139.097 107.977 139.097C117.012 139.097 124.326 133.643 124.326 126.945C124.273 120.247 116.959 114.752 107.977 114.752ZM107.977 138.295C99.5878 138.295 92.704 133.202 92.704 126.945C92.704 120.688 99.534 115.555 107.977 115.555C116.421 115.555 123.251 120.648 123.251 126.945C123.197 133.202 116.367 138.295 107.977 138.295Z" fill="#969696"/>
<path d="M115.908 126.208C115.908 127.091 116.876 127.813 118.059 127.813C119.243 127.813 120.211 127.091 120.211 126.208C120.211 125.326 119.243 124.604 118.059 124.604C116.876 124.604 115.908 125.326 115.908 126.208ZM119.135 126.208C119.135 126.649 118.651 127.01 118.059 127.01C117.468 127.01 116.984 126.649 116.984 126.208C116.984 125.767 117.468 125.406 118.059 125.406C118.651 125.406 119.135 125.767 119.135 126.208Z" fill="#62D136"/>
<path d="M102.902 133.202C102.902 134.084 103.87 134.806 105.053 134.806C106.236 134.806 107.204 134.084 107.204 133.202C107.204 132.32 106.236 131.598 105.053 131.598C103.87 131.598 102.902 132.32 102.902 133.202ZM106.129 133.202C106.129 133.643 105.645 134.004 105.053 134.004C104.462 134.004 103.978 133.643 103.978 133.202C103.978 132.761 104.462 132.4 105.053 132.4C105.645 132.4 106.129 132.761 106.129 133.202Z" fill="#FF0000"/>
<path d="M97.0901 127.021C96.1404 127.548 95.9406 128.558 96.6463 129.266C97.352 129.974 98.7063 130.123 99.6561 129.597C100.606 129.071 100.806 128.061 100.1 127.352C99.3942 126.644 98.0398 126.495 97.0901 127.021ZM99.0146 128.953C98.5397 129.216 97.8625 129.142 97.5096 128.788C97.1568 128.433 97.2568 127.928 97.7316 127.665C98.2065 127.402 98.8836 127.477 99.2364 127.831C99.5893 128.185 99.4895 128.69 99.0146 128.953Z" fill="#62D136"/>
<path d="M113.478 120.053C113.478 119.17 112.51 118.448 111.327 118.448C110.143 118.448 109.175 119.17 109.175 120.053C109.175 120.935 110.143 121.657 111.327 121.657C112.51 121.657 113.478 120.935 113.478 120.053ZM110.251 120.053C110.251 119.611 110.735 119.25 111.327 119.25C111.918 119.25 112.402 119.611 112.402 120.053C112.402 120.494 111.918 120.855 111.327 120.855C110.735 120.855 110.251 120.494 110.251 120.053Z" fill="#FF0000"/>
<path d="M105.266 130.245V130.709C106.071 130.709 106.773 130.902 107.242 131.252C107.512 131.453 107.892 131.911 108.135 132.481C108.327 132.931 108.501 133.605 108.24 134.264C107.878 135.18 106.766 135.794 104.936 136.087L104.898 136.093L104.863 136.102C104.858 136.104 104.311 136.242 103.731 136.242C103.427 136.242 103.18 136.205 102.996 136.131C102.46 135.918 102.347 135.659 102.123 135.04C102.083 134.929 102.041 134.815 101.993 134.692C101.722 134.006 101.341 132.06 102.807 131.306C103.555 130.921 104.429 130.709 105.265 130.709V130.245H105.266ZM105.266 130.245C104.342 130.245 103.345 130.466 102.454 130.924C100.649 131.853 101.084 134.034 101.396 134.823C101.707 135.613 101.769 136.17 102.703 136.541C103.014 136.665 103.38 136.706 103.731 136.706C104.431 136.706 105.067 136.541 105.067 136.541C110.854 135.613 108.865 131.806 107.682 130.924C107.083 130.477 106.213 130.245 105.266 130.245Z" fill="#FF0000"/>
<path d="M111.329 117.509C112.166 117.509 113.039 117.721 113.788 118.106C115.254 118.86 114.873 120.806 114.602 121.492C114.554 121.615 114.512 121.729 114.472 121.84C114.247 122.459 114.135 122.718 113.599 122.931C113.415 123.004 113.168 123.042 112.864 123.042C112.284 123.042 111.737 122.903 111.733 122.902L111.696 122.893L111.659 122.887C109.829 122.593 108.717 121.98 108.355 121.063C108.094 120.405 108.268 119.731 108.46 119.281C108.703 118.711 109.083 118.253 109.353 118.052C109.822 117.702 110.524 117.509 111.329 117.509ZM111.329 117.045C110.382 117.045 109.511 117.277 108.913 117.724C107.73 118.606 105.74 122.412 111.528 123.341C111.528 123.341 112.164 123.506 112.864 123.506C113.215 123.506 113.581 123.465 113.892 123.341C114.826 122.969 114.888 122.412 115.199 121.623C115.511 120.834 115.946 118.652 114.141 117.724C113.25 117.266 112.253 117.045 111.329 117.045Z" fill="#FF0000"/>
<path d="M97.1431 125.268V125.732C97.7418 125.732 98.4561 125.859 99.2661 126.11C99.6378 126.228 100.761 126.662 101.069 127.109C101.467 127.686 101.715 128.62 101.418 129.287C101.308 129.534 101.046 130.005 100.524 130.377C99.9958 130.753 99.3212 130.943 98.5182 130.943H98.5097C97.5882 130.942 96.6998 130.741 96.0079 130.377C95.3607 130.036 94.94 129.584 94.8231 129.104C94.651 128.396 94.6882 126.997 95.5203 126.253C95.913 125.902 96.4437 125.732 97.1427 125.732L97.1431 125.268ZM97.1427 125.268C94.0098 125.268 93.9634 128.17 94.2107 129.187C94.5092 130.414 96.3155 131.404 98.5083 131.408C98.5116 131.408 98.5149 131.408 98.5183 131.408C100.704 131.408 101.663 130.212 102.009 129.433C102.356 128.652 102.107 127.599 101.623 126.897C101.139 126.195 99.5071 125.682 99.5071 125.682C98.5702 125.392 97.7907 125.267 97.1427 125.268Z" fill="#62D136"/>
<path d="M117.812 122.717V123.181C118.735 123.181 119.632 123.717 120.477 124.774C120.681 125.034 121.235 125.883 121.125 126.379C120.983 127.019 120.436 127.878 119.664 128.282C119.312 128.466 118.594 128.774 117.733 128.774C117.131 128.774 116.549 128.621 116.005 128.318C115.266 127.906 114.714 127.35 114.45 126.75C114.203 126.189 114.226 125.639 114.517 125.201C114.954 124.542 116.335 123.182 117.812 123.181L117.812 122.717ZM117.812 122.717C115.97 122.718 114.437 124.275 113.959 124.995C113.217 126.113 113.875 127.711 115.632 128.69C116.356 129.092 117.074 129.239 117.733 129.239C118.673 129.239 119.491 128.94 120.022 128.662C120.925 128.189 121.566 127.233 121.739 126.454C121.912 125.676 121.013 124.538 121.013 124.538C119.935 123.19 118.827 122.717 117.812 122.717Z" fill="#62D136"/>
<path d="M114.985 133.897C116.154 133.758 116.958 132.932 116.772 132.061C116.587 131.189 115.479 130.589 114.31 130.728C113.142 130.866 112.338 131.693 112.523 132.564C112.709 133.435 113.817 134.035 114.985 133.897ZM114.479 131.52C115.063 131.451 115.617 131.751 115.71 132.186C115.803 132.622 115.401 133.035 114.817 133.104C114.232 133.174 113.678 132.874 113.585 132.438C113.493 132.002 113.895 131.589 114.479 131.52Z" fill="#969696"/>
<path d="M114.387 130.027H114.393C115.263 130.031 116.487 130.299 117.142 130.804C117.386 130.992 117.824 131.384 118.024 131.902C118.226 132.427 118.139 132.962 117.764 133.494C117.065 134.486 115.771 135.153 114.544 135.153C114.309 135.153 114.083 135.128 113.871 135.079C112.956 134.866 110.975 134.084 110.691 133.021C110.506 132.326 111.071 131.564 112.369 130.756C112.677 130.567 113.707 130.027 114.387 130.027ZM114.387 129.562C113.33 129.563 111.973 130.398 111.973 130.398C107.427 133.226 112.089 135.151 113.686 135.522C113.962 135.586 114.25 135.617 114.544 135.617C115.949 135.617 117.472 134.907 118.315 133.71C119.335 132.262 118.357 131.072 117.589 130.481C116.822 129.89 115.455 129.568 114.397 129.562C114.394 129.562 114.39 129.562 114.387 129.562Z" fill="#969696"/>
<path d="M106.036 126.734C106.036 127.616 107.004 128.338 108.187 128.338C109.371 128.338 110.339 127.616 110.339 126.734C110.339 125.851 109.371 125.129 108.187 125.129C107.004 125.129 106.036 125.851 106.036 126.734ZM109.263 126.734C109.263 127.175 108.779 127.536 108.187 127.536C107.596 127.536 107.112 127.175 107.112 126.734C107.112 126.292 107.596 125.932 108.187 125.932C108.779 125.932 109.263 126.292 109.263 126.734Z" fill="#62D136"/>
<path d="M107.942 123.243V123.707C108.865 123.707 109.761 124.243 110.607 125.3C110.811 125.56 111.365 126.409 111.255 126.904C111.113 127.545 110.565 128.404 109.794 128.807C109.442 128.992 108.724 129.3 107.862 129.3C107.261 129.3 106.679 129.147 106.135 128.843C105.396 128.432 104.844 127.876 104.58 127.276C104.332 126.715 104.356 126.165 104.647 125.727C105.084 125.068 106.465 123.708 107.942 123.707L107.942 123.243ZM107.942 123.243C106.1 123.243 104.567 124.801 104.089 125.521C103.347 126.639 104.005 128.237 105.762 129.215C106.486 129.618 107.204 129.765 107.863 129.765C108.803 129.765 109.62 129.465 110.152 129.187C111.054 128.715 111.696 127.759 111.869 126.98C112.042 126.202 111.143 125.064 111.143 125.064C110.065 123.716 108.957 123.243 107.942 123.243Z" fill="#62D136"/>
<path d="M99.8335 121.48C99.8335 122.362 100.802 123.084 101.985 123.084C103.168 123.084 104.136 122.362 104.136 121.48C104.136 120.597 103.168 119.875 101.985 119.875C100.802 119.875 99.8335 120.597 99.8335 121.48ZM103.06 121.48C103.06 121.921 102.576 122.282 101.985 122.282C101.393 122.282 100.909 121.921 100.909 121.48C100.909 121.039 101.393 120.678 101.985 120.678C102.576 120.678 103.06 121.039 103.06 121.48Z" fill="#969696"/>
<path d="M101.738 117.989V118.453C102.661 118.453 103.558 118.989 104.403 120.046C104.607 120.306 105.162 121.155 105.052 121.65C104.909 122.291 104.362 123.15 103.59 123.554C103.239 123.738 102.52 124.046 101.659 124.046C101.057 124.046 100.476 123.893 99.9309 123.59C99.1925 123.178 98.6403 122.622 98.376 122.022C98.1288 121.461 98.1525 120.911 98.4429 120.473C98.8802 119.814 100.261 118.454 101.738 118.453L101.738 117.989ZM101.738 117.989C99.8967 117.99 98.3634 119.547 97.8852 120.267C97.1433 121.385 97.8015 122.983 99.5587 123.962C100.282 124.364 101.001 124.511 101.659 124.511C102.6 124.511 103.417 124.212 103.948 123.934C104.851 123.461 105.493 122.505 105.666 121.726C105.839 120.948 104.939 119.81 104.939 119.81C103.861 118.462 102.753 117.989 101.738 117.989Z" fill="#969696"/>
<path fill-rule="evenodd" clip-rule="evenodd" d="M89.6703 126.945H88.9229V127.945V146.121V147.121H88.9231L88.9231 147.121L88.9231 147.121C88.9232 154.962 97.4544 161.319 107.978 161.319C118.502 161.319 127.033 154.962 127.033 147.121L127.033 147.051V127.945V126.945H126.286V131.429H126.033L126.033 147.051L126.033 147.058L126.033 147.121C126.033 150.653 124.114 153.93 120.854 156.358C117.595 158.787 113.046 160.319 107.978 160.319C102.91 160.319 98.3609 158.787 95.1016 156.358C91.8424 153.93 89.9231 150.653 89.9231 147.121V147.121L89.9231 146.121H89.9229V131.429H89.6703V126.945Z" fill="#969696"/>
<ellipse cx="66.1321" cy="126.945" rx="19.0549" ry="14.1978" fill="white"/>
<path d="M66.1317 112.747C55.6448 112.747 47.0938 119.124 47.0938 126.945C47.0938 134.766 55.6448 141.143 66.1317 141.143C76.6187 141.143 85.1697 134.766 85.1697 126.945C85.1697 119.124 76.6188 112.747 66.1317 112.747ZM66.1317 140.341C56.2363 140.341 48.1693 134.325 48.1693 126.945C48.1693 119.565 56.2363 113.549 66.1317 113.549C76.0272 113.549 84.0941 119.565 84.0941 126.945C84.0941 134.325 76.0272 140.341 66.1317 140.341Z" fill="#969696"/>
<path d="M66.1312 114.752C57.15 114.752 49.7822 120.247 49.7822 126.945C49.7822 133.643 57.0963 139.097 66.1312 139.097C75.1662 139.097 82.4803 133.643 82.4803 126.945C82.4265 120.247 75.1124 114.752 66.1312 114.752ZM66.1312 138.295C57.7416 138.295 50.8578 133.202 50.8578 126.945C50.8578 120.688 57.6878 115.555 66.1312 115.555C74.5746 115.555 81.4047 120.648 81.4047 126.945C81.3509 133.202 74.5209 138.295 66.1312 138.295Z" fill="#969696"/>
<path d="M74.062 126.208C74.062 127.091 75.03 127.813 76.2133 127.813C77.3964 127.813 78.3644 127.091 78.3644 126.208C78.3644 125.326 77.3964 124.604 76.2133 124.604C75.03 124.604 74.062 125.326 74.062 126.208ZM77.2887 126.208C77.2887 126.649 76.8048 127.01 76.2132 127.01C75.6216 127.01 75.1376 126.649 75.1376 126.208C75.1376 125.767 75.6216 125.406 76.2132 125.406C76.8048 125.406 77.2887 125.767 77.2887 126.208Z" fill="#62D136"/>
<path d="M61.0557 133.202C61.0557 134.084 62.0237 134.806 63.2069 134.806C64.3901 134.806 65.3581 134.084 65.3581 133.202C65.3581 132.32 64.39 131.598 63.2068 131.598C62.0237 131.598 61.0557 132.32 61.0557 133.202ZM64.2824 133.202C64.2824 133.643 63.7985 134.004 63.2069 134.004C62.6153 134.004 62.1313 133.643 62.1313 133.202C62.1313 132.761 62.6153 132.4 63.2069 132.4C63.7985 132.4 64.2824 132.761 64.2824 133.202Z" fill="#FF0000"/>
<path d="M55.2439 127.021C54.2942 127.548 54.0944 128.558 54.8001 129.266C55.5058 129.974 56.8601 130.123 57.8099 129.597C58.7596 129.071 58.9593 128.061 58.2536 127.352C57.548 126.644 56.1937 126.495 55.2439 127.021ZM57.1684 128.953C56.6935 129.216 56.0163 129.142 55.6635 128.788C55.3107 128.433 55.4106 127.928 55.8854 127.665C56.3603 127.402 57.0375 127.477 57.3903 127.831C57.7431 128.185 57.6433 128.69 57.1684 128.953Z" fill="#62D136"/>
<path d="M71.6321 120.053C71.6321 119.17 70.664 118.448 69.4808 118.448C68.2977 118.448 67.3296 119.17 67.3296 120.053C67.3296 120.935 68.2977 121.657 69.4808 121.657C70.664 121.657 71.6321 120.935 71.6321 120.053ZM68.4053 120.053C68.4053 119.611 68.8893 119.25 69.4809 119.25C70.0725 119.25 70.5565 119.611 70.5565 120.053C70.5565 120.494 70.0725 120.855 69.4809 120.855C68.8893 120.855 68.4053 120.494 68.4053 120.053Z" fill="#FF0000"/>
<path d="M63.4193 130.245V130.709C64.2245 130.709 64.9264 130.902 65.396 131.252C65.6654 131.453 66.0461 131.911 66.2891 132.481C66.4807 132.931 66.6544 133.605 66.3939 134.264C66.0315 135.18 64.9199 135.794 63.0898 136.087L63.0522 136.093L63.0173 136.102C63.0118 136.104 62.4644 136.242 61.8844 136.242C61.5809 136.242 61.3336 136.205 61.1494 136.131C60.6138 135.918 60.5013 135.659 60.2765 135.04C60.2363 134.929 60.1948 134.815 60.1465 134.692C59.8759 134.006 59.4947 132.06 60.9609 131.306C61.7093 130.921 62.5823 130.709 63.4193 130.709V130.245H63.4193ZM63.4193 130.245C62.4957 130.245 61.4985 130.466 60.6076 130.924C58.8024 131.853 59.2382 134.034 59.5494 134.823C59.8606 135.613 59.9229 136.17 60.8565 136.541C61.1678 136.665 61.5341 136.706 61.8844 136.706C62.5848 136.706 63.2207 136.541 63.2207 136.541C69.0082 135.613 67.0188 131.806 65.8362 130.924C65.2372 130.477 64.3669 130.245 63.4193 130.245Z" fill="#FF0000"/>
<path d="M69.4831 117.509C70.3199 117.509 71.1931 117.721 71.9415 118.106C73.4077 118.86 73.0265 120.806 72.7559 121.492C72.7076 121.615 72.6661 121.729 72.6259 121.84C72.4011 122.459 72.2885 122.718 71.753 122.931C71.5688 123.004 71.3215 123.042 71.018 123.042C70.438 123.042 69.8906 122.903 69.8864 122.902L69.8502 122.893L69.8127 122.887C67.9826 122.593 66.8709 121.98 66.5084 121.063C66.248 120.405 66.4217 119.731 66.6133 119.281C66.8564 118.711 67.2371 118.253 67.5065 118.052C67.976 117.702 68.678 117.509 69.4831 117.509ZM69.4831 117.045C68.5354 117.045 67.6653 117.277 67.0663 117.724C65.8837 118.606 63.8943 122.412 69.6819 123.341C69.6819 123.341 70.3177 123.506 71.0181 123.506C71.3684 123.506 71.7347 123.465 72.046 123.341C72.9797 122.969 73.0419 122.412 73.3531 121.623C73.6644 120.834 74.1001 118.652 72.295 117.724C71.4039 117.266 70.4068 117.045 69.4831 117.045Z" fill="#FF0000"/>
<path d="M55.2969 125.268V125.732C55.8956 125.732 56.6099 125.859 57.4199 126.11C57.7916 126.228 58.915 126.662 59.2231 127.109C59.6209 127.686 59.8685 128.62 59.5721 129.287C59.4622 129.534 59.1999 130.005 58.6773 130.377C58.1496 130.753 57.475 130.943 56.6721 130.943H56.6635C55.742 130.942 54.8536 130.741 54.1617 130.377C53.5145 130.036 53.0938 129.584 52.9769 129.104C52.8048 128.396 52.842 126.997 53.6741 126.253C54.0668 125.902 54.5975 125.732 55.2965 125.732L55.2969 125.268ZM55.2965 125.268C52.1636 125.268 52.1172 128.17 52.3645 129.187C52.663 130.414 54.4693 131.404 56.6621 131.408C56.6655 131.408 56.6688 131.408 56.6721 131.408C58.8577 131.408 59.8167 130.212 60.163 129.433C60.5099 128.652 60.2605 127.599 59.7767 126.897C59.2929 126.195 57.6609 125.682 57.6609 125.682C56.724 125.392 55.9445 125.267 55.2965 125.268Z" fill="#62D136"/>
<path d="M75.966 122.717V123.181C76.8888 123.181 77.7854 123.717 78.6309 124.774C78.835 125.034 79.3893 125.883 79.2792 126.379C79.1369 127.019 78.5894 127.878 77.8179 128.282C77.4661 128.466 76.7475 128.774 75.8864 128.774C75.2845 128.774 74.7032 128.621 74.1585 128.318C73.4201 127.906 72.8679 127.35 72.6036 126.75C72.3564 126.189 72.3801 125.639 72.6705 125.201C73.1078 124.542 74.4887 123.182 75.9656 123.181L75.966 122.717ZM75.9655 122.717C74.1243 122.718 72.5909 124.275 72.1127 124.995C71.3708 126.113 72.0291 127.711 73.7862 128.69C74.5096 129.092 75.2283 129.239 75.8864 129.239C76.8271 129.239 77.6444 128.94 78.1755 128.662C79.0784 128.189 79.7203 127.233 79.8933 126.454C80.0662 125.676 79.1666 124.538 79.1666 124.538C78.089 123.19 76.9807 122.717 75.9655 122.717Z" fill="#62D136"/>
<path d="M73.1391 133.897C74.3076 133.758 75.1117 132.932 74.9261 132.061C74.7405 131.189 73.6325 130.589 72.464 130.728C71.2955 130.866 70.4914 131.693 70.6771 132.564C70.8627 133.435 71.9707 134.035 73.1391 133.897ZM72.6327 131.52C73.217 131.451 73.771 131.751 73.8639 132.186C73.9567 132.622 73.5545 133.035 72.9703 133.104C72.3861 133.174 71.8321 132.874 71.7393 132.438C71.6465 132.002 72.0486 131.589 72.6327 131.52Z" fill="#969696"/>
<path d="M72.5409 130.027H72.5466C73.4167 130.031 74.6405 130.299 75.296 130.804C75.5396 130.992 75.978 131.384 76.1781 131.902C76.3801 132.427 76.2926 132.962 75.9179 133.494C75.2189 134.486 73.9249 135.153 72.6981 135.153C72.4631 135.153 72.2365 135.128 72.0246 135.079C71.1098 134.866 69.1289 134.084 68.8453 133.021C68.6598 132.326 69.2251 131.564 70.5232 130.756C70.8305 130.567 71.861 130.027 72.5409 130.027ZM72.5408 129.562C71.4841 129.563 70.1268 130.398 70.1268 130.398C65.5808 133.226 70.2425 135.151 71.8394 135.522C72.1156 135.586 72.4042 135.617 72.6981 135.617C74.1029 135.617 75.6257 134.907 76.469 133.71C77.4887 132.262 76.5106 131.072 75.7432 130.481C74.9759 129.89 73.6089 129.568 72.5507 129.562C72.5474 129.562 72.5442 129.562 72.5408 129.562Z" fill="#969696"/>
<path d="M64.1899 126.734C64.1899 127.616 65.158 128.338 66.3412 128.338C67.5243 128.338 68.4924 127.616 68.4924 126.734C68.4924 125.851 67.5243 125.129 66.3412 125.129C65.1579 125.129 64.1899 125.851 64.1899 126.734ZM67.4167 126.734C67.4167 127.175 66.9328 127.536 66.3412 127.536C65.7496 127.536 65.2656 127.175 65.2656 126.734C65.2656 126.292 65.7496 125.932 66.3412 125.932C66.9328 125.932 67.4167 126.292 67.4167 126.734Z" fill="#62D136"/>
<path d="M66.0959 123.243V123.707C67.0187 123.707 67.9153 124.243 68.7608 125.3C68.9649 125.56 69.5191 126.409 69.409 126.904C69.2668 127.545 68.7192 128.404 67.9478 128.807C67.596 128.992 66.8773 129.3 66.0162 129.3C65.4144 129.3 64.833 129.147 64.2884 128.843C63.55 128.432 62.9977 127.876 62.7335 127.276C62.4863 126.715 62.51 126.165 62.8004 125.727C63.2377 125.068 64.6185 123.708 66.0955 123.707L66.0959 123.243ZM66.0954 123.243C64.2542 123.243 62.7208 124.801 62.2426 125.521C61.5007 126.639 62.1589 128.237 63.9161 129.215C64.6395 129.618 65.3581 129.765 66.0163 129.765C66.957 129.765 67.7742 129.465 68.3054 129.187C69.2083 128.715 69.8502 127.759 70.0231 126.98C70.1961 126.202 69.2965 125.064 69.2965 125.064C68.219 123.716 67.1106 123.243 66.0954 123.243Z" fill="#62D136"/>
<path d="M57.9873 121.48C57.9873 122.362 58.9553 123.084 60.1386 123.084C61.3217 123.084 62.2897 122.362 62.2897 121.48C62.2897 120.597 61.3217 119.875 60.1386 119.875C58.9553 119.875 57.9873 120.597 57.9873 121.48ZM61.2141 121.48C61.2141 121.921 60.7301 122.282 60.1386 122.282C59.547 122.282 59.063 121.921 59.063 121.48C59.063 121.039 59.547 120.678 60.1386 120.678C60.7301 120.678 61.2141 121.039 61.2141 121.48Z" fill="#969696"/>
<path d="M59.8922 117.989V118.453C60.815 118.453 61.7116 118.989 62.5571 120.046C62.7612 120.306 63.3155 121.155 63.2054 121.65C63.0631 122.291 62.5156 123.15 61.7441 123.554C61.3924 123.738 60.6737 124.046 59.8126 124.046C59.2107 124.046 58.6294 123.893 58.0847 123.59C57.3463 123.178 56.7941 122.622 56.5298 122.022C56.2826 121.461 56.3063 120.911 56.5967 120.473C57.034 119.814 58.4149 118.454 59.8918 118.453L59.8922 117.989ZM59.8917 117.989C58.0505 117.99 56.5172 119.547 56.039 120.267C55.2971 121.385 55.9553 122.983 57.7125 123.962C58.4359 124.364 59.1545 124.511 59.8127 124.511C60.7533 124.511 61.5706 124.212 62.1018 123.934C63.0047 123.461 63.6465 122.505 63.8195 121.726C63.9925 120.948 63.0929 119.81 63.0929 119.81C62.0153 118.462 60.9069 117.989 59.8917 117.989Z" fill="#969696"/>
<path fill-rule="evenodd" clip-rule="evenodd" d="M47.8242 126.945H47.0774V127.945V147.051L47.0771 147.121C47.0771 154.962 55.6083 161.319 66.1321 161.319C76.6558 161.319 85.187 154.962 85.187 147.121V147.121H85.1873V146.121V127.945V126.945H84.4396V131.429H84.1873V146.121H84.187V147.121V147.121V147.121V147.121V147.121V147.121V147.121V147.121C84.187 150.653 82.2677 153.93 79.0085 156.358C75.7493 158.787 71.2 160.319 66.1321 160.319C61.0641 160.319 56.5149 158.787 53.2557 156.358C49.9965 153.93 48.0771 150.653 48.0771 147.121L48.0774 147.058L48.0774 147.058V147.051V131.429H47.8242V126.945Z" fill="#969696"/>
<ellipse cx="24.2859" cy="126.945" rx="19.0549" ry="14.1978" fill="white"/>
<path d="M24.2856 112.747C13.7986 112.747 5.24756 119.124 5.24756 126.945C5.24756 134.766 13.7986 141.143 24.2856 141.143C34.7725 141.143 43.3236 134.766 43.3236 126.945C43.3236 119.124 34.7726 112.747 24.2856 112.747ZM24.2856 140.341C14.3901 140.341 6.32315 134.325 6.32315 126.945C6.32315 119.565 14.3901 113.549 24.2856 113.549C34.181 113.549 42.248 119.565 42.248 126.945C42.248 134.325 34.181 140.341 24.2856 140.341Z" fill="#969696"/>
<path d="M24.285 114.752C15.3038 114.752 7.93604 120.247 7.93604 126.945C7.93604 133.643 15.2501 139.097 24.285 139.097C33.32 139.097 40.6341 133.643 40.6341 126.945C40.5803 120.247 33.2663 114.752 24.285 114.752ZM24.285 138.295C15.8954 138.295 9.01163 133.202 9.01163 126.945C9.01163 120.688 15.8416 115.555 24.285 115.555C32.7284 115.555 39.5585 120.648 39.5585 126.945C39.5047 133.202 32.6747 138.295 24.285 138.295Z" fill="#969696"/>
<path d="M32.2158 126.208C32.2158 127.091 33.1838 127.813 34.3671 127.813C35.5502 127.813 36.5183 127.091 36.5183 126.208C36.5183 125.326 35.5502 124.604 34.3671 124.604C33.1838 124.604 32.2158 125.326 32.2158 126.208ZM35.4425 126.208C35.4425 126.649 34.9586 127.01 34.367 127.01C33.7754 127.01 33.2914 126.649 33.2914 126.208C33.2914 125.767 33.7754 125.406 34.367 125.406C34.9586 125.406 35.4425 125.767 35.4425 126.208Z" fill="#62D136"/>
<path d="M19.2095 133.202C19.2095 134.084 20.1775 134.806 21.3607 134.806C22.5439 134.806 23.5119 134.084 23.5119 133.202C23.5119 132.32 22.5438 131.598 21.3607 131.598C20.1775 131.598 19.2095 132.32 19.2095 133.202ZM22.4362 133.202C22.4362 133.643 21.9523 134.004 21.3607 134.004C20.7691 134.004 20.2851 133.643 20.2851 133.202C20.2851 132.761 20.7691 132.4 21.3607 132.4C21.9523 132.4 22.4362 132.761 22.4362 133.202Z" fill="#FF0000"/>
<path d="M13.3977 127.021C12.448 127.548 12.2483 128.558 12.9539 129.266C13.6596 129.974 15.0139 130.123 15.9637 129.597C16.9134 129.071 17.1131 128.061 16.4074 127.352C15.7018 126.644 14.3475 126.495 13.3977 127.021ZM15.3222 128.953C14.8474 129.216 14.1701 129.142 13.8173 128.788C13.4645 128.433 13.5644 127.928 14.0392 127.665C14.5141 127.402 15.1913 127.477 15.5441 127.831C15.8969 128.185 15.7971 128.69 15.3222 128.953Z" fill="#62D136"/>
<path d="M29.7859 120.053C29.7859 119.17 28.8178 118.448 27.6346 118.448C26.4515 118.448 25.4834 119.17 25.4834 120.053C25.4834 120.935 26.4515 121.657 27.6346 121.657C28.8178 121.657 29.7859 120.935 29.7859 120.053ZM26.5591 120.053C26.5591 119.611 27.0431 119.25 27.6347 119.25C28.2263 119.25 28.7103 119.611 28.7103 120.053C28.7103 120.494 28.2263 120.855 27.6347 120.855C27.0431 120.855 26.5591 120.494 26.5591 120.053Z" fill="#FF0000"/>
<path d="M21.5731 130.245V130.709C22.3783 130.709 23.0802 130.902 23.5498 131.252C23.8192 131.453 24.1999 131.911 24.4429 132.481C24.6345 132.931 24.8082 133.605 24.5477 134.264C24.1853 135.18 23.0737 135.794 21.2436 136.087L21.206 136.093L21.1711 136.102C21.1656 136.104 20.6183 136.242 20.0382 136.242C19.7347 136.242 19.4874 136.205 19.3032 136.131C18.7676 135.918 18.6551 135.659 18.4303 135.04C18.3901 134.929 18.3486 134.815 18.3003 134.692C18.0297 134.006 17.6485 132.06 19.1147 131.306C19.8631 130.921 20.7361 130.709 21.5731 130.709V130.245H21.5731ZM21.5731 130.245C20.6495 130.245 19.6523 130.466 18.7614 130.924C16.9563 131.853 17.392 134.034 17.7032 134.823C18.0144 135.613 18.0767 136.17 19.0103 136.541C19.3216 136.665 19.6879 136.706 20.0383 136.706C20.7386 136.706 21.3745 136.541 21.3745 136.541C27.162 135.613 25.1726 131.806 23.99 130.924C23.391 130.477 22.5207 130.245 21.5731 130.245Z" fill="#FF0000"/>
<path d="M27.6369 117.509C28.4737 117.509 29.3469 117.721 30.0953 118.106C31.5615 118.86 31.1803 120.806 30.9097 121.492C30.8614 121.615 30.8199 121.729 30.7797 121.84C30.5549 122.459 30.4423 122.718 29.9068 122.931C29.7226 123.004 29.4753 123.042 29.1718 123.042C28.5918 123.042 28.0444 122.903 28.0402 122.902L28.004 122.893L27.9665 122.887C26.1365 122.593 25.0247 121.98 24.6622 121.063C24.4018 120.405 24.5755 119.731 24.7671 119.281C25.0102 118.711 25.3909 118.253 25.6603 118.052C26.1298 117.702 26.8318 117.509 27.6369 117.509ZM27.6369 117.045C26.6892 117.045 25.8191 117.277 25.2201 117.724C24.0375 118.606 22.0481 122.412 27.8357 123.341C27.8357 123.341 28.4715 123.506 29.1719 123.506C29.5222 123.506 29.8885 123.465 30.1998 123.341C31.1335 122.969 31.1957 122.412 31.507 121.623C31.8182 120.834 32.2539 118.652 30.4488 117.724C29.5577 117.266 28.5606 117.045 27.6369 117.045Z" fill="#FF0000"/>
<path d="M13.4507 125.268V125.732C14.0494 125.732 14.7637 125.859 15.5737 126.11C15.9455 126.228 17.0688 126.662 17.3769 127.109C17.7747 127.686 18.0223 128.62 17.7259 129.287C17.6161 129.534 17.3538 130.005 16.8311 130.377C16.3034 130.753 15.6288 130.943 14.8259 130.943H14.8173C13.8958 130.942 13.0074 130.741 12.3155 130.377C11.6684 130.036 11.2476 129.584 11.1307 129.104C10.9586 128.396 10.9958 126.997 11.828 126.253C12.2207 125.902 12.7513 125.732 13.4503 125.732L13.4507 125.268ZM13.4503 125.268C10.3175 125.268 10.271 128.17 10.5183 129.187C10.8168 130.414 12.6231 131.404 14.8159 131.408C14.8193 131.408 14.8226 131.408 14.8259 131.408C17.0115 131.408 17.9705 130.212 18.3168 129.433C18.6637 128.652 18.4143 127.599 17.9305 126.897C17.4467 126.195 15.8147 125.682 15.8147 125.682C14.8778 125.392 14.0983 125.267 13.4503 125.268Z" fill="#62D136"/>
<path d="M34.1198 122.717V123.181C35.0426 123.181 35.9392 123.717 36.7847 124.774C36.9888 125.034 37.5431 125.883 37.433 126.379C37.2907 127.019 36.7432 127.878 35.9717 128.282C35.62 128.466 34.9013 128.774 34.0402 128.774C33.4383 128.774 32.857 128.621 32.3123 128.318C31.5739 127.906 31.0217 127.35 30.7574 126.75C30.5102 126.189 30.5339 125.639 30.8243 125.201C31.2616 124.542 32.6425 123.182 34.1194 123.181L34.1198 122.717ZM34.1193 122.717C32.2781 122.718 30.7447 124.275 30.2665 124.995C29.5246 126.113 30.1829 127.711 31.94 128.69C32.6634 129.092 33.3821 129.239 34.0402 129.239C34.9809 129.239 35.7982 128.94 36.3293 128.662C37.2322 128.189 37.8741 127.233 38.0471 126.454C38.22 125.676 37.3204 124.538 37.3204 124.538C36.2428 123.19 35.1345 122.717 34.1193 122.717Z" fill="#62D136"/>
<path d="M31.2929 133.897C32.4614 133.758 33.2655 132.932 33.0799 132.061C32.8943 131.189 31.7863 130.589 30.6178 130.728C29.4493 130.866 28.6452 131.693 28.8309 132.564C29.0165 133.435 30.1245 134.035 31.2929 133.897ZM30.7865 131.52C31.3708 131.451 31.9248 131.751 32.0177 132.186C32.1105 132.622 31.7083 133.035 31.1242 133.104C30.5399 133.174 29.9859 132.874 29.8931 132.438C29.8003 132.002 30.2024 131.589 30.7865 131.52Z" fill="#969696"/>
<path d="M30.6947 130.027H30.7004C31.5705 130.031 32.7943 130.299 33.4499 130.804C33.6934 130.992 34.1318 131.384 34.3319 131.902C34.5339 132.427 34.4465 132.962 34.0717 133.494C33.3727 134.486 32.0787 135.153 30.8519 135.153C30.617 135.153 30.3903 135.128 30.1784 135.079C29.2636 134.866 27.2827 134.084 26.9991 133.021C26.8136 132.326 27.3789 131.564 28.677 130.756C28.9843 130.567 30.0148 130.027 30.6947 130.027ZM30.6946 129.562C29.6379 129.563 28.2807 130.398 28.2807 130.398C23.7347 133.226 28.3963 135.151 29.9932 135.522C30.2694 135.586 30.558 135.617 30.8519 135.617C32.2567 135.617 33.7795 134.907 34.6228 133.71C35.6426 132.262 34.6644 131.072 33.897 130.481C33.1297 129.89 31.7627 129.568 30.7045 129.562C30.7012 129.562 30.698 129.562 30.6946 129.562Z" fill="#969696"/>
<path d="M22.3438 126.734C22.3438 127.616 23.3118 128.338 24.495 128.338C25.6782 128.338 26.6462 127.616 26.6462 126.734C26.6462 125.851 25.6782 125.129 24.495 125.129C23.3117 125.129 22.3438 125.851 22.3438 126.734ZM25.5705 126.734C25.5705 127.175 25.0866 127.536 24.495 127.536C23.9034 127.536 23.4194 127.175 23.4194 126.734C23.4194 126.292 23.9034 125.932 24.495 125.932C25.0866 125.932 25.5705 126.292 25.5705 126.734Z" fill="#62D136"/>
<path d="M24.2497 123.243V123.707C25.1725 123.707 26.0691 124.243 26.9146 125.3C27.1187 125.56 27.673 126.409 27.5628 126.904C27.4206 127.545 26.873 128.404 26.1016 128.807C25.7498 128.992 25.0312 129.3 24.1701 129.3C23.5682 129.3 22.9868 129.147 22.4422 128.843C21.7038 128.432 21.1516 127.876 20.8873 127.276C20.6401 126.715 20.6638 126.165 20.9542 125.727C21.3915 125.068 22.7723 123.708 24.2493 123.707L24.2497 123.243ZM24.2492 123.243C22.408 123.243 20.8746 124.801 20.3964 125.521C19.6545 126.639 20.3127 128.237 22.0699 129.215C22.7933 129.618 23.5119 129.765 24.1701 129.765C25.1108 129.765 25.928 129.465 26.4592 129.187C27.3621 128.715 28.004 127.759 28.1769 126.98C28.3499 126.202 27.4503 125.064 27.4503 125.064C26.3728 123.716 25.2644 123.243 24.2492 123.243Z" fill="#62D136"/>
<path d="M16.1411 121.48C16.1411 122.362 17.1091 123.084 18.2924 123.084C19.4755 123.084 20.4435 122.362 20.4435 121.48C20.4435 120.597 19.4755 119.875 18.2924 119.875C17.1091 119.875 16.1411 120.597 16.1411 121.48ZM19.3679 121.48C19.3679 121.921 18.8839 122.282 18.2924 122.282C17.7008 122.282 17.2168 121.921 17.2168 121.48C17.2168 121.039 17.7008 120.678 18.2924 120.678C18.8839 120.678 19.3679 121.039 19.3679 121.48Z" fill="#969696"/>
<path d="M18.046 117.989V118.453C18.9688 118.453 19.8654 118.989 20.7109 120.046C20.915 120.306 21.4693 121.155 21.3592 121.65C21.2169 122.291 20.6694 123.15 19.8979 123.554C19.5462 123.738 18.8275 124.046 17.9664 124.046C17.3645 124.046 16.7832 123.893 16.2385 123.59C15.5001 123.178 14.9479 122.622 14.6836 122.022C14.4364 121.461 14.4601 120.911 14.7505 120.473C15.1878 119.814 16.5687 118.454 18.0456 118.453L18.046 117.989ZM18.0456 117.989C16.2043 117.99 14.671 119.547 14.1928 120.267C13.4509 121.385 14.1091 122.983 15.8663 123.962C16.5897 124.364 17.3083 124.511 17.9665 124.511C18.9071 124.511 19.7244 124.212 20.2556 123.934C21.1585 123.461 21.8004 122.505 21.9733 121.726C22.1463 120.948 21.2467 119.81 21.2467 119.81C20.1691 118.462 19.0607 117.989 18.0456 117.989Z" fill="#969696"/>
<path fill-rule="evenodd" clip-rule="evenodd" d="M5.97802 126.945H5.23114V127.945V147.057L5.23096 147.121C5.23096 154.962 13.7621 161.319 24.2859 161.319C34.8097 161.319 43.3408 154.962 43.3408 147.121V147.121H43.341V146.121V127.945V126.945H42.5934V131.429H42.341V146.121H42.3408V147.121V147.121V147.121V147.121V147.121V147.121V147.121V147.121C42.3408 150.653 40.4215 153.93 37.1623 156.358C33.9031 158.787 29.3539 160.319 24.2859 160.319C19.2179 160.319 14.6687 158.787 11.4095 156.358C8.15033 153.93 6.23096 150.653 6.23096 147.121L6.23113 147.063H6.23114V147.057V131.429H5.97802V126.945Z" fill="#969696"/>
<path d="M42.6 34L39 30.3106V4.68944L42.6 1H90V34H42.6Z" stroke="#969696" stroke-opacity="0.3"/>
<ellipse cx="47" cy="5.5" rx="2" ry="2.5" stroke="#969696" stroke-opacity="0.3"/>
<ellipse cx="52" cy="5.5" rx="2" ry="2.5" stroke="#969696" stroke-opacity="0.3"/>
<ellipse cx="57" cy="5.5" rx="2" ry="2.5" stroke="#969696" stroke-opacity="0.3"/>
<ellipse cx="62" cy="5.5" rx="2" ry="2.5" stroke="#969696" stroke-opacity="0.3"/>
<ellipse cx="67" cy="5.5" rx="2" ry="2.5" stroke="#969696" stroke-opacity="0.3"/>
<ellipse cx="71" cy="5.5" rx="2" ry="2.5" stroke="#969696" stroke-opacity="0.3"/>
<ellipse cx="76" cy="5.5" rx="2" ry="2.5" stroke="#969696" stroke-opacity="0.3"/>
<ellipse cx="81" cy="5.5" rx="2" ry="2.5" stroke="#969696" stroke-opacity="0.3"/>
<ellipse cx="86" cy="5.5" rx="2" ry="2.5" stroke="#969696" stroke-opacity="0.3"/>
<circle cx="47" cy="10" r="2" stroke="#969696" stroke-opacity="0.3"/>
<circle cx="42" cy="10" r="2" stroke="#969696" stroke-opacity="0.3"/>
<circle cx="52" cy="10" r="2" stroke="#969696" stroke-opacity="0.3"/>
<circle cx="57" cy="10" r="2" stroke="#969696" stroke-opacity="0.3"/>
<circle cx="62" cy="10" r="2" stroke="#969696" stroke-opacity="0.3"/>
<circle cx="67" cy="10" r="2" stroke="#969696" stroke-opacity="0.3"/>
<circle cx="71" cy="10" r="2" stroke="#969696" stroke-opacity="0.3"/>
<circle cx="76" cy="10" r="2" stroke="#969696" stroke-opacity="0.3"/>
<circle cx="81" cy="10" r="2" stroke="#969696" stroke-opacity="0.3"/>
<circle cx="86" cy="10" r="2" stroke="#969696" stroke-opacity="0.3"/>
<circle cx="47" cy="15" r="2" stroke="#969696" stroke-opacity="0.3"/>
<circle cx="42" cy="15" r="2" stroke="#969696" stroke-opacity="0.3"/>
<circle cx="52" cy="15" r="2" stroke="#969696" stroke-opacity="0.3"/>
<circle cx="57" cy="15" r="2" stroke="#969696" stroke-opacity="0.3"/>
<circle cx="62" cy="15" r="2" stroke="#969696" stroke-opacity="0.3"/>
<circle cx="67" cy="15" r="2" stroke="#969696" stroke-opacity="0.3"/>
<circle cx="71" cy="15" r="2" stroke="#969696" stroke-opacity="0.3"/>
<circle cx="76" cy="15" r="2" stroke="#969696" stroke-opacity="0.3"/>
<circle cx="81" cy="15" r="2" stroke="#969696" stroke-opacity="0.3"/>
<circle cx="86" cy="15" r="2" stroke="#969696" stroke-opacity="0.3"/>
<circle cx="47" cy="20" r="2" stroke="#969696" stroke-opacity="0.3"/>
<circle cx="42" cy="20" r="2" stroke="#969696" stroke-opacity="0.3"/>
<circle cx="52" cy="20" r="2" stroke="#969696" stroke-opacity="0.3"/>
<circle cx="57" cy="20" r="2" stroke="#969696" stroke-opacity="0.3"/>
<circle cx="62" cy="20" r="2" stroke="#969696" stroke-opacity="0.3"/>
<circle cx="67" cy="20" r="2" stroke="#969696" stroke-opacity="0.3"/>
<circle cx="71" cy="20" r="2" stroke="#969696" stroke-opacity="0.3"/>
<circle cx="47" cy="25" r="2" stroke="#969696" stroke-opacity="0.3"/>
<circle cx="42" cy="25" r="2" stroke="#969696" stroke-opacity="0.3"/>
<circle cx="52" cy="25" r="2" stroke="#969696" stroke-opacity="0.3"/>
<circle cx="57" cy="25" r="2" stroke="#969696" stroke-opacity="0.3"/>
<circle cx="62" cy="25" r="2" stroke="#969696" stroke-opacity="0.3"/>
<circle cx="67" cy="25" r="2" stroke="#969696" stroke-opacity="0.3"/>
<circle cx="71" cy="25" r="2" stroke="#969696" stroke-opacity="0.3"/>
<circle cx="47" cy="30" r="2" stroke="#969696" stroke-opacity="0.3"/>
<circle cx="52" cy="30" r="2" stroke="#969696" stroke-opacity="0.3"/>
<circle cx="57" cy="30" r="2" stroke="#969696" stroke-opacity="0.3"/>
<circle cx="62" cy="30" r="2" stroke="#969696" stroke-opacity="0.3"/>
<circle cx="67" cy="30" r="2" stroke="#969696" stroke-opacity="0.3"/>
<circle cx="71" cy="30" r="2" stroke="#969696" stroke-opacity="0.3"/>
<circle cx="76.3352" cy="20.0965" r="2.03153" stroke="#969696"/>
<circle cx="81.2112" cy="20.0965" r="2.03153" stroke="#969696"/>
<circle cx="86.0867" cy="20.0965" r="2.03153" stroke="#969696"/>
<circle cx="76.3352" cy="24.9725" r="2.03153" stroke="#969696"/>
<circle cx="81.2112" cy="24.9725" r="2.03153" stroke="#969696"/>
<circle cx="86.0867" cy="24.9725" r="2.03153" stroke="#969696"/>
<circle cx="76.3352" cy="29.8479" r="2.03153" stroke="#969696"/>
<circle cx="81.2112" cy="29.8479" r="2.03153" stroke="#969696"/>
<circle cx="86.0867" cy="29.8479" r="2.03153" stroke="#969696"/>
</svg>
