<svg width="170" height="79" viewBox="0 0 170 79" fill="none" xmlns="http://www.w3.org/2000/svg">
<path d="M58 25.8043V20.7739V20.387H68C71.8519 20.387 76.2716 20.129 78 20V25.0304C70.8889 26.2687 61.7037 26.0623 58 25.8043Z" fill="#969696"/>
<path d="M59 59V61.9091C59.8642 62.2727 62.2593 63 64.9259 63C67.5926 63 68.7531 61.7879 69 61.1818V59" stroke="#969696"/>
<path d="M1 62.301V4.36408L35.7973 1L145.802 4.36408V26.0437H152.163V24.1748H162.265V31.2767L166.755 36.1359V58.9369H169V67.9078L157.775 78L136.074 74.6359V67.9078H130.461C128.366 69.4029 124.849 69.7767 123.352 69.7767C114.746 68.6553 96.7862 66.3379 93.7929 66.0388C90.0512 65.6651 89.3029 65.2913 89.3029 62.301C80.0236 69.1786 61.7394 68.9045 53.7572 67.9078L1 62.301Z" stroke="#969696"/>
<path d="M1 16L38 17.4925V66" stroke="#969696"/>
<path d="M44 63V28H47.2927V31.0108L59 32.8925V58.4839L44 63Z" stroke="#969696"/>
<path d="M82.5 31V28H87V61L69 59.125V33.25L82.5 31Z" stroke="#969696"/>
<path d="M92 65.2411V16L126 16.7518V69" stroke="#969696"/>
<path d="M1 4L39.7746 5.12941C50.3381 5.75686 75.1191 6.63529 89.7341 5.12941C95.9977 5.12941 119.188 5.88235 130 6.25882V68" stroke="#969696"/>
<path d="M47 28H54.5V18H80.375V27.6296H83" stroke="#969696"/>
<path d="M3 58.5588V23L36 25.2941V62L3 58.5588Z" stroke="#969696"/>
<path d="M145.667 26V28.9474L139 30.7895H142.704L152.704 67.2632L157.519 68L169 58.4211" stroke="#969696"/>
<path d="M97 37.5185V29L120 30.1111V39L97 37.5185Z" fill="#969696"/>
<path d="M95 25.7244V20L122 21.0267V27L95 25.7244Z" fill="#969696"/>
<path d="M150 26H155.5V30.4602L161 39.3805V60.1947L155.5 68" stroke="#969696"/>
<path d="M167 59L164 61V63" stroke="#969696"/>
<path d="M142 22.76C142.746 20.84 145.804 17 152.07 17C159.902 17 164.75 29.24 157.291 35" stroke="#969696"/>
<path d="M146 23.7143C146.681 21.9263 149.835 18 155.557 18C161.904 18 167.326 26.381 161.543 34" stroke="#969696"/>
<rect x="64" y="37" width="2" height="22" fill="#969696"/>
<path d="M121.5 72L120 69C121.8 69.8 124.75 69.3333 126 69L124.875 72H121.5Z" fill="#969696"/>
<path d="M89 62V5" stroke="#969696"/>
<path d="M93 68L91 65L97 65.75L96.2 68H93Z" fill="#969696"/>
<path d="M40.875 69L39 66L45 66.8571L43.875 69H40.875Z" fill="#969696"/>
<path d="M3.875 65L2 62L8 62.8571L6.875 65H3.875Z" fill="#969696"/>
</svg>
