<svg width="266" height="334" viewBox="0 0 266 334" fill="none" xmlns="http://www.w3.org/2000/svg">
<path d="M117 174H107V263H117" stroke="#ED5939" stroke-width="2.61597"/>
<path d="M128.925 43.9249C129.436 43.4141 129.436 42.5859 128.925 42.0751L120.601 33.7512C120.09 33.2404 119.262 33.2404 118.751 33.7512C118.24 34.262 118.24 35.0901 118.751 35.6009L126.15 43L118.751 50.3991C118.24 50.9099 118.24 51.738 118.751 52.2488C119.262 52.7596 120.09 52.7596 120.601 52.2488L128.925 43.9249ZM107 44.308H128V41.692H107V44.308Z" fill="#ED5939"/>
<path d="M264.925 171.925C265.436 171.414 265.436 170.586 264.925 170.075L256.601 161.751C256.09 161.24 255.262 161.24 254.751 161.751C254.24 162.262 254.24 163.09 254.751 163.601L262.15 171L254.751 178.399C254.24 178.91 254.24 179.738 254.751 180.249C255.262 180.76 256.09 180.76 256.601 180.249L264.925 171.925ZM243 172.308H264V169.692H243V172.308Z" fill="#ED5939"/>
<path d="M128.925 174.925C129.436 174.414 129.436 173.586 128.925 173.075L120.601 164.751C120.09 164.24 119.262 164.24 118.751 164.751C118.24 165.262 118.24 166.09 118.751 166.601L126.15 174L118.751 181.399C118.24 181.91 118.24 182.738 118.751 183.249C119.262 183.76 120.09 183.76 120.601 183.249L128.925 174.925ZM107 175.308H128V172.692H107V175.308Z" fill="#ED5939"/>
<path d="M128.925 263.925C129.436 263.414 129.436 262.586 128.925 262.075L120.601 253.751C120.09 253.24 119.262 253.24 118.751 253.751C118.24 254.262 118.24 255.09 118.751 255.601L126.15 263L118.751 270.399C118.24 270.91 118.24 271.738 118.751 272.249C119.262 272.76 120.09 272.76 120.601 272.249L128.925 263.925ZM107 264.308H128V261.692H107V264.308Z" fill="#ED5939"/>
<path d="M100 219L107 219" stroke="#ED5939" stroke-width="2.61597"/>
<path d="M181.747 16.6372C169.604 16.6372 159.703 26.5383 159.703 38.6812C159.703 50.824 169.604 60.7251 181.747 60.7251C193.89 60.7251 203.791 50.824 203.791 38.6812C203.791 26.5383 193.89 16.6372 181.747 16.6372ZM181.747 59.4798C170.289 59.4798 160.949 50.1391 160.949 38.6813C160.949 27.2233 170.289 17.8826 181.747 17.8826C193.205 17.8826 202.546 27.2233 202.546 38.6812C202.546 50.1391 193.205 59.4798 181.747 59.4798Z" fill="#5F5F5F"/>
<path d="M181.747 19.751C171.348 19.751 162.816 28.2821 162.816 38.6814C162.816 49.0807 171.285 57.5496 181.747 57.5496C192.208 57.5496 200.677 49.0807 200.677 38.6814C200.615 28.2821 192.146 19.751 181.747 19.751ZM181.747 56.3041C172.033 56.3041 164.062 48.3956 164.062 38.6814C164.062 28.9671 171.97 20.9964 181.747 20.9964C191.523 20.9964 199.432 28.9048 199.432 38.6814C199.37 48.3957 191.461 56.3041 181.747 56.3041Z" fill="#5F5F5F"/>
<path d="M190.929 37.5367C190.929 38.9067 192.05 40.0276 193.42 40.0276C194.79 40.0276 195.911 38.9067 195.911 37.5367C195.911 36.1668 194.79 35.0459 193.42 35.0459C192.05 35.046 190.929 36.1669 190.929 37.5367ZM194.665 37.5367C194.665 38.2217 194.105 38.7822 193.42 38.7822C192.735 38.7822 192.175 38.2217 192.175 37.5367C192.175 36.8518 192.735 36.2913 193.42 36.2913C194.105 36.2913 194.665 36.8518 194.665 37.5367Z" fill="#5F5F5F"/>
<path d="M175.87 48.3956C175.87 49.7656 176.991 50.8865 178.361 50.8865C179.731 50.8865 180.851 49.7656 180.851 48.3956C180.851 47.0257 179.73 45.9048 178.36 45.9048C176.991 45.9048 175.87 47.0257 175.87 48.3956ZM179.606 48.3956C179.606 49.0806 179.046 49.6411 178.361 49.6411C177.676 49.6411 177.115 49.0806 177.115 48.3956C177.115 47.7106 177.676 47.1502 178.361 47.1502C179.046 47.1502 179.606 47.7106 179.606 48.3956Z" fill="#5F5F5F"/>
<path d="M169.14 38.7998C168.04 39.6169 167.809 41.1851 168.626 42.2848C169.443 43.3845 171.011 43.6157 172.111 42.7986C173.211 41.9816 173.442 40.4133 172.625 39.3136C171.808 38.2141 170.24 37.9828 169.14 38.7998ZM171.368 41.7989C170.818 42.2075 170.034 42.0918 169.626 41.542C169.217 40.9922 169.333 40.2081 169.883 39.7996C170.433 39.3911 171.217 39.5066 171.625 40.0564C172.034 40.6062 171.918 41.3904 171.368 41.7989Z" fill="#5F5F5F"/>
<path d="M188.116 27.9801C188.116 26.6101 186.995 25.4893 185.625 25.4893C184.255 25.4893 183.134 26.6101 183.134 27.9801C183.134 29.3501 184.255 30.471 185.625 30.471C186.995 30.471 188.116 29.3501 188.116 27.9801ZM184.379 27.9801C184.379 27.2951 184.94 26.7347 185.625 26.7347C186.31 26.7347 186.87 27.2951 186.87 27.9801C186.87 28.6651 186.31 29.2255 185.625 29.2255C184.94 29.2255 184.379 28.6652 184.379 27.9801Z" fill="#5F5F5F"/>
<path d="M178.606 43.8052V44.5259C179.539 44.5259 180.351 44.8254 180.895 45.3691C181.207 45.681 181.648 46.392 181.929 47.2774C182.151 47.9751 182.352 49.0215 182.051 50.0443C181.631 51.4673 180.344 52.4199 178.225 52.8757L178.181 52.8853L178.141 52.8991C178.134 52.9012 177.501 53.1159 176.829 53.1159C176.478 53.1159 176.191 53.0581 175.978 52.9444C175.358 52.6137 175.227 52.2106 174.967 51.2498C174.921 51.0781 174.873 50.9005 174.817 50.7103C174.503 49.6449 174.062 46.6237 175.76 45.4528C176.626 44.8551 177.637 44.526 178.606 44.526V43.8052H178.606ZM178.606 43.8052C177.537 43.8052 176.382 44.1479 175.351 44.8594C173.26 46.3009 173.765 49.6883 174.125 50.9135C174.486 52.1388 174.558 53.0037 175.639 53.5802C175.999 53.7725 176.423 53.8365 176.829 53.8365C177.64 53.8365 178.376 53.5802 178.376 53.5802C185.078 52.1388 182.774 46.2288 181.405 44.8594C180.711 44.1659 179.703 43.8052 178.606 43.8052Z" fill="#5F5F5F"/>
<path d="M185.628 24.0308C186.597 24.0308 187.608 24.3599 188.474 24.9576C190.172 26.1285 189.731 29.1497 189.417 30.215C189.362 30.4053 189.313 30.5829 189.267 30.7546C189.007 31.7154 188.876 32.1185 188.256 32.4492C188.043 32.5629 187.757 32.6207 187.405 32.6207C186.734 32.6207 186.1 32.406 186.095 32.4045L186.053 32.3898L186.01 32.3805C183.891 31.9247 182.603 30.9721 182.184 29.5491C181.882 28.5264 182.083 27.4799 182.305 26.7822C182.586 25.8969 183.027 25.1859 183.339 24.874C183.883 24.3303 184.696 24.0308 185.628 24.0308ZM185.628 23.3101C184.531 23.3101 183.523 23.6709 182.83 24.3643C181.46 25.7337 179.157 31.6437 185.858 33.0851C185.858 33.0851 186.594 33.3414 187.405 33.3414C187.811 33.3414 188.235 33.2773 188.595 33.0851C189.677 32.5085 189.749 31.6437 190.109 30.4184C190.469 29.1932 190.974 25.8057 188.884 24.3643C187.852 23.6528 186.697 23.3101 185.628 23.3101Z" fill="#5F5F5F"/>
<path d="M169.202 36.0771V36.7979C169.895 36.7979 170.722 36.9955 171.66 37.3853C172.09 37.5683 173.391 38.2429 173.748 38.9369C174.208 39.8328 174.495 41.2818 174.152 42.3177C174.025 42.7016 173.721 43.432 173.116 44.01C172.505 44.5936 171.724 44.8895 170.794 44.8895H170.784C169.717 44.8871 168.688 44.5746 167.887 44.0097C167.138 43.4811 166.651 42.7792 166.515 42.0334C166.316 40.9347 166.359 38.7616 167.323 37.6074C167.777 37.0627 168.392 36.798 169.201 36.7979L169.202 36.0771ZM169.201 36.0771C165.574 36.0776 165.52 40.5831 165.806 42.162C166.152 44.0675 168.243 45.6046 170.782 45.6103C170.786 45.6103 170.79 45.6103 170.794 45.6103C173.325 45.6103 174.435 43.7547 174.836 42.5443C175.238 41.3319 174.949 39.697 174.389 38.6073C173.829 37.5175 171.939 36.7207 171.939 36.7207C170.854 36.2697 169.951 36.077 169.201 36.0771Z" fill="#5F5F5F"/>
<path d="M193.135 32.1172V32.8379C194.203 32.8379 195.241 33.6701 196.22 35.3111C196.457 35.7147 197.098 37.032 196.971 37.8017C196.806 38.7956 196.172 40.1297 195.279 40.7565C194.872 41.0423 194.039 41.5218 193.042 41.5218C192.346 41.5218 191.672 41.2831 191.042 40.8123C190.187 40.1741 189.547 39.3097 189.241 38.3783C188.955 37.5071 188.983 36.6532 189.319 35.9739C189.825 34.9509 191.424 32.8383 193.134 32.8379L193.135 32.1172ZM193.134 32.1172C191.002 32.1176 189.227 34.5354 188.673 35.6542C187.814 37.3898 188.576 39.871 190.611 41.3899C191.448 42.0151 192.28 42.2426 193.042 42.2426C194.132 42.2426 195.078 41.7781 195.693 41.3465C196.738 40.613 197.482 39.1284 197.682 37.9196C197.882 36.7108 196.841 34.9441 196.841 34.9441C195.593 32.8516 194.31 32.1169 193.134 32.1172Z" fill="#5F5F5F"/>
<path d="M189.861 49.4743C191.214 49.2594 192.145 47.9765 191.93 46.6234C191.715 45.2705 190.432 44.3394 189.079 44.5543C187.726 44.7692 186.795 46.0521 187.01 47.4051C187.225 48.7582 188.508 49.6893 189.861 49.4743ZM189.275 45.7844C189.951 45.6769 190.593 46.1423 190.7 46.8188C190.808 47.4954 190.342 48.1368 189.666 48.2443C188.989 48.3518 188.348 47.8862 188.24 47.2097C188.133 46.5332 188.598 45.8918 189.275 45.7844Z" fill="#5F5F5F"/>
<path d="M189.168 43.4658H189.175C190.182 43.4724 191.599 43.8892 192.358 44.6731C192.64 44.9642 193.148 45.5728 193.38 46.3783C193.614 47.1919 193.512 48.0232 193.078 48.8491C192.269 50.3899 190.771 51.4252 189.35 51.4252C189.078 51.4252 188.816 51.3864 188.57 51.3099C187.511 50.9798 185.217 49.7647 184.889 48.1152C184.674 47.0364 185.329 45.8525 186.832 44.5986C187.188 44.3048 188.381 43.4658 189.168 43.4658ZM189.168 42.7451C187.944 42.7452 186.373 44.0429 186.373 44.0429C181.109 48.4339 186.507 51.4219 188.356 51.9981C188.676 52.0978 189.01 52.146 189.35 52.146C190.977 52.146 192.74 51.0433 193.716 49.1843C194.897 46.9365 193.765 45.0891 192.876 44.1717C191.988 43.2542 190.405 42.7531 189.18 42.7451C189.176 42.7451 189.172 42.7451 189.168 42.7451Z" fill="#5F5F5F"/>
<path d="M179.499 38.3527C179.499 39.7226 180.62 40.8435 181.99 40.8435C183.36 40.8435 184.481 39.7226 184.481 38.3527C184.481 36.9827 183.36 35.8618 181.99 35.8618C180.62 35.8619 179.499 36.9827 179.499 38.3527ZM183.235 38.3527C183.235 39.0376 182.675 39.5981 181.99 39.5981C181.305 39.5981 180.745 39.0376 180.745 38.3527C180.745 37.6677 181.305 37.1072 181.99 37.1072C182.675 37.1072 183.235 37.6677 183.235 38.3527Z" fill="#5F5F5F"/>
<path d="M181.705 32.9336V33.6543C182.774 33.6543 183.812 34.4865 184.791 36.1275C185.027 36.5311 185.669 37.8484 185.542 38.6181C185.377 39.612 184.743 40.9461 183.85 41.5729C183.442 41.8587 182.61 42.3382 181.613 42.3382C180.916 42.3382 180.243 42.0995 179.613 41.6287C178.757 40.9905 178.118 40.1261 177.812 39.1947C177.526 38.3235 177.553 37.4696 177.89 36.7903C178.396 35.7673 179.995 33.6547 181.705 33.6543L181.705 32.9336ZM181.705 32.9336C179.573 32.934 177.797 35.3518 177.244 36.4706C176.385 38.2062 177.147 40.6874 179.181 42.2063C180.019 42.8315 180.851 43.059 181.613 43.059C182.702 43.059 183.649 42.5945 184.264 42.1629C185.309 41.4294 186.052 39.9448 186.253 38.736C186.453 37.5272 185.411 35.7605 185.411 35.7605C184.164 33.668 182.88 32.9334 181.705 32.9336Z" fill="#5F5F5F"/>
<path d="M172.317 30.1954C172.317 31.5654 173.438 32.6863 174.808 32.6863C176.178 32.6863 177.299 31.5654 177.299 30.1954C177.299 28.8255 176.178 27.7046 174.808 27.7046C173.438 27.7046 172.317 28.8255 172.317 30.1954ZM176.053 30.1954C176.053 30.8804 175.493 31.4409 174.808 31.4409C174.123 31.4409 173.562 30.8804 173.562 30.1954C173.562 29.5105 174.123 28.95 174.808 28.95C175.493 28.95 176.053 29.5105 176.053 30.1954Z" fill="#5F5F5F"/>
<path d="M174.522 24.7759V25.4966C175.591 25.4966 176.629 26.3288 177.608 27.9698C177.844 28.3734 178.486 29.6907 178.358 30.4604C178.194 31.4543 177.56 32.7884 176.667 33.4152C176.259 33.701 175.427 34.1805 174.43 34.1805C173.733 34.1805 173.06 33.9418 172.429 33.471C171.574 32.8328 170.935 31.9683 170.629 31.037C170.343 30.1658 170.37 29.3119 170.706 28.6326C171.213 27.6096 172.812 25.497 174.522 25.4966L174.522 24.7759ZM174.522 24.7759C172.39 24.7763 170.614 27.1941 170.061 28.3129C169.202 30.0485 169.964 32.5297 171.998 34.0486C172.836 34.6738 173.668 34.9013 174.43 34.9013C175.519 34.9013 176.466 34.4368 177.081 34.0052C178.126 33.2716 178.869 31.7871 179.07 30.5783C179.27 29.3695 178.228 27.6028 178.228 27.6028C176.981 25.5103 175.697 24.7757 174.522 24.7759Z" fill="#5F5F5F"/>
<path d="M181.747 127C169.604 127 159.703 136.901 159.703 149.044C159.703 161.187 169.604 171.088 181.747 171.088C193.89 171.088 203.791 161.187 203.791 149.044C203.791 136.901 193.89 127 181.747 127ZM181.747 169.843C170.289 169.843 160.949 160.502 160.949 149.044C160.949 137.586 170.289 128.245 181.747 128.245C193.205 128.245 202.546 137.586 202.546 149.044C202.546 160.502 193.205 169.843 181.747 169.843Z" fill="#62D136"/>
<path d="M181.747 130.114C171.348 130.114 162.816 138.645 162.816 149.044C162.816 159.443 171.285 167.912 181.747 167.912C192.208 167.912 200.677 159.443 200.677 149.044C200.615 138.645 192.146 130.114 181.747 130.114ZM181.747 166.667C172.033 166.667 164.062 158.758 164.062 149.044C164.062 139.33 171.97 131.359 181.747 131.359C191.523 131.359 199.432 139.268 199.432 149.044C199.37 158.759 191.461 166.667 181.747 166.667Z" fill="#62D136"/>
<path d="M190.929 147.9C190.929 149.27 192.05 150.39 193.42 150.39C194.79 150.39 195.911 149.27 195.911 147.9C195.911 146.53 194.79 145.409 193.42 145.409C192.05 145.409 190.929 146.53 190.929 147.9ZM194.665 147.9C194.665 148.585 194.105 149.145 193.42 149.145C192.735 149.145 192.175 148.585 192.175 147.9C192.175 147.215 192.735 146.654 193.42 146.654C194.105 146.654 194.665 147.215 194.665 147.9Z" fill="#62D136"/>
<path d="M175.87 158.758C175.87 160.128 176.991 161.249 178.361 161.249C179.731 161.249 180.851 160.128 180.851 158.758C180.851 157.388 179.73 156.268 178.36 156.268C176.991 156.268 175.87 157.388 175.87 158.758ZM179.606 158.758C179.606 159.443 179.046 160.004 178.361 160.004C177.676 160.004 177.115 159.443 177.115 158.758C177.115 158.073 177.676 157.513 178.361 157.513C179.046 157.513 179.606 158.073 179.606 158.758Z" fill="#62D136"/>
<path d="M169.14 149.163C168.04 149.98 167.809 151.548 168.626 152.648C169.443 153.747 171.011 153.978 172.111 153.161C173.211 152.344 173.442 150.776 172.625 149.676C171.808 148.577 170.24 148.346 169.14 149.163ZM171.368 152.162C170.818 152.57 170.034 152.455 169.626 151.905C169.217 151.355 169.333 150.571 169.883 150.162C170.433 149.754 171.217 149.869 171.625 150.419C172.034 150.969 171.918 151.753 171.368 152.162Z" fill="#62D136"/>
<path d="M188.116 138.343C188.116 136.973 186.995 135.852 185.625 135.852C184.255 135.852 183.134 136.973 183.134 138.343C183.134 139.713 184.255 140.834 185.625 140.834C186.995 140.834 188.116 139.713 188.116 138.343ZM184.379 138.343C184.379 137.658 184.94 137.097 185.625 137.097C186.31 137.097 186.87 137.658 186.87 138.343C186.87 139.028 186.31 139.588 185.625 139.588C184.94 139.588 184.379 139.028 184.379 138.343Z" fill="#62D136"/>
<path d="M178.606 154.168V154.889C179.539 154.889 180.351 155.188 180.895 155.732C181.207 156.044 181.648 156.755 181.929 157.64C182.151 158.338 182.352 159.384 182.051 160.407C181.631 161.83 180.344 162.783 178.225 163.239L178.181 163.248L178.141 163.262C178.134 163.264 177.501 163.479 176.829 163.479C176.478 163.479 176.191 163.421 175.978 163.307C175.358 162.976 175.227 162.573 174.967 161.613C174.921 161.441 174.873 161.263 174.817 161.073C174.503 160.008 174.062 156.986 175.76 155.816C176.626 155.218 177.637 154.889 178.606 154.889V154.168H178.606ZM178.606 154.168C177.537 154.168 176.382 154.511 175.351 155.222C173.26 156.664 173.765 160.051 174.125 161.276C174.486 162.502 174.558 163.366 175.639 163.943C175.999 164.135 176.423 164.199 176.829 164.199C177.64 164.199 178.376 163.943 178.376 163.943C185.078 162.502 182.774 156.592 181.405 155.222C180.711 154.529 179.703 154.168 178.606 154.168Z" fill="#62D136"/>
<path d="M185.628 134.394C186.597 134.394 187.608 134.723 188.474 135.32C190.172 136.491 189.731 139.513 189.417 140.578C189.362 140.768 189.313 140.946 189.267 141.117C189.007 142.078 188.876 142.481 188.256 142.812C188.043 142.926 187.757 142.983 187.405 142.983C186.734 142.983 186.1 142.769 186.095 142.767L186.053 142.753L186.01 142.743C183.891 142.288 182.603 141.335 182.184 139.912C181.882 138.889 182.083 137.843 182.305 137.145C182.586 136.26 183.027 135.549 183.339 135.237C183.883 134.693 184.696 134.394 185.628 134.394ZM185.628 133.673C184.531 133.673 183.523 134.034 182.83 134.727C181.46 136.096 179.157 142.006 185.858 143.448C185.858 143.448 186.594 143.704 187.405 143.704C187.811 143.704 188.235 143.64 188.595 143.448C189.677 142.871 189.749 142.006 190.109 140.781C190.469 139.556 190.974 136.169 188.884 134.727C187.852 134.016 186.697 133.673 185.628 133.673Z" fill="#62D136"/>
<path d="M169.202 146.44V147.161C169.895 147.161 170.722 147.358 171.66 147.748C172.09 147.931 173.391 148.606 173.748 149.3C174.208 150.196 174.495 151.645 174.152 152.68C174.025 153.064 173.721 153.795 173.116 154.373C172.505 154.956 171.724 155.252 170.794 155.252H170.784C169.717 155.25 168.688 154.937 167.887 154.372C167.138 153.844 166.651 153.142 166.515 152.396C166.316 151.298 166.359 149.124 167.323 147.97C167.777 147.426 168.392 147.161 169.201 147.161L169.202 146.44ZM169.201 146.44C165.574 146.44 165.52 150.946 165.806 152.525C166.152 154.43 168.243 155.967 170.782 155.973C170.786 155.973 170.79 155.973 170.794 155.973C173.325 155.973 174.435 154.118 174.836 152.907C175.238 151.695 174.949 150.06 174.389 148.97C173.829 147.88 171.939 147.083 171.939 147.083C170.854 146.632 169.951 146.44 169.201 146.44Z" fill="#62D136"/>
<path d="M193.135 142.48V143.201C194.203 143.201 195.241 144.033 196.22 145.674C196.457 146.078 197.098 147.395 196.971 148.165C196.806 149.158 196.172 150.492 195.279 151.119C194.872 151.405 194.039 151.885 193.042 151.885C192.346 151.885 191.672 151.646 191.042 151.175C190.187 150.537 189.547 149.672 189.241 148.741C188.955 147.87 188.983 147.016 189.319 146.337C189.825 145.314 191.424 143.201 193.134 143.201L193.135 142.48ZM193.134 142.48C191.002 142.48 189.227 144.898 188.673 146.017C187.814 147.753 188.576 150.234 190.611 151.753C191.448 152.378 192.28 152.605 193.042 152.605C194.132 152.605 195.078 152.141 195.693 151.709C196.738 150.976 197.482 149.491 197.682 148.282C197.882 147.074 196.841 145.307 196.841 145.307C195.593 143.214 194.31 142.48 193.134 142.48Z" fill="#62D136"/>
<path d="M189.861 159.837C191.214 159.622 192.145 158.339 191.93 156.986C191.715 155.633 190.432 154.702 189.079 154.917C187.726 155.132 186.795 156.415 187.01 157.768C187.225 159.121 188.508 160.052 189.861 159.837ZM189.275 156.147C189.951 156.04 190.593 156.505 190.7 157.182C190.808 157.858 190.342 158.5 189.666 158.607C188.989 158.715 188.348 158.249 188.24 157.572C188.133 156.896 188.598 156.255 189.275 156.147Z" fill="#62D136"/>
<path d="M189.168 153.829H189.175C190.182 153.835 191.599 154.252 192.358 155.036C192.64 155.327 193.148 155.936 193.38 156.741C193.614 157.555 193.512 158.386 193.078 159.212C192.269 160.753 190.771 161.788 189.35 161.788C189.078 161.788 188.816 161.749 188.57 161.673C187.511 161.343 185.217 160.127 184.889 158.478C184.674 157.399 185.329 156.215 186.832 154.961C187.188 154.668 188.381 153.829 189.168 153.829ZM189.168 153.108C187.944 153.108 186.373 154.406 186.373 154.406C181.109 158.797 186.507 161.785 188.356 162.361C188.676 162.461 189.01 162.509 189.35 162.509C190.977 162.509 192.74 161.406 193.716 159.547C194.897 157.299 193.765 155.452 192.876 154.534C191.988 153.617 190.405 153.116 189.18 153.108C189.176 153.108 189.172 153.108 189.168 153.108Z" fill="#62D136"/>
<path d="M179.499 148.715C179.499 150.085 180.62 151.206 181.99 151.206C183.36 151.206 184.481 150.085 184.481 148.715C184.481 147.345 183.36 146.225 181.99 146.225C180.62 146.225 179.499 147.345 179.499 148.715ZM183.235 148.715C183.235 149.4 182.675 149.961 181.99 149.961C181.305 149.961 180.745 149.4 180.745 148.715C180.745 148.03 181.305 147.47 181.99 147.47C182.675 147.47 183.235 148.03 183.235 148.715Z" fill="#62D136"/>
<path d="M181.705 143.296V144.017C182.774 144.017 183.812 144.849 184.791 146.49C185.027 146.894 185.669 148.211 185.542 148.981C185.377 149.975 184.743 151.309 183.85 151.936C183.442 152.221 182.61 152.701 181.613 152.701C180.916 152.701 180.243 152.462 179.613 151.992C178.757 151.353 178.118 150.489 177.812 149.558C177.526 148.686 177.553 147.832 177.89 147.153C178.396 146.13 179.995 144.017 181.705 144.017L181.705 143.296ZM181.705 143.296C179.573 143.297 177.797 145.715 177.244 146.833C176.385 148.569 177.147 151.05 179.181 152.569C180.019 153.194 180.851 153.422 181.613 153.422C182.702 153.422 183.649 152.957 184.264 152.526C185.309 151.792 186.052 150.308 186.253 149.099C186.453 147.89 185.411 146.123 185.411 146.123C184.164 144.031 182.88 143.296 181.705 143.296Z" fill="#62D136"/>
<path d="M172.317 140.558C172.317 141.928 173.438 143.049 174.808 143.049C176.178 143.049 177.299 141.928 177.299 140.558C177.299 139.188 176.178 138.067 174.808 138.067C173.438 138.067 172.317 139.188 172.317 140.558ZM176.053 140.558C176.053 141.243 175.493 141.804 174.808 141.804C174.123 141.804 173.562 141.243 173.562 140.558C173.562 139.873 174.123 139.313 174.808 139.313C175.493 139.313 176.053 139.873 176.053 140.558Z" fill="#62D136"/>
<path d="M174.522 135.139V135.859C175.591 135.859 176.629 136.692 177.608 138.333C177.844 138.736 178.486 140.053 178.358 140.823C178.194 141.817 177.56 143.151 176.667 143.778C176.259 144.064 175.427 144.543 174.43 144.543C173.733 144.543 173.06 144.305 172.429 143.834C171.574 143.196 170.935 142.331 170.629 141.4C170.343 140.529 170.37 139.675 170.706 138.995C171.213 137.972 172.812 135.86 174.522 135.859L174.522 135.139ZM174.522 135.139C172.39 135.139 170.614 137.557 170.061 138.676C169.202 140.411 169.964 142.893 171.998 144.411C172.836 145.037 173.668 145.264 174.43 145.264C175.519 145.264 176.466 144.8 177.081 144.368C178.126 143.634 178.869 142.15 179.07 140.941C179.27 139.732 178.228 137.966 178.228 137.966C176.981 135.873 175.697 135.138 174.522 135.139Z" fill="#62D136"/>
<path d="M181.747 241C169.604 241 159.703 250.901 159.703 263.044C159.703 275.187 169.604 285.088 181.747 285.088C193.89 285.088 203.791 275.187 203.791 263.044C203.791 250.901 193.89 241 181.747 241ZM181.747 283.843C170.289 283.843 160.949 274.502 160.949 263.044C160.949 251.586 170.289 242.245 181.747 242.245C193.205 242.245 202.546 251.586 202.546 263.044C202.546 274.502 193.205 283.843 181.747 283.843Z" fill="#FF0000"/>
<path d="M181.747 244.114C171.348 244.114 162.816 252.645 162.816 263.044C162.816 273.443 171.285 281.912 181.747 281.912C192.208 281.912 200.677 273.443 200.677 263.044C200.615 252.645 192.146 244.114 181.747 244.114ZM181.747 280.667C172.033 280.667 164.062 272.758 164.062 263.044C164.062 253.33 171.97 245.359 181.747 245.359C191.523 245.359 199.432 253.268 199.432 263.044C199.37 272.759 191.461 280.667 181.747 280.667Z" fill="#FF0000"/>
<path d="M190.929 261.9C190.929 263.27 192.05 264.39 193.42 264.39C194.79 264.39 195.911 263.27 195.911 261.9C195.911 260.53 194.79 259.409 193.42 259.409C192.05 259.409 190.929 260.53 190.929 261.9ZM194.665 261.9C194.665 262.585 194.105 263.145 193.42 263.145C192.735 263.145 192.175 262.585 192.175 261.9C192.175 261.215 192.735 260.654 193.42 260.654C194.105 260.654 194.665 261.215 194.665 261.9Z" fill="#FF0000"/>
<path d="M175.87 272.758C175.87 274.128 176.991 275.249 178.361 275.249C179.731 275.249 180.851 274.128 180.851 272.758C180.851 271.388 179.73 270.268 178.36 270.268C176.991 270.268 175.87 271.388 175.87 272.758ZM179.606 272.758C179.606 273.443 179.046 274.004 178.361 274.004C177.676 274.004 177.115 273.443 177.115 272.758C177.115 272.073 177.676 271.513 178.361 271.513C179.046 271.513 179.606 272.073 179.606 272.758Z" fill="#FF0000"/>
<path d="M169.14 263.163C168.04 263.98 167.809 265.548 168.626 266.648C169.443 267.747 171.011 267.978 172.111 267.161C173.211 266.344 173.442 264.776 172.625 263.676C171.808 262.577 170.24 262.346 169.14 263.163ZM171.368 266.162C170.818 266.57 170.034 266.455 169.626 265.905C169.217 265.355 169.333 264.571 169.883 264.162C170.433 263.754 171.217 263.869 171.625 264.419C172.034 264.969 171.918 265.753 171.368 266.162Z" fill="#FF0000"/>
<path d="M188.116 252.343C188.116 250.973 186.995 249.852 185.625 249.852C184.255 249.852 183.134 250.973 183.134 252.343C183.134 253.713 184.255 254.834 185.625 254.834C186.995 254.834 188.116 253.713 188.116 252.343ZM184.379 252.343C184.379 251.658 184.94 251.097 185.625 251.097C186.31 251.097 186.87 251.658 186.87 252.343C186.87 253.028 186.31 253.588 185.625 253.588C184.94 253.588 184.379 253.028 184.379 252.343Z" fill="#FF0000"/>
<path d="M178.606 268.168V268.889C179.539 268.889 180.351 269.188 180.895 269.732C181.207 270.044 181.648 270.755 181.929 271.64C182.151 272.338 182.352 273.384 182.051 274.407C181.631 275.83 180.344 276.783 178.225 277.239L178.181 277.248L178.141 277.262C178.134 277.264 177.501 277.479 176.829 277.479C176.478 277.479 176.191 277.421 175.978 277.307C175.358 276.976 175.227 276.573 174.967 275.613C174.921 275.441 174.873 275.263 174.817 275.073C174.503 274.008 174.062 270.986 175.76 269.816C176.626 269.218 177.637 268.889 178.606 268.889V268.168H178.606ZM178.606 268.168C177.537 268.168 176.382 268.511 175.351 269.222C173.26 270.664 173.765 274.051 174.125 275.276C174.486 276.502 174.558 277.366 175.639 277.943C175.999 278.135 176.423 278.199 176.829 278.199C177.64 278.199 178.376 277.943 178.376 277.943C185.078 276.502 182.774 270.592 181.405 269.222C180.711 268.529 179.703 268.168 178.606 268.168Z" fill="#FF0000"/>
<path d="M185.628 248.394C186.597 248.394 187.608 248.723 188.474 249.32C190.172 250.491 189.731 253.513 189.417 254.578C189.362 254.768 189.313 254.946 189.267 255.117C189.007 256.078 188.876 256.481 188.256 256.812C188.043 256.926 187.757 256.983 187.405 256.983C186.734 256.983 186.1 256.769 186.095 256.767L186.053 256.753L186.01 256.743C183.891 256.288 182.603 255.335 182.184 253.912C181.882 252.889 182.083 251.843 182.305 251.145C182.586 250.26 183.027 249.549 183.339 249.237C183.883 248.693 184.696 248.394 185.628 248.394ZM185.628 247.673C184.531 247.673 183.523 248.034 182.83 248.727C181.46 250.096 179.157 256.006 185.858 257.448C185.858 257.448 186.594 257.704 187.405 257.704C187.811 257.704 188.235 257.64 188.595 257.448C189.677 256.871 189.749 256.006 190.109 254.781C190.469 253.556 190.974 250.169 188.884 248.727C187.852 248.016 186.697 247.673 185.628 247.673Z" fill="#FF0000"/>
<path d="M169.202 260.44V261.161C169.895 261.161 170.722 261.358 171.66 261.748C172.09 261.931 173.391 262.606 173.748 263.3C174.208 264.196 174.495 265.645 174.152 266.68C174.025 267.064 173.721 267.795 173.116 268.373C172.505 268.956 171.724 269.252 170.794 269.252H170.784C169.717 269.25 168.688 268.937 167.887 268.372C167.138 267.844 166.651 267.142 166.515 266.396C166.316 265.298 166.359 263.124 167.323 261.97C167.777 261.426 168.392 261.161 169.201 261.161L169.202 260.44ZM169.201 260.44C165.574 260.44 165.52 264.946 165.806 266.525C166.152 268.43 168.243 269.967 170.782 269.973C170.786 269.973 170.79 269.973 170.794 269.973C173.325 269.973 174.435 268.118 174.836 266.907C175.238 265.695 174.949 264.06 174.389 262.97C173.829 261.88 171.939 261.083 171.939 261.083C170.854 260.632 169.951 260.44 169.201 260.44Z" fill="#FF0000"/>
<path d="M193.135 256.48V257.201C194.203 257.201 195.241 258.033 196.22 259.674C196.457 260.078 197.098 261.395 196.971 262.165C196.806 263.158 196.172 264.492 195.279 265.119C194.872 265.405 194.039 265.885 193.042 265.885C192.346 265.885 191.672 265.646 191.042 265.175C190.187 264.537 189.547 263.672 189.241 262.741C188.955 261.87 188.983 261.016 189.319 260.337C189.825 259.314 191.424 257.201 193.134 257.201L193.135 256.48ZM193.134 256.48C191.002 256.48 189.227 258.898 188.673 260.017C187.814 261.753 188.576 264.234 190.611 265.753C191.448 266.378 192.28 266.605 193.042 266.605C194.132 266.605 195.078 266.141 195.693 265.709C196.738 264.976 197.482 263.491 197.682 262.282C197.882 261.074 196.841 259.307 196.841 259.307C195.593 257.214 194.31 256.48 193.134 256.48Z" fill="#FF0000"/>
<path d="M189.861 273.837C191.214 273.622 192.145 272.339 191.93 270.986C191.715 269.633 190.432 268.702 189.079 268.917C187.726 269.132 186.795 270.415 187.01 271.768C187.225 273.121 188.508 274.052 189.861 273.837ZM189.275 270.147C189.951 270.04 190.593 270.505 190.7 271.182C190.808 271.858 190.342 272.5 189.666 272.607C188.989 272.715 188.348 272.249 188.24 271.572C188.133 270.896 188.598 270.255 189.275 270.147Z" fill="#FF0000"/>
<path d="M189.168 267.829H189.175C190.182 267.835 191.599 268.252 192.358 269.036C192.64 269.327 193.148 269.936 193.38 270.741C193.614 271.555 193.512 272.386 193.078 273.212C192.269 274.753 190.771 275.788 189.35 275.788C189.078 275.788 188.816 275.749 188.57 275.673C187.511 275.343 185.217 274.127 184.889 272.478C184.674 271.399 185.329 270.215 186.832 268.961C187.188 268.668 188.381 267.829 189.168 267.829ZM189.168 267.108C187.944 267.108 186.373 268.406 186.373 268.406C181.109 272.797 186.507 275.785 188.356 276.361C188.676 276.461 189.01 276.509 189.35 276.509C190.977 276.509 192.74 275.406 193.716 273.547C194.897 271.299 193.765 269.452 192.876 268.534C191.988 267.617 190.405 267.116 189.18 267.108C189.176 267.108 189.172 267.108 189.168 267.108Z" fill="#FF0000"/>
<path d="M179.499 262.715C179.499 264.085 180.62 265.206 181.99 265.206C183.36 265.206 184.481 264.085 184.481 262.715C184.481 261.345 183.36 260.225 181.99 260.225C180.62 260.225 179.499 261.345 179.499 262.715ZM183.235 262.715C183.235 263.4 182.675 263.961 181.99 263.961C181.305 263.961 180.745 263.4 180.745 262.715C180.745 262.03 181.305 261.47 181.99 261.47C182.675 261.47 183.235 262.03 183.235 262.715Z" fill="#FF0000"/>
<path d="M181.705 257.296V258.017C182.774 258.017 183.812 258.849 184.791 260.49C185.027 260.894 185.669 262.211 185.542 262.981C185.377 263.975 184.743 265.309 183.85 265.936C183.442 266.221 182.61 266.701 181.613 266.701C180.916 266.701 180.243 266.462 179.613 265.992C178.757 265.353 178.118 264.489 177.812 263.558C177.526 262.686 177.553 261.832 177.89 261.153C178.396 260.13 179.995 258.017 181.705 258.017L181.705 257.296ZM181.705 257.296C179.573 257.297 177.797 259.715 177.244 260.833C176.385 262.569 177.147 265.05 179.181 266.569C180.019 267.194 180.851 267.422 181.613 267.422C182.702 267.422 183.649 266.957 184.264 266.526C185.309 265.792 186.052 264.308 186.253 263.099C186.453 261.89 185.411 260.123 185.411 260.123C184.164 258.031 182.88 257.296 181.705 257.296Z" fill="#FF0000"/>
<path d="M172.317 254.558C172.317 255.928 173.438 257.049 174.808 257.049C176.178 257.049 177.299 255.928 177.299 254.558C177.299 253.188 176.178 252.067 174.808 252.067C173.438 252.067 172.317 253.188 172.317 254.558ZM176.053 254.558C176.053 255.243 175.493 255.804 174.808 255.804C174.123 255.804 173.562 255.243 173.562 254.558C173.562 253.873 174.123 253.313 174.808 253.313C175.493 253.313 176.053 253.873 176.053 254.558Z" fill="#FF0000"/>
<path d="M174.522 249.139V249.859C175.591 249.859 176.629 250.692 177.608 252.333C177.844 252.736 178.486 254.053 178.358 254.823C178.194 255.817 177.56 257.151 176.667 257.778C176.259 258.064 175.427 258.543 174.43 258.543C173.733 258.543 173.06 258.305 172.429 257.834C171.574 257.196 170.935 256.331 170.629 255.4C170.343 254.529 170.37 253.675 170.706 252.995C171.213 251.972 172.812 249.86 174.522 249.859L174.522 249.139ZM174.522 249.139C172.39 249.139 170.614 251.557 170.061 252.676C169.202 254.411 169.964 256.893 171.998 258.411C172.836 259.037 173.668 259.264 174.43 259.264C175.519 259.264 176.466 258.8 177.081 258.368C178.126 257.634 178.869 256.15 179.07 254.941C179.27 253.732 178.228 251.966 178.228 251.966C176.981 249.873 175.697 249.138 174.522 249.139Z" fill="#FF0000"/>
<path d="M32.2923 82.112C34.4623 82.112 36.2123 80.782 36.4223 78.948H35.1903C35.0503 80.152 33.8183 81.034 32.2923 81.034C30.2483 81.034 28.8063 79.648 28.8063 77.1C28.8063 74.552 30.2483 73.166 32.2923 73.166C33.7903 73.166 35.0083 74.048 35.1763 75.252H36.4363C36.1703 73.418 34.4203 72.088 32.2923 72.088C29.8563 72.088 27.5743 73.712 27.5743 77.1C27.5743 80.474 29.8423 82.112 32.2923 82.112ZM40.5524 74.832C38.9704 74.832 37.6824 75.84 37.5564 77.198H38.6204C38.6764 76.428 39.4884 75.784 40.5244 75.784C41.7284 75.784 42.4144 76.442 42.4144 77.408C42.4144 77.632 42.2744 77.786 41.9664 77.786H40.3704C38.6624 77.786 37.5564 78.64 37.5564 79.984C37.5564 81.272 38.5224 82.112 40.0064 82.112C41.0984 82.112 42.0364 81.594 42.4144 80.782V82H43.5344V77.45C43.5344 75.882 42.3864 74.832 40.5524 74.832ZM40.1744 81.16C39.2784 81.16 38.7044 80.698 38.7044 79.97C38.7044 79.144 39.3904 78.64 40.4404 78.64H42.4144V78.822C42.4144 80.278 41.5884 81.16 40.1744 81.16ZM45.1916 82H46.3116V78.192C46.3116 76.82 47.1796 75.854 48.3836 75.854C49.4476 75.854 50.1476 76.666 50.1476 77.87V82H51.2676V77.688C51.2676 75.966 50.2316 74.832 48.6356 74.832C47.5576 74.832 46.6756 75.322 46.3116 76.302V74.944H45.1916V82ZM56.1453 82.112C57.9373 82.112 59.0993 81.16 59.3373 79.718H58.2453C57.9933 80.572 57.2233 81.104 56.1593 81.104C54.6333 81.104 53.8773 79.914 53.8773 78.472C53.8773 77.03 54.6193 75.84 56.1593 75.84C57.2233 75.84 58.1053 76.47 58.2453 77.324H59.3513C59.1413 75.756 57.7273 74.832 56.1453 74.832C53.9193 74.832 52.7153 76.582 52.7153 78.472C52.7153 80.362 53.9193 82.112 56.1453 82.112ZM65.9028 79.732C65.6788 80.614 64.9508 81.118 63.8028 81.118C62.4728 81.118 61.5068 80.082 61.4228 78.626H66.9388C66.9528 78.528 66.9668 78.29 66.9668 78.136C66.9668 76.26 65.7348 74.832 63.6768 74.832C61.6048 74.832 60.3168 76.358 60.3168 78.43C60.3168 80.446 61.7168 82.112 63.8028 82.112C65.5528 82.112 66.7988 81.174 67.0368 79.732H65.9028ZM63.6768 75.784C64.9368 75.784 65.7348 76.54 65.8188 77.73H61.4788C61.6888 76.484 62.4868 75.784 63.6768 75.784ZM72.4088 75.938V74.944H71.5128C70.4768 74.944 69.8888 75.406 69.5948 76.372V74.944H68.4748V82H69.5948V78.892C69.5948 77.226 70.0008 75.938 71.4288 75.938H72.4088ZM8.15709 102H9.34709V97.996H11.8391C13.7851 97.996 14.9611 96.82 14.9611 95.098C14.9611 93.376 13.7851 92.2 11.8391 92.2H8.15709V102ZM9.34709 96.932V93.264H11.8391C13.2251 93.264 13.7431 94.132 13.7431 95.098C13.7431 96.064 13.2251 96.932 11.8391 96.932H9.34709ZM18.6364 94.832C17.0544 94.832 15.7664 95.84 15.6404 97.198H16.7044C16.7604 96.428 17.5724 95.784 18.6084 95.784C19.8124 95.784 20.4984 96.442 20.4984 97.408C20.4984 97.632 20.3584 97.786 20.0504 97.786H18.4544C16.7464 97.786 15.6404 98.64 15.6404 99.984C15.6404 101.272 16.6064 102.112 18.0904 102.112C19.1824 102.112 20.1204 101.594 20.4984 100.782V102H21.6184V97.45C21.6184 95.882 20.4704 94.832 18.6364 94.832ZM18.2584 101.16C17.3624 101.16 16.7884 100.698 16.7884 99.97C16.7884 99.144 17.4744 98.64 18.5244 98.64H20.4984V98.822C20.4984 100.278 19.6724 101.16 18.2584 101.16ZM24.0045 92.69V94.944H22.5345V95.938H24.0045V99.788C24.0045 101.16 24.8725 102 26.2165 102H27.2945V101.006H26.2585C25.5725 101.006 25.1245 100.544 25.1245 99.76V95.938H27.2945V94.944H25.1245V92.69H24.0045ZM28.4279 92.046V93.614H29.7159V92.046H28.4279ZM28.5119 102H29.6319V94.944H28.5119V102ZM36.6587 99.732C36.4347 100.614 35.7067 101.118 34.5587 101.118C33.2287 101.118 32.2627 100.082 32.1787 98.626H37.6947C37.7087 98.528 37.7227 98.29 37.7227 98.136C37.7227 96.26 36.4907 94.832 34.4327 94.832C32.3607 94.832 31.0727 96.358 31.0727 98.43C31.0727 100.446 32.4727 102.112 34.5587 102.112C36.3087 102.112 37.5547 101.174 37.7927 99.732H36.6587ZM34.4327 95.784C35.6927 95.784 36.4907 96.54 36.5747 97.73H32.2347C32.4447 96.484 33.2427 95.784 34.4327 95.784ZM39.2306 102H40.3506V98.192C40.3506 96.82 41.2186 95.854 42.4226 95.854C43.4866 95.854 44.1866 96.666 44.1866 97.87V102H45.3066V97.688C45.3066 95.966 44.2706 94.832 42.6746 94.832C41.5966 94.832 40.7146 95.322 40.3506 96.302V94.944H39.2306V102ZM47.6706 92.69V94.944H46.2006V95.938H47.6706V99.788C47.6706 101.16 48.5386 102 49.8826 102H50.9606V101.006H49.9246C49.2386 101.006 48.7906 100.544 48.7906 99.76V95.938H50.9606V94.944H48.7906V92.69H47.6706ZM55.6258 102H59.3498C61.3658 102 62.5558 100.908 62.5558 99.144C62.5558 97.772 61.8278 96.974 60.8198 96.638C61.4778 96.358 62.1218 95.63 62.1218 94.72C62.1218 93.124 60.9878 92.2 59.1258 92.2H55.6258V102ZM56.8158 96.26V93.25H59.0978C60.2738 93.25 60.9318 93.74 60.9318 94.748C60.9318 95.756 60.2738 96.26 59.0978 96.26H56.8158ZM56.8158 100.922V97.324H59.1538C60.5958 97.324 61.3378 97.954 61.3378 99.13C61.3378 100.292 60.5958 100.922 59.1538 100.922H56.8158ZM63.9884 92.046V93.614H65.2764V92.046H63.9884ZM64.0724 102H65.1924V94.944H64.0724V102ZM70.2172 102.112C72.3172 102.112 73.8152 100.586 73.8152 98.472C73.8152 96.344 72.3172 94.832 70.2172 94.832C68.1312 94.832 66.6332 96.344 66.6332 98.472C66.6332 100.586 68.1312 102.112 70.2172 102.112ZM70.2172 101.104C68.7752 101.104 67.7812 100.012 67.7812 98.472C67.7812 96.932 68.7752 95.84 70.2172 95.84C71.6732 95.84 72.6672 96.932 72.6672 98.472C72.6672 100.012 71.6732 101.104 70.2172 101.104ZM75.312 104.856H76.432V100.866C76.852 101.622 77.762 102.112 78.756 102.112C80.94 102.112 82.172 100.53 82.172 98.472C82.172 96.414 80.968 94.832 78.784 94.832C77.776 94.832 76.866 95.336 76.432 96.106V94.944H75.312V104.856ZM78.672 101.104C77.258 101.104 76.334 100.068 76.334 98.472C76.334 96.876 77.258 95.84 78.672 95.84C80.086 95.84 81.01 96.876 81.01 98.472C81.01 100.068 80.086 101.104 78.672 101.104ZM85.9912 102.112C87.5452 102.112 88.5812 101.3 88.5812 100.04C88.5812 96.806 84.4512 98.696 84.4512 96.792C84.4512 96.176 84.9972 95.784 85.8232 95.784C86.4672 95.784 87.3492 96.092 87.4472 96.988H88.5392C88.4552 95.686 87.4052 94.832 85.8512 94.832C84.3672 94.832 83.3592 95.616 83.3592 96.806C83.3592 99.858 87.4612 97.968 87.4612 100.068C87.4612 100.642 86.8732 101.132 85.9912 101.132C84.9692 101.132 84.3532 100.642 84.2552 99.732H83.1772C83.2892 101.202 84.3532 102.112 85.9912 102.112ZM95.7037 94.944H94.5277L92.5257 100.544L90.5237 94.944H89.3617L91.9937 102.112L91.0977 104.856H92.1757L93.4637 101.034L95.7037 94.944Z" fill="#ED5939"/>
<path d="M133.283 82H134.473V77.996H136.965C138.911 77.996 140.087 76.82 140.087 75.098C140.087 73.376 138.911 72.2 136.965 72.2H133.283V82ZM134.473 76.932V73.264H136.965C138.351 73.264 138.869 74.132 138.869 75.098C138.869 76.064 138.351 76.932 136.965 76.932H134.473ZM143.762 74.832C142.18 74.832 140.892 75.84 140.766 77.198H141.83C141.886 76.428 142.698 75.784 143.734 75.784C144.938 75.784 145.624 76.442 145.624 77.408C145.624 77.632 145.484 77.786 145.176 77.786H143.58C141.872 77.786 140.766 78.64 140.766 79.984C140.766 81.272 141.732 82.112 143.216 82.112C144.308 82.112 145.246 81.594 145.624 80.782V82H146.744V77.45C146.744 75.882 145.596 74.832 143.762 74.832ZM143.384 81.16C142.488 81.16 141.914 80.698 141.914 79.97C141.914 79.144 142.6 78.64 143.65 78.64H145.624V78.822C145.624 80.278 144.798 81.16 143.384 81.16ZM149.131 72.69V74.944H147.661V75.938H149.131V79.788C149.131 81.16 149.999 82 151.343 82H152.421V81.006H151.385C150.699 81.006 150.251 80.544 150.251 79.76V75.938H152.421V74.944H150.251V72.69H149.131ZM153.554 72.046V73.614H154.842V72.046H153.554ZM153.638 82H154.758V74.944H153.638V82ZM161.785 79.732C161.561 80.614 160.833 81.118 159.685 81.118C158.355 81.118 157.389 80.082 157.305 78.626H162.821C162.835 78.528 162.849 78.29 162.849 78.136C162.849 76.26 161.617 74.832 159.559 74.832C157.487 74.832 156.199 76.358 156.199 78.43C156.199 80.446 157.599 82.112 159.685 82.112C161.435 82.112 162.681 81.174 162.919 79.732H161.785ZM159.559 75.784C160.819 75.784 161.617 76.54 161.701 77.73H157.361C157.571 76.484 158.369 75.784 159.559 75.784ZM164.357 82H165.477V78.192C165.477 76.82 166.345 75.854 167.549 75.854C168.613 75.854 169.313 76.666 169.313 77.87V82H170.433V77.688C170.433 75.966 169.397 74.832 167.801 74.832C166.723 74.832 165.841 75.322 165.477 76.302V74.944H164.357V82ZM172.797 72.69V74.944H171.327V75.938H172.797V79.788C172.797 81.16 173.665 82 175.009 82H176.087V81.006H175.051C174.365 81.006 173.917 80.544 173.917 79.76V75.938H176.087V74.944H173.917V72.69H172.797ZM177.108 78.052H182.218V77.072H177.108V78.052ZM183.978 82H186.862C189.606 82 191.748 80.222 191.748 77.1C191.748 73.978 189.606 72.2 186.862 72.2H183.978V82ZM185.168 80.922V73.278H186.834C188.738 73.278 190.502 74.398 190.502 77.1C190.502 79.802 188.738 80.922 186.834 80.922H185.168ZM198.439 79.732C198.215 80.614 197.487 81.118 196.339 81.118C195.009 81.118 194.043 80.082 193.959 78.626H199.475C199.489 78.528 199.503 78.29 199.503 78.136C199.503 76.26 198.271 74.832 196.213 74.832C194.141 74.832 192.853 76.358 192.853 78.43C192.853 80.446 194.253 82.112 196.339 82.112C198.089 82.112 199.335 81.174 199.573 79.732H198.439ZM196.213 75.784C197.473 75.784 198.271 76.54 198.355 77.73H194.015C194.225 76.484 195.023 75.784 196.213 75.784ZM204.945 75.938V74.944H204.049C203.013 74.944 202.425 75.406 202.131 76.372V74.944H201.011V82H202.131V78.892C202.131 77.226 202.537 75.938 203.965 75.938H204.945ZM206.054 72.046V73.614H207.342V72.046H206.054ZM206.138 82H207.258V74.944H206.138V82ZM210.953 82H212.115L214.705 74.944H213.529L211.527 80.6L209.525 74.944H208.363L210.953 82ZM220.751 79.732C220.527 80.614 219.799 81.118 218.651 81.118C217.321 81.118 216.355 80.082 216.271 78.626H221.787C221.801 78.528 221.815 78.29 221.815 78.136C221.815 76.26 220.583 74.832 218.525 74.832C216.453 74.832 215.165 76.358 215.165 78.43C215.165 80.446 216.565 82.112 218.651 82.112C220.401 82.112 221.647 81.174 221.885 79.732H220.751ZM218.525 75.784C219.785 75.784 220.583 76.54 220.667 77.73H216.327C216.537 76.484 217.335 75.784 218.525 75.784ZM226.319 82.112C227.313 82.112 228.237 81.608 228.657 80.838V82H229.777V72.046H228.657V76.092C228.237 75.336 227.313 74.832 226.319 74.832C224.121 74.832 222.917 76.414 222.917 78.472C222.917 80.53 224.121 82.112 226.319 82.112ZM226.417 81.104C225.003 81.104 224.065 80.068 224.065 78.472C224.065 76.876 225.003 75.84 226.417 75.84C227.831 75.84 228.755 76.876 228.755 78.472C228.755 80.068 227.831 81.104 226.417 81.104ZM149.058 102.112C151.228 102.112 152.978 100.782 153.188 98.948H151.956C151.816 100.152 150.584 101.034 149.058 101.034C147.014 101.034 145.572 99.648 145.572 97.1C145.572 94.552 147.014 93.166 149.058 93.166C150.556 93.166 151.774 94.048 151.942 95.252H153.202C152.936 93.418 151.186 92.088 149.058 92.088C146.622 92.088 144.34 93.712 144.34 97.1C144.34 100.474 146.608 102.112 149.058 102.112ZM159.768 99.732C159.544 100.614 158.816 101.118 157.668 101.118C156.338 101.118 155.372 100.082 155.288 98.626H160.804C160.818 98.528 160.832 98.29 160.832 98.136C160.832 96.26 159.6 94.832 157.542 94.832C155.47 94.832 154.182 96.358 154.182 98.43C154.182 100.446 155.582 102.112 157.668 102.112C159.418 102.112 160.664 101.174 160.902 99.732H159.768ZM157.542 95.784C158.802 95.784 159.6 96.54 159.684 97.73H155.344C155.554 96.484 156.352 95.784 157.542 95.784ZM162.396 102H163.516V92.046H162.396V102ZM165.472 102H166.592V92.046H165.472V102ZM170.942 102.112C172.496 102.112 173.532 101.3 173.532 100.04C173.532 96.806 169.402 98.696 169.402 96.792C169.402 96.176 169.948 95.784 170.774 95.784C171.418 95.784 172.3 96.092 172.398 96.988H173.49C173.406 95.686 172.356 94.832 170.802 94.832C169.318 94.832 168.31 95.616 168.31 96.806C168.31 99.858 172.412 97.968 172.412 100.068C172.412 100.642 171.824 101.132 170.942 101.132C169.92 101.132 169.304 100.642 169.206 99.732H168.128C168.24 101.202 169.304 102.112 170.942 102.112ZM180.252 103.316L181.008 102.728C179.832 101.02 179.23 99.214 179.23 97.31C179.23 95.406 179.832 93.6 181.008 91.892L180.252 91.304C178.894 92.97 178.152 95.154 178.152 97.31C178.152 99.466 178.894 101.65 180.252 103.316ZM182.358 102H183.548V97.996H186.04C187.986 97.996 189.162 96.82 189.162 95.098C189.162 93.376 187.986 92.2 186.04 92.2H182.358V102ZM183.548 96.932V93.264H186.04C187.426 93.264 187.944 94.132 187.944 95.098C187.944 96.064 187.426 96.932 186.04 96.932H183.548ZM190.561 102H193.445C196.189 102 198.331 100.222 198.331 97.1C198.331 93.978 196.189 92.2 193.445 92.2H190.561V102ZM191.751 100.922V93.278H193.417C195.321 93.278 197.085 94.398 197.085 97.1C197.085 99.802 195.321 100.922 193.417 100.922H191.751ZM204.224 102.112C206.394 102.112 208.144 100.782 208.354 98.948H207.122C206.982 100.152 205.75 101.034 204.224 101.034C202.18 101.034 200.738 99.648 200.738 97.1C200.738 94.552 202.18 93.166 204.224 93.166C205.722 93.166 206.94 94.048 207.108 95.252H208.368C208.102 93.418 206.352 92.088 204.224 92.088C201.788 92.088 199.506 93.712 199.506 97.1C199.506 100.474 201.774 102.112 204.224 102.112ZM212.204 102.112C213.758 102.112 214.794 101.3 214.794 100.04C214.794 96.806 210.664 98.696 210.664 96.792C210.664 96.176 211.21 95.784 212.036 95.784C212.68 95.784 213.562 96.092 213.66 96.988H214.752C214.668 95.686 213.618 94.832 212.064 94.832C210.58 94.832 209.572 95.616 209.572 96.806C209.572 99.858 213.674 97.968 213.674 100.068C213.674 100.642 213.086 101.132 212.204 101.132C211.182 101.132 210.566 100.642 210.468 99.732H209.39C209.502 101.202 210.566 102.112 212.204 102.112ZM216.47 103.316C217.828 101.65 218.57 99.466 218.57 97.31C218.57 95.154 217.828 92.97 216.47 91.304L215.714 91.892C216.89 93.6 217.492 95.406 217.492 97.31C217.492 99.214 216.89 101.02 215.714 102.728L216.47 103.316Z" fill="#5F5F5F"/>
<path d="M162.102 192.112C164.146 192.112 165.686 191.104 165.686 189.326C165.686 185.644 159.918 187.198 159.918 184.692C159.918 183.754 160.702 183.166 162.032 183.166C163.348 183.166 164.202 183.88 164.314 184.986H165.49C165.35 183.222 163.992 182.088 162.032 182.088C160.072 182.088 158.714 183.138 158.714 184.692C158.714 188.192 164.44 186.806 164.44 189.326C164.44 190.516 163.46 191.034 162.102 191.034C160.576 191.034 159.68 190.152 159.554 188.794H158.378C158.504 190.796 159.904 192.112 162.102 192.112ZM172.587 184.944H171.411L169.409 190.544L167.407 184.944H166.245L168.877 192.112L167.981 194.856H169.059L170.347 191.034L172.587 184.944ZM176.014 192.112C177.568 192.112 178.604 191.3 178.604 190.04C178.604 186.806 174.474 188.696 174.474 186.792C174.474 186.176 175.02 185.784 175.846 185.784C176.49 185.784 177.372 186.092 177.47 186.988H178.562C178.478 185.686 177.428 184.832 175.874 184.832C174.39 184.832 173.382 185.616 173.382 186.806C173.382 189.858 177.484 187.968 177.484 190.068C177.484 190.642 176.896 191.132 176.014 191.132C174.992 191.132 174.376 190.642 174.278 189.732H173.2C173.312 191.202 174.376 192.112 176.014 192.112ZM180.814 182.69V184.944H179.344V185.938H180.814V189.788C180.814 191.16 181.682 192 183.026 192H184.104V191.006H183.068C182.382 191.006 181.934 190.544 181.934 189.76V185.938H184.104V184.944H181.934V182.69H180.814ZM190.31 189.732C190.086 190.614 189.358 191.118 188.21 191.118C186.88 191.118 185.914 190.082 185.83 188.626H191.346C191.36 188.528 191.374 188.29 191.374 188.136C191.374 186.26 190.142 184.832 188.084 184.832C186.012 184.832 184.724 186.358 184.724 188.43C184.724 190.446 186.124 192.112 188.21 192.112C189.96 192.112 191.206 191.174 191.444 189.732H190.31ZM188.084 185.784C189.344 185.784 190.142 186.54 190.226 187.73H185.886C186.096 186.484 186.894 185.784 188.084 185.784ZM192.882 192H194.002V187.856C194.002 186.652 194.702 185.826 195.892 185.826C196.872 185.826 197.474 186.652 197.474 187.856V192H198.594V187.856C198.594 186.652 199.294 185.826 200.47 185.826C201.464 185.826 202.066 186.652 202.066 187.856V192H203.186V187.562C203.186 185.854 202.262 184.832 200.736 184.832C199.658 184.832 198.72 185.49 198.454 186.33C198.202 185.364 197.292 184.832 196.13 184.832C195.052 184.832 194.268 185.448 194.002 186.302V184.944H192.882V192ZM156.255 212.112C158.425 212.112 160.175 210.782 160.385 208.948H159.153C159.013 210.152 157.781 211.034 156.255 211.034C154.211 211.034 152.769 209.648 152.769 207.1C152.769 204.552 154.211 203.166 156.255 203.166C157.753 203.166 158.971 204.048 159.139 205.252H160.399C160.133 203.418 158.383 202.088 156.255 202.088C153.819 202.088 151.537 203.712 151.537 207.1C151.537 210.474 153.805 212.112 156.255 212.112ZM164.963 212.112C167.063 212.112 168.561 210.586 168.561 208.472C168.561 206.344 167.063 204.832 164.963 204.832C162.877 204.832 161.379 206.344 161.379 208.472C161.379 210.586 162.877 212.112 164.963 212.112ZM164.963 211.104C163.521 211.104 162.527 210.012 162.527 208.472C162.527 206.932 163.521 205.84 164.963 205.84C166.419 205.84 167.413 206.932 167.413 208.472C167.413 210.012 166.419 211.104 164.963 211.104ZM170.002 212H171.122V208.192C171.122 206.82 171.99 205.854 173.194 205.854C174.258 205.854 174.958 206.666 174.958 207.87V212H176.078V207.688C176.078 205.966 175.042 204.832 173.446 204.832C172.368 204.832 171.486 205.322 171.122 206.302V204.944H170.002V212ZM178.442 202.69V204.944H176.972V205.938H178.442V209.788C178.442 211.16 179.31 212 180.654 212H181.732V211.006H180.696C180.01 211.006 179.562 210.544 179.562 209.76V205.938H181.732V204.944H179.562V202.69H178.442ZM186.883 205.938V204.944H185.987C184.951 204.944 184.363 205.406 184.069 206.372V204.944H182.949V212H184.069V208.892C184.069 207.226 184.475 205.938 185.903 205.938H186.883ZM190.926 212.112C193.026 212.112 194.524 210.586 194.524 208.472C194.524 206.344 193.026 204.832 190.926 204.832C188.84 204.832 187.342 206.344 187.342 208.472C187.342 210.586 188.84 212.112 190.926 212.112ZM190.926 211.104C189.484 211.104 188.49 210.012 188.49 208.472C188.49 206.932 189.484 205.84 190.926 205.84C192.382 205.84 193.376 206.932 193.376 208.472C193.376 210.012 192.382 211.104 190.926 211.104ZM196.021 212H197.141V202.046H196.021V212ZM204.599 201.64C201.533 201.64 199.139 204.02 199.139 207.1C199.139 210.166 201.533 212.56 204.599 212.56C207.679 212.56 210.059 210.166 210.059 207.1C210.059 204.02 207.679 201.64 204.599 201.64ZM204.599 211.846C201.967 211.846 199.909 209.774 199.895 207.1C199.909 204.412 201.967 202.34 204.599 202.34C207.245 202.34 209.289 204.412 209.303 207.1C209.289 209.774 207.245 211.846 204.599 211.846ZM207.035 205.728C207.035 204.594 206.251 203.824 204.963 203.824H202.513V210.306H203.297V207.674H205.061C205.663 207.674 206.083 208.122 206.111 208.738L206.223 210.306H206.993L206.881 208.696C206.839 208.038 206.517 207.52 206.013 207.24C206.629 206.946 207.035 206.442 207.035 205.728ZM204.963 206.96H203.297V204.524H204.963C205.873 204.524 206.223 205.084 206.223 205.728C206.223 206.372 205.873 206.96 204.963 206.96Z" fill="#62D136"/>
<path d="M174.783 307H175.987V298.278H179.109V297.2H171.647V298.278H174.783V307ZM182.062 307.112C184.162 307.112 185.66 305.586 185.66 303.472C185.66 301.344 184.162 299.832 182.062 299.832C179.976 299.832 178.478 301.344 178.478 303.472C178.478 305.586 179.976 307.112 182.062 307.112ZM182.062 306.104C180.62 306.104 179.626 305.012 179.626 303.472C179.626 301.932 180.62 300.84 182.062 300.84C183.518 300.84 184.512 301.932 184.512 303.472C184.512 305.012 183.518 306.104 182.062 306.104ZM192.305 307L189.743 303.29L192.081 299.944H190.835L189.127 302.408L187.419 299.944H186.173L188.511 303.29L185.949 307H187.139L189.127 304.158L191.115 307H192.305ZM157.255 327.112C159.425 327.112 161.175 325.782 161.385 323.948H160.153C160.013 325.152 158.781 326.034 157.255 326.034C155.211 326.034 153.769 324.648 153.769 322.1C153.769 319.552 155.211 318.166 157.255 318.166C158.753 318.166 159.971 319.048 160.139 320.252H161.399C161.133 318.418 159.383 317.088 157.255 317.088C154.819 317.088 152.537 318.712 152.537 322.1C152.537 325.474 154.805 327.112 157.255 327.112ZM165.963 327.112C168.063 327.112 169.561 325.586 169.561 323.472C169.561 321.344 168.063 319.832 165.963 319.832C163.877 319.832 162.379 321.344 162.379 323.472C162.379 325.586 163.877 327.112 165.963 327.112ZM165.963 326.104C164.521 326.104 163.527 325.012 163.527 323.472C163.527 321.932 164.521 320.84 165.963 320.84C167.419 320.84 168.413 321.932 168.413 323.472C168.413 325.012 167.419 326.104 165.963 326.104ZM171.002 327H172.122V323.192C172.122 321.82 172.99 320.854 174.194 320.854C175.258 320.854 175.958 321.666 175.958 322.87V327H177.078V322.688C177.078 320.966 176.042 319.832 174.446 319.832C173.368 319.832 172.486 320.322 172.122 321.302V319.944H171.002V327ZM179.442 317.69V319.944H177.972V320.938H179.442V324.788C179.442 326.16 180.31 327 181.654 327H182.732V326.006H181.696C181.01 326.006 180.562 325.544 180.562 324.76V320.938H182.732V319.944H180.562V317.69H179.442ZM187.883 320.938V319.944H186.987C185.951 319.944 185.363 320.406 185.069 321.372V319.944H183.949V327H185.069V323.892C185.069 322.226 185.475 320.938 186.903 320.938H187.883ZM191.926 327.112C194.026 327.112 195.524 325.586 195.524 323.472C195.524 321.344 194.026 319.832 191.926 319.832C189.84 319.832 188.342 321.344 188.342 323.472C188.342 325.586 189.84 327.112 191.926 327.112ZM191.926 326.104C190.484 326.104 189.49 325.012 189.49 323.472C189.49 321.932 190.484 320.84 191.926 320.84C193.382 320.84 194.376 321.932 194.376 323.472C194.376 325.012 193.382 326.104 191.926 326.104ZM197.021 327H198.141V317.046H197.021V327ZM205.599 316.64C202.533 316.64 200.139 319.02 200.139 322.1C200.139 325.166 202.533 327.56 205.599 327.56C208.679 327.56 211.059 325.166 211.059 322.1C211.059 319.02 208.679 316.64 205.599 316.64ZM205.599 326.846C202.967 326.846 200.909 324.774 200.895 322.1C200.909 319.412 202.967 317.34 205.599 317.34C208.245 317.34 210.289 319.412 210.303 322.1C210.289 324.774 208.245 326.846 205.599 326.846ZM208.035 320.728C208.035 319.594 207.251 318.824 205.963 318.824H203.513V325.306H204.297V322.674H206.061C206.663 322.674 207.083 323.122 207.111 323.738L207.223 325.306H207.993L207.881 323.696C207.839 323.038 207.517 322.52 207.013 322.24C207.629 321.946 208.035 321.442 208.035 320.728ZM205.963 321.96H204.297V319.524H205.963C206.873 319.524 207.223 320.084 207.223 320.728C207.223 321.372 206.873 321.96 205.963 321.96Z" fill="#FF0000"/>
<circle cx="51.3518" cy="23.3625" r="8.96703" fill="#ED5A3A"/>
<path d="M32.6704 51.0659C32.6704 42.7816 39.3861 36.0659 47.6704 36.0659H55.033C63.3173 36.0659 70.033 42.7816 70.033 51.0659V58.4835H32.6704V51.0659Z" fill="#ED5A3A"/>
<circle cx="67.6633" cy="42.6633" r="10.3337" fill="white" stroke="#ED5939" stroke-width="2.50276"/>
<path d="M31.9265 218.436C31.9265 215.546 29.5844 213.204 26.6954 213.204C23.8064 213.204 21.4614 215.546 21.4614 218.436C21.4614 221.325 23.8035 223.667 26.6925 223.667C29.5815 223.667 31.9236 221.325 31.9236 218.436H31.9265Z" fill="#ED5A3A"/>
<path fill-rule="evenodd" clip-rule="evenodd" d="M73.9938 211.034H69.7461C67.951 211.034 66.4934 209.579 66.4934 207.781V203.533C66.4934 199.433 63.1679 196.107 59.0686 196.107C54.9693 196.107 51.6439 199.433 51.6439 203.533V207.781C51.6439 209.576 50.1892 211.034 48.3912 211.034H44.1435C40.0442 211.034 36.7188 214.359 36.7188 218.459C36.7188 222.559 40.0442 225.884 44.1435 225.884H48.3912C50.1863 225.884 51.6439 227.339 51.6439 229.137V233.385C51.6439 237.485 54.9693 240.811 59.0686 240.811C63.1679 240.811 66.4934 237.485 66.4934 233.385V229.137C66.4934 227.342 67.9481 225.884 69.7461 225.884H73.9938C78.0931 225.884 81.4186 222.559 81.4186 218.459C81.4186 214.359 78.0931 211.034 73.9938 211.034ZM59.0686 225.614C55.1003 225.614 51.8854 222.399 51.8854 218.43C51.8854 214.461 55.1003 211.246 59.0686 211.246C63.0371 211.246 66.2519 214.461 66.2519 218.43C66.2519 222.399 63.0371 225.614 59.0686 225.614Z" fill="#F2994D"/>
<path d="M45.3417 236.682C39.7615 236.682 40.1106 236.682 40.1106 231.451C40.1106 228.561 37.7685 226.219 34.8795 226.219C31.9905 226.219 29.6484 228.561 29.6484 231.451C29.6484 234.34 31.9905 236.682 34.8795 236.682C40.2183 236.682 40.1135 236.682 40.1135 241.914V241.919C40.1135 242.463 40.1717 242.882 40.2735 243.2C40.8466 245.469 42.9007 247.151 45.3475 247.151C48.2365 247.151 50.5785 244.809 50.5785 241.919C50.5785 239.03 48.2365 236.688 45.3475 236.688L45.3417 236.682Z" fill="url(#paint0_linear_2620_964)"/>
<path d="M40.1077 194.644C40.1077 200.225 40.1077 199.875 34.8766 199.875C31.9876 199.875 29.6455 202.218 29.6455 205.107C29.6455 207.996 31.9876 210.338 34.8766 210.338C37.7656 210.338 40.1077 207.996 40.1077 205.107C40.1077 199.768 40.1077 199.873 45.3387 199.873H45.3446C45.8886 199.873 46.3076 199.814 46.6246 199.713C48.894 199.139 50.5756 197.085 50.5756 194.638C50.5756 191.749 48.2335 189.407 45.3446 189.407C42.4555 189.407 40.1134 191.749 40.1134 194.638L40.1077 194.644Z" fill="url(#paint1_linear_2620_964)"/>
<path d="M234 2H243V332H234" stroke="#ED5939" stroke-width="2.61597"/>
<path d="M69.1099 37.4322L72.4028 40.7251L65.8332 47.2946C64.9239 48.2039 63.4496 48.2039 62.5403 47.2946C61.631 46.3853 61.631 44.911 62.5403 44.0017L69.1099 37.4322Z" stroke="#ED5A3A"/>
<rect x="70.0332" y="35.2784" width="6.39742" height="1.17571" transform="rotate(45 70.0332 35.2784)" stroke="#ED5A3A"/>
<path d="M66.3411 39.802C66.7763 40.1189 67.9032 41.0297 67.7864 42.0489C67.6697 43.0682 68.8644 43.9111 69.418 44.1097" stroke="#ED5A3A"/>
<path d="M65.3081 42.791L63.3081 44.791" stroke="#ED5A3A"/>
<defs>
<linearGradient id="paint0_linear_2620_964" x1="34.51" y1="232.204" x2="46.5759" y2="241.855" gradientUnits="userSpaceOnUse">
<stop offset="0.07" stop-color="#EC593A"/>
<stop offset="1" stop-color="#F1984C"/>
</linearGradient>
<linearGradient id="paint1_linear_2620_964" x1="35.6301" y1="205.476" x2="45.2813" y2="193.411" gradientUnits="userSpaceOnUse">
<stop offset="0.07" stop-color="#EC593A"/>
<stop offset="1" stop-color="#F1984C"/>
</linearGradient>
</defs>
</svg>
