<svg width="264" height="129" viewBox="0 0 264 129" fill="none" xmlns="http://www.w3.org/2000/svg">
<path d="M18.9336 31.9031C17.3871 29.2244 13.9299 28.2982 11.2512 29.8448C8.57253 31.3913 7.64609 34.8484 9.19264 37.5271C10.7392 40.2058 14.1963 41.132 16.875 39.5855C19.5537 38.0389 20.4802 34.582 18.9336 31.9031ZM11.6281 36.121C10.8548 34.7816 11.318 33.0531 12.6573 32.2799C13.9967 31.5066 15.7252 31.9697 16.4984 33.3091C17.2717 34.6484 16.8086 36.3769 15.4692 37.1502C14.1299 37.9235 12.4014 37.4605 11.6281 36.121Z" fill="#ED5939"/>
<path d="M9.61104 26.9895C11.5056 25.8957 13.8541 25.3979 16.2231 25.5883C20.8645 25.9611 23.4122 32.3668 24.002 34.8036C24.1075 35.2388 24.214 35.6403 24.3168 36.0287C24.8926 38.2011 25.0926 39.1364 24.2536 40.483C23.9649 40.9462 23.4702 41.3824 22.7832 41.779C21.4699 42.5372 19.9883 42.8331 19.9771 42.8354L19.8785 42.8542L19.7832 42.885C15.1253 44.3859 11.5328 43.9764 9.10581 41.6678C7.36164 40.0085 6.57365 37.7353 6.21974 36.1206C5.77067 34.0719 5.82992 32.184 6.08771 31.222C6.5369 29.5451 7.78818 28.042 9.61104 26.9895ZM8.79741 25.5803C6.65184 26.819 5.08902 28.662 4.51583 30.8007C3.38416 35.0241 5.55182 49.1804 20.2824 44.4337C20.2824 44.4337 22.0113 44.1037 23.5969 43.1882C24.3901 42.7303 25.1471 42.1262 25.6348 41.3434C27.0978 38.9956 26.2624 37.2231 25.5838 34.4206C24.9053 31.6181 22.0677 24.4251 16.3536 23.9661C13.533 23.7397 10.8886 24.3729 8.79741 25.5803Z" fill="#ED5939"/>
<path d="M44.0292 31.5538C46.2164 33.7409 46.2164 37.3199 44.0291 39.5071C41.842 41.6943 38.263 41.6943 36.0759 39.5071C33.8887 37.32 33.8887 33.741 36.0759 31.5539C38.2631 29.3666 41.8421 29.3666 44.0292 31.5538ZM38.0643 37.5187C39.1579 38.6123 40.9472 38.6124 42.0408 37.5188C43.1344 36.4253 43.1344 34.6358 42.0408 33.5422C40.9472 32.4486 39.1578 32.4486 38.0642 33.5422C36.9706 34.6358 36.9707 36.4251 38.0643 37.5187Z" fill="#F2994A"/>
<path d="M31.856 26.4229L33.0066 27.5736C31.3007 29.2795 30.9718 32.2654 32.0288 36.4483C32.2958 37.47 33.3743 40.5976 34.8067 41.6229C36.6564 42.9468 39.7984 44.0644 42.2253 43.639C43.3317 43.445 45.4258 42.882 47.0176 41.2902C48.1301 40.1776 48.8237 38.7218 49.079 36.9634C49.4251 34.5795 49.0658 32.1786 48.0674 30.2033C47.1336 28.3553 45.7264 27.0359 44.1052 26.4882C41.6635 25.6634 35.7382 24.8432 33.0073 27.5729L31.856 26.4229ZM31.8568 26.4221C35.2611 23.0192 41.9555 24.0447 44.6257 24.9468C48.7682 26.3463 51.5126 31.5243 50.6892 37.1975C50.3501 39.5329 49.3848 41.2245 48.1681 42.4412C46.4293 44.18 44.1769 44.9492 42.506 45.2421C39.6658 45.7401 36.1091 44.5565 33.8595 42.9464C31.6099 41.3363 30.4524 36.8528 30.4524 36.8528C29.1038 31.5202 29.9799 28.2984 31.8568 26.4221Z" fill="#F2994A"/>
<path d="M65.217 39.6841C62.1239 39.6841 59.5932 37.1534 59.5932 34.0601C59.5932 30.967 62.1239 28.4363 65.217 28.4363C68.3101 28.4363 70.8408 30.967 70.8408 34.0601C70.8407 37.1535 68.3101 39.6841 65.217 39.6841ZM65.217 31.2484C63.6705 31.2484 62.4051 32.5136 62.4051 34.0601C62.4051 35.6067 63.6705 36.872 65.217 36.872C66.7636 36.872 68.0289 35.6067 68.0289 34.0601C68.0289 32.5136 66.7636 31.2484 65.217 31.2484Z" fill="#FFA3FB"/>
<path d="M77.453 34.7043L75.8257 34.7043C75.8257 32.2918 73.9469 29.9479 70.2418 27.7376C69.3306 27.2038 66.3564 25.7549 64.6185 26.0428C62.3745 26.4146 59.3625 27.8461 57.9472 29.8629C57.302 30.7825 56.2194 32.6613 56.2194 34.9125C56.2194 36.4859 56.7584 38.0057 57.8213 39.4296C59.2622 41.36 61.214 42.8037 63.3167 43.4945C65.2837 44.1408 67.2117 44.0788 68.7454 43.3197C71.0551 42.1764 75.8249 38.5665 75.8257 34.7053L77.453 34.7043ZM77.453 34.7057C77.452 39.5191 71.9932 43.5277 69.4672 44.7779C65.5485 46.7174 59.9465 44.9966 56.5172 40.4028C55.1056 38.5116 54.592 36.633 54.592 34.9123C54.592 32.4532 55.6408 30.3166 56.6152 28.9281C58.2714 26.5676 61.6232 24.8896 64.3524 24.4373C67.0817 23.9851 71.0704 26.337 71.0704 26.337C75.7948 29.1539 77.4535 32.0516 77.453 34.7057Z" fill="#FFA3FB"/>
<path d="M179.826 100.495C179.606 100.233 179.495 99.9473 179.495 99.6368C179.495 99.3182 179.606 99.0282 179.826 98.7667C180.055 98.5053 180.37 98.3745 180.77 98.3745H184.226V85.776H180.77C180.37 85.776 180.055 85.6453 179.826 85.3838C179.606 85.1224 179.495 84.8364 179.495 84.526C179.495 84.2073 179.606 83.9173 179.826 83.6558C180.055 83.3944 180.37 83.2637 180.77 83.2637H185.488C185.823 83.2637 186.113 83.3944 186.358 83.6558C186.612 83.9091 186.738 84.1992 186.738 84.526V98.3745H190.207C190.607 98.3745 190.917 98.5053 191.138 98.7667C191.367 99.0282 191.481 99.3182 191.481 99.6368C191.481 99.9473 191.367 100.233 191.138 100.495C190.917 100.756 190.607 100.887 190.207 100.887H180.77C180.37 100.887 180.055 100.756 179.826 100.495Z" fill="#F2994A"/>
<path d="M193.822 97.1245V87.0628C193.822 86.017 194.19 85.1265 194.925 84.3912C195.66 83.6558 196.547 83.2882 197.584 83.2882H201.984C203.022 83.2882 203.908 83.6558 204.643 84.3912C205.379 85.1265 205.746 86.017 205.746 87.0628V97.1245C205.746 98.1621 205.379 99.0486 204.643 99.7839C203.916 100.519 203.03 100.887 201.984 100.887H197.584C196.547 100.887 195.66 100.519 194.925 99.7839C194.19 99.0486 193.822 98.1621 193.822 97.1245ZM196.334 93.9381L203.16 86.6584C203.071 86.4051 202.919 86.2009 202.707 86.0456C202.495 85.8822 202.254 85.8005 201.984 85.8005H197.584C197.249 85.8005 196.955 85.9272 196.702 86.1804C196.457 86.4337 196.334 86.7279 196.334 87.0628V93.9381ZM196.408 97.5289C196.498 97.7822 196.649 97.9864 196.861 98.1417C197.074 98.2969 197.315 98.3745 197.584 98.3745H201.984C202.319 98.3745 202.609 98.252 202.854 98.0069C203.107 97.7536 203.234 97.4595 203.234 97.1245V90.2492L196.408 97.5289Z" fill="#F2994A"/>
<path d="M208.136 97.1245V87.0628C208.136 86.017 208.504 85.1265 209.239 84.3912C209.974 83.6558 210.861 83.2882 211.899 83.2882H216.298C217.336 83.2882 218.222 83.6558 218.958 84.3912C219.693 85.1265 220.061 86.017 220.061 87.0628V97.1245C220.061 98.1621 219.693 99.0486 218.958 99.7839C218.23 100.519 217.344 100.887 216.298 100.887H211.899C210.861 100.887 209.974 100.519 209.239 99.7839C208.504 99.0486 208.136 98.1621 208.136 97.1245ZM210.648 93.9381L217.475 86.6584C217.385 86.4051 217.234 86.2009 217.021 86.0456C216.809 85.8822 216.568 85.8005 216.298 85.8005H211.899C211.564 85.8005 211.269 85.9272 211.016 86.1804C210.771 86.4337 210.648 86.7279 210.648 87.0628V93.9381ZM210.722 97.5289C210.812 97.7822 210.963 97.9864 211.175 98.1417C211.388 98.2969 211.629 98.3745 211.899 98.3745H216.298C216.633 98.3745 216.923 98.252 217.168 98.0069C217.422 97.7536 217.548 97.4595 217.548 97.1245V90.2492L210.722 97.5289Z" fill="#F2994A"/>
<path d="M222.769 100.495C222.548 100.233 222.438 99.9473 222.438 99.6368C222.438 99.3182 222.548 99.0282 222.769 98.7667C222.998 98.5053 223.312 98.3745 223.713 98.3745H227.169V85.776H223.713C223.312 85.776 222.998 85.6453 222.769 85.3838C222.548 85.1224 222.438 84.8364 222.438 84.526C222.438 84.2073 222.548 83.9173 222.769 83.6558C222.998 83.3944 223.312 83.2637 223.713 83.2637H228.431C228.766 83.2637 229.056 83.3944 229.301 83.6558C229.554 83.9091 229.681 84.1992 229.681 84.526V98.3745H233.149C233.55 98.3745 233.86 98.5053 234.081 98.7667C234.31 99.0282 234.424 99.3182 234.424 99.6368C234.424 99.9473 234.31 100.233 234.081 100.495C233.86 100.756 233.55 100.887 233.149 100.887H223.713C223.312 100.887 222.998 100.756 222.769 100.495Z" fill="#F2994A"/>
<path d="M236.765 97.1245V87.0628C236.765 86.017 237.132 85.1265 237.868 84.3912C238.603 83.6558 239.489 83.2882 240.527 83.2882H244.927C245.964 83.2882 246.851 83.6558 247.586 84.3912C248.321 85.1265 248.689 86.017 248.689 87.0628V97.1245C248.689 98.1621 248.321 99.0486 247.586 99.7839C246.859 100.519 245.973 100.887 244.927 100.887H240.527C239.489 100.887 238.603 100.519 237.868 99.7839C237.132 99.0486 236.765 98.1621 236.765 97.1245ZM239.277 93.9381L246.103 86.6584C246.013 86.4051 245.862 86.2009 245.65 86.0456C245.437 85.8822 245.196 85.8005 244.927 85.8005H240.527C240.192 85.8005 239.898 85.9272 239.645 86.1804C239.4 86.4337 239.277 86.7279 239.277 87.0628V93.9381ZM239.351 97.5289C239.44 97.7822 239.592 97.9864 239.804 98.1417C240.016 98.2969 240.257 98.3745 240.527 98.3745H244.927C245.262 98.3745 245.552 98.252 245.797 98.0069C246.05 97.7536 246.177 97.4595 246.177 97.1245V90.2492L239.351 97.5289Z" fill="#F2994A"/>
<path d="M251.398 100.495C251.177 100.233 251.067 99.9473 251.067 99.6368C251.067 99.3182 251.177 99.0282 251.398 98.7667C251.626 98.5053 251.941 98.3745 252.341 98.3745H255.797V85.776H252.341C251.941 85.776 251.626 85.6453 251.398 85.3838C251.177 85.1224 251.067 84.8364 251.067 84.526C251.067 84.2073 251.177 83.9173 251.398 83.6558C251.626 83.3944 251.941 83.2637 252.341 83.2637H257.06C257.395 83.2637 257.685 83.3944 257.93 83.6558C258.183 83.9091 258.31 84.1992 258.31 84.526V98.3745H261.778C262.178 98.3745 262.489 98.5053 262.709 98.7667C262.938 99.0282 263.052 99.3182 263.052 99.6368C263.052 99.9473 262.938 100.233 262.709 100.495C262.489 100.756 262.178 100.887 261.778 100.887H252.341C251.941 100.887 251.626 100.756 251.398 100.495Z" fill="#F2994A"/>
<rect x="68.8083" y="79.2104" width="111.805" height="22.8173" fill="white"/>
<rect x="68.8083" y="21.0264" width="119.791" height="22.8173" fill="white"/>
<path fill-rule="evenodd" clip-rule="evenodd" d="M89.9462 8.60006C91.5834 3.88994 96.1316 0.491699 101.38 0.491699H118.726C126.09 0.491699 132.061 6.46279 132.061 13.8268V115.198C132.061 122.562 126.09 128.533 118.726 128.533H108.058C101.564 128.533 96.1423 123.874 94.9636 117.71C83.4823 116.497 73.3869 106.818 73.3869 95.1717C73.3869 92.038 74.1823 89.1923 75.3919 86.5335C69.3721 81.1303 65.3859 73.1402 65.3859 64.4686C65.3859 57.3712 68.322 50.7738 72.6024 45.6814C69.9568 41.9001 68.0529 37.3923 68.0529 32.4951C68.0529 20.0113 78.7127 9.73972 89.9463 8.59915L89.9462 8.60006ZM108.058 123.2C103.642 123.2 100.057 119.608 100.057 115.186V115.175C100.057 113.703 98.8617 112.508 97.3901 112.508C87.7864 112.508 78.721 104.789 78.721 95.1722C78.721 92.1873 79.7318 89.5632 81.0653 87.1093C81.6892 85.9603 81.388 84.5244 80.3509 83.7244C74.6407 79.3216 70.7198 72.2349 70.7198 64.4682C70.7198 57.9744 73.7891 52.0155 77.9719 47.6852C78.9078 46.7148 78.9745 45.1991 78.1267 44.1537C75.5264 40.9426 73.3879 36.9503 73.3879 32.4962C73.3879 22.1936 82.7201 13.8271 92.0166 13.8271C91.9154 13.8271 92.0571 12.5257 92.0571 11.5387H94.6979C95.1622 8.30381 98.0208 5.82607 101.381 5.82607H118.727C123.147 5.82607 126.728 9.4075 126.728 13.8271V115.198C126.728 119.618 123.147 123.2 118.727 123.2H108.059L108.058 123.2Z" fill="#DDDDDD"/>
<path fill-rule="evenodd" clip-rule="evenodd" d="M163.824 117.71C162.646 123.874 157.223 128.533 150.73 128.533H140.062C132.698 128.533 126.726 122.562 126.726 115.198V13.8263C126.726 6.4623 132.698 0.491211 140.062 0.491211H157.408C162.656 0.491211 167.205 3.88915 168.842 8.59957C180.075 9.74139 190.735 20.0117 190.735 32.4955C190.735 37.3925 188.831 41.8993 186.186 45.6819C190.466 50.773 193.402 57.3717 193.402 64.469C193.402 73.1391 189.415 81.1295 183.396 86.534C184.607 89.1927 185.401 92.0384 185.401 95.1721C185.401 106.819 175.307 116.498 163.824 117.711L163.824 117.71ZM166.732 11.1599H165.854C164.913 11.1599 164.233 11.1599 164.091 11.5385C163.627 8.30367 160.768 5.82593 157.408 5.82593H140.062C135.642 5.82593 132.06 9.40736 132.06 13.827V115.198C132.06 119.618 135.642 123.199 140.062 123.199H150.73C155.146 123.199 158.731 119.607 158.731 115.185V115.174C158.731 113.703 159.926 112.507 161.398 112.507C171.001 112.507 180.067 104.789 180.067 95.1718C180.067 92.1869 179.056 89.5628 177.723 87.1088C177.099 85.9599 177.4 84.524 178.437 83.724C184.147 79.3211 188.068 72.2345 188.068 64.4678C188.068 57.974 184.999 52.0151 180.816 47.6847C179.88 46.7144 179.813 45.1987 180.661 44.1533C183.261 40.9422 185.4 36.9499 185.4 32.4958C185.4 22.1932 176.068 13.8267 166.771 13.8267C166.873 13.8267 166.731 11.1596 166.731 11.1596L166.732 11.1599Z" fill="#DDDDDD"/>
<path fill-rule="evenodd" clip-rule="evenodd" d="M117.622 51.1651H108.058C106.586 51.1651 105.391 49.9697 105.391 48.4981C105.391 47.0265 106.586 45.8311 108.058 45.8311H118.726C119.433 45.8311 120.113 46.1109 120.612 46.6121L131.28 57.2802C132.321 58.3208 132.321 60.0115 131.28 61.0509C130.239 62.0915 128.549 62.0915 127.509 61.0509L117.622 51.1637L117.622 51.1651Z" fill="#DDDDDD"/>
<path fill-rule="evenodd" clip-rule="evenodd" d="M141.165 51.1652L131.278 61.0524C130.237 62.093 128.547 62.093 127.507 61.0524C126.467 60.0118 126.467 58.3211 127.507 57.2817L138.175 46.6136C138.674 46.1123 139.354 45.8325 140.061 45.8325H150.729C152.201 45.8325 153.396 47.0279 153.396 48.4995C153.396 49.9712 152.201 51.1666 150.729 51.1666H141.165L141.165 51.1652Z" fill="#DDDDDD"/>
<path fill-rule="evenodd" clip-rule="evenodd" d="M117.622 77.8351L127.509 67.948C128.55 66.9073 130.241 66.9073 131.28 67.948C132.321 68.9886 132.321 70.6793 131.28 71.7187L120.612 82.3868C120.113 82.888 119.433 83.1678 118.726 83.1678H108.058C106.586 83.1678 105.391 81.9724 105.391 80.5008C105.391 79.0292 106.586 77.8338 108.058 77.8338H117.622L117.622 77.8351Z" fill="#DDDDDD"/>
<path fill-rule="evenodd" clip-rule="evenodd" d="M141.165 77.8352H150.73C152.201 77.8352 153.397 79.0306 153.397 80.5023C153.397 81.9739 152.201 83.1693 150.73 83.1693H140.061C139.354 83.1693 138.674 82.8895 138.175 82.3882L127.507 71.7201C126.467 70.6795 126.467 68.9888 127.507 67.9494C128.548 66.9088 130.239 66.9088 131.278 67.9494L141.165 77.8366L141.165 77.8352Z" fill="#DDDDDD"/>
<path fill-rule="evenodd" clip-rule="evenodd" d="M102.723 40.498C98.3075 40.498 94.7224 44.0831 94.7224 48.4991C94.7224 52.9151 98.3075 56.5002 102.723 56.5002C107.139 56.5002 110.725 52.9151 110.725 48.4991C110.725 44.0831 107.139 40.498 102.723 40.498ZM102.723 45.8321C104.195 45.8321 105.391 47.0275 105.391 48.4991C105.391 49.9707 104.195 51.1661 102.723 51.1661C101.252 51.1661 100.056 49.9707 100.056 48.4991C100.056 47.0275 101.252 45.8321 102.723 45.8321Z" fill="#DDDDDD"/>
<path fill-rule="evenodd" clip-rule="evenodd" d="M156.064 40.498C151.648 40.498 148.063 44.0831 148.063 48.4991C148.063 52.9151 151.648 56.5002 156.064 56.5002C160.48 56.5002 164.065 52.9151 164.065 48.4991C164.065 44.0831 160.48 40.498 156.064 40.498ZM156.064 45.8321C157.536 45.8321 158.731 47.0275 158.731 48.4991C158.731 49.9707 157.536 51.1661 156.064 51.1661C154.592 51.1661 153.397 49.9707 153.397 48.4991C153.397 47.0275 154.592 45.8321 156.064 45.8321Z" fill="#DDDDDD"/>
<path fill-rule="evenodd" clip-rule="evenodd" d="M102.723 72.5015C98.3075 72.5015 94.7224 76.0866 94.7224 80.5025C94.7224 84.9185 98.3075 88.5036 102.723 88.5036C107.139 88.5036 110.725 84.9185 110.725 80.5025C110.725 76.0866 107.139 72.5015 102.723 72.5015ZM102.723 77.8355C104.195 77.8355 105.391 79.0309 105.391 80.5025C105.391 81.9742 104.195 83.1696 102.723 83.1696C101.252 83.1696 100.056 81.9742 100.056 80.5025C100.056 79.0309 101.252 77.8355 102.723 77.8355Z" fill="#DDDDDD"/>
<path fill-rule="evenodd" clip-rule="evenodd" d="M156.064 72.5015C151.648 72.5015 148.063 76.0866 148.063 80.5025C148.063 84.9185 151.648 88.5036 156.064 88.5036C160.48 88.5036 164.065 84.9185 164.065 80.5025C164.065 76.0866 160.48 72.5015 156.064 72.5015ZM156.064 77.8355C157.536 77.8355 158.731 79.0309 158.731 80.5025C158.731 81.9742 157.536 83.1696 156.064 83.1696C154.592 83.1696 153.397 81.9742 153.397 80.5025C153.397 79.0309 154.592 77.8355 156.064 77.8355Z" fill="#DDDDDD"/>
<path fill-rule="evenodd" clip-rule="evenodd" d="M113.392 96.5107C108.976 96.5107 105.391 100.096 105.391 104.512C105.391 108.928 108.976 112.513 113.392 112.513C117.808 112.513 121.393 108.928 121.393 104.512C121.393 100.096 117.808 96.5107 113.392 96.5107ZM113.392 101.845C114.863 101.845 116.059 103.04 116.059 104.512C116.059 105.983 114.863 107.179 113.392 107.179C111.92 107.179 110.725 105.983 110.725 104.512C110.725 103.04 111.92 101.845 113.392 101.845Z" fill="#DDDDDD"/>
<path fill-rule="evenodd" clip-rule="evenodd" d="M145.396 96.5107C140.98 96.5107 137.395 100.096 137.395 104.512C137.395 108.928 140.98 112.513 145.396 112.513C149.812 112.513 153.397 108.928 153.397 104.512C153.397 100.096 149.812 96.5107 145.396 96.5107ZM145.396 101.845C146.867 101.845 148.063 103.04 148.063 104.512C148.063 105.983 146.867 107.179 145.396 107.179C143.924 107.179 142.729 105.983 142.729 104.512C142.729 103.04 143.924 101.845 145.396 101.845Z" fill="#DDDDDD"/>
<path fill-rule="evenodd" clip-rule="evenodd" d="M113.392 16.4941C108.976 16.4941 105.391 20.0792 105.391 24.4952C105.391 28.9112 108.976 32.4963 113.392 32.4963C117.808 32.4963 121.393 28.9112 121.393 24.4952C121.393 20.0792 117.808 16.4941 113.392 16.4941ZM113.392 21.8282C114.863 21.8282 116.059 23.0236 116.059 24.4952C116.059 25.9668 114.863 27.1622 113.392 27.1622C111.92 27.1622 110.725 25.9668 110.725 24.4952C110.725 23.0236 111.92 21.8282 113.392 21.8282Z" fill="#DDDDDD"/>
<path fill-rule="evenodd" clip-rule="evenodd" d="M145.396 16.4941C140.98 16.4941 137.395 20.0792 137.395 24.4952C137.395 28.9112 140.98 32.4963 145.396 32.4963C149.812 32.4963 153.397 28.9112 153.397 24.4952C153.397 20.0792 149.812 16.4941 145.396 16.4941ZM145.396 21.8282C146.867 21.8282 148.063 23.0236 148.063 24.4952C148.063 25.9668 146.867 27.1622 145.396 27.1622C143.924 27.1622 142.729 25.9668 142.729 24.4952C142.729 23.0236 143.924 21.8282 145.396 21.8282Z" fill="#DDDDDD"/>
<path fill-rule="evenodd" clip-rule="evenodd" d="M99.1939 21.8278H108.057C109.529 21.8278 110.724 23.0232 110.724 24.4948C110.724 25.9665 109.529 27.1619 108.057 27.1619H97.3888C96.2982 27.1619 95.3171 26.4975 94.9135 25.4843L89.5795 12.1491C89.033 10.7835 89.6973 9.22852 91.0654 8.68444C92.431 8.13793 93.986 8.80232 94.5301 10.1704L99.1951 21.8278L99.1939 21.8278Z" fill="#DDDDDD"/>
<path fill-rule="evenodd" clip-rule="evenodd" d="M159.594 21.8278L164.259 10.1704C164.803 8.80231 166.358 8.13793 167.723 8.68444C169.091 9.22858 169.756 10.7835 169.209 12.1491L163.875 25.4843C163.473 26.4975 162.491 27.1619 161.4 27.1619H150.732C149.26 27.1619 148.065 25.9665 148.065 24.4948C148.065 23.0232 149.26 21.8278 150.732 21.8278H159.595L159.594 21.8278Z" fill="#DDDDDD"/>
<path fill-rule="evenodd" clip-rule="evenodd" d="M104.373 107.176L99.7768 116.377C99.1184 117.695 97.5146 118.231 96.1978 117.572C94.8798 116.914 94.3464 115.31 95.0024 113.996L100.336 103.315C100.79 102.411 101.715 101.839 102.726 101.839L108.06 101.844C109.532 101.846 110.727 103.042 110.725 104.514C110.722 105.985 109.527 107.181 108.055 107.178L104.373 107.176Z" fill="#DDDDDD"/>
<path fill-rule="evenodd" clip-rule="evenodd" d="M154.415 107.176L150.732 107.178C149.261 107.181 148.065 105.986 148.063 104.514C148.061 103.042 149.255 101.846 150.728 101.844L156.062 101.839C157.073 101.839 157.998 102.41 158.451 103.315L163.785 113.996C164.441 115.31 163.908 116.914 162.59 117.572C161.272 118.231 159.669 117.695 159.011 116.377L154.415 107.176Z" fill="#DDDDDD"/>
<path fill-rule="evenodd" clip-rule="evenodd" d="M88.1479 59.1672H94.7225C96.1941 59.1672 97.3895 60.3626 97.3895 61.8342C97.3895 63.3058 96.1941 64.5012 94.7225 64.5012H86.7214C85.8308 64.5012 84.9962 64.056 84.5021 63.3142L73.834 47.3121C73.0184 46.0857 73.3482 44.4295 74.5722 43.6127C75.7985 42.7971 77.4547 43.1269 78.2716 44.3509L88.1478 59.1658L88.1479 59.1672Z" fill="#DDDDDD"/>
<path fill-rule="evenodd" clip-rule="evenodd" d="M170.64 59.1668L180.516 44.3519C181.331 43.1279 182.988 42.7969 184.215 43.6137C185.439 44.4293 185.77 46.0854 184.953 47.3131L174.285 63.3152C173.792 64.057 172.957 64.5023 172.066 64.5023H164.065C162.593 64.5023 161.398 63.3069 161.398 61.8352C161.398 60.3636 162.593 59.1682 164.065 59.1682H170.64L170.64 59.1668Z" fill="#DDDDDD"/>
<path fill-rule="evenodd" clip-rule="evenodd" d="M77.12 87.9702L87.7881 95.9712C88.9668 96.8535 90.6397 96.6166 91.5219 95.4378C92.4042 94.2591 92.1673 92.5863 90.9885 91.704L80.3204 83.7029C79.1417 82.8207 77.4689 83.0576 76.5866 84.2363C75.7044 85.4151 75.9413 87.0879 77.12 87.9702Z" fill="#DDDDDD"/>
<path fill-rule="evenodd" clip-rule="evenodd" d="M178.467 83.7029L167.799 91.704C166.62 92.5863 166.383 94.2591 167.266 95.4378C168.148 96.6166 169.821 96.8535 170.999 95.9712L181.667 87.9702C182.846 87.0879 183.083 85.4151 182.201 84.2363C181.319 83.0576 179.646 82.8207 178.467 83.7029Z" fill="#DDDDDD"/>
</svg>
