<svg width="234" height="234" viewBox="0 0 234 234" fill="none" xmlns="http://www.w3.org/2000/svg">
<path d="M40.4118 49.4583V42.6561C40.4118 42.505 40.4689 42.3724 40.5831 42.2582C40.6973 42.144 40.8299 42.0869 40.981 42.0869H44.103C44.5709 42.0869 44.9706 42.2527 45.3021 42.5842C45.6337 42.9158 45.7995 43.3173 45.7995 43.7889V48.3145C45.7995 48.786 45.6337 49.1894 45.3021 49.5247C44.9706 49.8562 44.5709 50.022 44.103 50.022H40.981C40.8299 50.022 40.6973 49.9649 40.5831 49.8507C40.4689 49.7365 40.4118 49.6057 40.4118 49.4583ZM41.5446 48.8892H44.103C44.2615 48.8892 44.3941 48.8339 44.5009 48.7234C44.6114 48.6092 44.6667 48.4729 44.6667 48.3145V43.7889C44.6667 43.6305 44.6114 43.496 44.5009 43.3855C44.3941 43.275 44.2615 43.2197 44.103 43.2197H41.5446V48.8892Z" fill="#62D136"/>
<path d="M46.8659 49.4583V42.6561C46.8659 42.4792 46.923 42.3411 47.0372 42.2416C47.1514 42.1385 47.2841 42.0869 47.4351 42.0869H50.2754C50.8243 42.0869 51.2903 42.2803 51.6734 42.6671C52.0602 43.0539 52.2536 43.5218 52.2536 44.0707V44.6343C52.2536 45.0985 52.1099 45.5111 51.8226 45.8721C51.5353 46.2331 51.1706 46.4652 50.7285 46.5683L51.8558 47.9387C52.0326 48.1524 52.1413 48.3237 52.1818 48.4526C52.2223 48.5816 52.2426 48.7952 52.2426 49.0936V49.4583C52.2426 49.6389 52.1836 49.7807 52.0657 49.8838C51.9479 49.9833 51.8171 50.033 51.6734 50.033C51.5334 50.033 51.4045 49.9833 51.2866 49.8838C51.1687 49.7807 51.1098 49.6389 51.1098 49.4583V48.8339L49.3028 46.6291H47.9987V49.4583C47.9987 49.6352 47.9398 49.7733 47.8219 49.8728C47.704 49.9722 47.5733 50.022 47.4296 50.022C47.2896 50.022 47.1607 49.9722 47.0428 49.8728C46.9249 49.7733 46.8659 49.6352 46.8659 49.4583ZM47.9987 45.4963H50.2754C50.5075 45.4963 50.7064 45.4116 50.8722 45.2422C51.0379 45.0727 51.1208 44.8701 51.1208 44.6343V44.0707C51.1208 43.8386 51.0379 43.6397 50.8722 43.4739C50.7064 43.3044 50.5075 43.2197 50.2754 43.2197H47.9987V45.4963Z" fill="#62D136"/>
<path d="M53.3201 48.3256V42.6561C53.3201 42.4792 53.379 42.3411 53.4969 42.2416C53.6148 42.1422 53.7437 42.0924 53.8837 42.0924C54.0274 42.0924 54.1582 42.1422 54.2761 42.2416C54.3939 42.3411 54.4529 42.4792 54.4529 42.6561V48.3256C54.4529 48.4766 54.5081 48.6092 54.6187 48.7234C54.7329 48.8339 54.8655 48.8892 55.0165 48.8892H57.0113C57.1624 48.8892 57.2931 48.8339 57.4037 48.7234C57.5179 48.6092 57.575 48.4766 57.575 48.3256V42.6561C57.575 42.4792 57.6339 42.3411 57.7518 42.2416C57.8697 42.1422 57.9986 42.0924 58.1386 42.0924C58.2823 42.0924 58.413 42.1422 58.5309 42.2416C58.6488 42.3411 58.7078 42.4792 58.7078 42.6561V48.3256C58.7078 48.7934 58.542 49.1931 58.2104 49.5247C57.8826 49.8562 57.4829 50.022 57.0113 50.022H55.0165C54.5487 50.022 54.149 49.8562 53.8174 49.5247C53.4859 49.1931 53.3201 48.7934 53.3201 48.3256Z" fill="#62D136"/>
<path d="M59.7742 48.3145V43.7889C59.7742 43.3173 59.94 42.9158 60.2716 42.5842C60.6031 42.2527 61.0028 42.0869 61.4707 42.0869H63.4544C63.9223 42.0869 64.322 42.2527 64.6535 42.5842C64.9851 42.9158 65.1509 43.3173 65.1509 43.7889C65.1509 43.9694 65.0919 44.1112 64.974 44.2144C64.8561 44.3138 64.7254 44.3635 64.5817 44.3635C64.4417 44.3635 64.3128 44.3138 64.1949 44.2144C64.077 44.1112 64.0181 43.9694 64.0181 43.7889C64.0181 43.6341 63.9628 43.5015 63.8523 43.391C63.7418 43.2768 63.6091 43.2197 63.4544 43.2197H61.4707C61.3196 43.2197 61.187 43.2768 61.0728 43.391C60.9623 43.5015 60.907 43.6341 60.907 43.7889V48.3145C60.907 48.4729 60.9623 48.6092 61.0728 48.7234C61.187 48.8339 61.3196 48.8892 61.4707 48.8892H63.4544C63.6055 48.8892 63.7362 48.8339 63.8468 48.7234C63.961 48.6092 64.0181 48.4729 64.0181 48.3145V46.6291H63.1118C62.9313 46.6291 62.7895 46.5702 62.6863 46.4523C62.5869 46.3344 62.5371 46.2055 62.5371 46.0655C62.5371 45.9218 62.5869 45.791 62.6863 45.6732C62.7895 45.5553 62.9313 45.4963 63.1118 45.4963H64.5872C64.7383 45.4963 64.869 45.5534 64.9795 45.6676C65.0938 45.7782 65.1509 45.9089 65.1509 46.06V48.3145C65.1509 48.786 64.9851 49.1894 64.6535 49.5247C64.322 49.8562 63.9223 50.022 63.4544 50.022H61.4707C61.0028 50.022 60.6031 49.8562 60.2716 49.5247C59.94 49.1894 59.7742 48.786 59.7742 48.3145Z" fill="#62D136"/>
<path d="M72.6825 49.4583V46.3639C72.6825 46.0139 72.7065 45.7855 72.7544 45.6787L74.0861 42.5069C74.1561 42.3522 74.2298 42.2435 74.3071 42.1809C74.3845 42.1182 74.5042 42.0869 74.6663 42.0869H76.0919C76.254 42.0869 76.3719 42.1182 76.4456 42.1809C76.523 42.2435 76.5966 42.3522 76.6666 42.5069L78.0039 45.6787C78.0481 45.7782 78.0702 46.0066 78.0702 46.3639V49.4583C78.0702 49.6389 78.0112 49.7807 77.8934 49.8838C77.7755 49.9833 77.6447 50.033 77.501 50.033C77.361 50.033 77.2321 49.9833 77.1142 49.8838C76.9963 49.7807 76.9374 49.6389 76.9374 49.4583V48.3256H73.8153V49.4583C73.8153 49.6389 73.7564 49.7807 73.6385 49.8838C73.5206 49.9833 73.3898 50.033 73.2462 50.033C73.1062 50.033 72.9772 49.9833 72.8594 49.8838C72.7415 49.7807 72.6825 49.6389 72.6825 49.4583ZM73.8153 47.1928H76.9374V46.0489L75.7162 43.2197H75.0365L73.8153 46.0489V47.1928Z" fill="#62D136"/>
<path d="M22.5903 24.4394V18.123C22.5903 17.9588 22.6434 17.8305 22.7494 17.7382C22.8554 17.6424 22.9786 17.5945 23.1188 17.5945H25.7562C26.2659 17.5945 26.6986 17.7741 27.0544 18.1333C27.4136 18.4924 27.5932 18.9269 27.5932 19.4366V19.9599C27.5932 20.3909 27.4598 20.7741 27.1929 21.1093C26.9261 21.4445 26.5875 21.66 26.177 21.7558L27.2237 23.0283C27.3879 23.2267 27.4888 23.3858 27.5265 23.5055C27.5641 23.6252 27.5829 23.8237 27.5829 24.1007V24.4394C27.5829 24.607 27.5282 24.7387 27.4187 24.8345C27.3092 24.9268 27.1878 24.973 27.0544 24.973C26.9244 24.973 26.8047 24.9268 26.6952 24.8345C26.5858 24.7387 26.531 24.607 26.531 24.4394V23.8596L24.8532 21.8123H23.6422V24.4394C23.6422 24.6036 23.5875 24.7319 23.478 24.8242C23.3686 24.9166 23.2471 24.9628 23.1137 24.9628C22.9837 24.9628 22.864 24.9166 22.7545 24.8242C22.6451 24.7319 22.5903 24.6036 22.5903 24.4394ZM23.6422 20.7604H25.7562C25.9717 20.7604 26.1565 20.6817 26.3104 20.5243C26.4643 20.367 26.5413 20.1789 26.5413 19.9599V19.4366C26.5413 19.221 26.4643 19.0363 26.3104 18.8824C26.1565 18.725 25.9717 18.6464 25.7562 18.6464H23.6422V20.7604Z" fill="#F2994A"/>
<path d="M28.5732 24.4394V18.123C28.5732 17.9827 28.6262 17.8596 28.7323 17.7536C28.8383 17.6475 28.9615 17.5945 29.1017 17.5945H33.0527C33.2203 17.5945 33.3503 17.6492 33.4426 17.7587C33.5384 17.8681 33.5863 17.9896 33.5863 18.123C33.5863 18.253 33.5384 18.3727 33.4426 18.4822C33.3503 18.5916 33.2203 18.6464 33.0527 18.6464H29.6251V20.7604H33.0527C33.2203 20.7604 33.3503 20.8151 33.4426 20.9246C33.5384 21.034 33.5863 21.1555 33.5863 21.2889C33.5863 21.4189 33.5384 21.5386 33.4426 21.6481C33.3503 21.7575 33.2203 21.8123 33.0527 21.8123H29.6251V23.9109H33.0527C33.2203 23.9109 33.3503 23.9656 33.4426 24.0751C33.5384 24.1845 33.5863 24.306 33.5863 24.4394C33.5863 24.5694 33.5384 24.6891 33.4426 24.7986C33.3503 24.908 33.2203 24.9628 33.0527 24.9628H29.1017C28.9615 24.9628 28.8383 24.9114 28.7323 24.8088C28.6262 24.7028 28.5732 24.5796 28.5732 24.4394Z" fill="#F2994A"/>
<path d="M34.5766 23.1156C34.5766 22.9514 34.6313 22.8231 34.7408 22.7307C34.8503 22.6384 34.97 22.5922 35.1 22.5922C35.2334 22.5922 35.3548 22.6384 35.4643 22.7307C35.5737 22.8231 35.6285 22.9514 35.6285 23.1156C35.6285 23.3345 35.7054 23.5226 35.8594 23.68C36.0167 23.8339 36.2066 23.9109 36.4289 23.9109H37.7425C37.9614 23.9109 38.1461 23.8339 38.2967 23.68C38.4506 23.526 38.5276 23.3379 38.5276 23.1156C38.5276 22.9616 38.4814 22.818 38.389 22.6845C38.3001 22.5511 38.1786 22.4348 38.0247 22.3356C37.8742 22.233 37.6997 22.1338 37.5013 22.038C37.3063 21.9422 37.0994 21.8482 36.8805 21.7558C36.6615 21.66 36.4426 21.5625 36.2237 21.4633C36.0048 21.3607 35.7961 21.2444 35.5977 21.1144C35.4027 20.9844 35.2283 20.8425 35.0743 20.6885C34.9238 20.5346 34.8024 20.3516 34.71 20.1395C34.6211 19.9274 34.5766 19.6965 34.5766 19.4468C34.5766 18.9371 34.7562 18.501 35.1154 18.1384C35.4745 17.7758 35.909 17.5945 36.4187 17.5945H37.7425C38.2522 17.5945 38.6849 17.7741 39.0407 18.1333C39.3998 18.4924 39.5794 18.9269 39.5794 19.4366C39.5794 19.6042 39.5247 19.7359 39.4152 19.8316C39.3058 19.924 39.1843 19.9702 39.0509 19.9702C38.9209 19.9702 38.8012 19.924 38.6917 19.8316C38.5823 19.7359 38.5276 19.6042 38.5276 19.4366C38.5276 19.221 38.4506 19.0363 38.2967 18.8824C38.1427 18.725 37.958 18.6464 37.7425 18.6464H36.4187C36.2032 18.6464 36.0167 18.725 35.8594 18.8824C35.7054 19.0397 35.6285 19.2279 35.6285 19.4468C35.6285 19.6007 35.6729 19.7444 35.7619 19.8778C35.8542 20.0112 35.9757 20.1293 36.1262 20.2319C36.2801 20.3311 36.4546 20.4286 36.6496 20.5243C36.848 20.6201 37.0566 20.7159 37.2756 20.8117C37.4945 20.9041 37.7134 21.0015 37.9323 21.1042C38.1513 21.2034 38.3582 21.318 38.5532 21.4479C38.7516 21.5779 38.9261 21.7199 39.0766 21.8738C39.2305 22.0278 39.352 22.2108 39.4409 22.4229C39.5333 22.6349 39.5794 22.8658 39.5794 23.1156C39.5794 23.6252 39.3998 24.0614 39.0407 24.424C38.6849 24.7832 38.2522 24.9628 37.7425 24.9628H36.4289C35.9192 24.9628 35.4831 24.7832 35.1205 24.424C34.7579 24.0614 34.5766 23.6252 34.5766 23.1156Z" fill="#F2994A"/>
<path d="M40.5697 23.3875V18.123C40.5697 17.9588 40.6245 17.8305 40.7339 17.7382C40.8434 17.6458 40.9631 17.5996 41.0931 17.5996C41.2265 17.5996 41.348 17.6458 41.4574 17.7382C41.5669 17.8305 41.6216 17.9588 41.6216 18.123V23.3875C41.6216 23.5278 41.6729 23.6509 41.7755 23.7569C41.8816 23.8596 42.0047 23.9109 42.145 23.9109H43.9973C44.1376 23.9109 44.259 23.8596 44.3616 23.7569C44.4677 23.6509 44.5207 23.5278 44.5207 23.3875V18.123C44.5207 17.9588 44.5754 17.8305 44.6849 17.7382C44.7943 17.6458 44.9141 17.5996 45.0441 17.5996C45.1775 17.5996 45.2989 17.6458 45.4084 17.7382C45.5178 17.8305 45.5726 17.9588 45.5726 18.123V23.3875C45.5726 23.8219 45.4186 24.1931 45.1108 24.501C44.8063 24.8088 44.4352 24.9628 43.9973 24.9628H42.145C41.7106 24.9628 41.3394 24.8088 41.0315 24.501C40.7237 24.1931 40.5697 23.8219 40.5697 23.3875Z" fill="#F2994A"/>
<path d="M46.5526 24.4394V18.123C46.5526 17.9554 46.6073 17.8254 46.7168 17.733C46.8263 17.6372 46.946 17.5894 47.076 17.5894C47.2094 17.5894 47.3308 17.6372 47.4403 17.733C47.5498 17.8254 47.6045 17.9554 47.6045 18.123V23.9109H51.0321C51.1997 23.9109 51.3297 23.9656 51.422 24.0751C51.5178 24.1845 51.5657 24.306 51.5657 24.4394C51.5657 24.5694 51.5178 24.6891 51.422 24.7986C51.3297 24.908 51.1997 24.9628 51.0321 24.9628H47.0811C46.9409 24.9628 46.8177 24.9114 46.7117 24.8088C46.6056 24.7028 46.5526 24.5796 46.5526 24.4394Z" fill="#F2994A"/>
<path d="M52.6894 18.4822C52.5971 18.3727 52.5509 18.253 52.5509 18.123C52.5509 17.9896 52.5971 17.8681 52.6894 17.7587C52.7852 17.6492 52.9169 17.5945 53.0845 17.5945H57.0355C57.2031 17.5945 57.3331 17.6492 57.4254 17.7587C57.5212 17.8681 57.5691 17.9896 57.5691 18.123C57.5691 18.253 57.5212 18.3727 57.4254 18.4822C57.3331 18.5916 57.2031 18.6464 57.0355 18.6464H55.5834V24.4496C55.5834 24.6173 55.5286 24.749 55.4192 24.8447C55.3097 24.9371 55.1883 24.9833 55.0549 24.9833C54.9249 24.9833 54.8051 24.9371 54.6957 24.8447C54.5862 24.749 54.5315 24.6173 54.5315 24.4496V18.6464H53.0845C52.9169 18.6464 52.7852 18.5916 52.6894 18.4822Z" fill="#F2994A"/>
<path d="M58.5491 23.1156C58.5491 22.9514 58.6039 22.8231 58.7133 22.7307C58.8228 22.6384 58.9425 22.5922 59.0725 22.5922C59.2059 22.5922 59.3274 22.6384 59.4368 22.7307C59.5463 22.8231 59.601 22.9514 59.601 23.1156C59.601 23.3345 59.678 23.5226 59.8319 23.68C59.9893 23.8339 60.1791 23.9109 60.4015 23.9109H61.715C61.934 23.9109 62.1187 23.8339 62.2692 23.68C62.4231 23.526 62.5001 23.3379 62.5001 23.1156C62.5001 22.9616 62.4539 22.818 62.3615 22.6845C62.2726 22.5511 62.1512 22.4348 61.9972 22.3356C61.8467 22.233 61.6723 22.1338 61.4739 22.038C61.2789 21.9422 61.0719 21.8482 60.853 21.7558C60.6341 21.66 60.4151 21.5625 60.1962 21.4633C59.9773 21.3607 59.7686 21.2444 59.5702 21.1144C59.3752 20.9844 59.2008 20.8425 59.0469 20.6885C58.8963 20.5346 58.7749 20.3516 58.6825 20.1395C58.5936 19.9274 58.5491 19.6965 58.5491 19.4468C58.5491 18.9371 58.7287 18.501 59.0879 18.1384C59.4471 17.7758 59.8815 17.5945 60.3912 17.5945H61.715C62.2247 17.5945 62.6574 17.7741 63.0132 18.1333C63.3724 18.4924 63.552 18.9269 63.552 19.4366C63.552 19.6042 63.4972 19.7359 63.3878 19.8316C63.2783 19.924 63.1569 19.9702 63.0235 19.9702C62.8935 19.9702 62.7738 19.924 62.6643 19.8316C62.5548 19.7359 62.5001 19.6042 62.5001 19.4366C62.5001 19.221 62.4231 19.0363 62.2692 18.8824C62.1153 18.725 61.9305 18.6464 61.715 18.6464H60.3912C60.1757 18.6464 59.9893 18.725 59.8319 18.8824C59.678 19.0397 59.601 19.2279 59.601 19.4468C59.601 19.6007 59.6455 19.7444 59.7344 19.8778C59.8268 20.0112 59.9482 20.1293 60.0987 20.2319C60.2527 20.3311 60.4271 20.4286 60.6221 20.5243C60.8205 20.6201 61.0292 20.7159 61.2481 20.8117C61.467 20.9041 61.686 21.0015 61.9049 21.1042C62.1238 21.2034 62.3308 21.318 62.5257 21.4479C62.7241 21.5779 62.8986 21.7199 63.0491 21.8738C63.2031 22.0278 63.3245 22.2108 63.4134 22.4229C63.5058 22.6349 63.552 22.8658 63.552 23.1156C63.552 23.6252 63.3724 24.0614 63.0132 24.424C62.6574 24.7832 62.2247 24.9628 61.715 24.9628H60.4015C59.8918 24.9628 59.4556 24.7832 59.093 24.424C58.7304 24.0614 58.5491 23.6252 58.5491 23.1156Z" fill="#F2994A"/>
<path d="M40.4118 72.092V65.2897C40.4118 65.1386 40.4689 65.006 40.5831 64.8918C40.6973 64.7776 40.8299 64.7205 40.981 64.7205H44.103C44.5709 64.7205 44.9706 64.8863 45.3021 65.2178C45.6337 65.5494 45.7995 65.9509 45.7995 66.4225V70.9481C45.7995 71.4196 45.6337 71.823 45.3021 72.1583C44.9706 72.4898 44.5709 72.6556 44.103 72.6556H40.981C40.8299 72.6556 40.6973 72.5985 40.5831 72.4843C40.4689 72.3701 40.4118 72.2393 40.4118 72.092ZM41.5446 71.5228H44.103C44.2615 71.5228 44.3941 71.4675 44.5009 71.357C44.6114 71.2428 44.6667 71.1065 44.6667 70.9481V66.4225C44.6667 66.2641 44.6114 66.1296 44.5009 66.0191C44.3941 65.9086 44.2615 65.8533 44.103 65.8533H41.5446V71.5228Z" fill="#62D136"/>
<path d="M46.8659 72.092V65.2897C46.8659 65.1129 46.923 64.9747 47.0372 64.8752C47.1514 64.7721 47.2841 64.7205 47.4351 64.7205H50.2754C50.8243 64.7205 51.2903 64.9139 51.6734 65.3007C52.0602 65.6875 52.2536 66.1554 52.2536 66.7043V67.2679C52.2536 67.7321 52.1099 68.1447 51.8226 68.5057C51.5353 68.8667 51.1706 69.0988 50.7285 69.202L51.8558 70.5724C52.0326 70.786 52.1413 70.9573 52.1818 71.0863C52.2223 71.2152 52.2426 71.4289 52.2426 71.7272V72.092C52.2426 72.2725 52.1836 72.4143 52.0657 72.5174C51.9479 72.6169 51.8171 72.6666 51.6734 72.6666C51.5334 72.6666 51.4045 72.6169 51.2866 72.5174C51.1687 72.4143 51.1098 72.2725 51.1098 72.092V71.4675L49.3028 69.2627H47.9987V72.092C47.9987 72.2688 47.9398 72.4069 47.8219 72.5064C47.704 72.6059 47.5733 72.6556 47.4296 72.6556C47.2896 72.6556 47.1607 72.6059 47.0428 72.5064C46.9249 72.4069 46.8659 72.2688 46.8659 72.092ZM47.9987 68.1299H50.2754C50.5075 68.1299 50.7064 68.0452 50.8722 67.8758C51.0379 67.7063 51.1208 67.5037 51.1208 67.2679V66.7043C51.1208 66.4722 51.0379 66.2733 50.8722 66.1075C50.7064 65.938 50.5075 65.8533 50.2754 65.8533H47.9987V68.1299Z" fill="#62D136"/>
<path d="M53.3201 70.9592V65.2897C53.3201 65.1129 53.379 64.9747 53.4969 64.8752C53.6148 64.7758 53.7437 64.7261 53.8837 64.7261C54.0274 64.7261 54.1582 64.7758 54.2761 64.8752C54.3939 64.9747 54.4529 65.1129 54.4529 65.2897V70.9592C54.4529 71.1102 54.5081 71.2428 54.6187 71.357C54.7329 71.4675 54.8655 71.5228 55.0165 71.5228H57.0113C57.1624 71.5228 57.2931 71.4675 57.4037 71.357C57.5179 71.2428 57.575 71.1102 57.575 70.9592V65.2897C57.575 65.1129 57.6339 64.9747 57.7518 64.8752C57.8697 64.7758 57.9986 64.7261 58.1386 64.7261C58.2823 64.7261 58.413 64.7758 58.5309 64.8752C58.6488 64.9747 58.7078 65.1129 58.7078 65.2897V70.9592C58.7078 71.427 58.542 71.8267 58.2104 72.1583C57.8826 72.4898 57.4829 72.6556 57.0113 72.6556H55.0165C54.5487 72.6556 54.149 72.4898 53.8174 72.1583C53.4859 71.8267 53.3201 71.427 53.3201 70.9592Z" fill="#62D136"/>
<path d="M59.7742 70.9481V66.4225C59.7742 65.9509 59.94 65.5494 60.2716 65.2178C60.6031 64.8863 61.0028 64.7205 61.4707 64.7205H63.4544C63.9223 64.7205 64.322 64.8863 64.6535 65.2178C64.9851 65.5494 65.1509 65.9509 65.1509 66.4225C65.1509 66.603 65.0919 66.7448 64.974 66.848C64.8561 66.9474 64.7254 66.9972 64.5817 66.9972C64.4417 66.9972 64.3128 66.9474 64.1949 66.848C64.077 66.7448 64.0181 66.603 64.0181 66.4225C64.0181 66.2678 63.9628 66.1351 63.8523 66.0246C63.7418 65.9104 63.6091 65.8533 63.4544 65.8533H61.4707C61.3196 65.8533 61.187 65.9104 61.0728 66.0246C60.9623 66.1351 60.907 66.2678 60.907 66.4225V70.9481C60.907 71.1065 60.9623 71.2428 61.0728 71.357C61.187 71.4675 61.3196 71.5228 61.4707 71.5228H63.4544C63.6055 71.5228 63.7362 71.4675 63.8468 71.357C63.961 71.2428 64.0181 71.1065 64.0181 70.9481V69.2627H63.1118C62.9313 69.2627 62.7895 69.2038 62.6863 69.0859C62.5869 68.968 62.5371 68.8391 62.5371 68.6991C62.5371 68.5554 62.5869 68.4247 62.6863 68.3068C62.7895 68.1889 62.9313 68.1299 63.1118 68.1299H64.5872C64.7383 68.1299 64.869 68.187 64.9795 68.3012C65.0938 68.4118 65.1509 68.5425 65.1509 68.6936V70.9481C65.1509 71.4196 64.9851 71.823 64.6535 72.1583C64.322 72.4898 63.9223 72.6556 63.4544 72.6556H61.4707C61.0028 72.6556 60.6031 72.4898 60.2716 72.1583C59.94 71.823 59.7742 71.4196 59.7742 70.9481Z" fill="#62D136"/>
<path d="M72.6825 72.092V65.2786C72.6825 65.1276 72.7396 64.995 72.8538 64.8808C72.9717 64.7666 73.1043 64.7095 73.2517 64.7095H76.3738C76.8416 64.7095 77.2413 64.8752 77.5729 65.2068C77.9044 65.5383 78.0702 65.9399 78.0702 66.4114V67.5497C78.0702 67.9955 77.9265 68.3731 77.6392 68.6825C77.9265 69.0067 78.0702 69.3843 78.0702 69.8153V70.9592C78.0702 71.427 77.9044 71.8267 77.5729 72.1583C77.245 72.4898 76.8453 72.6556 76.3738 72.6556H73.2517C73.1006 72.6556 72.968 72.6003 72.8538 72.4898C72.7396 72.3756 72.6825 72.243 72.6825 72.092ZM73.8153 71.5228H76.3738C76.5322 71.5228 76.6648 71.4694 76.7716 71.3625C76.8821 71.252 76.9374 71.1176 76.9374 70.9592V69.8153C76.9374 69.6569 76.8821 69.5243 76.7716 69.4175C76.6648 69.3069 76.5322 69.2517 76.3738 69.2517H73.8153V71.5228ZM73.8153 68.1189H76.3738C76.5322 68.1189 76.6648 68.0636 76.7716 67.9531C76.8821 67.8426 76.9374 67.7081 76.9374 67.5497V66.4114C76.9374 66.2567 76.8821 66.1241 76.7716 66.0136C76.6611 65.8994 76.5285 65.8423 76.3738 65.8423H73.8153V68.1189Z" fill="#62D136"/>
<path d="M79.2914 69.0749C79.1919 68.957 79.1422 68.828 79.1422 68.6881C79.1422 68.5444 79.1919 68.4136 79.2914 68.2957C79.3945 68.1778 79.5364 68.1189 79.7169 68.1189H81.242V65.2786C81.242 65.1018 81.3009 64.9637 81.4188 64.8642C81.5367 64.7647 81.6656 64.715 81.8056 64.715C81.9493 64.715 82.0801 64.7647 82.198 64.8642C82.3159 64.9637 82.3748 65.1018 82.3748 65.2786V68.1189H83.9496C84.1302 68.1189 84.2701 68.1778 84.3696 68.2957C84.4728 68.4136 84.5243 68.5444 84.5243 68.6881C84.5243 68.828 84.4728 68.957 84.3696 69.0749C84.2701 69.1927 84.1302 69.2517 83.9496 69.2517H82.3748V72.092C82.3748 72.2725 82.3159 72.4143 82.198 72.5174C82.0801 72.6169 81.9493 72.6666 81.8056 72.6666C81.6656 72.6666 81.5367 72.6169 81.4188 72.5174C81.3009 72.4143 81.242 72.2725 81.242 72.092V69.2517H79.7169C79.5364 69.2517 79.3945 69.1927 79.2914 69.0749Z" fill="#62D136"/>
<path d="M85.5908 72.092V65.2897C85.5908 65.1386 85.6479 65.006 85.7621 64.8918C85.8763 64.7776 86.0089 64.7205 86.16 64.7205H89.2821C89.7499 64.7205 90.1496 64.8863 90.4812 65.2178C90.8127 65.5494 90.9785 65.9509 90.9785 66.4225V70.9481C90.9785 71.4196 90.8127 71.823 90.4812 72.1583C90.1496 72.4898 89.7499 72.6556 89.2821 72.6556H86.16C86.0089 72.6556 85.8763 72.5985 85.7621 72.4843C85.6479 72.3701 85.5908 72.2393 85.5908 72.092ZM86.7236 71.5228H89.2821C89.4405 71.5228 89.5731 71.4675 89.6799 71.357C89.7904 71.2428 89.8457 71.1065 89.8457 70.9481V66.4225C89.8457 66.2641 89.7904 66.1296 89.6799 66.0191C89.5731 65.9086 89.4405 65.8533 89.2821 65.8533H86.7236V71.5228Z" fill="#62D136"/>
<path d="M40.4118 94.7259V87.9237C40.4118 87.7726 40.4689 87.64 40.5831 87.5258C40.6973 87.4116 40.8299 87.3545 40.981 87.3545H44.103C44.5709 87.3545 44.9706 87.5203 45.3021 87.8518C45.6337 88.1834 45.7995 88.5849 45.7995 89.0564V93.5821C45.7995 94.0536 45.6337 94.457 45.3021 94.7922C44.9706 95.1238 44.5709 95.2896 44.103 95.2896H40.981C40.8299 95.2896 40.6973 95.2325 40.5831 95.1183C40.4689 95.0041 40.4118 94.8733 40.4118 94.7259ZM41.5446 94.1568H44.103C44.2615 94.1568 44.3941 94.1015 44.5009 93.991C44.6114 93.8768 44.6667 93.7405 44.6667 93.5821V89.0564C44.6667 88.898 44.6114 88.7636 44.5009 88.6531C44.3941 88.5425 44.2615 88.4873 44.103 88.4873H41.5446V94.1568Z" fill="#AAAAAA"/>
<path d="M46.8659 94.7259V87.9237C46.8659 87.7468 46.923 87.6087 47.0372 87.5092C47.1514 87.4061 47.2841 87.3545 47.4351 87.3545H50.2754C50.8243 87.3545 51.2903 87.5479 51.6734 87.9347C52.0602 88.3215 52.2536 88.7894 52.2536 89.3383V89.9019C52.2536 90.3661 52.1099 90.7787 51.8226 91.1397C51.5353 91.5007 51.1706 91.7328 50.7285 91.8359L51.8558 93.2063C52.0326 93.42 52.1413 93.5913 52.1818 93.7202C52.2223 93.8492 52.2426 94.0628 52.2426 94.3612V94.7259C52.2426 94.9064 52.1836 95.0483 52.0657 95.1514C51.9479 95.2509 51.8171 95.3006 51.6734 95.3006C51.5334 95.3006 51.4045 95.2509 51.2866 95.1514C51.1687 95.0483 51.1098 94.9064 51.1098 94.7259V94.1015L49.3028 91.8967H47.9987V94.7259C47.9987 94.9027 47.9398 95.0409 47.8219 95.1404C47.704 95.2398 47.5733 95.2896 47.4296 95.2896C47.2896 95.2896 47.1607 95.2398 47.0428 95.1404C46.9249 95.0409 46.8659 94.9027 46.8659 94.7259ZM47.9987 90.7639H50.2754C50.5075 90.7639 50.7064 90.6792 50.8722 90.5097C51.0379 90.3403 51.1208 90.1377 51.1208 89.9019V89.3383C51.1208 89.1062 51.0379 88.9072 50.8722 88.7415C50.7064 88.572 50.5075 88.4873 50.2754 88.4873H47.9987V90.7639Z" fill="#AAAAAA"/>
<path d="M53.3201 93.5931V87.9237C53.3201 87.7468 53.379 87.6087 53.4969 87.5092C53.6148 87.4098 53.7437 87.36 53.8837 87.36C54.0274 87.36 54.1582 87.4098 54.2761 87.5092C54.3939 87.6087 54.4529 87.7468 54.4529 87.9237V93.5931C54.4529 93.7442 54.5081 93.8768 54.6187 93.991C54.7329 94.1015 54.8655 94.1568 55.0165 94.1568H57.0113C57.1624 94.1568 57.2931 94.1015 57.4037 93.991C57.5179 93.8768 57.575 93.7442 57.575 93.5931V87.9237C57.575 87.7468 57.6339 87.6087 57.7518 87.5092C57.8697 87.4098 57.9986 87.36 58.1386 87.36C58.2823 87.36 58.413 87.4098 58.5309 87.5092C58.6488 87.6087 58.7078 87.7468 58.7078 87.9237V93.5931C58.7078 94.061 58.542 94.4607 58.2104 94.7922C57.8826 95.1238 57.4829 95.2896 57.0113 95.2896H55.0165C54.5487 95.2896 54.149 95.1238 53.8174 94.7922C53.4859 94.4607 53.3201 94.061 53.3201 93.5931Z" fill="#AAAAAA"/>
<path d="M59.7742 93.5821V89.0564C59.7742 88.5849 59.94 88.1834 60.2716 87.8518C60.6031 87.5203 61.0028 87.3545 61.4707 87.3545H63.4544C63.9223 87.3545 64.322 87.5203 64.6535 87.8518C64.9851 88.1834 65.1509 88.5849 65.1509 89.0564C65.1509 89.237 65.0919 89.3788 64.974 89.4819C64.8561 89.5814 64.7254 89.6311 64.5817 89.6311C64.4417 89.6311 64.3128 89.5814 64.1949 89.4819C64.077 89.3788 64.0181 89.237 64.0181 89.0564C64.0181 88.9017 63.9628 88.7691 63.8523 88.6586C63.7418 88.5444 63.6091 88.4873 63.4544 88.4873H61.4707C61.3196 88.4873 61.187 88.5444 61.0728 88.6586C60.9623 88.7691 60.907 88.9017 60.907 89.0564V93.5821C60.907 93.7405 60.9623 93.8768 61.0728 93.991C61.187 94.1015 61.3196 94.1568 61.4707 94.1568H63.4544C63.6055 94.1568 63.7362 94.1015 63.8468 93.991C63.961 93.8768 64.0181 93.7405 64.0181 93.5821V91.8967H63.1118C62.9313 91.8967 62.7895 91.8378 62.6863 91.7199C62.5869 91.602 62.5371 91.4731 62.5371 91.3331C62.5371 91.1894 62.5869 91.0586 62.6863 90.9407C62.7895 90.8229 62.9313 90.7639 63.1118 90.7639H64.5872C64.7383 90.7639 64.869 90.821 64.9795 90.9352C65.0938 91.0457 65.1509 91.1765 65.1509 91.3275V93.5821C65.1509 94.0536 64.9851 94.457 64.6535 94.7922C64.322 95.1238 63.9223 95.2896 63.4544 95.2896H61.4707C61.0028 95.2896 60.6031 95.1238 60.2716 94.7922C59.94 94.457 59.7742 94.0536 59.7742 93.5821Z" fill="#AAAAAA"/>
<path d="M72.6825 93.5821V89.0564C72.6825 88.5849 72.8483 88.1834 73.1798 87.8518C73.5114 87.5203 73.9111 87.3545 74.3789 87.3545H76.3627C76.8306 87.3545 77.2303 87.5203 77.5618 87.8518C77.8934 88.1834 78.0591 88.5849 78.0591 89.0564C78.0591 89.237 78.0002 89.3788 77.8823 89.4819C77.7644 89.5814 77.6337 89.6311 77.49 89.6311C77.35 89.6311 77.2211 89.5814 77.1032 89.4819C76.9853 89.3788 76.9263 89.237 76.9263 89.0564C76.9263 88.9017 76.8711 88.7691 76.7606 88.6586C76.6501 88.5444 76.5174 88.4873 76.3627 88.4873H74.3789C74.2279 88.4873 74.0953 88.5444 73.9811 88.6586C73.8706 88.7691 73.8153 88.9017 73.8153 89.0564V93.5821C73.8153 93.7405 73.8706 93.8768 73.9811 93.991C74.0953 94.1015 74.2279 94.1568 74.3789 94.1568H76.3627C76.5138 94.1568 76.6445 94.1015 76.755 93.991C76.8692 93.8768 76.9263 93.7405 76.9263 93.5821C76.9263 93.4053 76.9853 93.2671 77.1032 93.1676C77.2211 93.0682 77.35 93.0184 77.49 93.0184C77.6337 93.0184 77.7644 93.0682 77.8823 93.1676C78.0002 93.2671 78.0591 93.4053 78.0591 93.5821C78.0591 94.0536 77.8934 94.457 77.5618 94.7922C77.2303 95.1238 76.8306 95.2896 76.3627 95.2896H74.3789C73.9111 95.2896 73.5114 95.1238 73.1798 94.7922C72.8483 94.457 72.6825 94.0536 72.6825 93.5821Z" fill="#AAAAAA"/>
<path d="M40.4118 117.36V110.557C40.4118 110.406 40.4689 110.274 40.5831 110.159C40.6973 110.045 40.8299 109.988 40.981 109.988H44.103C44.5709 109.988 44.9706 110.154 45.3021 110.485C45.6337 110.817 45.7995 111.219 45.7995 111.69V116.216C45.7995 116.687 45.6337 117.091 45.3021 117.426C44.9706 117.757 44.5709 117.923 44.103 117.923H40.981C40.8299 117.923 40.6973 117.866 40.5831 117.752C40.4689 117.638 40.4118 117.507 40.4118 117.36ZM41.5446 116.79H44.103C44.2615 116.79 44.3941 116.735 44.5009 116.625C44.6114 116.51 44.6667 116.374 44.6667 116.216V111.69C44.6667 111.532 44.6114 111.397 44.5009 111.287C44.3941 111.176 44.2615 111.121 44.103 111.121H41.5446V116.79Z" fill="#AAAAAA"/>
<path d="M46.8659 117.36V110.557C46.8659 110.38 46.923 110.242 47.0372 110.143C47.1514 110.04 47.2841 109.988 47.4351 109.988H50.2754C50.8243 109.988 51.2903 110.182 51.6734 110.568C52.0602 110.955 52.2536 111.423 52.2536 111.972V112.536C52.2536 113 52.1099 113.412 51.8226 113.773C51.5353 114.134 51.1706 114.366 50.7285 114.47L51.8558 115.84C52.0326 116.054 52.1413 116.225 52.1818 116.354C52.2223 116.483 52.2426 116.696 52.2426 116.995V117.36C52.2426 117.54 52.1836 117.682 52.0657 117.785C51.9479 117.884 51.8171 117.934 51.6734 117.934C51.5334 117.934 51.4045 117.884 51.2866 117.785C51.1687 117.682 51.1098 117.54 51.1098 117.36V116.735L49.3028 114.53H47.9987V117.36C47.9987 117.536 47.9398 117.675 47.8219 117.774C47.704 117.873 47.5733 117.923 47.4296 117.923C47.2896 117.923 47.1607 117.873 47.0428 117.774C46.9249 117.675 46.8659 117.536 46.8659 117.36ZM47.9987 113.398H50.2754C50.5075 113.398 50.7064 113.313 50.8722 113.143C51.0379 112.974 51.1208 112.771 51.1208 112.536V111.972C51.1208 111.74 51.0379 111.541 50.8722 111.375C50.7064 111.206 50.5075 111.121 50.2754 111.121H47.9987V113.398Z" fill="#AAAAAA"/>
<path d="M53.3201 116.227V110.557C53.3201 110.38 53.379 110.242 53.4969 110.143C53.6148 110.043 53.7437 109.994 53.8837 109.994C54.0274 109.994 54.1582 110.043 54.2761 110.143C54.3939 110.242 54.4529 110.38 54.4529 110.557V116.227C54.4529 116.378 54.5081 116.51 54.6187 116.625C54.7329 116.735 54.8655 116.79 55.0165 116.79H57.0113C57.1624 116.79 57.2931 116.735 57.4037 116.625C57.5179 116.51 57.575 116.378 57.575 116.227V110.557C57.575 110.38 57.6339 110.242 57.7518 110.143C57.8697 110.043 57.9986 109.994 58.1386 109.994C58.2823 109.994 58.413 110.043 58.5309 110.143C58.6488 110.242 58.7078 110.38 58.7078 110.557V116.227C58.7078 116.695 58.542 117.094 58.2104 117.426C57.8826 117.757 57.4829 117.923 57.0113 117.923H55.0165C54.5487 117.923 54.149 117.757 53.8174 117.426C53.4859 117.094 53.3201 116.695 53.3201 116.227Z" fill="#AAAAAA"/>
<path d="M59.7742 116.216V111.69C59.7742 111.219 59.94 110.817 60.2716 110.485C60.6031 110.154 61.0028 109.988 61.4707 109.988H63.4544C63.9223 109.988 64.322 110.154 64.6535 110.485C64.9851 110.817 65.1509 111.219 65.1509 111.69C65.1509 111.871 65.0919 112.012 64.974 112.116C64.8561 112.215 64.7254 112.265 64.5817 112.265C64.4417 112.265 64.3128 112.215 64.1949 112.116C64.077 112.012 64.0181 111.871 64.0181 111.69C64.0181 111.535 63.9628 111.403 63.8523 111.292C63.7418 111.178 63.6091 111.121 63.4544 111.121H61.4707C61.3196 111.121 61.187 111.178 61.0728 111.292C60.9623 111.403 60.907 111.535 60.907 111.69V116.216C60.907 116.374 60.9623 116.51 61.0728 116.625C61.187 116.735 61.3196 116.79 61.4707 116.79H63.4544C63.6055 116.79 63.7362 116.735 63.8468 116.625C63.961 116.51 64.0181 116.374 64.0181 116.216V114.53H63.1118C62.9313 114.53 62.7895 114.471 62.6863 114.353C62.5869 114.236 62.5371 114.107 62.5371 113.967C62.5371 113.823 62.5869 113.692 62.6863 113.574C62.7895 113.456 62.9313 113.398 63.1118 113.398H64.5872C64.7383 113.398 64.869 113.455 64.9795 113.569C65.0938 113.679 65.1509 113.81 65.1509 113.961V116.216C65.1509 116.687 64.9851 117.091 64.6535 117.426C64.322 117.757 63.9223 117.923 63.4544 117.923H61.4707C61.0028 117.923 60.6031 117.757 60.2716 117.426C59.94 117.091 59.7742 116.687 59.7742 116.216Z" fill="#AAAAAA"/>
<path d="M72.6825 117.36V110.546C72.6825 110.395 72.7396 110.263 72.8538 110.148C72.9717 110.034 73.1043 109.977 73.2517 109.977H76.3738C76.8416 109.977 77.2413 110.143 77.5729 110.474C77.9044 110.806 78.0702 111.207 78.0702 111.679V112.817C78.0702 113.263 77.9265 113.641 77.6392 113.95C77.9265 114.274 78.0702 114.652 78.0702 115.083V116.227C78.0702 116.695 77.9044 117.094 77.5729 117.426C77.245 117.757 76.8453 117.923 76.3738 117.923H73.2517C73.1006 117.923 72.968 117.868 72.8538 117.757C72.7396 117.643 72.6825 117.511 72.6825 117.36ZM73.8153 116.79H76.3738C76.5322 116.79 76.6648 116.737 76.7716 116.63C76.8821 116.52 76.9374 116.385 76.9374 116.227V115.083C76.9374 114.924 76.8821 114.792 76.7716 114.685C76.6648 114.575 76.5322 114.519 76.3738 114.519H73.8153V116.79ZM73.8153 113.386H76.3738C76.5322 113.386 76.6648 113.331 76.7716 113.221C76.8821 113.11 76.9374 112.976 76.9374 112.817V111.679C76.9374 111.524 76.8821 111.392 76.7716 111.281C76.6611 111.167 76.5285 111.11 76.3738 111.11H73.8153V113.386Z" fill="#AAAAAA"/>
<path d="M40.4118 139.993V133.191C40.4118 133.04 40.4689 132.907 40.5831 132.793C40.6973 132.679 40.8299 132.622 40.981 132.622H44.103C44.5709 132.622 44.9706 132.788 45.3021 133.119C45.6337 133.451 45.7995 133.852 45.7995 134.324V138.849C45.7995 139.321 45.6337 139.724 45.3021 140.059C44.9706 140.391 44.5709 140.557 44.103 140.557H40.981C40.8299 140.557 40.6973 140.5 40.5831 140.385C40.4689 140.271 40.4118 140.141 40.4118 139.993ZM41.5446 139.424H44.103C44.2615 139.424 44.3941 139.369 44.5009 139.258C44.6114 139.144 44.6667 139.008 44.6667 138.849V134.324C44.6667 134.165 44.6114 134.031 44.5009 133.92C44.3941 133.81 44.2615 133.755 44.103 133.755H41.5446V139.424Z" fill="#AAAAAA"/>
<path d="M46.8659 139.993V133.191C46.8659 133.014 46.923 132.876 47.0372 132.776C47.1514 132.673 47.2841 132.622 47.4351 132.622H50.2754C50.8243 132.622 51.2903 132.815 51.6734 133.202C52.0602 133.589 52.2536 134.057 52.2536 134.606V135.169C52.2536 135.633 52.1099 136.046 51.8226 136.407C51.5353 136.768 51.1706 137 50.7285 137.103L51.8558 138.474C52.0326 138.687 52.1413 138.859 52.1818 138.987C52.2223 139.116 52.2426 139.33 52.2426 139.628V139.993C52.2426 140.174 52.1836 140.316 52.0657 140.419C51.9479 140.518 51.8171 140.568 51.6734 140.568C51.5334 140.568 51.4045 140.518 51.2866 140.419C51.1687 140.316 51.1098 140.174 51.1098 139.993V139.369L49.3028 137.164H47.9987V139.993C47.9987 140.17 47.9398 140.308 47.8219 140.408C47.704 140.507 47.5733 140.557 47.4296 140.557C47.2896 140.557 47.1607 140.507 47.0428 140.408C46.9249 140.308 46.8659 140.17 46.8659 139.993ZM47.9987 136.031H50.2754C50.5075 136.031 50.7064 135.946 50.8722 135.777C51.0379 135.608 51.1208 135.405 51.1208 135.169V134.606C51.1208 134.373 51.0379 134.174 50.8722 134.009C50.7064 133.839 50.5075 133.755 50.2754 133.755H47.9987V136.031Z" fill="#AAAAAA"/>
<path d="M53.3201 138.86V133.191C53.3201 133.014 53.379 132.876 53.4969 132.776C53.6148 132.677 53.7437 132.627 53.8837 132.627C54.0274 132.627 54.1582 132.677 54.2761 132.776C54.3939 132.876 54.4529 133.014 54.4529 133.191V138.86C54.4529 139.011 54.5081 139.144 54.6187 139.258C54.7329 139.369 54.8655 139.424 55.0165 139.424H57.0113C57.1624 139.424 57.2931 139.369 57.4037 139.258C57.5179 139.144 57.575 139.011 57.575 138.86V133.191C57.575 133.014 57.6339 132.876 57.7518 132.776C57.8697 132.677 57.9986 132.627 58.1386 132.627C58.2823 132.627 58.413 132.677 58.5309 132.776C58.6488 132.876 58.7078 133.014 58.7078 133.191V138.86C58.7078 139.328 58.542 139.728 58.2104 140.059C57.8826 140.391 57.4829 140.557 57.0113 140.557H55.0165C54.5487 140.557 54.149 140.391 53.8174 140.059C53.4859 139.728 53.3201 139.328 53.3201 138.86Z" fill="#AAAAAA"/>
<path d="M59.7742 138.849V134.324C59.7742 133.852 59.94 133.451 60.2716 133.119C60.6031 132.788 61.0028 132.622 61.4707 132.622H63.4544C63.9223 132.622 64.322 132.788 64.6535 133.119C64.9851 133.451 65.1509 133.852 65.1509 134.324C65.1509 134.504 65.0919 134.646 64.974 134.749C64.8561 134.849 64.7254 134.898 64.5817 134.898C64.4417 134.898 64.3128 134.849 64.1949 134.749C64.077 134.646 64.0181 134.504 64.0181 134.324C64.0181 134.169 63.9628 134.036 63.8523 133.926C63.7418 133.812 63.6091 133.755 63.4544 133.755H61.4707C61.3196 133.755 61.187 133.812 61.0728 133.926C60.9623 134.036 60.907 134.169 60.907 134.324V138.849C60.907 139.008 60.9623 139.144 61.0728 139.258C61.187 139.369 61.3196 139.424 61.4707 139.424H63.4544C63.6055 139.424 63.7362 139.369 63.8468 139.258C63.961 139.144 64.0181 139.008 64.0181 138.849V137.164H63.1118C62.9313 137.164 62.7895 137.105 62.6863 136.987C62.5869 136.869 62.5371 136.74 62.5371 136.6C62.5371 136.457 62.5869 136.326 62.6863 136.208C62.7895 136.09 62.9313 136.031 63.1118 136.031H64.5872C64.7383 136.031 64.869 136.088 64.9795 136.202C65.0938 136.313 65.1509 136.444 65.1509 136.595V138.849C65.1509 139.321 64.9851 139.724 64.6535 140.059C64.322 140.391 63.9223 140.557 63.4544 140.557H61.4707C61.0028 140.557 60.6031 140.391 60.2716 140.059C59.94 139.724 59.7742 139.321 59.7742 138.849Z" fill="#AAAAAA"/>
<path d="M72.6825 139.993V133.191C72.6825 133.04 72.7396 132.907 72.8538 132.793C72.968 132.679 73.1006 132.622 73.2517 132.622H76.3738C76.8416 132.622 77.2413 132.788 77.5729 133.119C77.9044 133.451 78.0702 133.852 78.0702 134.324V138.849C78.0702 139.321 77.9044 139.724 77.5729 140.059C77.2413 140.391 76.8416 140.557 76.3738 140.557H73.2517C73.1006 140.557 72.968 140.5 72.8538 140.385C72.7396 140.271 72.6825 140.141 72.6825 139.993ZM73.8153 139.424H76.3738C76.5322 139.424 76.6648 139.369 76.7716 139.258C76.8821 139.144 76.9374 139.008 76.9374 138.849V134.324C76.9374 134.165 76.8821 134.031 76.7716 133.92C76.6648 133.81 76.5322 133.755 76.3738 133.755H73.8153V139.424Z" fill="#AAAAAA"/>
<path d="M79.2914 136.976C79.1919 136.858 79.1422 136.729 79.1422 136.589C79.1422 136.446 79.1919 136.315 79.2914 136.197C79.3945 136.079 79.5364 136.02 79.7169 136.02H81.242V133.18C81.242 133.003 81.3009 132.865 81.4188 132.765C81.5367 132.666 81.6656 132.616 81.8056 132.616C81.9493 132.616 82.0801 132.666 82.198 132.765C82.3159 132.865 82.3748 133.003 82.3748 133.18V136.02H83.9496C84.1302 136.02 84.2701 136.079 84.3696 136.197C84.4728 136.315 84.5243 136.446 84.5243 136.589C84.5243 136.729 84.4728 136.858 84.3696 136.976C84.2701 137.094 84.1302 137.153 83.9496 137.153H82.3748V139.993C82.3748 140.174 82.3159 140.316 82.198 140.419C82.0801 140.518 81.9493 140.568 81.8056 140.568C81.6656 140.568 81.5367 140.518 81.4188 140.419C81.3009 140.316 81.242 140.174 81.242 139.993V137.153H79.7169C79.5364 137.153 79.3945 137.094 79.2914 136.976Z" fill="#AAAAAA"/>
<path d="M85.5908 138.849V134.324C85.5908 133.852 85.7566 133.451 86.0881 133.119C86.4197 132.788 86.8194 132.622 87.2872 132.622H89.271C89.7389 132.622 90.1386 132.788 90.4701 133.119C90.8017 133.451 90.9674 133.852 90.9674 134.324C90.9674 134.504 90.9085 134.646 90.7906 134.749C90.6727 134.849 90.5419 134.898 90.3983 134.898C90.2583 134.898 90.1293 134.849 90.0115 134.749C89.8936 134.646 89.8346 134.504 89.8346 134.324C89.8346 134.169 89.7794 134.036 89.6689 133.926C89.5583 133.812 89.4257 133.755 89.271 133.755H87.2872C87.1362 133.755 87.0036 133.812 86.8894 133.926C86.7789 134.036 86.7236 134.169 86.7236 134.324V138.849C86.7236 139.008 86.7789 139.144 86.8894 139.258C87.0036 139.369 87.1362 139.424 87.2872 139.424H89.271C89.422 139.424 89.5528 139.369 89.6633 139.258C89.7775 139.144 89.8346 139.008 89.8346 138.849C89.8346 138.672 89.8936 138.534 90.0115 138.435C90.1293 138.335 90.2583 138.286 90.3983 138.286C90.5419 138.286 90.6727 138.335 90.7906 138.435C90.9085 138.534 90.9674 138.672 90.9674 138.849C90.9674 139.321 90.8017 139.724 90.4701 140.059C90.1386 140.391 89.7389 140.557 89.271 140.557H87.2872C86.8194 140.557 86.4197 140.391 86.0881 140.059C85.7566 139.724 85.5908 139.321 85.5908 138.849Z" fill="#AAAAAA"/>
<path d="M40.4118 162.627V155.825C40.4118 155.673 40.4689 155.541 40.5831 155.427C40.6973 155.312 40.8299 155.255 40.981 155.255H44.103C44.5709 155.255 44.9706 155.421 45.3021 155.753C45.6337 156.084 45.7995 156.486 45.7995 156.957V161.483C45.7995 161.954 45.6337 162.358 45.3021 162.693C44.9706 163.025 44.5709 163.19 44.103 163.19H40.981C40.8299 163.19 40.6973 163.133 40.5831 163.019C40.4689 162.905 40.4118 162.774 40.4118 162.627ZM41.5446 162.058H44.103C44.2615 162.058 44.3941 162.002 44.5009 161.892C44.6114 161.778 44.6667 161.641 44.6667 161.483V156.957C44.6667 156.799 44.6114 156.664 44.5009 156.554C44.3941 156.443 44.2615 156.388 44.103 156.388H41.5446V162.058Z" fill="#AAAAAA"/>
<path d="M46.8659 162.627V155.825C46.8659 155.648 46.923 155.51 47.0372 155.41C47.1514 155.307 47.2841 155.255 47.4351 155.255H50.2754C50.8243 155.255 51.2903 155.449 51.6734 155.836C52.0602 156.222 52.2536 156.69 52.2536 157.239V157.803C52.2536 158.267 52.1099 158.68 51.8226 159.041C51.5353 159.402 51.1706 159.634 50.7285 159.737L51.8558 161.107C52.0326 161.321 52.1413 161.492 52.1818 161.621C52.2223 161.75 52.2426 161.964 52.2426 162.262V162.627C52.2426 162.807 52.1836 162.949 52.0657 163.052C51.9479 163.152 51.8171 163.201 51.6734 163.201C51.5334 163.201 51.4045 163.152 51.2866 163.052C51.1687 162.949 51.1098 162.807 51.1098 162.627V162.002L49.3028 159.798H47.9987V162.627C47.9987 162.804 47.9398 162.942 47.8219 163.041C47.704 163.141 47.5733 163.19 47.4296 163.19C47.2896 163.19 47.1607 163.141 47.0428 163.041C46.9249 162.942 46.8659 162.804 46.8659 162.627ZM47.9987 158.665H50.2754C50.5075 158.665 50.7064 158.58 50.8722 158.411C51.0379 158.241 51.1208 158.039 51.1208 157.803V157.239C51.1208 157.007 51.0379 156.808 50.8722 156.642C50.7064 156.473 50.5075 156.388 50.2754 156.388H47.9987V158.665Z" fill="#AAAAAA"/>
<path d="M53.3201 161.494V155.825C53.3201 155.648 53.379 155.51 53.4969 155.41C53.6148 155.311 53.7437 155.261 53.8837 155.261C54.0274 155.261 54.1582 155.311 54.2761 155.41C54.3939 155.51 54.4529 155.648 54.4529 155.825V161.494C54.4529 161.645 54.5081 161.778 54.6187 161.892C54.7329 162.002 54.8655 162.058 55.0165 162.058H57.0113C57.1624 162.058 57.2931 162.002 57.4037 161.892C57.5179 161.778 57.575 161.645 57.575 161.494V155.825C57.575 155.648 57.6339 155.51 57.7518 155.41C57.8697 155.311 57.9986 155.261 58.1386 155.261C58.2823 155.261 58.413 155.311 58.5309 155.41C58.6488 155.51 58.7078 155.648 58.7078 155.825V161.494C58.7078 161.962 58.542 162.362 58.2104 162.693C57.8826 163.025 57.4829 163.19 57.0113 163.19H55.0165C54.5487 163.19 54.149 163.025 53.8174 162.693C53.4859 162.362 53.3201 161.962 53.3201 161.494Z" fill="#AAAAAA"/>
<path d="M59.7742 161.483V156.957C59.7742 156.486 59.94 156.084 60.2716 155.753C60.6031 155.421 61.0028 155.255 61.4707 155.255H63.4544C63.9223 155.255 64.322 155.421 64.6535 155.753C64.9851 156.084 65.1509 156.486 65.1509 156.957C65.1509 157.138 65.0919 157.28 64.974 157.383C64.8561 157.482 64.7254 157.532 64.5817 157.532C64.4417 157.532 64.3128 157.482 64.1949 157.383C64.077 157.28 64.0181 157.138 64.0181 156.957C64.0181 156.803 63.9628 156.67 63.8523 156.559C63.7418 156.445 63.6091 156.388 63.4544 156.388H61.4707C61.3196 156.388 61.187 156.445 61.0728 156.559C60.9623 156.67 60.907 156.803 60.907 156.957V161.483C60.907 161.641 60.9623 161.778 61.0728 161.892C61.187 162.002 61.3196 162.058 61.4707 162.058H63.4544C63.6055 162.058 63.7362 162.002 63.8468 161.892C63.961 161.778 64.0181 161.641 64.0181 161.483V159.798H63.1118C62.9313 159.798 62.7895 159.739 62.6863 159.621C62.5869 159.503 62.5371 159.374 62.5371 159.234C62.5371 159.09 62.5869 158.96 62.6863 158.842C62.7895 158.724 62.9313 158.665 63.1118 158.665H64.5872C64.7383 158.665 64.869 158.722 64.9795 158.836C65.0938 158.947 65.1509 159.077 65.1509 159.228V161.483C65.1509 161.954 64.9851 162.358 64.6535 162.693C64.322 163.025 63.9223 163.19 63.4544 163.19H61.4707C61.0028 163.19 60.6031 163.025 60.2716 162.693C59.94 162.358 59.7742 161.954 59.7742 161.483Z" fill="#AAAAAA"/>
<path d="M72.6825 162.627V155.825C72.6825 155.673 72.7396 155.541 72.8538 155.427C72.968 155.312 73.1006 155.255 73.2517 155.255H76.3738C76.8416 155.255 77.2413 155.421 77.5729 155.753C77.9044 156.084 78.0702 156.486 78.0702 156.957V161.483C78.0702 161.954 77.9044 162.358 77.5729 162.693C77.2413 163.025 76.8416 163.19 76.3738 163.19H73.2517C73.1006 163.19 72.968 163.133 72.8538 163.019C72.7396 162.905 72.6825 162.774 72.6825 162.627ZM73.8153 162.058H76.3738C76.5322 162.058 76.6648 162.002 76.7716 161.892C76.8821 161.778 76.9374 161.641 76.9374 161.483V156.957C76.9374 156.799 76.8821 156.664 76.7716 156.554C76.6648 156.443 76.5322 156.388 76.3738 156.388H73.8153V162.058Z" fill="#AAAAAA"/>
<path fill-rule="evenodd" clip-rule="evenodd" d="M142.593 6.18478H9.11215C7.15932 6.18478 5.57623 7.81801 5.57623 9.8327V204.997C5.57623 207.011 7.15932 208.645 9.11216 208.645H142.593C144.546 208.645 146.129 207.011 146.129 204.997V9.8327C146.129 7.81801 144.546 6.18478 142.593 6.18478ZM9.11215 0.712891C4.23006 0.712891 0.272339 4.79597 0.272339 9.8327V204.997C0.272339 210.033 4.23006 214.116 9.11216 214.116H142.593C147.475 214.116 151.433 210.033 151.433 204.997V9.8327C151.433 4.79597 147.475 0.712891 142.593 0.712891H9.11215Z" fill="#DAD8D7"/>
<circle cx="26.9478" cy="46.789" r="4.85008" fill="#F2994A"/>
<circle cx="26.9478" cy="69.4223" r="4.85008" fill="#F2994A"/>
<circle opacity="0.4" cx="26.9478" cy="92.0561" r="4.85008" fill="#F2994A"/>
<circle opacity="0.4" cx="26.9478" cy="114.689" r="4.85008" fill="#F2994A"/>
<circle opacity="0.5" cx="26.9478" cy="137.324" r="4.85008" fill="#FFEC45"/>
<circle opacity="0.5" cx="26.9478" cy="159.957" r="4.85008" fill="#62D136"/>
<path fill-rule="evenodd" clip-rule="evenodd" d="M75.8528 197.141C77.8617 197.141 79.4903 195.512 79.4903 193.504C79.4903 191.495 77.8617 189.866 75.8528 189.866C73.8438 189.866 72.2152 191.495 72.2152 193.504C72.2152 195.512 73.8438 197.141 75.8528 197.141ZM75.8528 199.566C79.201 199.566 81.9154 196.852 81.9154 193.504C81.9154 190.155 79.201 187.441 75.8528 187.441C72.5045 187.441 69.7902 190.155 69.7902 193.504C69.7902 196.852 72.5045 199.566 75.8528 199.566Z" fill="#F2994A"/>
<ellipse cx="200.973" cy="124.182" rx="23.9522" ry="22.7546" transform="rotate(-45 200.973 124.182)" fill="white" stroke="#62D136" stroke-width="3"/>
<path fill-rule="evenodd" clip-rule="evenodd" d="M211.52 134.682C214.488 131.938 214.669 127.308 211.924 124.341L206.955 118.967L201.582 123.936L196.209 128.905L201.178 134.278C203.922 137.246 208.553 137.427 211.52 134.682Z" fill="#62D136"/>
<mask id="path-18-inside-1_1966_459" fill="white">
<path fill-rule="evenodd" clip-rule="evenodd" d="M200.178 133.196L210.924 123.258L202.065 113.679C202.039 113.65 202.013 113.622 201.987 113.594C199.243 110.626 194.613 110.445 191.645 113.19C188.678 115.934 188.497 120.564 191.241 123.532C191.241 123.532 191.241 123.532 191.241 123.532L191.241 123.532L200.178 133.196Z"/>
</mask>
<path d="M210.924 123.258L212.282 124.727L213.75 123.369L212.392 121.901L210.924 123.258ZM200.178 133.196L198.709 134.554L200.067 136.022L201.535 134.665L200.178 133.196ZM202.065 113.679L200.576 115.014L200.586 115.026L200.596 115.037L202.065 113.679ZM191.241 123.532L192.599 125L194.068 123.642L192.71 122.174L191.241 123.532ZM191.241 123.532L189.883 122.064L188.414 123.422L189.772 124.89L191.241 123.532ZM209.566 121.79L198.82 131.728L201.535 134.665L212.282 124.727L209.566 121.79ZM200.596 115.037L209.455 124.616L212.392 121.901L203.533 112.321L200.596 115.037ZM200.519 114.952C200.538 114.972 200.557 114.993 200.576 115.014L203.554 112.344C203.521 112.308 203.489 112.272 203.456 112.236L200.519 114.952ZM193.003 114.658C195.16 112.664 198.525 112.795 200.519 114.952L203.456 112.236C199.961 108.457 194.066 108.227 190.287 111.721L193.003 114.658ZM192.709 122.174C190.715 120.017 190.847 116.652 193.003 114.658L190.287 111.721C186.509 115.215 186.279 121.111 189.773 124.889L192.709 122.174ZM192.71 122.174L192.71 122.174L192.71 122.174L192.71 122.174L192.71 122.174L192.71 122.174L192.71 122.174L192.71 122.174L192.71 122.174L192.71 122.174L192.71 122.174C192.71 122.174 192.71 122.174 192.71 122.174C192.71 122.174 192.71 122.174 192.71 122.174C192.71 122.174 192.71 122.174 192.71 122.174C192.71 122.174 192.71 122.174 192.71 122.174C192.71 122.174 192.71 122.174 192.71 122.174C192.71 122.174 192.71 122.174 192.71 122.174C192.71 122.174 192.71 122.174 192.71 122.174C192.71 122.174 192.71 122.174 192.71 122.174C192.71 122.174 192.71 122.174 192.71 122.174C192.71 122.174 192.71 122.174 192.71 122.174C192.71 122.174 192.71 122.174 192.71 122.174C192.71 122.174 192.71 122.174 192.71 122.174C192.71 122.174 192.71 122.174 192.71 122.174C192.71 122.174 192.71 122.174 192.71 122.174C192.71 122.174 192.71 122.174 192.71 122.174C192.71 122.174 192.71 122.174 192.71 122.174C192.71 122.174 192.71 122.174 192.71 122.174C192.71 122.174 192.71 122.174 192.71 122.174C192.71 122.174 192.71 122.174 192.71 122.174L192.71 122.174L192.71 122.174L192.71 122.174L192.71 122.174L192.71 122.174L192.71 122.174L192.71 122.174L192.71 122.174L192.71 122.174C192.71 122.174 192.71 122.174 192.71 122.174C192.71 122.174 192.71 122.174 192.71 122.174C192.71 122.174 192.71 122.174 192.71 122.174C192.71 122.174 192.71 122.174 192.71 122.174C192.71 122.174 192.71 122.174 192.71 122.174C192.71 122.174 192.71 122.174 192.71 122.174C192.71 122.174 192.71 122.174 192.71 122.174C192.71 122.174 192.71 122.174 192.71 122.174C192.71 122.174 192.71 122.174 192.71 122.174C192.71 122.174 192.71 122.174 192.71 122.174C192.71 122.174 192.71 122.174 192.71 122.174C192.71 122.174 192.71 122.174 192.71 122.174C192.71 122.174 192.71 122.174 192.71 122.174C192.71 122.174 192.71 122.174 192.71 122.174C192.71 122.174 192.71 122.174 192.71 122.174C192.71 122.174 192.71 122.174 192.71 122.174C192.71 122.174 192.71 122.174 192.71 122.174L192.71 122.174L192.71 122.174L192.71 122.174L192.71 122.174L192.71 122.174L192.71 122.174L192.71 122.174L192.71 122.174L192.71 122.174C192.71 122.174 192.71 122.174 192.71 122.174C192.71 122.174 192.71 122.174 192.71 122.174C192.71 122.174 192.71 122.174 192.71 122.174C192.71 122.174 192.71 122.174 192.71 122.174C192.71 122.174 192.71 122.174 192.71 122.174C192.71 122.174 192.71 122.174 192.71 122.174C192.71 122.174 192.71 122.174 192.71 122.174C192.71 122.174 192.71 122.174 192.71 122.174C192.71 122.174 192.71 122.174 192.71 122.174C192.71 122.174 192.71 122.174 192.71 122.174C192.71 122.174 192.71 122.174 192.71 122.174C192.71 122.174 192.71 122.174 192.71 122.174C192.71 122.174 192.71 122.174 192.71 122.174C192.71 122.174 192.71 122.174 192.71 122.174C192.71 122.174 192.71 122.174 192.71 122.174C192.71 122.174 192.71 122.174 192.71 122.174L192.71 122.174L192.71 122.174L192.71 122.174L192.71 122.174L192.71 122.174L192.71 122.174L192.71 122.174C192.71 122.174 192.71 122.174 192.71 122.174C192.71 122.174 192.71 122.174 192.71 122.174C192.71 122.174 192.71 122.174 192.71 122.174C192.71 122.174 192.71 122.174 192.71 122.174C192.71 122.174 192.71 122.174 192.71 122.174C192.71 122.174 192.71 122.174 192.71 122.174C192.71 122.174 192.71 122.174 192.71 122.174C192.71 122.174 192.71 122.174 192.71 122.174C192.71 122.174 192.71 122.174 192.71 122.174C192.71 122.174 192.71 122.174 192.71 122.174C192.71 122.174 192.71 122.174 192.71 122.174C192.71 122.174 192.71 122.174 192.71 122.174C192.71 122.174 192.71 122.174 192.71 122.174C192.71 122.174 192.71 122.174 192.71 122.174C192.71 122.174 192.71 122.174 192.71 122.174C192.71 122.174 192.71 122.174 192.71 122.174L192.71 122.174L192.71 122.174L192.71 122.174L192.71 122.174L192.71 122.174L192.71 122.174L192.71 122.174C192.71 122.174 192.71 122.174 192.71 122.174C192.71 122.174 192.71 122.174 192.71 122.174C192.71 122.174 192.71 122.174 192.71 122.174C192.71 122.174 192.71 122.174 192.71 122.174C192.71 122.174 192.71 122.174 192.71 122.174C192.71 122.174 192.71 122.174 192.71 122.174C192.71 122.174 192.71 122.174 192.71 122.174C192.71 122.174 192.71 122.174 192.71 122.174C192.71 122.174 192.71 122.174 192.71 122.174C192.71 122.174 192.71 122.174 192.71 122.174C192.71 122.174 192.71 122.174 192.71 122.174C192.71 122.174 192.71 122.174 192.71 122.174C192.71 122.174 192.71 122.174 192.71 122.174C192.71 122.174 192.71 122.174 192.71 122.174C192.71 122.174 192.71 122.174 192.71 122.174C192.71 122.174 192.71 122.174 192.71 122.174L192.71 122.174L192.71 122.174L192.71 122.174L192.71 122.174L192.71 122.174L192.71 122.174L192.71 122.174C192.71 122.174 192.71 122.174 192.71 122.174C192.71 122.174 192.71 122.174 192.71 122.174C192.71 122.174 192.71 122.174 192.71 122.174C192.71 122.174 192.71 122.174 192.71 122.174C192.71 122.174 192.71 122.174 192.71 122.174C192.71 122.174 192.71 122.174 192.71 122.174C192.71 122.174 192.71 122.174 192.71 122.174C192.71 122.174 192.71 122.174 192.71 122.174C192.71 122.174 192.71 122.174 192.71 122.174C192.71 122.174 192.71 122.174 192.71 122.174C192.71 122.174 192.71 122.174 192.71 122.174C192.71 122.174 192.71 122.174 192.71 122.174C192.71 122.174 192.71 122.174 192.71 122.174C192.71 122.174 192.71 122.174 192.71 122.174C192.71 122.174 192.71 122.174 192.71 122.174C192.71 122.174 192.71 122.174 192.71 122.174L192.71 122.174L192.71 122.174L192.71 122.174L192.71 122.174L192.71 122.174L192.71 122.174L192.71 122.174C192.71 122.174 192.71 122.174 192.71 122.174C192.71 122.174 192.71 122.174 192.71 122.174C192.71 122.174 192.71 122.174 192.71 122.174C192.71 122.174 192.71 122.174 192.71 122.174C192.71 122.174 192.71 122.174 192.71 122.174C192.71 122.174 192.71 122.174 192.71 122.174C192.71 122.174 192.71 122.174 192.71 122.174C192.71 122.174 192.71 122.174 192.71 122.174C192.71 122.174 192.71 122.174 192.71 122.174C192.71 122.174 192.71 122.174 192.71 122.174C192.71 122.174 192.71 122.174 192.71 122.174C192.71 122.174 192.71 122.174 192.71 122.174C192.71 122.174 192.71 122.174 192.71 122.174C192.71 122.174 192.71 122.174 192.71 122.174C192.71 122.174 192.71 122.174 192.71 122.174C192.71 122.174 192.71 122.174 192.71 122.174L192.71 122.174L192.71 122.174L192.71 122.174L192.71 122.174L192.71 122.174L192.71 122.174L192.71 122.174L192.71 122.174C192.71 122.174 192.71 122.174 192.71 122.174C192.71 122.174 192.71 122.174 192.71 122.174C192.71 122.174 192.71 122.174 192.71 122.174C192.71 122.174 192.71 122.174 192.71 122.174C192.71 122.174 192.71 122.174 192.71 122.174C192.71 122.174 192.71 122.174 192.71 122.174C192.71 122.174 192.71 122.174 192.71 122.174C192.71 122.174 192.71 122.174 192.71 122.174C192.71 122.174 192.71 122.174 192.71 122.174C192.71 122.174 192.71 122.174 192.71 122.174C192.71 122.174 192.71 122.174 192.71 122.174C192.709 122.174 192.709 122.174 192.709 122.174C192.709 122.174 192.709 122.174 192.709 122.174C192.709 122.174 192.709 122.174 192.709 122.174C192.709 122.174 192.709 122.174 192.709 122.174C192.709 122.174 192.709 122.174 192.709 122.174L192.709 122.174L192.709 122.174L192.709 122.174L192.709 122.174L192.709 122.174L192.709 122.174L192.709 122.174L192.709 122.174C192.709 122.174 192.709 122.174 192.709 122.174C192.709 122.174 192.709 122.174 192.709 122.174C192.709 122.174 192.709 122.174 192.709 122.174C192.709 122.174 192.709 122.174 192.709 122.174C192.709 122.174 192.709 122.174 192.709 122.174C192.709 122.174 192.709 122.174 192.709 122.174C192.709 122.174 192.709 122.174 192.709 122.174C192.709 122.174 192.709 122.174 192.709 122.174C192.709 122.174 192.709 122.174 192.709 122.174C192.709 122.174 192.709 122.174 192.709 122.174C192.709 122.174 192.709 122.174 192.709 122.174C192.709 122.174 192.709 122.174 192.709 122.174C192.709 122.174 192.709 122.174 192.709 122.174C192.709 122.174 192.709 122.174 192.709 122.174C192.709 122.174 192.709 122.174 192.709 122.174C192.709 122.174 192.709 122.174 192.709 122.174C192.709 122.174 192.709 122.174 192.709 122.174C192.709 122.174 192.709 122.174 192.709 122.174L192.709 122.174L192.709 122.174L192.709 122.174L192.709 122.174L192.709 122.174L192.709 122.174L192.709 122.174L192.709 122.174L192.709 122.174C192.709 122.174 192.709 122.174 192.709 122.174C192.709 122.174 192.709 122.174 192.709 122.174C192.709 122.174 192.709 122.174 192.709 122.174C192.709 122.174 192.709 122.174 192.709 122.174C192.709 122.174 192.709 122.174 192.709 122.174C192.709 122.174 192.709 122.174 192.709 122.174C192.709 122.174 192.709 122.174 192.709 122.174C192.709 122.174 192.709 122.174 192.709 122.174C192.709 122.174 192.709 122.174 192.709 122.174C192.709 122.174 192.709 122.174 192.709 122.174C192.709 122.174 192.709 122.174 192.709 122.174C192.709 122.174 192.709 122.174 192.709 122.174C192.709 122.174 192.709 122.174 192.709 122.174C192.709 122.174 192.709 122.174 192.709 122.174C192.709 122.174 192.709 122.174 192.709 122.174C192.709 122.174 192.709 122.174 192.709 122.174C192.709 122.174 192.709 122.174 192.709 122.174C192.709 122.174 192.709 122.174 192.709 122.174C192.709 122.174 192.709 122.174 192.709 122.174C192.709 122.174 192.709 122.174 192.709 122.174L189.773 124.889C189.773 124.889 189.773 124.889 189.773 124.889C189.773 124.889 189.773 124.889 189.773 124.889C189.773 124.889 189.773 124.889 189.773 124.889C189.773 124.889 189.773 124.889 189.773 124.889C189.773 124.889 189.773 124.889 189.773 124.889C189.773 124.889 189.773 124.889 189.773 124.889C189.773 124.889 189.773 124.889 189.773 124.889C189.773 124.889 189.773 124.889 189.773 124.889C189.773 124.889 189.773 124.889 189.773 124.889C189.773 124.889 189.773 124.889 189.773 124.889C189.773 124.889 189.773 124.889 189.773 124.889C189.773 124.889 189.773 124.889 189.773 124.889C189.773 124.889 189.773 124.889 189.773 124.889C189.773 124.889 189.773 124.889 189.773 124.889C189.773 124.889 189.773 124.889 189.773 124.889C189.773 124.889 189.773 124.889 189.773 124.889C189.773 124.889 189.773 124.889 189.773 124.889C189.773 124.889 189.773 124.889 189.773 124.889C189.773 124.889 189.773 124.889 189.773 124.889C189.773 124.889 189.773 124.889 189.773 124.889L189.773 124.889L189.773 124.889L189.773 124.889L189.773 124.889L189.773 124.89L189.773 124.89L189.773 124.89L189.773 124.89L189.773 124.89C189.773 124.89 189.773 124.89 189.773 124.89C189.773 124.89 189.773 124.89 189.773 124.89C189.773 124.89 189.773 124.89 189.773 124.89C189.773 124.89 189.773 124.89 189.773 124.89C189.773 124.89 189.773 124.89 189.773 124.89C189.773 124.89 189.773 124.89 189.773 124.89C189.773 124.89 189.773 124.89 189.773 124.89C189.773 124.89 189.773 124.89 189.773 124.89C189.773 124.89 189.773 124.89 189.773 124.89C189.773 124.89 189.773 124.89 189.773 124.89C189.773 124.89 189.773 124.89 189.773 124.89C189.773 124.89 189.773 124.89 189.773 124.89C189.773 124.89 189.773 124.89 189.773 124.89C189.773 124.89 189.773 124.89 189.773 124.89C189.773 124.89 189.773 124.89 189.773 124.89C189.773 124.89 189.773 124.89 189.773 124.89C189.773 124.89 189.773 124.89 189.773 124.89C189.773 124.89 189.773 124.89 189.773 124.89L189.773 124.89L189.773 124.89L189.773 124.89L189.773 124.89L189.773 124.89L189.773 124.89L189.773 124.89L189.773 124.89C189.773 124.89 189.773 124.89 189.773 124.89C189.773 124.89 189.773 124.89 189.773 124.89C189.773 124.89 189.773 124.89 189.773 124.89C189.773 124.89 189.773 124.89 189.773 124.89C189.773 124.89 189.773 124.89 189.773 124.89C189.773 124.89 189.773 124.89 189.773 124.89C189.773 124.89 189.773 124.89 189.773 124.89C189.773 124.89 189.773 124.89 189.773 124.89C189.773 124.89 189.773 124.89 189.773 124.89C189.773 124.89 189.773 124.89 189.773 124.89C189.773 124.89 189.773 124.89 189.773 124.89C189.773 124.89 189.773 124.89 189.773 124.89C189.773 124.89 189.773 124.89 189.773 124.89C189.773 124.89 189.773 124.89 189.773 124.89C189.773 124.89 189.773 124.89 189.773 124.89C189.773 124.89 189.773 124.89 189.773 124.89L189.773 124.89L189.773 124.89L189.773 124.89L189.773 124.89L189.773 124.89L189.773 124.89L189.773 124.89L189.773 124.89C189.773 124.89 189.773 124.89 189.773 124.89C189.773 124.89 189.773 124.89 189.773 124.89C189.773 124.89 189.773 124.89 189.773 124.89C189.773 124.89 189.773 124.89 189.773 124.89C189.773 124.89 189.773 124.89 189.773 124.89C189.773 124.89 189.773 124.89 189.773 124.89C189.773 124.89 189.773 124.89 189.773 124.89C189.773 124.89 189.773 124.89 189.773 124.89C189.773 124.89 189.773 124.89 189.773 124.89C189.773 124.89 189.773 124.89 189.773 124.89C189.773 124.89 189.773 124.89 189.773 124.89C189.773 124.89 189.773 124.89 189.773 124.89C189.773 124.89 189.773 124.89 189.773 124.89C189.773 124.89 189.773 124.89 189.773 124.89C189.773 124.89 189.773 124.89 189.773 124.89C189.773 124.89 189.773 124.89 189.773 124.89L189.773 124.89L189.773 124.89L189.773 124.89L189.773 124.89L189.773 124.89L189.773 124.89L189.773 124.89C189.773 124.89 189.773 124.89 189.773 124.89C189.773 124.89 189.773 124.89 189.773 124.89C189.773 124.89 189.773 124.89 189.773 124.89C189.773 124.89 189.773 124.89 189.773 124.89C189.773 124.89 189.773 124.89 189.773 124.89C189.773 124.89 189.773 124.89 189.773 124.89C189.773 124.89 189.773 124.89 189.773 124.89C189.773 124.89 189.773 124.89 189.773 124.89C189.773 124.89 189.773 124.89 189.773 124.89C189.773 124.89 189.773 124.89 189.773 124.89C189.773 124.89 189.773 124.89 189.773 124.89C189.773 124.89 189.773 124.89 189.773 124.89C189.773 124.89 189.773 124.89 189.773 124.89C189.773 124.89 189.773 124.89 189.773 124.89C189.773 124.89 189.773 124.89 189.773 124.89C189.773 124.89 189.773 124.89 189.773 124.89L189.773 124.89L189.773 124.89L189.773 124.89L189.773 124.89L189.773 124.89L189.773 124.89L189.773 124.89C189.773 124.89 189.773 124.89 189.773 124.89C189.773 124.89 189.773 124.89 189.773 124.89C189.773 124.89 189.773 124.89 189.773 124.89C189.773 124.89 189.773 124.89 189.773 124.89C189.773 124.89 189.773 124.89 189.773 124.89C189.773 124.89 189.773 124.89 189.773 124.89C189.773 124.89 189.773 124.89 189.773 124.89C189.773 124.89 189.773 124.89 189.773 124.89C189.773 124.89 189.773 124.89 189.773 124.89C189.773 124.89 189.773 124.89 189.773 124.89C189.773 124.89 189.773 124.89 189.773 124.89C189.773 124.89 189.773 124.89 189.773 124.89C189.773 124.89 189.773 124.89 189.773 124.89C189.773 124.89 189.773 124.89 189.773 124.89C189.773 124.89 189.773 124.89 189.773 124.89C189.773 124.89 189.773 124.89 189.773 124.89L189.773 124.89L189.773 124.89L189.773 124.89L189.773 124.89L189.773 124.89L189.773 124.89L189.773 124.89C189.773 124.89 189.773 124.89 189.773 124.89C189.773 124.89 189.773 124.89 189.773 124.89C189.773 124.89 189.773 124.89 189.773 124.89C189.773 124.89 189.773 124.89 189.773 124.89C189.773 124.89 189.773 124.89 189.773 124.89C189.773 124.89 189.773 124.89 189.773 124.89C189.773 124.89 189.773 124.89 189.773 124.89C189.773 124.89 189.773 124.89 189.773 124.89C189.773 124.89 189.773 124.89 189.773 124.89C189.773 124.89 189.773 124.89 189.773 124.89C189.773 124.89 189.773 124.89 189.773 124.89C189.773 124.89 189.773 124.89 189.773 124.89C189.773 124.89 189.773 124.89 189.773 124.89C189.773 124.89 189.773 124.89 189.773 124.89C189.773 124.89 189.773 124.89 189.773 124.89C189.773 124.89 189.773 124.89 189.773 124.89L189.773 124.89L189.773 124.89L189.773 124.89L189.773 124.89L189.773 124.89L189.773 124.89L189.773 124.89C189.773 124.89 189.773 124.89 189.773 124.89C189.773 124.89 189.773 124.89 189.773 124.89C189.773 124.89 189.773 124.89 189.773 124.89C189.773 124.89 189.773 124.89 189.773 124.89C189.773 124.89 189.773 124.89 189.773 124.89C189.773 124.89 189.773 124.89 189.773 124.89C189.773 124.89 189.773 124.89 189.773 124.89C189.773 124.89 189.773 124.89 189.773 124.89C189.773 124.89 189.773 124.89 189.773 124.89C189.773 124.89 189.773 124.89 189.773 124.89C189.773 124.89 189.773 124.89 189.773 124.89C189.773 124.89 189.773 124.89 189.773 124.89C189.773 124.89 189.773 124.89 189.773 124.89C189.773 124.89 189.773 124.89 189.773 124.89C189.773 124.89 189.773 124.89 189.773 124.89C189.773 124.89 189.773 124.89 189.773 124.89L189.773 124.89L189.773 124.89L189.773 124.89L189.773 124.89L189.773 124.89L189.773 124.89L189.773 124.89L189.773 124.89L189.773 124.89C189.773 124.89 189.773 124.89 189.773 124.89C189.773 124.89 189.773 124.89 189.773 124.89C189.773 124.89 189.773 124.89 189.773 124.89C189.773 124.89 189.773 124.89 189.773 124.89C189.773 124.89 189.773 124.89 189.773 124.89C189.773 124.89 189.773 124.89 189.773 124.89C189.773 124.89 189.773 124.89 189.773 124.89C189.773 124.89 189.773 124.89 189.773 124.89C189.773 124.89 189.773 124.89 189.773 124.89C189.773 124.89 189.773 124.89 189.773 124.89C189.773 124.89 189.773 124.89 189.773 124.89C189.773 124.89 189.773 124.89 189.773 124.89C189.773 124.89 189.773 124.89 189.773 124.89C189.773 124.89 189.773 124.89 189.773 124.89C189.773 124.89 189.773 124.89 189.773 124.89C189.773 124.89 189.773 124.89 189.773 124.89C189.773 124.89 189.773 124.89 189.773 124.89L189.773 124.89L189.773 124.89L189.773 124.89L189.773 124.89L189.773 124.89L189.773 124.89L189.773 124.89L189.773 124.89L189.773 124.89C189.773 124.89 189.773 124.89 189.773 124.89C189.773 124.89 189.773 124.89 189.773 124.89C189.773 124.89 189.773 124.89 189.773 124.89C189.773 124.89 189.773 124.89 189.773 124.89C189.773 124.89 189.773 124.89 189.773 124.89C189.773 124.89 189.773 124.89 189.773 124.89C189.773 124.89 189.773 124.89 189.773 124.89C189.773 124.89 189.773 124.89 189.773 124.89C189.773 124.89 189.773 124.89 189.773 124.89C189.773 124.89 189.773 124.89 189.773 124.89C189.773 124.89 189.773 124.89 189.773 124.89C189.773 124.89 189.773 124.89 189.773 124.89C189.773 124.89 189.773 124.89 189.773 124.89C189.773 124.89 189.773 124.89 189.773 124.89C189.773 124.89 189.773 124.89 189.773 124.89C189.773 124.89 189.773 124.89 189.773 124.89C189.773 124.89 189.773 124.89 189.773 124.89C189.773 124.89 189.773 124.89 189.773 124.89C189.773 124.89 189.773 124.89 189.773 124.89L189.773 124.89L189.773 124.89L189.773 124.89L189.773 124.89L189.773 124.89L189.773 124.89L189.773 124.89L189.773 124.89L189.773 124.89L189.773 124.89L192.71 122.174ZM192.599 125.001L192.599 125L189.883 122.063L189.883 122.064L192.599 125.001ZM201.646 131.838L192.709 122.174L189.772 124.89L198.709 134.554L201.646 131.838Z" fill="#62D136" mask="url(#path-18-inside-1_1966_459)"/>
<circle cx="148.13" cy="109.701" r="12.4485" fill="#62D136"/>
<path d="M129.42 131.704C129.738 129.207 131.863 127.336 134.38 127.336H161.881C164.398 127.336 166.523 129.207 166.841 131.704L172.31 174.611C172.691 177.599 170.362 180.243 167.35 180.243H128.911C125.899 180.243 123.57 177.599 123.951 174.611L129.42 131.704Z" fill="#62D136"/>
<path d="M134.2 180.588C133.883 177.633 136.199 175.056 139.172 175.056H156.521C159.511 175.056 161.833 177.662 161.488 180.632L155.906 228.725C155.613 231.247 153.477 233.149 150.939 233.149H144.324C141.769 233.149 139.625 231.222 139.353 228.682L134.2 180.588Z" fill="#62D136"/>
</svg>
