<svg width="123" height="512" viewBox="0 0 123 512" fill="none" xmlns="http://www.w3.org/2000/svg">
<circle cx="50.6651" cy="12.4787" r="11.5907" fill="#F2994A"/>
<path d="M33.2053 33.2658C33.5235 30.769 35.6481 28.8979 38.1651 28.8979H63.1651C65.6821 28.8979 67.8067 30.769 68.1249 33.2658L73.1287 72.5264C73.5096 75.5146 71.1812 78.1585 68.1689 78.1585H33.1613C30.149 78.1585 27.8206 75.5146 28.2015 72.5264L33.2053 33.2658Z" fill="#F2994A"/>
<path d="M37.7354 78.8617C37.4187 75.9064 39.7347 73.3291 42.7069 73.3291H58.0907C61.0806 73.3291 63.4021 75.9356 63.0574 78.9056L57.9398 122.996C57.6471 125.517 55.5115 127.419 52.9731 127.419H47.4309C44.8756 127.419 42.7315 125.492 42.4593 122.952L37.7354 78.8617Z" fill="#F2994A"/>
<circle cx="21.6883" cy="17.3746" r="10.6248" fill="#F2994A"/>
<path d="M5.63715 36.7933C5.95537 34.2964 8.08001 32.4254 10.597 32.4254H32.7797C35.2968 32.4254 37.4214 34.2964 37.7396 36.7933L42.2202 71.9488C42.6011 74.937 40.2727 77.581 37.2604 77.581H6.11641C3.10408 77.581 0.775699 74.937 1.15654 71.9488L5.63715 36.7933Z" fill="#F2994A"/>
<path d="M9.88554 78.6866C9.5689 75.7313 11.8849 73.1539 14.8571 73.1539H28.0274C31.0173 73.1539 33.3388 75.7605 32.9941 78.7304L28.3997 118.313C28.107 120.834 25.9714 122.737 23.433 122.737H19.0981C16.5428 122.737 14.3987 120.81 14.1265 118.269L9.88554 78.6866Z" fill="#F2994A"/>
<circle cx="80.6079" cy="17.3746" r="10.6248" fill="#F2994A"/>
<path d="M64.5566 36.7933C64.8748 34.2964 66.9994 32.4254 69.5165 32.4254H91.6992C94.2162 32.4254 96.3408 34.2964 96.6591 36.7933L101.14 71.9488C101.521 74.937 99.1921 77.581 96.1798 77.581H65.0358C62.0235 77.581 59.6951 74.937 60.076 71.9488L64.5566 36.7933Z" fill="#F2994A"/>
<path d="M68.805 78.6866C68.4883 75.7313 70.8043 73.1539 73.7765 73.1539H86.9468C89.9367 73.1539 92.2582 75.7605 91.9135 78.7304L87.3191 118.313C87.0264 120.834 84.8908 122.737 82.3524 122.737H78.0175C75.4623 122.737 73.3182 120.81 73.046 118.269L68.805 78.6866Z" fill="#F2994A"/>
<circle cx="101.424" cy="75.1082" r="20.0065" fill="white" stroke="#F2994A" stroke-width="3"/>
<path fill-rule="evenodd" clip-rule="evenodd" d="M90.0022 86.5886C93.1646 89.751 98.2919 89.751 101.454 86.5886L107.18 80.8625L101.454 75.1365L95.7283 69.4104L90.0022 75.1365C86.8398 78.2989 86.8398 83.4262 90.0022 86.5886Z" fill="#F2994A"/>
<mask id="path-9-inside-1" fill="white">
<path fill-rule="evenodd" clip-rule="evenodd" d="M112.906 63.6852C109.744 60.5228 104.617 60.5228 101.454 63.6852L95.7282 69.4113L101.454 75.1373L107.18 80.8634L112.906 75.1373C116.069 71.9749 116.069 66.8476 112.906 63.6852Z"/>
</mask>
<path d="M101.454 63.6852L100.04 62.271L101.454 63.6852ZM95.7282 69.4113L94.314 67.9971L92.8997 69.4113L94.314 70.8255L95.7282 69.4113ZM101.454 75.1373L102.868 73.7231L101.454 75.1373ZM107.18 80.8634L105.766 82.2776L107.18 83.6918L108.595 82.2776L107.18 80.8634ZM112.906 75.1373L114.321 76.5516L112.906 75.1373ZM102.868 65.0994C105.25 62.7181 109.111 62.7181 111.492 65.0994L114.321 62.271C110.377 58.3275 103.983 58.3275 100.04 62.271L102.868 65.0994ZM97.1424 70.8255L102.868 65.0994L100.04 62.271L94.314 67.9971L97.1424 70.8255ZM102.868 73.7231L97.1424 67.9971L94.314 70.8255L100.04 76.5516L102.868 73.7231ZM108.595 79.4492L102.868 73.7231L100.04 76.5516L105.766 82.2776L108.595 79.4492ZM111.492 73.7231L105.766 79.4492L108.595 82.2776L114.321 76.5516L111.492 73.7231ZM111.492 65.0994C113.874 67.4808 113.874 71.3418 111.492 73.7231L114.321 76.5516C118.264 72.6081 118.264 66.2145 114.321 62.271L111.492 65.0994Z" fill="#F2994A" mask="url(#path-9-inside-1)"/>
<circle cx="50.7872" cy="205.317" r="11.4502" fill="#ED5939"/>
<path d="M33.5322 225.906C33.8504 223.409 35.9751 221.538 38.4921 221.538H63.0822C65.5992 221.538 67.7238 223.409 68.042 225.906L72.9697 264.569C73.3506 267.557 71.0222 270.201 68.0098 270.201H33.5644C30.5521 270.201 28.2237 267.557 28.6045 264.569L33.5322 225.906Z" fill="#ED5939"/>
<path d="M38.0213 270.963C37.7047 268.008 40.0207 265.43 42.9929 265.43H58.0547C61.0445 265.43 63.3661 268.037 63.0213 271.007L57.9799 314.441C57.6872 316.963 55.5516 318.865 53.0132 318.865H47.6466C45.0913 318.865 42.9472 316.938 42.675 314.397L38.0213 270.963Z" fill="#ED5939"/>
<circle cx="22.1617" cy="211.095" r="10.496" fill="#ED5939"/>
<path d="M6.29833 230.331C6.61656 227.835 8.74119 225.964 11.2582 225.964H33.0652C35.5822 225.964 37.7069 227.835 38.0251 230.331L42.4359 264.94C42.8168 267.928 40.4884 270.572 37.4761 270.572H6.84737C3.83504 270.572 1.50666 267.928 1.8875 264.94L6.29833 230.331Z" fill="#ED5939"/>
<path d="M10.5091 271.731C10.1925 268.776 12.5085 266.198 15.4807 266.198H28.3558C31.3457 266.198 33.6672 268.805 33.3225 271.775L28.7978 310.756C28.5052 313.278 26.3696 315.18 23.8312 315.18H19.6573C17.102 315.18 14.9579 313.253 14.6857 310.712L10.5091 271.731Z" fill="#ED5939"/>
<circle cx="80.3667" cy="211.095" r="10.496" fill="#ED5939"/>
<path d="M64.5034 230.331C64.8216 227.835 66.9463 225.964 69.4633 225.964H91.2703C93.7873 225.964 95.912 227.835 96.2302 230.331L100.641 264.94C101.022 267.928 98.6935 270.572 95.6811 270.572H65.0524C62.0401 270.572 59.7117 267.928 60.0926 264.94L64.5034 230.331Z" fill="#ED5939"/>
<path d="M68.7142 271.731C68.3976 268.776 70.7136 266.198 73.6858 266.198H86.5609C89.5508 266.198 91.8723 268.805 91.5275 271.775L87.0029 310.756C86.7102 313.278 84.5747 315.18 82.0363 315.18H77.8624C75.3071 315.18 73.163 313.253 72.8908 310.712L68.7142 271.731Z" fill="#ED5939"/>
<circle cx="100.931" cy="267.308" r="19.764" fill="white" stroke="#ED5939" stroke-width="3"/>
<path fill-rule="evenodd" clip-rule="evenodd" d="M89.6469 278.65C92.771 281.775 97.8362 281.775 100.96 278.65L106.617 272.994L100.96 267.337L95.3036 261.681L89.6469 267.337C86.5229 270.461 86.5229 275.526 89.6469 278.65Z" fill="#ED5939"/>
<mask id="path-19-inside-2" fill="white">
<path fill-rule="evenodd" clip-rule="evenodd" d="M112.274 256.024C109.15 252.9 104.084 252.9 100.96 256.024L95.3037 261.681L100.96 267.338L106.617 272.994L112.274 267.338C115.398 264.214 115.398 259.149 112.274 256.024Z"/>
</mask>
<path d="M100.96 256.024L102.375 257.439L100.96 256.024ZM95.3037 261.681L93.8895 260.267L92.4752 261.681L93.8895 263.095L95.3037 261.681ZM100.96 267.338L99.5461 268.752L100.96 267.338ZM106.617 272.994L105.203 274.409L106.617 275.823L108.031 274.409L106.617 272.994ZM102.375 257.439C104.718 255.096 108.516 255.096 110.859 257.439L113.688 254.61C109.783 250.705 103.451 250.705 99.5461 254.61L102.375 257.439ZM96.7179 263.095L102.375 257.439L99.5461 254.61L93.8895 260.267L96.7179 263.095ZM102.375 265.924L96.7179 260.267L93.8895 263.095L99.5461 268.752L102.375 265.924ZM108.031 271.58L102.375 265.924L99.5461 268.752L105.203 274.409L108.031 271.58ZM110.859 265.924L105.203 271.58L108.031 274.409L113.688 268.752L110.859 265.924ZM110.859 257.439C113.202 259.782 113.202 263.581 110.859 265.924L113.688 268.752C117.593 264.847 117.593 258.515 113.688 254.61L110.859 257.439Z" fill="#ED5939" mask="url(#path-19-inside-2)"/>
<circle cx="50.3813" cy="396.909" r="11.5252" fill="#FFA3FB"/>
<path d="M33.017 417.604C33.3352 415.107 35.4598 413.236 37.9768 413.236H62.7857C65.3027 413.236 67.4273 415.107 67.7456 417.604L72.7139 456.586C73.0947 459.574 70.7663 462.218 67.754 462.218H33.0085C29.9962 462.218 27.6678 459.574 28.0486 456.586L33.017 417.604Z" fill="#FFA3FB"/>
<path d="M37.528 462.949C37.2113 459.993 39.5273 457.416 42.4995 457.416H57.7332C60.7231 457.416 63.0446 460.022 62.6999 462.992L57.6178 506.777C57.3251 509.298 55.1895 511.2 52.6511 511.2H47.1907C44.6354 511.2 42.4914 509.274 42.2191 506.733L37.528 462.949Z" fill="#FFA3FB"/>
<circle cx="21.5682" cy="401.777" r="10.5648" fill="#FFA3FB"/>
<path d="M5.60463 421.11C5.92285 418.614 8.04749 416.743 10.5645 416.743H32.5721C35.0891 416.743 37.2138 418.614 37.532 421.11L41.9801 456.011C42.3609 458.999 40.0325 461.643 37.0202 461.643H6.11642C3.10409 461.643 0.775699 458.999 1.15654 456.011L5.60463 421.11Z" fill="#FFA3FB"/>
<path d="M9.8355 462.774C9.51886 459.818 11.8348 457.241 14.807 457.241H27.8398C30.8296 457.241 33.1511 459.847 32.8064 462.817L28.2445 502.12C27.9519 504.641 25.8163 506.543 23.2779 506.543H19.018C16.4628 506.543 14.3187 504.617 14.0465 502.076L9.8355 462.774Z" fill="#FFA3FB"/>
<circle cx="80.1549" cy="401.777" r="10.5648" fill="#FFA3FB"/>
<path d="M64.1912 421.11C64.5094 418.614 66.634 416.743 69.1511 416.743H91.1586C93.6757 416.743 95.8003 418.614 96.1185 421.11L100.567 456.011C100.947 458.999 98.6191 461.643 95.6067 461.643H64.703C61.6906 461.643 59.3622 458.999 59.7431 456.011L64.1912 421.11Z" fill="#FFA3FB"/>
<path d="M68.422 462.774C68.1054 459.818 70.4214 457.241 73.3936 457.241H86.4263C89.4162 457.241 91.7377 459.847 91.393 462.817L86.8311 502.12C86.5384 504.641 84.4028 506.543 81.8644 506.543H77.6046C75.0493 506.543 72.9052 504.617 72.633 502.076L68.422 462.774Z" fill="#FFA3FB"/>
<circle cx="100.853" cy="458.846" r="19.8935" fill="white" stroke="#FFA3FB" stroke-width="3"/>
<path fill-rule="evenodd" clip-rule="evenodd" d="M89.4959 470.262C92.6404 473.407 97.7387 473.407 100.883 470.262L106.577 464.568L100.883 458.875L95.1896 453.181L89.4959 458.875C86.3513 462.019 86.3513 467.117 89.4959 470.262Z" fill="#FFA3FB"/>
<mask id="path-29-inside-3" fill="white">
<path fill-rule="evenodd" clip-rule="evenodd" d="M112.271 447.488C109.126 444.343 104.028 444.343 100.883 447.488L95.1895 453.182L100.883 458.875L106.577 464.569L112.271 458.875C115.415 455.731 115.415 450.632 112.271 447.488Z"/>
</mask>
<path d="M100.883 447.488L102.297 448.902L100.883 447.488ZM95.1895 453.182L93.7753 451.767L92.3611 453.182L93.7753 454.596L95.1895 453.182ZM100.883 458.875L102.297 457.461L100.883 458.875ZM106.577 464.569L105.163 465.983L106.577 467.397L107.991 465.983L106.577 464.569ZM112.271 458.875L113.685 460.289L112.271 458.875ZM102.297 448.902C104.661 446.539 108.493 446.539 110.856 448.902L113.685 446.074C109.759 442.148 103.395 442.148 99.469 446.074L102.297 448.902ZM96.6037 454.596L102.297 448.902L99.469 446.074L93.7753 451.767L96.6037 454.596ZM102.297 457.461L96.6037 451.767L93.7753 454.596L99.469 460.289L102.297 457.461ZM107.991 463.155L102.297 457.461L99.469 460.289L105.163 465.983L107.991 463.155ZM110.856 457.461L105.163 463.155L107.991 465.983L113.685 460.289L110.856 457.461ZM110.856 448.902C113.22 451.266 113.22 455.098 110.856 457.461L113.685 460.289C117.61 456.364 117.61 449.999 113.685 446.074L110.856 448.902Z" fill="#FFA3FB" mask="url(#path-29-inside-3)"/>
</svg>
