<svg width="339" height="103" viewBox="0 0 339 103" fill="none" xmlns="http://www.w3.org/2000/svg">
<path d="M337 0L337 27.7772L1.99998 27.7772L1.99998 -1.46433e-05" stroke="#ED5939" stroke-width="4"/>
<path d="M168.586 102.414C169.367 103.195 170.633 103.195 171.414 102.414L184.142 89.6863C184.923 88.9052 184.923 87.6389 184.142 86.8579C183.361 86.0768 182.095 86.0768 181.314 86.8579L170 98.1716L158.686 86.8579C157.905 86.0768 156.639 86.0768 155.858 86.8579C155.077 87.6389 155.077 88.9052 155.858 89.6863L168.586 102.414ZM168 28L168 101L172 101L172 28L168 28Z" fill="#ED5939"/>
</svg>
