<svg width="298" height="127" viewBox="0 0 298 127" fill="none" xmlns="http://www.w3.org/2000/svg">
<circle cx="23.2263" cy="11.5907" r="11.5907" fill="#F2994A"/>
<path d="M5.76654 32.3778C6.08477 29.881 8.2094 28.0099 10.7264 28.0099H35.7263C38.2434 28.0099 40.368 29.881 40.6862 32.3778L45.69 71.6384C46.0709 74.6266 43.7425 77.2705 40.7301 77.2705H5.72262C2.71029 77.2705 0.3819 74.6266 0.762744 71.6384L5.76654 32.3778Z" fill="#F2994A"/>
<path d="M10.2966 77.9737C9.98001 75.0184 12.296 72.4411 15.2682 72.4411H30.652C33.6419 72.4411 35.9634 75.0476 35.6187 78.0176L30.5011 122.108C30.2084 124.629 28.0728 126.531 25.5344 126.531H19.9921C17.4369 126.531 15.2928 124.604 15.0206 122.064L10.2966 77.9737Z" fill="#F2994A"/>
<circle cx="42.0065" cy="74.2203" r="20.0065" fill="white" stroke="#F2994A" stroke-width="3"/>
<path fill-rule="evenodd" clip-rule="evenodd" d="M30.5849 85.7006C33.7473 88.8631 38.8746 88.8631 42.037 85.7006L47.763 79.9746L42.037 74.2485L36.3109 68.5225L30.5849 74.2485C27.4224 77.4109 27.4224 82.5382 30.5849 85.7006Z" fill="#F2994A"/>
<mask id="path-5-inside-1" fill="white">
<path fill-rule="evenodd" clip-rule="evenodd" d="M53.489 62.7973C50.3266 59.6349 45.1993 59.6349 42.0369 62.7973L36.3108 68.5234L42.0369 74.2495L47.7629 79.9755L53.489 74.2495C56.6514 71.087 56.6514 65.9598 53.489 62.7973Z"/>
</mask>
<path d="M36.3108 68.5234L34.8966 67.1092L33.4824 68.5234L34.8966 69.9376L36.3108 68.5234ZM42.0369 74.2495L43.4511 72.8352L42.0369 74.2495ZM47.7629 79.9755L46.3487 81.3897L47.7629 82.804L49.1772 81.3897L47.7629 79.9755ZM43.4511 64.2116C45.8325 61.8302 49.6934 61.8302 52.0748 64.2116L54.9032 61.3831C50.9598 57.4397 44.5661 57.4397 40.6227 61.3831L43.4511 64.2116ZM37.725 69.9376L43.4511 64.2116L40.6227 61.3831L34.8966 67.1092L37.725 69.9376ZM43.4511 72.8352L37.725 67.1092L34.8966 69.9376L40.6227 75.6637L43.4511 72.8352ZM49.1772 78.5613L43.4511 72.8352L40.6227 75.6637L46.3487 81.3897L49.1772 78.5613ZM52.0748 72.8353L46.3487 78.5613L49.1772 81.3897L54.9032 75.6637L52.0748 72.8353ZM52.0748 64.2116C54.4562 66.5929 54.4562 70.4539 52.0748 72.8353L54.9032 75.6637C58.8467 71.7202 58.8467 65.3266 54.9032 61.3831L52.0748 64.2116Z" fill="#F2994A" mask="url(#path-5-inside-1)"/>
<circle cx="140.181" cy="11.5907" r="11.5907" fill="#ED5939"/>
<path d="M122.722 32.3778C123.04 29.881 125.164 28.0099 127.682 28.0099H152.681C155.198 28.0099 157.323 29.881 157.641 32.3778L162.645 71.6384C163.026 74.6266 160.698 77.2705 157.685 77.2705H122.678C119.665 77.2705 117.337 74.6266 117.718 71.6384L122.722 32.3778Z" fill="#ED5939"/>
<path d="M127.252 77.9737C126.935 75.0184 129.251 72.4411 132.223 72.4411H147.607C150.597 72.4411 152.918 75.0476 152.574 78.0176L147.456 122.108C147.163 124.629 145.028 126.531 142.49 126.531H136.947C134.392 126.531 132.248 124.604 131.976 122.064L127.252 77.9737Z" fill="#ED5939"/>
<circle cx="158.962" cy="74.2203" r="20.0065" fill="white" stroke="#ED5939" stroke-width="3"/>
<path fill-rule="evenodd" clip-rule="evenodd" d="M147.54 85.7006C150.702 88.8631 155.83 88.8631 158.992 85.7006L164.718 79.9746L158.992 74.2485L153.266 68.5225L147.54 74.2485C144.378 77.4109 144.378 82.5382 147.54 85.7006Z" fill="#ED5939"/>
<mask id="path-11-inside-2" fill="white">
<path fill-rule="evenodd" clip-rule="evenodd" d="M170.444 62.7973C167.282 59.6349 162.154 59.6349 158.992 62.7973L153.266 68.5234L158.992 74.2495L164.718 79.9755L170.444 74.2495C173.606 71.087 173.606 65.9598 170.444 62.7973Z"/>
</mask>
<path d="M158.992 62.7973L160.406 64.2116L158.992 62.7973ZM153.266 68.5234L151.852 67.1092L150.437 68.5234L151.852 69.9376L153.266 68.5234ZM158.992 74.2495L157.578 75.6637L158.992 74.2495ZM164.718 79.9755L163.304 81.3897L164.718 82.804L166.132 81.3897L164.718 79.9755ZM160.406 64.2116C162.788 61.8302 166.648 61.8302 169.03 64.2116L171.858 61.3831C167.915 57.4397 161.521 57.4397 157.578 61.3831L160.406 64.2116ZM154.68 69.9376L160.406 64.2116L157.578 61.3831L151.852 67.1092L154.68 69.9376ZM160.406 72.8352L154.68 67.1092L151.852 69.9376L157.578 75.6637L160.406 72.8352ZM166.132 78.5613L160.406 72.8352L157.578 75.6637L163.304 81.3897L166.132 78.5613ZM169.03 72.8353L163.304 78.5613L166.132 81.3897L171.858 75.6637L169.03 72.8353ZM169.03 64.2116C171.411 66.5929 171.411 70.4539 169.03 72.8353L171.858 75.6637C175.802 71.7202 175.802 65.3266 171.858 61.3831L169.03 64.2116Z" fill="#ED5939" mask="url(#path-11-inside-2)"/>
<circle cx="257.181" cy="11.5907" r="11.5907" fill="#FFA3FB"/>
<path d="M239.722 32.3778C240.04 29.881 242.164 28.0099 244.682 28.0099H269.681C272.198 28.0099 274.323 29.881 274.641 32.3778L279.645 71.6384C280.026 74.6266 277.698 77.2705 274.685 77.2705H239.678C236.665 77.2705 234.337 74.6266 234.718 71.6384L239.722 32.3778Z" fill="#FFA3FB"/>
<path d="M244.252 77.9737C243.935 75.0184 246.251 72.4411 249.223 72.4411H264.607C267.597 72.4411 269.918 75.0476 269.574 78.0176L264.456 122.108C264.163 124.629 262.028 126.531 259.49 126.531H253.947C251.392 126.531 249.248 124.604 248.976 122.064L244.252 77.9737Z" fill="#FFA3FB"/>
<circle cx="275.962" cy="74.2203" r="20.0065" fill="white" stroke="#FFA3FB" stroke-width="3"/>
<path fill-rule="evenodd" clip-rule="evenodd" d="M264.54 85.7006C267.702 88.8631 272.83 88.8631 275.992 85.7006L281.718 79.9746L275.992 74.2485L270.266 68.5225L264.54 74.2485C261.378 77.4109 261.378 82.5382 264.54 85.7006Z" fill="#FFA3FB"/>
<mask id="path-17-inside-3" fill="white">
<path fill-rule="evenodd" clip-rule="evenodd" d="M287.444 62.7973C284.282 59.6349 279.154 59.6349 275.992 62.7973L270.266 68.5234L275.992 74.2495L281.718 79.9755L287.444 74.2495C290.606 71.087 290.606 65.9598 287.444 62.7973Z"/>
</mask>
<path d="M275.992 62.7973L274.578 61.3831L275.992 62.7973ZM270.266 68.5234L268.852 67.1092L267.437 68.5234L268.852 69.9376L270.266 68.5234ZM275.992 74.2495L274.578 75.6637L275.992 74.2495ZM281.718 79.9755L280.304 81.3897L281.718 82.804L283.132 81.3897L281.718 79.9755ZM277.406 64.2116C279.788 61.8302 283.648 61.8302 286.03 64.2116L288.858 61.3831C284.915 57.4397 278.521 57.4397 274.578 61.3831L277.406 64.2116ZM271.68 69.9376L277.406 64.2116L274.578 61.3831L268.852 67.1092L271.68 69.9376ZM277.406 72.8352L271.68 67.1092L268.852 69.9376L274.578 75.6637L277.406 72.8352ZM283.132 78.5613L277.406 72.8352L274.578 75.6637L280.304 81.3897L283.132 78.5613ZM286.03 72.8353L280.304 78.5613L283.132 81.3897L288.858 75.6637L286.03 72.8353ZM286.03 64.2116C288.411 66.5929 288.411 70.4539 286.03 72.8353L288.858 75.6637C292.802 71.7202 292.802 65.3266 288.858 61.3831L286.03 64.2116Z" fill="#FFA3FB" mask="url(#path-17-inside-3)"/>
</svg>
