<svg width="607" height="615" viewBox="0 0 607 615" fill="none" xmlns="http://www.w3.org/2000/svg">
<path d="M0.00930306 320.831C0.450892 330.282 3.98629 334.786 5.27273 343.993C6.01601 349.304 4.23434 359.406 5.2488 364.626C6.54885 371.32 8.06893 377.937 9.80105 384.468C13.6556 398.998 13.8036 408.341 19.6735 421.93C21.3816 425.884 27.9292 434.554 29.7988 438.42C32.2686 443.525 34.932 453.758 37.6745 458.701C43.7316 469.617 50.388 474.915 57.6987 484.955C61.8294 490.628 65.9712 492.503 70.4762 497.869C75.2341 503.537 80.3776 512.677 85.5314 517.982C90.0197 522.601 92.9054 528.713 97.6777 533.041C102.728 537.62 109.682 540.399 115.032 544.635C121.513 549.764 123.186 556.821 130.079 561.418C135.631 565.121 146.331 566.462 152.133 569.802C159.301 573.929 162.96 580.256 170.482 583.8C176.861 586.806 187.055 587.112 193.668 589.678C199.254 591.846 204.343 589.952 210.084 591.794C216.912 593.984 224.422 599.84 231.45 601.552C243.028 604.372 253.633 601.933 265.687 603.384C277.74 604.836 291.242 610.179 303.689 610.179C310.397 610.179 315.489 615.403 322.09 614.975C329.926 614.467 338.027 611.268 345.691 610.179C351.002 609.424 357.672 609.207 362.892 608.181C368.547 607.069 373.965 602.078 379.503 600.658C383.76 599.566 387.98 598.384 392.163 597.116C395.227 596.186 397.472 590.018 400.494 588.996C413.037 584.751 426.011 584.9 437.759 579.123C440.963 577.548 440.557 573.894 443.696 572.209C446.956 570.46 453.758 570.679 456.945 568.816C460.402 566.796 460.329 562.769 463.697 560.619C468.554 557.517 476.804 556.223 481.467 552.859C486 549.588 490.438 546.197 494.778 542.688C500.743 537.865 506.522 532.823 512.102 527.57C520.068 520.074 527.628 512.153 534.747 503.843C538.58 499.369 545.331 496.166 548.902 491.473C553.059 486.009 553.99 479.016 557.777 473.271C561.722 467.286 567.38 462.971 570.903 456.701C576.396 446.923 579.443 434.99 583.846 424.581C586.349 418.665 585.573 414.04 587.704 407.94C589.358 403.205 593.994 397.03 595.416 392.192C597.649 384.598 602.062 378.598 603.705 370.77C605.825 360.664 604.973 348.656 606.06 338.209C607.147 327.762 603.705 321.153 603.705 310.418C603.705 303.178 607.452 292.002 606.955 284.889C606.119 272.975 600.276 263.56 598.104 252.065C596.756 244.93 599.481 235.573 597.643 228.624C596.42 224 599.137 219.031 597.704 214.495C595.967 208.995 590.03 203.951 587.993 198.591C585.721 192.614 587.536 185.112 584.904 179.323C581.016 170.772 572.473 164.049 567.838 155.944C565.86 152.484 562.078 153.119 559.969 149.746C557.976 146.56 557.664 139.361 555.557 136.255C552.173 131.263 544.436 128.94 540.768 124.167C535.088 116.775 533.283 107.091 526.961 100.259C522.962 95.9382 521.007 89.3467 516.767 85.2643C511.965 80.6424 504.846 78.5633 499.749 74.262C495.641 70.7952 495.988 65.0654 491.698 61.8168C485.864 57.3995 475.317 55.557 469.165 51.561C463.213 47.6953 456.058 47.9487 449.829 44.4979C444.355 41.4659 439.838 34.681 434.165 31.9839C427.707 28.9136 423.726 23.4028 417.027 20.7833C409.445 17.8185 399.114 17.8121 391.25 15.4532C379.777 12.0104 369.824 6.61064 357.824 4.52995C340.823 1.58268 321.531 -2.49565e-05 303.687 -2.65165e-05C282.7 -2.83512e-05 262.208 4.7897 242.417 8.83609C236.746 9.99594 225.501 10.5195 219.949 11.9903C208.28 15.0807 202.518 19.641 191.444 24.0391C186.938 25.828 173.676 29.9791 169.28 31.9743C156.422 37.8096 152.851 42.2564 141.025 49.7544C136.801 52.4331 131.491 52.8112 127.411 55.6889C123.767 58.258 121.338 63.3051 117.816 66.0285C112.575 70.0797 105.437 81.421 100.476 85.7982C85.7379 98.8054 74.3037 106.097 62.3207 121.706C51.5801 135.696 37.4793 149.975 29.2725 165.734C23.4298 176.951 22.8201 189.25 18.3919 201.233C15.0293 210.335 15.7622 220.194 13.2716 229.683C11.2803 237.266 5.90317 244.414 4.49594 252.217C1.32535 269.805 3.67111 287.92 3.67111 306.421C3.6727 311.252 -0.213902 316.057 0.00930306 320.831ZM547.703 367.453C548.609 367.453 549.345 368.172 549.345 369.06C549.345 369.948 548.61 370.666 547.703 370.666C546.795 370.666 546.06 369.948 546.06 369.06C546.06 368.172 546.796 367.453 547.703 367.453ZM524.768 393.566C526.829 393.566 528.502 395.236 528.502 397.296C528.502 399.356 526.829 401.026 524.768 401.026C522.706 401.026 521.034 399.356 521.034 397.296C521.034 395.236 522.706 393.566 524.768 393.566ZM521.035 409.012C521.941 409.012 522.677 409.73 522.677 410.618C522.677 411.506 521.942 412.225 521.035 412.225C520.127 412.225 519.392 411.506 519.392 410.618C519.392 409.73 520.128 409.012 521.035 409.012ZM468.807 130.835C469.714 130.835 470.45 131.554 470.45 132.442C470.45 133.33 469.714 134.048 468.807 134.048C467.9 134.048 467.165 133.33 467.165 132.442C467.165 131.554 467.9 130.835 468.807 130.835ZM463.431 335.745C465.493 335.745 467.165 337.415 467.165 339.475C467.165 341.535 465.493 343.204 463.431 343.204C461.369 343.204 459.697 341.535 459.697 339.475C459.697 337.415 461.369 335.745 463.431 335.745ZM455.861 355.944C457.923 355.944 459.594 357.614 459.594 359.674C459.594 361.734 457.923 363.403 455.861 363.403C453.799 363.403 452.128 361.734 452.128 359.674C452.128 357.614 453.799 355.944 455.861 355.944ZM447.964 330.409C448.87 330.409 449.606 331.128 449.606 332.016C449.606 332.904 448.871 333.623 447.964 333.623C447.056 333.623 446.321 332.904 446.321 332.016C446.321 331.128 447.057 330.409 447.964 330.409ZM420.229 395.173C419.322 395.173 418.586 394.454 418.586 393.566C418.586 392.678 419.321 391.96 420.229 391.96C421.136 391.96 421.871 392.678 421.871 393.566C421.871 394.454 421.135 395.173 420.229 395.173ZM431.963 164.964C432.869 164.964 433.605 165.682 433.605 166.57C433.605 167.458 432.87 168.177 431.963 168.177C431.056 168.177 430.32 167.458 430.32 166.57C430.32 165.682 431.056 164.964 431.963 164.964ZM420.229 154.291C422.29 154.291 423.962 155.96 423.962 158.02C423.962 160.08 422.291 161.75 420.229 161.75C418.166 161.75 416.495 160.08 416.495 158.02C416.495 155.96 418.167 154.291 420.229 154.291ZM389.827 44.5115C391.889 44.5115 393.561 46.1813 393.561 48.2413C393.561 50.3012 391.889 51.9711 389.827 51.9711C387.764 51.9711 386.093 50.3012 386.093 48.2413C386.093 46.1813 387.765 44.5115 389.827 44.5115ZM378.626 56.2276C379.533 56.2276 380.269 56.9463 380.269 57.8343C380.269 58.7225 379.534 59.4411 378.626 59.4411C377.719 59.4411 376.984 58.7225 376.984 57.8343C376.984 56.9463 377.72 56.2276 378.626 56.2276ZM329.652 377.837C330.558 377.837 331.294 378.555 331.294 379.443C331.294 380.331 330.559 381.05 329.652 381.05C328.744 381.05 328.009 380.331 328.009 379.443C328.009 378.555 328.744 377.837 329.652 377.837ZM259.154 187.848C260.06 187.848 260.796 188.566 260.796 189.454C260.796 190.342 260.06 191.061 259.154 191.061C258.247 191.061 257.511 190.342 257.511 189.454C257.511 188.566 258.248 187.848 259.154 187.848ZM250.086 203.318C252.148 203.318 253.819 204.987 253.819 207.047C253.819 209.107 252.148 210.777 250.086 210.777C248.024 210.777 246.353 209.107 246.353 207.047C246.353 204.987 248.024 203.318 250.086 203.318ZM250.086 435.398C250.086 436.285 249.35 437.004 248.443 437.004C247.537 437.004 246.801 436.286 246.801 435.398C246.801 434.51 247.537 433.791 248.443 433.791C249.35 433.791 250.086 434.51 250.086 435.398ZM250.086 447.389C252.148 447.389 253.82 449.059 253.82 451.119C253.82 453.179 252.148 454.848 250.086 454.848C248.024 454.848 246.352 453.179 246.352 451.119C246.352 449.059 248.024 447.389 250.086 447.389ZM176.483 311.498C177.389 311.498 178.125 312.217 178.125 313.105C178.125 313.993 177.389 314.711 176.483 314.711C175.576 314.711 174.84 313.993 174.84 313.105C174.84 312.217 175.577 311.498 176.483 311.498ZM151.948 370.666C151.041 370.666 150.305 369.947 150.305 369.059C150.305 368.171 151.041 367.452 151.948 367.452C152.854 367.452 153.59 368.171 153.59 369.059C153.59 369.947 152.854 370.666 151.948 370.666ZM163.148 318.959C165.21 318.959 166.882 320.629 166.882 322.689C166.882 324.749 165.21 326.419 163.148 326.419C161.087 326.419 159.415 324.749 159.415 322.689C159.415 320.629 161.087 318.959 163.148 318.959ZM151.948 332.015C154.01 332.015 155.681 333.685 155.681 335.745C155.681 337.805 154.01 339.475 151.948 339.475C149.886 339.475 148.215 337.805 148.215 335.745C148.215 333.685 149.886 332.015 151.948 332.015ZM137.014 139.354C137.921 139.354 138.657 140.073 138.657 140.961C138.657 141.849 137.921 142.568 137.014 142.568C136.108 142.568 135.372 141.849 135.372 140.961C135.372 140.073 136.109 139.354 137.014 139.354ZM126.88 142.567C128.942 142.567 130.614 144.237 130.614 146.297C130.614 148.357 128.942 150.027 126.88 150.027C124.818 150.027 123.146 148.357 123.146 146.297C123.146 144.237 124.818 142.567 126.88 142.567ZM116.213 148.421C117.12 148.421 117.856 149.139 117.856 150.028C117.856 150.916 117.12 151.634 116.213 151.634C115.307 151.634 114.571 150.916 114.571 150.028C114.571 149.139 115.307 148.421 116.213 148.421ZM67.0649 261.917C69.1266 261.917 70.7987 263.587 70.7987 265.647C70.7987 267.707 69.1266 269.376 67.0649 269.376C65.0031 269.376 63.3311 267.707 63.3311 265.647C63.3311 263.587 65.0031 261.917 67.0649 261.917Z" fill="url(#paint0_radial)"/>
<defs>
<radialGradient id="paint0_radial" cx="0" cy="0" r="1" gradientUnits="userSpaceOnUse" gradientTransform="translate(303.5 615) rotate(-90) scale(790 790.676)">
<stop stop-color="#F2994A"/>
<stop offset="1" stop-color="#F2994A"/>
</radialGradient>
</defs>
</svg>

