<svg width="137" height="134" viewBox="0 0 137 134" fill="none" xmlns="http://www.w3.org/2000/svg">
<circle cx="36.3426" cy="17.2283" r="10.496" fill="#F2994A"/>
<path d="M20.4792 36.4645C20.7975 33.9677 22.9221 32.0967 25.4391 32.0967H47.2461C49.7632 32.0967 51.8878 33.9677 52.206 36.4645L56.6168 71.0726C56.9977 74.0608 54.6693 76.7048 51.657 76.7048H21.0283C18.0159 76.7048 15.6876 74.0608 16.0684 71.0726L20.4792 36.4645Z" fill="#F2994A"/>
<path d="M24.6901 77.8641C24.3734 74.9088 26.6894 72.3314 29.6616 72.3314H42.5367C45.5266 72.3314 47.8481 74.938 47.5034 77.9079L42.9787 116.889C42.6861 119.411 40.5505 121.313 38.0121 121.313H33.8382C31.2829 121.313 29.1389 119.386 28.8666 116.846L24.6901 77.8641Z" fill="#F2994A"/>
<circle cx="94.5479" cy="17.2283" r="10.496" fill="#FFA3FB"/>
<path d="M78.6846 36.4645C79.0028 33.9677 81.1274 32.0967 83.6444 32.0967H105.451C107.968 32.0967 110.093 33.9677 110.411 36.4645L114.822 71.0726C115.203 74.0608 112.875 76.7048 109.862 76.7048H79.2336C76.2213 76.7048 73.8929 74.0608 74.2737 71.0726L78.6846 36.4645Z" fill="#FFA3FB"/>
<path d="M82.8954 77.8641C82.5787 74.9088 84.8947 72.3314 87.8669 72.3314H100.742C103.732 72.3314 106.053 74.938 105.709 77.9079L101.184 116.889C100.891 119.411 98.7558 121.313 96.2174 121.313H92.0435C89.4883 121.313 87.3442 119.386 87.072 116.846L82.8954 77.8641Z" fill="#FFA3FB"/>
<circle cx="64.9681" cy="11.4502" r="11.4502" fill="#ED5939"/>
<path d="M47.7133 32.0388C48.0315 29.5419 50.1561 27.6709 52.6731 27.6709H77.2632C79.7802 27.6709 81.9048 29.5419 82.2231 32.0388L87.1507 70.7021C87.5316 73.6903 85.2032 76.3343 82.1909 76.3343H47.7455C44.7331 76.3343 42.4047 73.6903 42.7856 70.7021L47.7133 32.0388Z" fill="#ED5939"/>
<path d="M52.2024 77.096C51.8857 74.1407 54.2017 71.5633 57.1739 71.5633H72.2357C75.2256 71.5633 77.5471 74.1699 77.2024 77.1398L72.1609 120.574C71.8682 123.096 69.7326 124.998 67.1942 124.998H61.8276C59.2724 124.998 57.1283 123.071 56.856 120.53L52.2024 77.096Z" fill="#ED5939"/>
<line x1="2" y1="3.65454" x2="2.00001" y2="133.151" stroke="#62D136" stroke-width="4"/>
<line x1="0.780518" y1="131.152" x2="136.693" y2="131.152" stroke="#62D136" stroke-width="4"/>
<path d="M24.2054 109.76L69.1408 56.7231L86.8704 75.3165L125.081 30.8142" stroke="#62D136" stroke-width="10"/>
</svg>
